<?xml version="1.0" encoding="UTF-8"?>
<svg version="1.1" xmlns="http://www.w3.org/2000/svg" width="512" height="512">
<path d="M0 0 C0.77850311 0.32816208 1.55700623 0.65632416 2.35910034 0.99443054 C4.92728003 2.07996461 7.48672906 3.18473162 10.046875 4.2890625 C11.86892021 5.06213794 13.69168976 5.83350817 15.51513672 6.60327148 C18.36962764 7.80850202 21.22363477 9.01476061 24.07553101 10.22612 C33.40623023 14.18822472 42.78356923 18.0320458 52.17156982 21.85598755 C55.85051206 23.35492321 59.52772538 24.85807586 63.20498657 26.36112976 C65.93858785 27.47843324 68.67239118 28.59524093 71.40625 29.71191406 C113.58447188 46.94154253 113.58447188 46.94154253 131.109375 54.2890625 C132.1833252 54.73564209 133.25727539 55.18222168 134.36376953 55.64233398 C135.80985596 56.25250366 135.80985596 56.25250366 137.28515625 56.875 C138.11571533 57.22353027 138.94627441 57.57206055 139.80200195 57.93115234 C141.796875 58.9140625 141.796875 58.9140625 143.796875 60.9140625 C144.234375 64.2890625 144.234375 64.2890625 143.796875 67.9140625 C140.04180453 71.61786614 135.78212661 73.43009795 130.9765625 75.3671875 C129.86584885 75.82481476 129.86584885 75.82481476 128.73269653 76.29168701 C127.1761291 76.93086286 125.61789429 77.56599169 124.05810547 78.19726562 C121.66847773 79.16543893 119.28519318 80.14809102 116.90234375 81.1328125 C115.38576937 81.75346671 113.86885371 82.37328777 112.3515625 82.9921875 C111.28275345 83.43271454 111.28275345 83.43271454 110.19235229 83.88214111 C107.23785803 85.07124813 105.01331903 85.9140625 101.796875 85.9140625 C101.82685326 87.30015465 101.82685326 87.30015465 101.85743713 88.71424866 C102.03804785 97.43847344 102.17493121 106.16206732 102.26318455 114.88773441 C102.31008433 119.37347962 102.37365053 123.85767573 102.47583008 128.3425293 C102.57389168 132.6739304 102.62748688 137.00384556 102.65077019 141.33627129 C102.6673531 142.98583813 102.69973964 144.63532687 102.74844551 146.28425789 C103.11398663 159.1767517 103.11398663 159.1767517 99.87866211 163.44424438 C97.58647594 165.26805824 95.41762806 166.61816041 92.796875 167.9140625 C92.05928452 168.33105911 91.32169403 168.74805573 90.56175232 169.1776886 C88.6316414 170.26037394 86.67321995 171.2204028 84.671875 172.1640625 C84.00800781 172.48890625 83.34414063 172.81375 82.66015625 173.1484375 C78.4174448 175.20752251 74.14163988 177.05202041 69.796875 178.9140625 C69.466875 190.7940625 69.136875 202.6740625 68.796875 214.9140625 C71.766875 215.9040625 71.766875 215.9040625 74.796875 216.9140625 C77.484375 219.2890625 77.484375 219.2890625 79.796875 221.9140625 C80.35375 222.5121875 80.910625 223.1103125 81.484375 223.7265625 C84.86865102 229.36702254 85.10571763 235.91862533 85.09765625 242.32421875 C85.10194138 243.09535507 85.1062265 243.86649139 85.11064148 244.66099548 C85.11634324 246.27862574 85.116916 247.89628161 85.11254883 249.51391602 C85.10937841 251.97391677 85.13293486 254.43272458 85.15820312 256.89257812 C85.1604757 258.47395683 85.16117981 260.05533874 85.16015625 261.63671875 C85.169366 262.36294937 85.17857574 263.08917999 85.18806458 263.8374176 C85.13529291 269.72049866 84.11181651 274.41287605 80.03076172 278.82226562 C75.40471012 281.08321675 70.056384 280.43173806 65.00732422 280.41503906 C62.93445125 280.41406839 60.86530585 280.45566667 58.79296875 280.5 C47.62567476 280.52187521 47.62567476 280.52187521 43.9140625 277.5703125 C40.30799096 273.0460899 40.60804056 268.76578876 40.55859375 263.22265625 C40.550522 262.36277603 40.54245026 261.50289581 40.53413391 260.61695862 C40.52030135 258.79373178 40.50957549 256.97047914 40.50170898 255.1472168 C40.49023022 253.29590182 40.46984399 251.44461885 40.44018555 249.59350586 C40.07908948 227.05021768 40.07908948 227.05021768 46.8671875 219.66015625 C47.54523438 219.22832031 48.22328125 218.79648437 48.921875 218.3515625 C49.60507812 217.89652344 50.28828125 217.44148437 50.9921875 216.97265625 C52.23596814 216.2430793 53.50713928 215.55893036 54.796875 214.9140625 C54.796875 204.6840625 54.796875 194.4540625 54.796875 183.9140625 C49.723125 185.30625 49.723125 185.30625 44.546875 186.7265625 C33.70672608 189.60817991 22.93273259 191.62123167 11.796875 192.9140625 C10.68828125 193.04554688 9.5796875 193.17703125 8.4375 193.3125 C-33.46442543 197.32900581 -80.58492626 189.40735307 -117.203125 167.9140625 C-118.32739647 167.35662857 -118.32739647 167.35662857 -119.47438049 166.78793335 C-122.33709529 165.07188179 -124.16622464 163.57781092 -126.203125 160.9140625 C-127.48093713 155.21376546 -127.25370012 149.63604607 -127.08203125 143.82421875 C-127.06522806 142.15273984 -127.05242495 140.48121635 -127.04344177 138.80967712 C-127.00920956 134.4272752 -126.92092697 130.04759293 -126.82110596 125.66625977 C-126.72874613 121.18868806 -126.68787216 116.71067323 -126.64257812 112.23242188 C-126.54628898 103.45839248 -126.3928558 94.68656653 -126.203125 85.9140625 C-126.95302704 85.77692841 -127.70292908 85.63979431 -128.47555542 85.49850464 C-132.16365337 84.70824804 -135.54800691 83.29008594 -139.0234375 81.859375 C-139.76391327 81.55716034 -140.50438904 81.25494568 -141.26730347 80.943573 C-142.82645661 80.30537042 -144.38463758 79.66478822 -145.94189453 79.02197266 C-148.32361927 78.04091845 -150.7103579 77.07286748 -153.09765625 76.10546875 C-154.61490596 75.48255609 -156.13184409 74.85888384 -157.6484375 74.234375 C-158.36097687 73.946763 -159.07351624 73.659151 -159.80764771 73.36282349 C-166.25535789 70.67600879 -166.25535789 70.67600879 -168.203125 67.9140625 C-168.765625 64.4765625 -168.765625 64.4765625 -168.203125 60.9140625 C-163.69742026 57.30737191 -158.69062501 55.27423308 -153.36328125 53.1484375 C-152.50155304 52.7982254 -151.63982483 52.44801331 -150.75198364 52.08718872 C-147.92562761 50.940042 -145.09564268 49.80214218 -142.265625 48.6640625 C-140.2781086 47.85895885 -138.29088913 47.05312181 -136.30395508 46.24658203 C-132.23722234 44.59633327 -128.16932891 42.94899676 -124.10058594 41.30371094 C-116.31148775 38.1511541 -108.53816967 34.96044336 -100.76635742 31.76556396 C-96.79018357 30.13123025 -92.81300304 28.49934984 -88.8359375 26.8671875 C-88.0501532 26.54462982 -87.2643689 26.22207214 -86.45477295 25.88973999 C-81.48016502 23.84785129 -76.50476955 21.80789336 -71.52877808 19.76937866 C-68.95898971 18.71654103 -66.38940213 17.66321443 -63.81982422 16.60986328 C-60.49419395 15.24672972 -57.16760919 13.88596374 -53.84033203 12.52685547 C-46.7698534 9.63528894 -39.71336956 6.7226086 -32.703125 3.6875 C-31.59767334 3.21231934 -30.49222168 2.73713867 -29.35327148 2.24755859 C-27.38117182 1.39584606 -25.41394646 0.53269624 -23.45336914 -0.34521484 C-22.59864014 -0.71340332 -21.74391113 -1.0815918 -20.86328125 -1.4609375 C-20.14793213 -1.77804688 -19.43258301 -2.09515625 -18.69555664 -2.421875 C-11.69256077 -4.28769425 -6.39676726 -2.81226086 0 0 Z M-19.90234375 12.6328125 C-20.59180084 12.9219603 -21.28125793 13.21110809 -21.99160767 13.50901794 C-23.49703152 14.14066949 -25.00180462 14.77387365 -26.50601196 15.40841675 C-30.60752258 17.1381174 -34.71420376 18.85546893 -38.8203125 20.57421875 C-39.67673843 20.93302628 -40.53316437 21.2918338 -41.4155426 21.66151428 C-50.43097432 25.43533628 -59.4710405 29.14827077 -68.515625 32.8515625 C-70.13322359 33.51423132 -71.75081797 34.1769104 -73.3684082 34.83959961 C-76.63981342 36.17959162 -79.91141288 37.51910824 -83.18310547 38.85839844 C-90.97801635 42.04973565 -98.77035745 45.24733925 -106.56283569 48.4446106 C-108.98362559 49.43779207 -111.40451808 50.43072303 -113.82543945 51.42358398 C-123.9549425 55.57833198 -134.08037132 59.74289772 -144.203125 63.9140625 C-142.63490121 67.05051007 -139.50336099 67.6035548 -136.3828125 68.828125 C-135.6696991 69.1144429 -134.95658569 69.4007608 -134.22186279 69.695755 C-132.66515462 70.31992103 -131.10719033 70.94096095 -129.54815674 71.55929565 C-126.18283094 72.89419131 -122.82358107 74.2440731 -119.46383667 75.59294128 C-117.70106893 76.30044035 -115.93798105 77.00714226 -114.17459106 77.71308899 C-105.03715272 81.37267294 -95.9312826 85.10770652 -86.828125 88.8515625 C-85.21602323 89.51376964 -83.60388114 90.17587865 -81.99169922 90.83789062 C-77.90505207 92.51614736 -73.81874813 94.19523784 -69.73254395 95.87457275 C-62.7337259 98.75080629 -55.73441802 101.62584524 -48.73455811 104.49954224 C-45.51972399 105.81969768 -42.3053204 107.14089764 -39.09146118 108.46342468 C-37.59834563 109.07509573 -36.10355789 109.68270277 -34.60702515 110.28596497 C-31.06346194 111.71663633 -27.56397562 113.19335742 -24.1015625 114.81152344 C-23.44333496 115.10674896 -22.78510742 115.40197449 -22.10693359 115.70614624 C-20.33808626 116.50179296 -18.58245491 117.32664407 -16.828125 118.15380859 C-11.65012319 119.23976614 -8.05234828 117.7775698 -3.203125 115.9140625 C-2.40782379 115.61156586 -1.61252258 115.30906921 -0.79312134 114.99740601 C1.651712 114.03415102 4.0746358 113.02833411 6.49609375 112.0078125 C7.3753804 111.6418396 8.25466705 111.2758667 9.16059875 110.89880371 C11.93714695 109.74184567 14.71076892 108.5780534 17.484375 107.4140625 C19.35463133 106.63366777 21.22507265 105.85371621 23.09570312 105.07421875 C30.34259845 102.0511906 37.58404042 99.01760253 44.796875 95.9140625 C42.13223425 93.78921772 39.65008605 92.27740779 36.49414062 91.00048828 C35.65226196 90.6564798 34.8103833 90.31247131 33.94299316 89.95803833 C33.03883667 89.59547943 32.13468018 89.23292053 31.203125 88.859375 C30.2606189 88.4759494 29.31811279 88.0925238 28.3470459 87.69747925 C25.33252791 86.47248514 22.31481954 85.25558708 19.296875 84.0390625 C17.29665182 83.22841505 15.29664938 82.41722271 13.296875 81.60546875 C10.3974588 80.42853452 7.49774349 79.25240295 4.59643555 78.08013916 C-1.35332401 75.67502092 -7.27833046 73.22267511 -13.17382812 70.68701172 C-15.15270696 69.79541298 -15.15270696 69.79541298 -17.203125 69.9140625 C-17.28409303 68.45663787 -17.34230274 66.99793443 -17.390625 65.5390625 C-17.44283203 64.32089844 -17.44283203 64.32089844 -17.49609375 63.078125 C-17.39941406 62.36398438 -17.30273438 61.64984375 -17.203125 60.9140625 C-14.203125 58.9140625 -14.203125 58.9140625 -11.05957031 59.07470703 C-6.60259886 60.04476704 -2.680958 61.55377727 1.5 63.34375 C2.32789536 63.6904071 3.15579071 64.03706421 4.0087738 64.39422607 C5.77706047 65.13568543 7.5438258 65.8807818 9.30917358 66.62921143 C12.06564061 67.79701272 14.82659694 68.95351748 17.58911133 70.10693359 C25.17674826 73.27747252 32.75563811 76.46816995 40.32266235 79.68759155 C42.2224793 80.49353438 44.12474983 81.2933005 46.02832031 82.09033203 C48.27394845 83.03166838 50.51454917 83.98512206 52.74902344 84.95263672 C53.73805664 85.36529785 54.72708984 85.77795898 55.74609375 86.203125 C56.58487061 86.56100098 57.42364746 86.91887695 58.2878418 87.28759766 C64.17351349 88.75715429 69.58795753 85.97564278 74.94921875 83.74609375 C75.72640762 83.42879807 76.5035965 83.11150238 77.30433655 82.78459167 C79.78343752 81.77104335 82.25895581 80.74906554 84.734375 79.7265625 C87.1701261 78.72728622 89.60658416 77.72974917 92.04312134 76.73239136 C93.64081149 76.07747275 95.23780388 75.42084918 96.83407593 74.76248169 C100.64260893 73.19343257 104.45699621 71.64734951 108.29736328 70.15771484 C108.99583878 69.88529465 109.69431427 69.61287445 110.41395569 69.3321991 C112.30322609 68.59838319 114.1955805 67.87252141 116.08813477 67.1472168 C118.9142234 66.20331932 118.9142234 66.20331932 119.796875 63.9140625 C96.14481682 54.12621299 72.48533383 44.3577234 48.78485107 34.68762207 C38.50800497 30.49410148 28.24175674 26.27702823 17.99609375 22.0078125 C16.55966774 21.40974289 16.55966774 21.40974289 15.09422302 20.79959106 C10.49788712 18.88534108 5.90326487 16.96714272 1.3112793 15.04248047 C-0.32107569 14.36153231 -1.95347855 13.68069888 -3.5859375 13 C-4.33261185 12.6853479 -5.07928619 12.3706958 -5.84858704 12.04650879 C-11.8462081 9.55228948 -14.10392683 10.17156282 -19.90234375 12.6328125 Z M-113.203125 91.9140625 C-113.41203005 99.89393009 -113.57174774 107.87264867 -113.66943455 115.85457802 C-113.71633109 119.56142634 -113.7798809 123.26639924 -113.88208008 126.97216797 C-113.98016911 130.55146937 -114.03373934 134.12897263 -114.05702019 137.70951462 C-114.07359961 139.07247613 -114.10598142 140.43534336 -114.15469551 141.79753494 C-114.63077228 149.50846659 -114.63077228 149.50846659 -111.27131653 156.05523682 C-108.96734521 157.62140461 -106.75443315 158.80518456 -104.203125 159.9140625 C-102.95401658 160.54867181 -101.70523164 161.18391906 -100.45703125 161.8203125 C-99.23168174 162.36326597 -98.00098949 162.89429862 -96.765625 163.4140625 C-96.08588623 163.70394043 -95.40614746 163.99381836 -94.70581055 164.29248047 C-45.25225905 184.94366167 4.85195841 184.46975295 55.796875 169.9140625 C55.796875 148.7940625 55.796875 127.6740625 55.796875 105.9140625 C52.1747041 106.63849668 49.55282026 107.29723578 46.24462891 108.67651367 C45.37246735 109.03746628 44.50030579 109.39841888 43.60171509 109.77030945 C42.20171768 110.35773674 42.20171768 110.35773674 40.7734375 110.95703125 C39.79506927 111.36311111 38.81670105 111.76919098 37.8086853 112.18757629 C34.67794525 113.48795162 31.5498329 114.7945109 28.421875 116.1015625 C26.35565241 116.9620297 24.2892479 117.8220602 22.22265625 118.68164062 C20.71031403 119.31091965 20.71031403 119.31091965 19.16741943 119.95291138 C16.19275411 121.18862162 13.21603717 122.41929536 10.23925781 123.64990234 C6.88639999 125.03737985 3.54764803 126.45021813 0.22167969 127.90087891 C-1.0996024 128.46388355 -2.4208909 129.02687317 -3.7421875 129.58984375 C-4.83998535 130.06977783 -5.9377832 130.54971191 -7.06884766 131.04418945 C-13.31653881 132.77814518 -18.44610584 130.63047753 -24.21484375 128.16796875 C-24.88459732 127.88525116 -25.55435089 127.60253357 -26.24440002 127.31124878 C-27.69906136 126.69629714 -29.1521752 126.07767466 -30.60388184 125.45578003 C-33.75159258 124.10788334 -36.90721443 122.77900216 -40.06259155 121.44917297 C-41.75616238 120.73540225 -43.44937183 120.02077353 -45.14224243 119.30534363 C-54.59677459 115.3135704 -64.08793378 111.41198786 -73.58609009 107.52536011 C-76.38349974 106.38006789 -79.17945704 105.2312841 -81.9753418 104.08227539 C-92.31968635 99.84186566 -102.70658109 95.76285693 -113.203125 91.9140625 Z M68.796875 99.9140625 C68.796875 121.0340625 68.796875 142.1540625 68.796875 163.9140625 C76.52884574 161.41315889 76.52884574 161.41315889 83.296875 157.7890625 C84.1321875 157.27085937 84.9675 156.75265625 85.828125 156.21875 C87.71500727 155.06220164 87.71500727 155.06220164 88.796875 153.9140625 C88.89083557 151.98099752 88.91431017 150.04447412 88.91040039 148.10913086 C88.91028709 146.24731422 88.91028709 146.24731422 88.91017151 144.34788513 C88.90506411 142.9832251 88.8998481 141.61856548 88.89453125 140.25390625 C88.892667 138.86528067 88.89124313 137.47665443 88.89024353 136.08802795 C88.88641887 132.42685135 88.87658903 128.7657142 88.86553955 125.10455322 C88.85532432 121.37113987 88.85074567 117.63772016 88.84570312 113.90429688 C88.83496671 106.57420073 88.81789091 99.24413714 88.796875 91.9140625 C81.61665526 91.9140625 75.41441952 97.12772797 68.796875 99.9140625 Z M55.796875 229.9140625 C53.28518153 233.52563377 53.53929212 237.29354749 53.6015625 241.5234375 C53.6043924 242.25024719 53.60722229 242.97705688 53.61013794 243.72589111 C53.62129977 246.03878501 53.64639649 248.35128638 53.671875 250.6640625 C53.68190999 252.23567148 53.69103494 253.80728654 53.69921875 255.37890625 C53.71952141 259.22422986 53.75867612 263.06870873 53.796875 266.9140625 C59.736875 266.9140625 65.676875 266.9140625 71.796875 266.9140625 C71.86597541 262.46604322 71.92563517 258.01990692 71.96166992 253.57177734 C71.97670043 252.06064523 71.99713064 250.54955632 72.02319336 249.03857422 C72.05983189 246.85894063 72.07665838 244.67988675 72.08984375 242.5 C72.1055542 241.1907959 72.12126465 239.8815918 72.13745117 238.53271484 C71.77007146 234.62927252 70.8365549 232.2378242 68.796875 228.9140625 C64.14379828 225.61187902 60.16326168 226.69672495 55.796875 229.9140625 Z " fill="#f6f6f6" transform="translate(268.203125,126.0859375)"/>
<path d="M0 0 C3.5 1.3125 3.5 1.3125 4.60913086 2.99853516 C9.00385621 13.36312273 11.1821292 24.33275453 13.5 35.3125 C13.6851416 36.16875977 13.8702832 37.02501953 14.06103516 37.90722656 C19.95014061 66.54835956 18.60219778 99.84960508 12.5 128.3125 C12.18651611 129.82432861 12.18651611 129.82432861 11.86669922 131.36669922 C0.52209892 184.7415565 -30.69657489 236.20315247 -74.5 269.3125 C-75.06541504 269.74369141 -75.63083008 270.17488281 -76.21337891 270.61914062 C-114.86756611 299.99755556 -162.97524576 320.10282948 -212.0546875 320.55078125 C-212.94566132 320.5605751 -213.83663513 320.57036896 -214.75460815 320.58045959 C-234.68717657 320.75434612 -253.92578192 320.50904256 -273.5 316.3125 C-275.01182861 315.99901611 -275.01182861 315.99901611 -276.55419922 315.67919922 C-319.22076277 306.61060149 -360.50492476 285.30757524 -391.5 254.3125 C-391.51458252 255.17528564 -391.52916504 256.03807129 -391.54418945 256.92700195 C-391.60527754 260.13099647 -391.67943549 263.33434625 -391.76245117 266.5378418 C-391.79568549 267.92379377 -391.82372226 269.30988061 -391.84643555 270.69604492 C-391.88000617 272.68956843 -391.93388 274.68271741 -391.98828125 276.67578125 C-392.01446533 277.87501221 -392.04064941 279.07424316 -392.06762695 280.30981445 C-392.5 283.3125 -392.5 283.3125 -393.87963867 285.17651367 C-396.10116993 286.73396206 -397.80051279 287.11497655 -400.5 287.3125 C-403.20637529 286.33519781 -404.20256222 285.90737555 -405.5 283.3125 C-405.60505255 281.76125138 -405.64870169 280.20563091 -405.66113281 278.65087891 C-405.67074036 277.68292389 -405.6803479 276.71496887 -405.69024658 275.71768188 C-405.69449646 274.66873749 -405.69874634 273.61979309 -405.703125 272.5390625 C-405.70882507 271.46377289 -405.71452515 270.38848328 -405.72039795 269.28060913 C-405.72985603 267.00251248 -405.73638513 264.7244021 -405.74023438 262.44628906 C-405.74994088 258.95874193 -405.78095758 255.47178374 -405.8125 251.984375 C-405.81902979 249.77344101 -405.82428035 247.56250279 -405.828125 245.3515625 C-405.8404718 244.30666656 -405.8528186 243.26177063 -405.86553955 242.18521118 C-405.86253845 241.21095184 -405.85953735 240.2366925 -405.85644531 239.23291016 C-405.86009094 238.37734528 -405.86373657 237.5217804 -405.86749268 236.64028931 C-405.40477981 233.70935184 -404.62993716 232.3742049 -402.5 230.3125 C-400.26795959 229.80456543 -400.26795959 229.80456543 -397.63305664 229.79492188 C-396.6451564 229.78231323 -395.65725616 229.76970459 -394.63941956 229.75671387 C-393.04093422 229.76885925 -393.04093422 229.76885925 -391.41015625 229.78125 C-390.31408554 229.7774231 -389.21801483 229.77359619 -388.08872986 229.76965332 C-385.76951174 229.76692996 -383.45026314 229.77432063 -381.13110352 229.79101562 C-377.57954375 229.81239739 -374.03001182 229.79123734 -370.47851562 229.765625 C-368.22655803 229.7682686 -365.9746017 229.77339424 -363.72265625 229.78125 C-362.65902359 229.77315308 -361.59539093 229.76505615 -360.49952698 229.75671387 C-353.17957524 229.84984179 -353.17957524 229.84984179 -349.79467773 232.15429688 C-348.5 234.3125 -348.5 234.3125 -348.5625 237.375 C-349.54519191 240.45410131 -349.93689249 241.45059775 -352.5 243.3125 C-355.50268555 243.74487305 -355.50268555 243.74487305 -359.13671875 243.82421875 C-360.43544922 243.85966797 -361.73417969 243.89511719 -363.07226562 243.93164062 C-364.44400517 243.9547405 -365.8157501 243.9775229 -367.1875 244 C-368.57099607 244.03317542 -369.95446129 244.06766531 -371.33789062 244.10351562 C-374.72517883 244.18613241 -378.11220357 244.25524058 -381.5 244.3125 C-366.59289059 258.92989527 -349.90289275 270.49909846 -331.5 280.3125 C-330.70851563 280.7362793 -329.91703125 281.16005859 -329.1015625 281.59667969 C-307.81469154 292.79984276 -284.2710389 300.65071537 -260.5 304.3125 C-259.26507813 304.52261719 -258.03015625 304.73273438 -256.7578125 304.94921875 C-199.69296406 313.75243935 -138.74293777 298.60097082 -91.96484375 264.80859375 C-88.73601242 262.4009625 -85.605059 259.87696737 -82.5 257.3125 C-81.94393066 256.85794434 -81.38786133 256.40338867 -80.81494141 255.93505859 C-67.84485113 245.28196951 -55.65864425 233.71579483 -45.5 220.3125 C-44.76765137 219.3541626 -44.76765137 219.3541626 -44.02050781 218.37646484 C-36.28773504 208.19693935 -29.52426539 197.78719605 -23.61572266 186.45019531 C-22.55748855 184.42264656 -21.47432694 182.41033402 -20.38671875 180.3984375 C-10.51156877 161.79806498 -4.75151479 141.85631599 -0.5 121.3125 C-0.32065918 120.4968457 -0.14131836 119.68119141 0.04345703 118.84082031 C7.1009646 85.8029944 3.02467175 50.13499921 -5.1953125 17.82421875 C-8.21617173 5.53596003 -8.21617173 5.53596003 -6 1.75 C-3.5 0.3125 -3.5 0.3125 0 0 Z " fill="#f6f6f6" transform="translate(480.5,176.6875)"/>
<path d="M0 0 C1.07491699 0.22574707 2.14983398 0.45149414 3.25732422 0.68408203 C47.21856566 10.22696313 90.08501857 30.64280552 122 63 C122.01458252 62.13721436 122.02916504 61.27442871 122.04418945 60.38549805 C122.10527754 57.18150353 122.17943549 53.97815375 122.26245117 50.7746582 C122.29568549 49.38870623 122.32372226 48.00261939 122.34643555 46.61645508 C122.38000617 44.62293157 122.43388 42.62978259 122.48828125 40.63671875 C122.51446533 39.43748779 122.54064941 38.23825684 122.56762695 37.00268555 C123 34 123 34 124.37963867 32.13598633 C126.60116993 30.57853794 128.30051279 30.19752345 131 30 C133.70637529 30.97730219 134.70256222 31.40512445 136 34 C136.10505255 35.55124862 136.14870169 37.10686909 136.16113281 38.66162109 C136.17074036 39.62957611 136.1803479 40.59753113 136.19024658 41.59481812 C136.1966214 43.16823471 136.1966214 43.16823471 136.203125 44.7734375 C136.20882507 45.84872711 136.21452515 46.92401672 136.22039795 48.03189087 C136.22985603 50.30998752 136.23638513 52.5880979 136.24023438 54.86621094 C136.24994088 58.35375807 136.28095758 61.84071626 136.3125 65.328125 C136.31902979 67.53905899 136.32428035 69.74999721 136.328125 71.9609375 C136.3404718 73.00583344 136.3528186 74.05072937 136.36553955 75.12728882 C136.36253845 76.10154816 136.35953735 77.0758075 136.35644531 78.07958984 C136.36009094 78.93515472 136.36373657 79.7907196 136.36749268 80.67221069 C135.90477981 83.60314816 135.12993716 84.9382951 133 87 C130.76795959 87.50793457 130.76795959 87.50793457 128.13305664 87.51757812 C126.65120628 87.53649109 126.65120628 87.53649109 125.13941956 87.55578613 C124.07376266 87.54768921 123.00810577 87.53959229 121.91015625 87.53125 C120.81408554 87.5350769 119.71801483 87.53890381 118.58872986 87.54284668 C116.26951174 87.54557004 113.95026314 87.53817937 111.63110352 87.52148438 C108.07954375 87.50010261 104.53001182 87.52126266 100.97851562 87.546875 C98.72655803 87.5442314 96.4746017 87.53910576 94.22265625 87.53125 C93.15902359 87.53934692 92.09539093 87.54744385 90.99952698 87.55578613 C83.67957524 87.46265821 83.67957524 87.46265821 80.29467773 85.15820312 C79 83 79 83 79.0625 79.9375 C80.04519191 76.85839869 80.43689249 75.86190225 83 74 C86.00268555 73.56762695 86.00268555 73.56762695 89.63671875 73.48828125 C90.93544922 73.45283203 92.23417969 73.41738281 93.57226562 73.38085938 C94.94400517 73.3577595 96.3157501 73.3349771 97.6875 73.3125 C99.07099607 73.27932458 100.45446129 73.24483469 101.83789062 73.20898438 C105.22517883 73.12636759 108.61220357 73.05725942 112 73 C69.5622945 31.38705556 10.52087972 9.91067423 -48.47167969 10.00390625 C-84.52122187 10.41009827 -120.32421242 19.93887055 -152 37 C-152.66338379 37.35175293 -153.32676758 37.70350586 -154.01025391 38.06591797 C-182.48842173 53.2283787 -207.76422684 75.1234772 -227 101 C-227.4237793 101.55768066 -227.84755859 102.11536133 -228.28417969 102.68994141 C-235.5476658 112.25641601 -241.39302004 122.39283572 -247 133 C-247.53753906 133.99338379 -247.53753906 133.99338379 -248.0859375 135.00683594 C-258.46502133 154.21399388 -264.58987155 174.68974426 -269 196 C-269.17934082 196.8156543 -269.35868164 197.63130859 -269.54345703 198.47167969 C-276.6009646 231.5095056 -272.52467175 267.17750079 -264.3046875 299.48828125 C-261.28382827 311.77653997 -261.28382827 311.77653997 -263.5 315.5625 C-267.01843001 317.58559726 -269.14931009 316.99832701 -273 316 C-276.20497989 312.79502011 -276.7169645 308.6175071 -277.875 304.3125 C-278.13821045 303.34094971 -278.4014209 302.36939941 -278.67260742 301.3684082 C-283.02644236 284.78078866 -286.08150279 267.62260628 -286.23828125 250.4453125 C-286.2480751 249.55433868 -286.25786896 248.66336487 -286.26795959 247.74539185 C-286.44177503 227.82097273 -286.220853 208.56331868 -282 189 C-281.78037598 187.96552734 -281.56075195 186.93105469 -281.33447266 185.86523438 C-269.71907404 132.63004581 -238.92368362 80.99965868 -195 48 C-194.35869141 47.51466797 -193.71738281 47.02933594 -193.05664062 46.52929688 C-163.3661869 24.17317299 -130.38624205 8.72499189 -94 1 C-93.01193359 0.78682129 -92.02386719 0.57364258 -91.00585938 0.35400391 C-62.28437243 -5.56007105 -28.73301024 -6.08505472 0 0 Z " fill="#f6f6f6" transform="translate(301,18)"/>
</svg>
