<?xml version="1.0" encoding="UTF-8"?>
<svg version="1.1" xmlns="http://www.w3.org/2000/svg" width="512" height="512">
<path d="M0 0 C6.10599559 3.83388783 10.30618571 4.19231072 17.38232422 3.41625977 C19.24366455 3.27355269 21.10567647 3.13933271 22.96826172 3.01391602 C24.28455566 2.9252124 24.28455566 2.9252124 25.62744141 2.8347168 C38.71742993 2.25192494 51.36664808 8.32095835 61.00732422 16.72875977 C61.93544922 17.40938477 62.86357422 18.09000977 63.81982422 18.79125977 C66.00732422 20.72875977 66.00732422 20.72875977 67.68310547 23.72875977 C70.55580184 27.43671071 72.98590211 27.92434058 77.38232422 28.66625977 C92.9195859 31.9707008 105.90048501 39.69860619 114.88232422 53.10375977 C117.20622343 56.95510446 118.76817068 60.74364934 120.25732422 64.97875977 C122.99441283 71.97956397 127.68301937 74.19642589 134.00732422 77.72875977 C145.3700648 85.48071923 152.22521943 98.53072605 155.00732422 111.72875977 C155.75858882 116.3529229 156.15219346 120.56980582 155.56982422 125.22875977 C156.17647423 130.08195986 158.70461905 132.3372268 161.83544922 135.97875977 C170.76230407 147.28182778 173.86055184 161.06341454 172.72607422 175.24438477 C172.04706247 180.11063565 171.19391836 184.61488828 169.31982422 189.16625977 C167.62157163 193.7758025 168.17420683 196.26602815 169.71826172 200.83032227 C174.58907618 215.63566919 173.90692932 231.00218404 167.31982422 245.16625977 C165.18575382 249.14949948 162.79739179 252.14387708 159.63232422 255.35375977 C156.66221566 258.48699928 155.52165375 260.19052709 155.63232422 264.54125977 C155.70064453 265.3752832 155.76896484 266.20930664 155.83935547 267.06860352 C156.71092375 280.87181273 149.96965318 294.53958869 141.23388672 304.81469727 C136.22043564 310.1555574 130.45290109 314.25639512 124.00732422 317.72875977 C123.34732422 317.72875977 122.68732422 317.72875977 122.00732422 317.72875977 C121.86037109 318.32301758 121.71341797 318.91727539 121.56201172 319.52954102 C119.89146714 325.70287527 117.53354256 330.50888315 113.92138672 335.79516602 C111.82725598 342.51607279 117.22293379 350.60110786 120.21826172 356.59204102 C120.62293671 357.41387375 121.02761169 358.23570648 121.44454956 359.08244324 C122.30708456 360.83338084 123.17201884 362.58313829 124.03918457 364.33178711 C126.31494082 368.9225974 128.57132796 373.5228989 130.82763672 378.12329102 C131.27530396 379.03535309 131.72297119 379.94741516 132.1842041 380.88711548 C137.03937947 390.79952344 141.68780947 400.79974329 146.28466797 410.83422852 C147.99784547 414.57168741 149.75239887 418.28109725 151.57373047 421.96704102 C151.95819336 422.75208008 152.34265625 423.53711914 152.73876953 424.34594727 C153.42318868 425.73580656 154.11791731 427.12067641 154.82666016 428.49829102 C157.57188 434.10349237 157.71910084 438.51850604 155.81982422 444.41625977 C153.28358018 449.0514644 150.84881439 450.9916897 145.97216797 452.94360352 C141.05284737 454.25597474 136.69347958 453.07436239 131.81982422 451.97875977 C130.27597046 451.65161987 130.27597046 451.65161987 128.70092773 451.31787109 C124.79744138 450.4792994 120.9021686 449.60633672 117.00732422 448.72875977 C115.18344071 448.31969947 113.35954683 447.91068548 111.53564453 447.50170898 C98.6841768 444.61520468 85.84311748 441.68411534 73.00732422 438.72875977 C65.61915941 452.54750953 58.65419068 466.53020935 51.87744141 480.65722656 C50.65623768 483.1998146 49.42968118 485.73976779 48.20263672 488.27954102 C47.65725754 489.42329948 47.65725754 489.42329948 47.1008606 490.59016418 C40.86152423 503.48859249 40.86152423 503.48859249 34.00732422 506.72875977 C28.78590748 507.49135118 24.47969544 507.38314698 19.63232422 505.22875977 C13.23469917 499.13578353 10.02240472 490.72049691 6.44482422 482.79125977 C-0.18130422 468.2969131 -7.16213485 453.98417821 -14.18823242 439.68017578 C-14.6084668 438.82333191 -15.02870117 437.96648804 -15.46166992 437.0836792 C-16.24693338 435.48307954 -17.03367367 433.8832031 -17.82226562 432.28424072 C-20.34025272 427.15308537 -22.70568421 421.966842 -24.99267578 416.72875977 C-30.35392337 426.42610682 -35.24603531 436.28290634 -39.86767578 446.35375977 C-45.05736813 457.61413024 -50.30114031 468.84780228 -55.66680908 480.02557373 C-56.50394898 481.77536153 -57.3358497 483.52766625 -58.16229248 485.28253174 C-59.33014436 487.75980941 -60.51650035 490.22739748 -61.70751953 492.69360352 C-62.05089859 493.43201981 -62.39427765 494.1704361 -62.74806213 494.93122864 C-65.39853485 500.34309841 -68.47918451 503.97201413 -73.99267578 506.72875977 C-79.19453116 507.24724535 -83.62827949 507.3489399 -88.43017578 505.16625977 C-94.30322743 499.57969845 -97.42162245 491.01705003 -101.00048828 483.84594727 C-101.56718231 482.71351593 -102.13387634 481.58108459 -102.71774292 480.41433716 C-103.9104714 478.02955844 -105.10239173 475.64439638 -106.29296875 473.25854492 C-107.81446189 470.20984641 -109.33955705 467.16296645 -110.86572456 464.11660576 C-112.3292601 461.19402612 -113.78973902 458.26992027 -115.25048828 455.34594727 C-115.79633575 454.25627655 -116.34218323 453.16660583 -116.90457153 452.04391479 C-117.41204926 451.02580719 -117.91952698 450.00769958 -118.44238281 448.95874023 C-119.11045456 447.62140335 -119.11045456 447.62140335 -119.79202271 446.25704956 C-120.96746575 443.78184609 -122.00436082 441.28373961 -122.99267578 438.72875977 C-123.76417969 438.90193222 -124.53568359 439.07510468 -125.33056641 439.25352478 C-132.62644774 440.89046166 -139.92312854 442.52376579 -147.22071838 444.15306759 C-150.9718112 444.99069049 -154.72258712 445.82967979 -158.47265625 446.671875 C-162.09643758 447.48565413 -165.72102801 448.29573518 -169.34619141 449.10333443 C-170.72425344 449.41099972 -172.10202652 449.7199624 -173.47949219 450.03028679 C-194.86683025 454.84591496 -194.86683025 454.84591496 -201.99267578 450.72875977 C-204.97127 447.75016554 -206.9688011 444.82425847 -207.99267578 440.72875977 C-207.78827597 432.56094311 -204.90717035 426.62330933 -201.24267578 419.41625977 C-200.34902008 417.61220771 -199.45541341 415.80812932 -198.5647583 414.00259399 C-197.95130767 412.75948258 -197.33634315 411.51711716 -196.71990967 410.27548218 C-193.60211991 403.98413614 -190.66794895 397.61159327 -187.74267578 391.22875977 C-184.06514387 383.20955324 -180.28800039 375.25707046 -176.35986328 367.35766602 C-175.5658515 365.75353225 -174.77190599 364.14936567 -173.97802734 362.54516602 C-172.43001521 359.41880423 -170.86408904 356.30227116 -169.28857422 353.18969727 C-168.57729774 351.75643309 -167.86665454 350.32285441 -167.15673828 348.88891602 C-166.821008 348.23806534 -166.48527771 347.58721466 -166.13937378 346.91664124 C-164.75419193 344.08550348 -163.96023628 342.13565297 -164.21337891 338.96044922 C-165.20660744 336.11611901 -166.473283 333.52461161 -167.86767578 330.85375977 C-169.60413154 327.52385048 -171.16618369 324.36533839 -172.30517578 320.79125977 C-174.44073625 316.91561299 -176.59230536 316.08400565 -180.45751953 314.15454102 C-193.72787029 306.69124668 -200.61866175 294.02838153 -205.18017578 280.10375977 C-206.01597122 276.69092838 -206.05999038 273.37452071 -206.12524414 269.87133789 C-206.18093085 262.07877169 -206.18093085 262.07877169 -210.11767578 255.60375977 C-210.74287109 255.02368164 -211.36806641 254.44360352 -212.01220703 253.84594727 C-214.57008753 251.11148725 -216.16213814 248.05597664 -217.80517578 244.72875977 C-218.65015625 243.02719727 -218.65015625 243.02719727 -219.51220703 241.29125977 C-222.46190927 234.19329554 -223.37876203 227.70628968 -223.36767578 220.04125977 C-223.36968994 219.16638916 -223.3717041 218.29151855 -223.3737793 217.39013672 C-223.27113934 210.78899043 -222.05900195 205.5625625 -219.82861328 199.34594727 C-218.44063582 195.00041036 -219.28975552 191.78855045 -220.72509766 187.58251953 C-222.7719791 181.40121282 -223.50472934 175.84893789 -223.43017578 169.35375977 C-223.42405273 168.43763916 -223.41792969 167.52151855 -223.41162109 166.57763672 C-223.24618189 159.38675823 -222.03550698 153.28986453 -218.99267578 146.72875977 C-218.70392578 146.02106445 -218.41517578 145.31336914 -218.11767578 144.58422852 C-216.2707043 140.40380646 -213.91698161 137.56798813 -210.80517578 134.22875977 C-206.68128859 129.28465192 -206.29995333 125.00992 -206.21362305 118.83984375 C-205.96567362 103.47964805 -198.69283704 91.25493466 -187.99267578 80.72875977 C-184.11712809 77.32568412 -180.53180526 74.30956334 -175.68017578 72.47875977 C-171.84239469 69.97973952 -171.40799478 66.96541878 -170.04736328 62.70922852 C-165.36658148 49.48168588 -155.3691112 39.57993691 -143.07080078 33.21704102 C-137.83134855 30.90918706 -132.9448275 29.4998036 -127.30517578 28.54125977 C-120.82572968 27.18976624 -118.14777247 24.34977684 -114.08642578 19.29516602 C-107.64537198 11.40006835 -99.56827736 7.71170474 -89.99267578 4.72875977 C-89.16638672 4.4696582 -88.34009766 4.21055664 -87.48876953 3.94360352 C-79.98397775 2.12462509 -72.40208127 2.91671583 -64.78393555 3.62182617 C-58.75568272 4.07401132 -55.86850172 3.65355124 -50.99267578 -0.27124023 C-48.14111328 -1.50170898 -48.14111328 -1.50170898 -45.36767578 -2.45874023 C-44.44728516 -2.78229492 -43.52689453 -3.10584961 -42.57861328 -3.43920898 C-29.75109107 -7.56649332 -11.62550521 -7.41656526 0 0 Z M-47.01220703 35.24047852 C-50.70632033 38.01652815 -54.54034515 38.32444036 -58.99267578 37.72875977 C-61.10686473 37.07272721 -63.21037759 36.38179743 -65.30517578 35.66625977 C-72.86075765 33.23149084 -78.84563539 33.15792163 -86.18017578 36.29125977 C-92.85037883 40.016353 -97.10151903 46.37785646 -100.65673828 52.96704102 C-102.49648793 55.39314362 -104.23636625 56.43625304 -106.99267578 57.72875977 C-110.15673828 58.09985352 -110.15673828 58.09985352 -113.61767578 58.16625977 C-122.04745503 58.63409045 -129.53555878 60.07710738 -135.93017578 65.91625977 C-141.58579964 72.2872728 -143.43550811 79.72023695 -144.98876953 87.93188477 C-146.30595543 91.60155442 -147.98219198 93.26639163 -150.99267578 95.72875977 C-154.29736328 97.24829102 -154.29736328 97.24829102 -157.86767578 98.54125977 C-165.80005942 101.66363589 -169.63881557 105.78034909 -173.93017578 112.97875977 C-175.79434715 119.55818813 -175.48167567 126.27667612 -174.30517578 132.97875977 C-173.91730602 137.63319686 -174.43196392 140.86658721 -176.99267578 144.72875977 C-179.68352109 147.42373214 -182.47163253 149.89875201 -185.39892578 152.33422852 C-190.66808637 157.19867948 -192.10748281 162.07889683 -192.49267578 169.04125977 C-192.49267578 175.35919129 -190.4853283 179.88418036 -187.48291016 185.30029297 C-184.85931181 190.19148714 -184.39498671 193.31220253 -184.99267578 198.72875977 C-186.52392578 202.11547852 -186.52392578 202.11547852 -188.49267578 205.41625977 C-192.70472008 213.12651331 -193.67043442 219.94796762 -191.20361328 228.44750977 C-188.54776238 234.63812625 -184.33741156 238.57441282 -179.19970703 242.81860352 C-175.06814997 246.39441131 -174.44188814 249.4280539 -173.99267578 254.72875977 C-174.31845963 256.73000338 -174.65322783 258.72978848 -174.99267578 260.72875977 C-175.85409121 270.14963639 -174.57553079 277.04701855 -168.55908203 284.50610352 C-164.9550179 288.03826612 -161.08743987 289.54008571 -156.36767578 291.22875977 C-148.20435195 294.23383654 -148.20435195 294.23383654 -145.82470703 297.67407227 C-144.20144157 301.68269965 -143.65539595 306.00505353 -142.86376953 310.24047852 C-141.13414117 317.16674814 -137.04465561 322.8909189 -130.99267578 326.72875977 C-126.11592339 329.59120139 -122.20909529 329.91921661 -116.55517578 330.16625977 C-105.01030615 330.83668034 -105.01030615 330.83668034 -100.99267578 334.72875977 C-98.87925898 337.94149418 -96.97905033 341.23765631 -95.07861328 344.58032227 C-91.56738963 349.88003437 -86.9492439 352.74323706 -80.99267578 354.72875977 C-73.43900019 355.25955859 -67.92417855 354.86755347 -60.99267578 351.72875977 C-54.97284163 350.97386095 -50.1394025 351.29760862 -44.99267578 354.72875977 C-43.83683003 355.71716992 -42.69158332 356.71806103 -41.55517578 357.72875977 C-35.84131407 362.73305695 -30.35951263 364.36997432 -22.83251953 364.14282227 C-15.52486537 363.07733211 -9.71090631 358.96382966 -4.46533203 353.96313477 C-1.20789434 351.23276259 2.5351568 351.46847205 6.55810547 351.49438477 C9.06642263 351.73441512 10.9769384 352.32403883 13.31982422 353.22875977 C20.72736501 355.91302542 28.17286868 355.95116958 35.38232422 352.66625977 C42.28723508 348.73322254 45.83686791 343.11097423 49.85107422 336.45922852 C52.04493694 333.17584613 54.33464185 331.95298722 58.00732422 330.72875977 C59.85567364 330.63623949 61.70440774 330.54728593 63.55419922 330.49047852 C73.6500554 330.14043971 79.3987416 328.75946823 86.38232422 321.29125977 C91.20297676 315.769596 92.29916281 310.65256267 93.24951172 303.54516602 C94.35135363 299.45017623 95.89770919 295.95294356 99.70410156 293.74414062 C101.70028757 292.89230889 103.71309092 292.1448927 105.75732422 291.41625977 C113.64355759 288.30125985 119.33812241 284.34575681 123.09033203 276.44970703 C124.11253948 273.41655952 124.17862561 271.17281411 124.06201172 267.98266602 C124.03751953 266.89791992 124.01302734 265.81317383 123.98779297 264.69555664 C123.91759345 262.42967223 123.83949295 260.16401854 123.75341797 257.89868164 C123.54453046 247.54646267 123.54453046 247.54646267 128.00732422 242.72875977 C129.64756255 241.19735241 131.33632108 239.71623595 133.06982422 238.29125977 C139.14661447 232.93832247 141.39691576 228.23125503 142.07373047 220.12329102 C141.91351562 214.3461319 139.94262805 209.02014826 136.88232422 204.16625977 C134.50705743 199.81160399 133.31412207 196.70266381 134.00732422 191.72875977 C135.33778817 188.48200424 136.80437281 185.38309632 138.37329102 182.24951172 C141.8886377 175.16619072 142.85369893 170.24856752 140.88232422 162.60375977 C138.45776424 155.55943009 135.0526184 150.91438929 128.65576172 147.06469727 C126.38097325 145.22114831 125.33187823 143.33855192 124.00732422 140.72875977 C123.73022461 137.99316406 123.73022461 137.99316406 123.85498047 135.05297852 C123.88269531 133.97725586 123.91041016 132.9015332 123.93896484 131.79321289 C124.02575702 129.55345661 124.1168581 127.31386289 124.21240234 125.07446289 C124.41347322 116.85998185 123.30250411 111.734795 118.06982422 105.37329102 C111.43411181 99.4790692 104.35557085 96.51150864 96.00732422 93.72875977 C95.12841797 91.76000977 95.12841797 91.76000977 94.44482422 89.22875977 C94.19216797 88.32254883 93.93951172 87.41633789 93.67919922 86.48266602 C93.08533741 84.04852313 92.62971227 81.63207503 92.19482422 79.16625977 C90.79789414 72.84096038 87.73332716 67.80924521 82.56591797 63.86547852 C75.93406099 59.72427423 70.84555313 58.71175435 63.06982422 58.41625977 C53.92959756 57.74908994 53.92959756 57.74908994 50.00732422 53.72875977 C48.47873792 51.27789793 47.0546569 48.77948459 45.62841797 46.26782227 C41.75578568 40.20225362 36.37277297 36.03535924 29.42919922 34.09594727 C22.47502563 33.04160482 16.24117159 34.43366585 9.84326172 37.08422852 C5.70120146 38.53835605 2.17441906 38.16007742 -1.86767578 36.66625977 C-5.39742403 34.47781585 -8.55170901 31.9980103 -11.74658203 29.34985352 C-24.120915 20.4188132 -36.81635559 26.81311104 -47.01220703 35.24047852 Z M-136.99267578 357.72875977 C-139.55363778 362.97092217 -142.11295719 368.21388246 -144.67089844 373.45751953 C-145.53733321 375.23311868 -146.40418045 377.00851664 -147.27148438 378.78369141 C-149.78155944 383.92163765 -152.28307393 389.06359718 -154.77294922 394.21136475 C-155.58862435 395.89483756 -156.40700235 397.57700335 -157.22802734 399.25787354 C-158.38636538 401.6312862 -159.53449925 404.00937131 -160.68017578 406.38891602 C-161.03152588 407.10357529 -161.38287598 407.81823456 -161.74487305 408.55455017 C-162.5552366 410.25143818 -163.28286789 411.98741237 -163.99267578 413.72875977 C-163.66267578 414.38875977 -163.33267578 415.04875977 -162.99267578 415.72875977 C-162.19580101 415.54083862 -162.19580101 415.54083862 -161.38282776 415.34912109 C-155.82071492 414.03952398 -150.25546005 412.7439748 -144.68823242 411.45629883 C-142.61481381 410.97482236 -140.54220416 410.48984758 -138.47045898 410.0012207 C-135.48126083 409.29686528 -132.48931683 408.60541284 -129.49658203 407.91625977 C-128.58058731 407.69752197 -127.66459259 407.47878418 -126.72084045 407.25341797 C-119.92885451 405.7085927 -112.64030254 404.07094999 -106.14892578 407.33032227 C-102.55028933 410.06492967 -101.33962662 412.00244247 -99.49267578 416.10375977 C-98.83863242 417.50843516 -98.18214562 418.91197408 -97.52392578 420.31469727 C-97.14494141 421.13550781 -96.76595703 421.95631836 -96.37548828 422.80200195 C-93.69834692 428.4682397 -90.85217551 434.05193552 -88.03686523 439.65045166 C-86.35030481 443.00730628 -84.6717547 446.36815856 -82.99267578 449.72875977 C-82.41517578 450.88375977 -81.83767578 452.03875977 -81.24267578 453.22875977 C-80.83017578 454.05375977 -80.41767578 454.87875977 -79.99267578 455.72875977 C-77.41126075 452.53796469 -75.65522151 449.23384096 -73.87548828 445.54125977 C-73.58170288 444.93413147 -73.28791748 444.32700317 -72.98522949 443.70147705 C-72.02475953 441.71275924 -71.07096195 439.72092991 -70.11767578 437.72875977 C-69.45292854 436.34686174 -68.78805067 434.96502654 -68.12304688 433.58325195 C-63.5576455 424.07828327 -59.06304235 414.5404078 -54.61767578 404.97875977 C-54.0648291 403.79024414 -53.51198242 402.60172852 -52.94238281 401.37719727 C-50.24795427 395.6412785 -50.24795427 395.6412785 -47.99267578 389.72875977 C-49.49735591 388.6842635 -51.02240089 387.66907374 -52.55517578 386.66625977 C-53.40208984 386.0977832 -54.24900391 385.52930664 -55.12158203 384.94360352 C-58.87801497 383.35414686 -61.00523457 383.97774326 -64.99267578 384.72875977 C-82.79305682 386.14778892 -97.80022778 383.38980622 -111.99267578 371.72875977 C-118.88431665 364.94547803 -118.88431665 364.94547803 -120.99267578 360.72875977 C-123.6906468 360.09015208 -126.32634201 359.56050735 -129.05517578 359.10375977 C-130.1930957 358.90266602 -130.1930957 358.90266602 -131.35400391 358.69750977 C-133.23219836 358.36675854 -135.11227916 358.04675243 -136.99267578 357.72875977 Z M69.39648438 362.01782227 C67.31859086 364.13576666 65.44395139 366.38965694 63.55126953 368.67236328 C56.23809788 377.32322182 45.323989 383.37347057 34.00732422 384.72875977 C17.94347028 385.57866344 17.94347028 385.57866344 10.76904297 384.02954102 C7.05656985 383.62521226 5.30160245 384.77242278 2.13232422 386.66625977 C0.42399089 387.6870931 -1.28434245 388.70792643 -2.99267578 389.72875977 C3.1854261 403.69611004 9.69534555 417.46684752 16.44482422 431.16625977 C17.79173203 433.90428778 19.13765324 436.64278836 20.48146057 439.38233948 C21.3064772 441.06389515 22.13330339 442.74456468 22.96226501 444.42417908 C24.79003925 448.14614835 26.54650789 451.84280374 28.00732422 455.72875977 C31.32349626 452.99472908 32.83648733 449.33660683 34.62451172 445.53344727 C34.96354523 444.82656769 35.30257874 444.11968811 35.65188599 443.39138794 C36.73468384 441.13164806 37.80899752 438.86801159 38.88232422 436.60375977 C51.42579639 410.25393524 51.42579639 410.25393524 57.00732422 406.72875977 C64.25836706 404.31174548 71.41593334 406.24240233 78.63232422 407.91625977 C79.61982666 408.13822021 80.6073291 408.36018066 81.62475586 408.58886719 C84.75414954 409.29417694 87.88070329 410.01126936 91.00732422 410.72875977 C93.13865751 411.21131357 95.2701664 411.69309254 97.40185547 412.17407227 C102.60574357 413.35001044 107.80735613 414.53561378 113.00732422 415.72875977 C111.03022711 409.23596486 108.49364011 403.23670505 105.47998047 397.16235352 C105.04979111 396.28402359 104.61960175 395.40569366 104.17637634 394.50074768 C102.81281885 391.7199481 101.44144672 388.94308862 100.06982422 386.16625977 C99.15329473 384.29997558 98.23727466 382.43344112 97.32177734 380.56665039 C93.57793963 372.94007884 89.81313298 365.32460811 86.00732422 357.72875977 C80.39399809 357.72875977 73.89432446 358.41845948 69.39648438 362.01782227 Z " fill="#f6f6f6" transform="translate(281.99267578125,5.271240234375)"/>
<path d="M0 0 C0.82757813 0.73734375 1.65515625 1.4746875 2.5078125 2.234375 C3.33539063 2.93046875 4.16296875 3.6265625 5.015625 4.34375 C31.08578685 26.73630281 46.06951981 59.39329957 49.16821289 93.33789062 C50.77533782 115.35782388 46.84455133 138.23167161 37.5078125 158.234375 C37.08290527 159.14799805 37.08290527 159.14799805 36.64941406 160.08007812 C28.73353681 176.71654059 16.91912356 192.68699698 2.5078125 204.234375 C2.00813965 204.63527344 1.5084668 205.03617188 0.99365234 205.44921875 C-13.26542196 216.74585828 -28.9102892 225.39786633 -46.4921875 230.234375 C-47.54277344 230.52828125 -48.59335937 230.8221875 -49.67578125 231.125 C-83.02305777 239.61793934 -118.32812163 234.87773386 -148.30078125 218.14453125 C-157.85552559 212.42571854 -166.45052954 205.94806974 -174.4921875 198.234375 C-175.31332031 197.47640625 -176.13445312 196.7184375 -176.98046875 195.9375 C-183.87482313 189.37553285 -189.27538701 182.14511575 -194.4921875 174.234375 C-195.11996094 173.29078125 -195.74773437 172.3471875 -196.39453125 171.375 C-205.36365608 156.9755887 -210.5609641 140.84464091 -213.4921875 124.234375 C-213.68296875 123.1928125 -213.87375 122.15125 -214.0703125 121.078125 C-216.01008215 103.40466819 -215.29427359 85.36733502 -210.4921875 68.234375 C-210.28319824 67.47125 -210.07420898 66.708125 -209.85888672 65.921875 C-200.10807933 31.33024669 -176.15503123 3.94507675 -145.23168945 -13.77441406 C-134.16143329 -19.85661446 -121.88791044 -24.37080506 -109.4921875 -26.765625 C-108.51378906 -26.96929687 -107.53539062 -27.17296875 -106.52734375 -27.3828125 C-70.00765018 -33.8456916 -28.33264719 -24.52676921 0 0 Z M-148.4921875 26.234375 C-149.5440625 27.018125 -150.5959375 27.801875 -151.6796875 28.609375 C-156.11478839 32.74880249 -159.78217009 37.44578861 -163.4921875 42.234375 C-164.11480469 43.02972656 -164.73742187 43.82507813 -165.37890625 44.64453125 C-180.89873639 65.5352689 -186.16648196 92.29715717 -183.1875 117.84765625 C-179.03348038 144.08580059 -164.33745393 169.1115309 -142.8046875 184.859375 C-118.42331242 201.01203599 -91.43337889 207.4802539 -62.4921875 202.234375 C-45.04998343 198.67716417 -28.45992147 190.46808629 -15.4921875 178.234375 C-14.54859375 177.3578125 -13.605 176.48125 -12.6328125 175.578125 C3.76070251 159.99505112 14.72097032 138.75079305 17.5078125 116.234375 C17.70890625 114.68943359 17.70890625 114.68943359 17.9140625 113.11328125 C20.55425509 87.16138814 12.89101852 61.28641468 -3.29296875 40.8984375 C-4.01871094 40.01929688 -4.74445313 39.14015625 -5.4921875 38.234375 C-6.10449219 37.45835937 -6.71679688 36.68234375 -7.34765625 35.8828125 C-20.87164007 19.5617574 -40.20196206 9.36078015 -60.4921875 4.234375 C-61.94238281 3.86699219 -61.94238281 3.86699219 -63.421875 3.4921875 C-94.44493634 -2.92334643 -124.20127998 7.13842558 -148.4921875 26.234375 Z " fill="#f6f6f6" transform="translate(339.4921875,96.765625)"/>
<path d="M0 0 C3.93493564 2.58973671 5.79281793 6.0752051 7.1875 10.5 C7.83627477 15.87556238 6.88801162 18.87865914 4.1875 23.5 C2.12932191 25.97162465 -0.12351903 28.22134132 -2.40771484 30.48339844 C-3.07311783 31.15405838 -3.73852081 31.82471832 -4.42408752 32.51570129 C-6.61640562 34.72117813 -8.8194617 36.91555245 -11.0234375 39.109375 C-12.55460781 40.64256697 -14.0853326 42.17620398 -15.6156311 43.71026611 C-18.82027856 46.91933115 -22.03027616 50.12292049 -25.24414062 53.32275391 C-29.36242721 57.42393484 -33.46708028 61.53845569 -37.56783104 65.65716171 C-40.72453806 68.8247093 -43.88835564 71.98507672 -47.05437088 75.14331818 C-48.57082972 76.65777654 -50.08506529 78.1744645 -51.59702682 79.69341278 C-53.71034132 81.81434744 -55.83303722 83.92542484 -57.95849609 86.03417969 C-58.58100754 86.66276382 -59.20351898 87.29134796 -59.84489441 87.9389801 C-64.01637873 92.04994704 -67.16540563 94.20032894 -73.125 94.875 C-82.51657911 93.91992416 -88.14756011 87.73304096 -94.45703125 81.31640625 C-95.34863449 80.42388657 -96.24023773 79.53136688 -97.15885925 78.61180115 C-99.03362161 76.73101851 -100.90413717 74.84699138 -102.76831055 72.95581055 C-105.14970495 70.54034084 -107.54415169 68.13834484 -109.94339466 65.7406168 C-112.24521837 63.43811686 -114.53849571 61.12715792 -116.83203125 58.81640625 C-117.68827591 57.95793594 -118.54452057 57.09946564 -119.42671204 56.21498108 C-120.22151474 55.40741867 -121.01631744 54.59985626 -121.83520508 53.76782227 C-122.5327742 53.06262955 -123.23034332 52.35743683 -123.9490509 51.63087463 C-127.94617192 47.06012258 -129.99363714 42.64734171 -129.8125 36.5 C-128.94007968 32.20800361 -127.56364995 29.2714513 -124.5 26.125 C-119.63217089 23.18166147 -115.59524243 21.86888357 -109.84619141 22.86083984 C-100.58524527 25.77142292 -92.93965037 36.15193511 -86.3125 42.875 C-85.09682351 44.10072609 -83.88068139 45.32599055 -82.6640625 46.55078125 C-79.70814414 49.52855682 -76.75860536 52.51251676 -73.8125 55.5 C-67.89339661 50.63953925 -62.52157254 45.30162537 -57.15061569 39.85214996 C-55.55563187 38.23489623 -53.95650149 36.62185006 -52.35610962 35.00994873 C-47.81117684 30.43163902 -43.27063136 25.84904462 -38.74023438 21.25634766 C-35.95702434 18.43545847 -33.16652241 15.62196117 -30.37123489 12.81304169 C-29.31193563 11.74570764 -28.2554162 10.67560699 -27.20179367 9.60266876 C-25.730414 8.10475916 -24.24993341 6.61643249 -22.76708984 5.12988281 C-21.9288266 4.28194153 -21.09056335 3.43400024 -20.22689819 2.56036377 C-14.50695874 -2.32083439 -6.81000589 -3.30980931 0 0 Z " fill="#f6f6f6" transform="translate(317.8125,153.5)"/>
</svg>
