<?xml version="1.0" encoding="UTF-8"?>
<svg version="1.1" xmlns="http://www.w3.org/2000/svg" width="512" height="512">
<path d="M0 0 C1.28218414 -0.02398109 1.28218414 -0.02398109 2.590271 -0.04844666 C3.50697571 -0.05380936 4.42368042 -0.05917206 5.36816406 -0.06469727 C6.32015686 -0.07372574 7.27214966 -0.08275421 8.25299072 -0.09205627 C10.26693583 -0.10655406 12.28092798 -0.11544434 14.29492188 -0.11914062 C17.35921831 -0.13100836 20.42148167 -0.18017432 23.48535156 -0.23071289 C25.44627928 -0.24018108 27.40721932 -0.24741422 29.36816406 -0.25219727 C30.27677185 -0.27172958 31.18537964 -0.2912619 32.121521 -0.31138611 C38.45676586 -0.266996 42.77301443 1.16445322 47.63378906 5.30639648 C53.37117326 11.81027179 53.81591245 17.38326809 54.15722656 25.76342773 C54.85217067 30.92993847 56.36624302 34.21571733 60.32128906 37.61889648 C64.22147774 39.60578505 67.27770582 40.88482721 71.63378906 40.30639648 C73.72638431 39.39331447 75.78710017 38.40559757 77.82128906 37.36889648 C85.29093865 33.65140267 91.84546048 32.9195091 99.98144531 34.86889648 C109.60786765 38.72688463 114.67907778 51.54550587 119.44628906 60.05639648 C120.01798828 61.05799805 120.5896875 62.05959961 121.17871094 63.09155273 C121.72720703 64.06479492 122.27570313 65.03803711 122.84082031 66.04077148 C123.33042236 66.90927734 123.82002441 67.7777832 124.32446289 68.67260742 C127.5536283 75.16826962 128.97996099 81.2678807 126.63378906 88.30639648 C127.80772217 88.31574219 128.98165527 88.32508789 130.19116211 88.3347168 C134.60672976 88.37502363 139.02163003 88.44088876 143.43676758 88.51391602 C145.336419 88.54189226 147.23618177 88.56322108 149.13598633 88.57739258 C167.39731381 88.72167486 182.05277931 91.09373109 195.94628906 104.11889648 C206.24436978 115.06982076 210.79137187 128.67879752 210.77423096 143.51544189 C210.77868764 144.73148861 210.77868764 144.73148861 210.78323436 145.97210193 C210.79188447 148.6802237 210.79342647 151.38830107 210.79492188 154.09643555 C210.79955263 156.04166253 210.80457764 157.98688862 210.80996704 159.93211365 C210.82306759 165.21118671 210.82953134 170.49024707 210.8339777 175.76933384 C210.83691202 179.06972231 210.84101749 182.37010734 210.84548187 185.67049408 C210.8591502 196.00322301 210.86882029 206.33594404 210.87268376 216.66868138 C210.87716397 228.58427799 210.89471299 240.49975986 210.92368436 252.41532159 C210.94531883 261.63420859 210.95538898 270.85306335 210.95672488 280.07197547 C210.95777157 285.57419484 210.9636507 291.07630626 210.98154449 296.57849884 C210.99805581 301.75612072 211.00016579 306.93355383 210.99140549 312.1111927 C210.99063677 314.00659504 210.99495589 315.90200766 211.00486374 317.79738426 C211.05933221 328.87060497 210.80563194 338.26367894 205.63378906 348.30639648 C206.6121875 349.12430664 206.6121875 349.12430664 207.61035156 349.95874023 C208.48433594 350.7128418 209.35832031 351.46694336 210.25878906 352.24389648 C211.5465625 353.34024414 211.5465625 353.34024414 212.86035156 354.45874023 C219.19246718 360.96030684 223.18155673 368.96667245 227.25878906 376.99389648 C231.45702434 385.15092397 235.73173748 393.25737979 240.13378906 401.30639648 C240.62572754 402.20704834 241.11766602 403.1077002 241.62451172 404.03564453 C242.09163574 404.88811768 242.55875977 405.74059082 243.04003906 406.61889648 C243.48025391 407.43148926 243.92046875 408.24408203 244.37402344 409.08129883 C245.5700264 411.26638594 245.5700264 411.26638594 246.84667969 413.08227539 C250.42893575 418.41907338 250.22978948 423.48936934 250.13378906 429.68139648 C250.14925781 430.67139648 250.16472656 431.66139648 250.18066406 432.68139648 C250.12933166 442.40888645 247.1630105 449.4071708 240.56738281 456.51342773 C234.0432448 462.56308298 228.4376926 464.42816084 219.63867664 464.44061756 C218.93101743 464.44296979 218.22335823 464.44532202 217.4942548 464.44774553 C215.11096674 464.45442932 212.72773329 464.4539775 210.34443665 464.4535675 C208.62323126 464.45686651 206.90202665 464.46059215 205.18082303 464.46470898 C200.44137693 464.47473282 195.70194349 464.47844639 190.96248829 464.48109829 C185.85463047 464.48500016 180.74678269 464.49457853 175.63893127 464.50331116 C163.2993305 464.52307802 150.95972891 464.53314168 138.62011626 464.54203895 C132.81095961 464.54642114 127.00180387 464.5517881 121.19264793 464.55702782 C101.88519257 464.57403968 82.57773778 464.58853455 63.27027607 464.59577656 C58.25936698 464.59768649 53.2484579 464.59960682 48.23754883 464.6015625 C46.99209465 464.60204624 45.74664048 464.60252998 44.46344527 464.60302838 C24.2812557 464.61133131 4.09912535 464.63667287 -16.08303835 464.66914318 C-36.79746696 464.70219852 -57.51186544 464.72022391 -78.22632056 464.7234208 C-89.85925297 464.72558722 -101.492099 464.73435526 -113.12500572 464.75988197 C-123.03060727 464.78156804 -132.93610146 464.78964965 -142.84172406 464.77991519 C-147.89599082 464.77536456 -152.95003597 464.7773012 -158.00427246 464.79667664 C-162.63261822 464.81426627 -167.26057999 464.81334471 -171.88892958 464.79777934 C-173.56191124 464.7953969 -175.2349192 464.79975977 -176.9078606 464.81160799 C-188.97168344 464.89174456 -197.54815561 463.57996597 -206.64355469 455.09936523 C-213.89111233 447.55598891 -215.41415055 438.65587857 -215.70092773 428.57983398 C-215.14294432 413.70633731 -206.0789239 400.80691109 -198.72216797 388.3269043 C-196.57623285 384.68540294 -194.51887961 381.00514758 -192.48730469 377.29858398 C-179.88469607 354.39822697 -179.88469607 354.39822697 -170.36621094 348.30639648 C-170.72001076 347.67011857 -171.07381058 347.03384066 -171.4383316 346.37828159 C-176.29013745 336.48567219 -176.06223573 327.29605069 -175.98144531 316.48388672 C-175.98495187 314.49998501 -175.99061645 312.51608613 -175.9982605 310.53219604 C-176.01244024 305.17471191 -175.99551428 299.81774525 -175.97197533 294.4603107 C-175.95178119 288.83739902 -175.95775028 283.21450704 -175.96008301 277.59156799 C-175.96002953 268.15243051 -175.94032952 258.71349384 -175.90820312 249.27441406 C-175.87130402 238.38049504 -175.86253016 227.48683878 -175.86950064 216.59286541 C-175.8758178 206.08711815 -175.86502956 195.58146044 -175.84553528 185.07573128 C-175.83738669 180.61627991 -175.83464703 176.15687448 -175.83622742 171.69741631 C-175.83710992 166.44169105 -175.82279205 161.18621334 -175.79700089 155.93055344 C-175.78987284 154.00816995 -175.78773914 152.08576005 -175.79111862 150.16336632 C-175.81641747 132.37206586 -173.17565852 116.72120548 -160.36621094 103.30639648 C-149.24833363 93.57605837 -137.45120519 89.26901244 -122.90917969 88.98999023 C-122.00621658 88.96920914 -121.10325348 88.94842804 -120.17292786 88.92701721 C-117.29992997 88.86184368 -114.4268438 88.80278693 -111.55371094 88.74389648 C-109.601228 88.70068062 -107.64875385 88.65706536 -105.69628906 88.61303711 C-100.91968591 88.50619541 -96.1429943 88.40483791 -91.36621094 88.30639648 C-91.69621094 87.31639648 -92.02621094 86.32639648 -92.36621094 85.30639648 C-93.82959565 75.71309669 -88.89066315 68.38517496 -84.36621094 60.30639648 C-83.90037598 59.45352051 -83.43454102 58.60064453 -82.95458984 57.72192383 C-81.47319642 55.02540531 -79.95724915 52.35143605 -78.42871094 49.68139648 C-77.96368164 48.8405249 -77.49865234 47.99965332 -77.01953125 47.13330078 C-73.51840806 41.19035327 -69.63463513 37.3094251 -63.36621094 34.30639648 C-54.30664249 32.23447724 -47.27175723 34.91182348 -39.27636719 39.02124023 C-34.94502425 40.93400779 -32.85413883 40.72363687 -28.36621094 39.30639648 C-23.38912618 36.77090047 -21.47903742 34.41239382 -19.36621094 29.30639648 C-18.94174793 25.92248255 -18.94174793 25.92248255 -18.92871094 22.43139648 C-18.5603 15.70789684 -17.65127011 10.73236972 -12.90917969 5.78686523 C-8.89168363 2.25757123 -5.36160351 0.07619971 0 0 Z M-1.36621094 19.30639648 C-1.70934512 21.81684829 -1.96716429 24.28508239 -2.17871094 26.80639648 C-2.89955732 33.86626476 -4.66872582 39.19132495 -8.36621094 45.30639648 C-8.66527344 46.01280273 -8.96433594 46.71920898 -9.27246094 47.44702148 C-10.66569585 49.81552084 -11.85195514 50.25841509 -14.36621094 51.30639648 C-15.15898437 51.72018555 -15.95175781 52.13397461 -16.76855469 52.56030273 C-17.60515625 52.99213867 -18.44175781 53.42397461 -19.30371094 53.86889648 C-20.13773438 54.30331055 -20.97175781 54.73772461 -21.83105469 55.18530273 C-30.61228132 59.06852622 -39.66894454 57.63223116 -48.36621094 54.30639648 C-51.10279433 53.0689463 -53.71756176 51.72881919 -56.36621094 50.30639648 C-61.86621258 55.02670441 -65.12123884 61.10284512 -68.74121094 67.30639648 C-69.39476562 68.38663086 -70.04832031 69.46686523 -70.72167969 70.57983398 C-71.33398438 71.62397461 -71.94628906 72.66811523 -72.57714844 73.74389648 C-73.13708496 74.69135742 -73.69702148 75.63881836 -74.27392578 76.61499023 C-75.53948487 79.73334594 -75.48886724 81.16514075 -74.36621094 84.30639648 C-72.28713054 85.95893153 -72.28713054 85.95893153 -69.67871094 87.18139648 C-64.77164972 89.9324308 -61.48210079 92.62282455 -58.36621094 97.30639648 C-57.95371094 97.91612305 -57.54121094 98.52584961 -57.11621094 99.15405273 C-53.10724541 106.3785427 -53.14753813 115.29390753 -54.36621094 123.30639648 C-57.35680765 133.14043894 -63.28988777 139.16510069 -71.80371094 144.49389648 C-74.39884406 146.02337211 -74.39884406 146.02337211 -75.22094727 148.04418945 C-75.4405458 151.46402148 -73.97455548 153.38742279 -72.25292969 156.31420898 C-71.92331741 156.88090302 -71.59370514 157.44759705 -71.25410461 158.03146362 C-70.55609003 159.22658024 -69.85217626 160.41826823 -69.14282227 161.60668945 C-68.05725578 163.42545743 -66.9885987 165.25330169 -65.92285156 167.08374023 C-62.6107255 173.04075384 -62.6107255 173.04075384 -58.36621094 178.30639648 C-54.30739476 178.79400384 -51.84022384 177.79840043 -48.30371094 175.86889648 C-40.92116679 171.87618001 -33.62014115 170.98089514 -25.37792969 173.06030273 C-20.32442021 174.80407123 -16.37517422 176.68539739 -12.36621094 180.30639648 C-11.70621094 180.30639648 -11.04621094 180.30639648 -10.36621094 180.30639648 C-9.94855469 181.16491211 -9.94855469 181.16491211 -9.52246094 182.04077148 C-8.40711147 184.29329059 -8.40711147 184.29329059 -7.14746094 186.32202148 C-3.63999659 192.43869712 -2.59733389 197.92358642 -2.17480469 204.86010742 C-1.89969072 208.81063335 -1.89969072 208.81063335 0.2487793 211.99658203 C3.43660886 213.74729404 5.81767265 213.69469009 9.44628906 213.70483398 C10.09702393 213.70770416 10.74775879 213.71057434 11.41821289 213.71353149 C12.78988519 213.71556704 14.16158685 213.71007271 15.53320312 213.69750977 C17.62729071 213.68144633 19.71944867 213.69737305 21.81347656 213.71655273 C23.1494183 213.71457021 24.48535885 213.71072633 25.82128906 213.70483398 C27.03171875 213.7014502 28.24214844 213.69806641 29.48925781 213.69458008 C32.87759859 213.27629888 34.29096442 212.75830503 36.63378906 210.30639648 C37.12737542 207.70250675 37.41151912 205.36678633 37.57128906 202.74389648 C38.20911126 195.66725923 39.9294166 190.43285864 43.63378906 184.30639648 C43.93285156 183.59999023 44.23191406 182.89358398 44.54003906 182.16577148 C45.93400147 179.7960354 47.11710402 179.35351722 49.63378906 178.30639648 C50.43816406 177.89260742 51.24253906 177.47881836 52.07128906 177.05249023 C52.91691406 176.6206543 53.76253906 176.18881836 54.63378906 175.74389648 C55.47941406 175.30948242 56.32503906 174.87506836 57.19628906 174.42749023 C65.10044478 170.79208528 73.37713663 171.79151834 81.44628906 174.43920898 C84.02417318 175.4611559 86.26070191 176.88254419 88.63378906 178.30639648 C91.10185327 178.74006473 91.10185327 178.74006473 93.63378906 178.30639648 C95.33907898 176.69230127 95.33907898 176.69230127 96.57519531 174.41577148 C97.07809082 173.59270508 97.58098633 172.76963867 98.09912109 171.92163086 C98.60556152 171.05860352 99.11200195 170.19557617 99.63378906 169.30639648 C100.1363623 168.50008789 100.63893555 167.6937793 101.15673828 166.86303711 C102.66169341 164.44612119 104.11998602 162.00583661 105.57128906 159.55639648 C106.07724609 158.73268555 106.58320313 157.90897461 107.10449219 157.06030273 C107.57693359 156.25979492 108.049375 155.45928711 108.53613281 154.63452148 C108.964021 153.92199219 109.39190918 153.20946289 109.83276367 152.4753418 C110.86253752 149.68701176 110.54852239 148.10402441 109.63378906 145.30639648 C107.55470867 143.65386144 107.55470867 143.65386144 104.94628906 142.43139648 C100.03922785 139.68036216 96.74967891 136.98996842 93.63378906 132.30639648 C93.01503906 131.39180664 93.01503906 131.39180664 92.38378906 130.45874023 C88.03529633 122.62239395 88.28724277 112.0511295 90.29394531 103.48999023 C93.69064728 95.03499616 100.06244667 89.19496668 107.81347656 84.72827148 C109.71836215 83.46019556 109.71836215 83.46019556 110.44213867 81.59301758 C110.7311562 78.14468867 109.2577883 76.25198335 107.52050781 73.29858398 C107.19089554 72.73188995 106.86128326 72.16519592 106.52168274 71.58132935 C105.82366816 70.38621272 105.11975439 69.19452474 104.41040039 68.00610352 C103.3248339 66.18733554 102.25617683 64.35949128 101.19042969 62.52905273 C97.87830363 56.57203913 97.87830363 56.57203913 93.63378906 51.30639648 C88.50794407 51.51143028 84.8921407 53.04864304 80.46582031 55.38452148 C73.22084451 59.03018095 64.41784982 57.709371 57.00097656 55.30639648 C53.43890156 53.80162553 50.68919444 51.6616048 47.63378906 49.30639648 C46.97378906 49.30639648 46.31378906 49.30639648 45.63378906 49.30639648 C45.35535156 48.73405273 45.07691406 48.16170898 44.79003906 47.57202148 C43.67468959 45.31950238 43.67468959 45.31950238 42.41503906 43.29077148 C38.90035338 37.16150254 37.84834001 31.59823191 37.26660156 24.66479492 C37.0233812 20.54037011 37.0233812 20.54037011 34.63378906 17.30639648 C32.07628454 17.10682678 29.62940766 17.02652822 27.07128906 17.04077148 C26.32419678 17.03885803 25.57710449 17.03694458 24.80737305 17.03497314 C23.22704736 17.03361151 21.64671048 17.03730649 20.06640625 17.0456543 C17.64329984 17.05635449 15.22093483 17.04575869 12.79785156 17.03295898 C11.26399575 17.03428058 9.73014041 17.03684299 8.19628906 17.04077148 C7.46917725 17.03672302 6.74206543 17.03267456 5.99291992 17.02850342 C1.85909273 16.93908146 1.85909273 16.93908146 -1.36621094 19.30639648 Z M-151.61621094 119.99389648 C-159.01500333 130.99339593 -158.94388228 141.86737162 -158.88378906 154.63574219 C-158.88921683 156.57834903 -158.89634314 158.52095175 -158.9050293 160.46354675 C-158.92318161 165.71116849 -158.91623025 170.95847381 -158.90351295 176.2061007 C-158.89335048 181.7072483 -158.90278696 187.20836972 -158.90905762 192.70951843 C-158.91632151 201.94018395 -158.90677615 211.17072117 -158.88769531 220.40136719 C-158.86589679 231.06988883 -158.87300469 241.73810503 -158.89500093 252.40661937 C-158.91315232 261.57801086 -158.91571549 270.74931043 -158.90524626 279.92071408 C-158.89901406 285.39367412 -158.89816891 290.86649052 -158.91139221 296.3394413 C-158.92294735 301.48027045 -158.91493099 306.62070522 -158.89181519 311.76149178 C-158.88652771 313.6472788 -158.88804252 315.53309904 -158.89686584 317.41887283 C-158.90780266 319.99371092 -158.89408125 322.56728636 -158.87414551 325.14204407 C-158.88752984 326.26018516 -158.88752984 326.26018516 -158.90118456 327.40091497 C-158.8242984 332.52279418 -157.68534287 335.4256741 -154.36621094 339.30639648 C-148.8090789 344.68801082 -142.35623301 343.86543664 -135.08105469 343.81433105 C-133.71071205 343.81894178 -132.34037436 343.82529585 -130.970047 343.83324003 C-127.20972937 343.84993328 -123.44981796 343.84168724 -119.6894989 343.82929516 C-115.63216402 343.82024689 -111.57489912 343.83421327 -107.51757812 343.84521484 C-99.57138373 343.86300707 -91.62534042 343.85915697 -83.67914009 343.84756428 C-77.22146489 343.83853299 -70.76383205 343.83730464 -64.30615234 343.84165955 C-63.38727769 343.84227248 -62.46840303 343.84288541 -61.52168369 343.84351692 C-59.65504327 343.84479581 -57.78840286 343.84609266 -55.92176247 343.84740728 C-38.41573326 343.85881514 -20.90978782 343.84569615 -3.40377235 343.82420582 C11.61920674 343.80633465 26.6420622 343.8094387 41.66503906 343.82788086 C59.10815975 343.84928394 76.55120701 343.85771648 93.99433899 343.8454318 C95.85413614 343.8441576 97.7139333 343.84290012 99.57373047 343.84165955 C100.94633608 343.84073389 100.94633608 343.84073389 102.3466711 343.83978954 C108.79704996 343.83633495 115.24738226 343.84216733 121.69775391 343.85157776 C129.5579722 343.86279287 137.4180307 343.859768 145.27823067 343.83845478 C149.2891329 343.82793775 153.29976865 343.82383352 157.31066895 343.83705139 C160.98216928 343.84896784 164.65315604 343.84242565 168.32460976 343.82114118 C170.28234026 343.81455411 172.2401064 343.827618 174.19779968 343.84137011 C182.67736457 343.82380306 182.67736457 343.82380306 189.63378906 339.30639648 C193.52975572 334.74881236 194.21032336 330.99425101 194.13499451 325.17327881 C194.1405289 324.3707481 194.1460633 323.5682174 194.15176541 322.74136758 C194.16534454 320.06057744 194.15041767 317.38072277 194.13549805 314.69995117 C194.13928234 312.77442531 194.14478329 310.84890216 194.15187073 308.92338562 C194.16583188 303.69791374 194.15464912 298.47277092 194.13815951 293.24731731 C194.12430037 287.7733758 194.13077039 282.29945322 194.1342926 276.82550049 C194.13699495 267.62881171 194.12352009 258.43225342 194.1003418 249.2355957 C194.07376359 238.61671589 194.07197486 227.99805467 194.08373016 217.37915301 C194.09452863 207.15320472 194.08830258 196.92733518 194.07417488 186.70139313 C194.06842984 182.35554381 194.06848618 178.00975241 194.07324028 173.66390228 C194.07803011 168.53877302 194.06782545 163.41388147 194.04628563 158.28879738 C194.04074369 156.41275903 194.0402285 154.53669772 194.04523849 152.66065788 C194.07855957 138.38793251 193.30115436 126.44171812 182.96972656 115.55249023 C176.23097706 109.41376638 168.96308701 106.17307192 159.85546875 106.19287109 C158.11411652 106.19298439 158.11411652 106.19298439 156.33758545 106.19309998 C155.08955139 106.19826126 153.84151733 106.20342255 152.55566406 106.20874023 C150.63309784 106.21086266 150.63309784 106.21086266 148.67169189 106.21302795 C145.27195266 106.21683748 141.87225646 106.22665434 138.47253418 106.23773193 C135.00025006 106.24797975 131.52795896 106.25253279 128.05566406 106.25756836 C121.24835477 106.26827807 114.44107399 106.28533564 107.63378906 106.30639648 C105.30089782 110.75227051 104.93202511 114.3247388 105.63378906 119.30639648 C108.48703977 124.90722194 112.47111103 127.9381716 117.69628906 131.24389648 C122.92043125 134.91191121 125.77660457 139.05408911 127.03222656 145.28295898 C127.90606621 154.29254703 122.89619622 161.75084649 118.63378906 169.30639648 C118.21145996 170.06597656 117.78913086 170.82555664 117.35400391 171.6081543 C116.06668657 173.91248613 114.76179517 176.20555199 113.44628906 178.49389648 C113.04297363 179.2003833 112.6396582 179.90687012 112.22412109 180.63476562 C108.60541055 186.76913755 104.56369988 191.91242729 97.63378906 194.30639648 C89.13787908 195.585901 83.19082631 193.69884274 75.73925781 189.61889648 C71.05799649 187.64040113 67.25824826 187.72159117 62.50878906 189.43139648 C58.22287973 192.22655475 55.28453667 195.35415366 53.63378906 200.30639648 C53.50639618 202.53435649 53.40566757 204.76389312 53.32128906 206.99389648 C52.82124272 214.44843349 51.58828631 219.42765558 46.19628906 224.68139648 C40.50648677 228.28956379 35.82442717 228.62544492 29.23925781 228.64233398 C27.87997917 228.65231918 27.87997917 228.65231918 26.49324036 228.6625061 C24.57941714 228.67261086 22.66555885 228.6773238 20.75170898 228.67700195 C17.8413606 228.68136638 14.93254043 228.71768445 12.02246094 228.75561523 C10.15723171 228.76148581 8.29199533 228.76545359 6.42675781 228.76733398 C5.56503464 228.78170502 4.70331146 228.79607605 3.81547546 228.81088257 C-3.25454581 228.7580951 -8.68016555 226.99244187 -13.74121094 221.93139648 C-16.76165262 217.05222146 -17.58078065 212.4809856 -17.80371094 206.80639648 C-18.25471762 200.19163174 -19.30280484 195.95421699 -24.36621094 191.49389648 C-28.80193727 188.2595127 -31.95410193 187.94063621 -37.36621094 188.30639648 C-40.5182436 189.57702393 -40.5182436 189.57702393 -43.55371094 191.30639648 C-49.97538036 194.41389399 -55.2909544 195.66274037 -62.36621094 194.30639648 C-71.87790718 190.47681011 -76.10003891 181.62740239 -80.96679688 173.15039062 C-81.98867273 171.37331052 -83.02073285 169.60243134 -84.05371094 167.83178711 C-84.70597656 166.70063477 -85.35824219 165.56948242 -86.03027344 164.40405273 C-86.62275879 163.37803955 -87.21524414 162.35202637 -87.82568359 161.29492188 C-90.69385698 155.73084732 -92.15728062 150.58627271 -91.36621094 144.30639648 C-88.38914821 135.52406143 -83.72924753 131.64008375 -75.92480469 127.15014648 C-72.2531201 124.50429133 -70.76988547 121.73478328 -69.55371094 117.43139648 C-69.32742204 113.6599149 -70.11493854 110.85166827 -71.36621094 107.30639648 C-73.0762186 105.59638882 -75.30783917 106.15245117 -77.64526367 106.12939453 C-78.77411484 106.1165593 -79.902966 106.10372406 -81.06602478 106.09049988 C-82.29817215 106.08311295 -83.53031952 106.07572601 -84.79980469 106.06811523 C-86.06204361 106.06004349 -87.32428253 106.05197174 -88.62477112 106.0436554 C-91.30742074 106.02978748 -93.98994639 106.0187814 -96.67260742 106.01123047 C-100.0853467 106.00024082 -103.49742033 105.96594103 -106.90992641 105.92605877 C-110.18565233 105.89336229 -113.4614405 105.889091 -116.73730469 105.88061523 C-117.95123398 105.86310715 -119.16516327 105.84559906 -120.4158783 105.82756042 C-133.11318986 105.85966048 -143.46577313 110.02998626 -151.61621094 119.99389648 Z M-168.36621094 369.30639648 C-171.12943177 373.66494733 -173.46915742 378.21110105 -175.80371094 382.80639648 C-176.78792482 384.70365347 -177.77713169 386.59825255 -178.76649475 388.49282837 C-179.41229124 389.73063783 -180.05630731 390.96937795 -180.69847107 392.20907593 C-183.6658951 397.92918485 -186.85694843 403.49248049 -190.14355469 409.03295898 C-191.52409379 411.16974155 -191.52409379 411.16974155 -191.36621094 413.30639648 C-53.42621094 413.30639648 84.51378906 413.30639648 226.63378906 413.30639648 C219.4211537 398.83394169 219.4211537 398.83394169 212.00610352 384.46606445 C211.37514179 383.26148618 210.75027192 382.05370003 210.13110352 380.84301758 C205.59752271 371.98765055 201.4646651 364.94224653 191.97181416 360.95972323 C186.7304571 359.49510304 181.17857558 359.89793422 175.77954102 359.92544556 C174.3595535 359.9219867 172.93956866 359.91722061 171.51958942 359.91126382 C167.62670438 359.89875539 163.73404035 359.90492344 159.84115458 359.91422248 C155.639317 359.92101328 151.43751729 359.91053158 147.23568726 359.90228271 C139.00790756 359.88894353 130.78020997 359.89182395 122.55242705 359.90052064 C115.8654804 359.90729604 109.17855676 359.90821452 102.49160767 359.90494919 C101.53985289 359.90448949 100.58809811 359.90402979 99.60750228 359.90355616 C97.67402513 359.90259698 95.74054799 359.90162434 93.80707085 359.90063839 C75.67724572 359.89208395 57.5474661 359.90191947 39.41764843 359.91803949 C23.86174283 359.93144271 8.30590439 359.92911464 -7.25 359.9152832 C-25.31499366 359.89922835 -43.37994744 359.89290793 -61.44494724 359.90211999 C-63.371308 359.90307564 -65.29766877 359.90401875 -67.22402954 359.90494919 C-68.17183357 359.90541201 -69.11963761 359.90587484 -70.09616297 359.90635169 C-76.77500503 359.90894186 -83.45382178 359.90457 -90.13265991 359.89751053 C-98.27203947 359.88909639 -106.41133224 359.89137387 -114.55070186 359.90735276 C-118.70346272 359.91523663 -122.85607887 359.91832511 -127.00883865 359.9084053 C-130.81102924 359.89946028 -134.61294109 359.90438796 -138.41510642 359.92033796 C-140.44064624 359.92527184 -142.46620543 359.91548751 -144.49172497 359.90516627 C-154.31495241 359.96878821 -161.74775217 361.59486443 -168.36621094 369.30639648 Z M-197.36621094 430.30639648 C-197.58780936 438.46641906 -197.58780936 438.46641906 -193.36621094 444.30639648 C-188.18545951 448.06244127 -183.88426637 448.43139754 -177.58694839 448.43782425 C-176.90262682 448.43987688 -176.21830525 448.44192952 -175.51324666 448.44404435 C-173.20935432 448.44972002 -170.90552165 448.44825641 -168.60162354 448.44683838 C-166.93745281 448.44942169 -165.2732827 448.45243475 -163.60911345 448.45584178 C-159.02735683 448.46391902 -154.44561587 448.46570175 -149.86385298 448.46643925 C-144.92575122 448.46828854 -139.9876576 448.47583523 -135.04956055 448.48257446 C-124.24795296 448.49616329 -113.44634909 448.50218332 -102.64473438 448.50658512 C-95.90204858 448.50934653 -89.15936421 448.51358368 -82.41667938 448.51808929 C-63.75345576 448.53028251 -45.09023329 448.54058183 -26.42700577 448.54396439 C-25.2322438 448.54418395 -24.03748184 448.54440352 -22.80651496 448.54462974 C-21.01005059 448.54495715 -21.01005059 448.54495715 -19.17729402 448.54529119 C-16.75035747 448.54573465 -14.32342092 448.54618122 -11.89648438 448.54663086 C-10.6926365 448.54685229 -9.48878862 448.54707372 -8.2484605 448.54730186 C11.26187477 448.55125058 30.77217271 448.56870665 50.28249356 448.59199038 C70.30648005 448.61569454 90.3304478 448.6281658 110.35444856 448.6293323 C121.60000532 448.63024957 132.84551344 448.63601498 144.09105682 448.65415192 C153.66619793 448.66954024 163.24127536 448.67468084 172.81642649 448.66641381 C177.70243627 448.66250287 182.58831777 448.66345862 187.47431183 448.67747116 C191.94773498 448.69018326 196.42093309 448.68903625 200.8943558 448.67688045 C202.51213583 448.67491879 204.12993164 448.67802351 205.74768946 448.68672481 C217.05499394 448.84991488 217.05499394 448.84991488 227.63378906 445.30639648 C232.74616034 439.93185232 232.63378906 438.27435936 232.63378906 430.30639648 C90.73378906 430.30639648 -51.16621094 430.30639648 -197.36621094 430.30639648 Z " fill="#6262ff" transform="translate(238.3662109375,23.693603515625)"/>
<path d="M0 0 C11.40233878 11.74903152 15.94536123 25.37456963 15.86352539 41.44921875 C15.51374184 55.57736513 9.81419688 68.35660502 0.046875 78.56640625 C-11.80692055 89.32055725 -26.5305553 94.41357762 -42.4375 93.6953125 C-57.65839055 92.23692321 -71.38755227 85.31254253 -81.3125 73.609375 C-91.02321975 60.67570086 -93.44736408 46.57045189 -92.4375 30.8203125 C-90.40202373 16.96872395 -82.86301197 4.3863127 -71.87109375 -4.1796875 C-48.91426526 -19.68473614 -20.91727843 -18.70487398 0 0 Z M-63.4375 11.8203125 C-63.7675 12.4803125 -64.0975 13.1403125 -64.4375 13.8203125 C-47.2775 13.8203125 -30.1175 13.8203125 -12.4375 13.8203125 C-18.24791686 6.55729143 -25.36349257 3.43021704 -34.4375 1.8203125 C-44.91307174 0.75500012 -55.89165728 4.40164691 -63.4375 11.8203125 Z M-74.4375 30.8203125 C-77.3683602 39.61289311 -75.4648824 48.7155181 -71.4375 56.8203125 C-65.89940169 66.12693925 -57.96324754 72.99819178 -47.4375 75.8203125 C-37.23368212 77.82512767 -27.5109809 76.68805975 -18.625 71.0703125 C-10.28858449 64.91975639 -3.29133048 57.42190553 -1.4375 46.8203125 C-1.34431264 44.44677564 -1.307541 42.07067279 -1.3125 39.6953125 C-1.30992187 38.45523438 -1.30734375 37.21515625 -1.3046875 35.9375 C-1.22081189 32.91307677 -1.22081189 32.91307677 -2.4375 30.8203125 C-26.1975 30.8203125 -49.9575 30.8203125 -74.4375 30.8203125 Z " fill="#6262ff" transform="translate(294.4375,99.1796875)"/>
<path d="M0 0 C3.69186542 2.59216083 4.82883761 4.04149064 5.625 8.5 C4.69516869 13.70705532 1.49641606 15.91379259 -2.67895508 18.94458008 C-3.61634521 19.54681396 -4.55373535 20.14904785 -5.51953125 20.76953125 C-6.54111328 21.43017578 -7.56269531 22.09082031 -8.61523438 22.77148438 C-9.67033203 23.44501953 -10.72542969 24.11855469 -11.8125 24.8125 C-13.42415039 25.85180664 -13.42415039 25.85180664 -15.06835938 26.91210938 C-17.70871229 28.61367014 -20.35261851 30.30940375 -23 32 C-20.25045794 34.90834464 -17.48399365 37.14950653 -14.12109375 39.3125 C-13.20005859 39.91320312 -12.27902344 40.51390625 -11.33007812 41.1328125 C-9.39893457 42.37938457 -7.46663799 43.62417221 -5.53320312 44.8671875 C-4.61345703 45.46789062 -3.69371094 46.06859375 -2.74609375 46.6875 C-1.48817017 47.49767578 -1.48817017 47.49767578 -0.20483398 48.32421875 C3.10960761 50.84335584 4.8190915 52.78532865 5.4375 56.9375 C4.86956835 60.91302153 4.10507227 62.42506202 1 65 C-3.55326107 65.79726796 -7.17099768 65.40620137 -11.31640625 63.375 C-12.41317461 62.60387945 -13.49461193 61.81064346 -14.5625 61 C-15.83704667 60.08905048 -17.11321572 59.18036845 -18.390625 58.2734375 C-19.10154297 57.76135742 -19.81246094 57.24927734 -20.54492188 56.72167969 C-23.400396 54.71921315 -26.31032512 52.8149593 -29.234375 50.9140625 C-30.31904053 50.20636719 -31.40370605 49.49867188 -32.52124023 48.76953125 C-34.69474141 47.35331329 -36.87128778 45.94175662 -39.05102539 44.53515625 C-40.05125732 43.87644531 -41.05148926 43.21773438 -42.08203125 42.5390625 C-43.43131714 41.66048584 -43.43131714 41.66048584 -44.80786133 40.76416016 C-47.0936182 38.92465919 -48.03878181 37.74585637 -49 35 C-49.06210076 31.64655874 -49.02879824 29.14424797 -46.70117188 26.55541992 C-41.85528012 22.52922068 -36.75174518 19.06502976 -31.4375 15.6875 C-29.66127612 14.55236841 -27.88523541 13.41695014 -26.109375 12.28125 C-24.8090332 11.45173828 -24.8090332 11.45173828 -23.48242188 10.60546875 C-21.23964082 9.15498407 -19.02889495 7.66941406 -16.828125 6.15625 C-16.20623291 5.73512939 -15.58434082 5.31400879 -14.94360352 4.88012695 C-13.30380067 3.76648356 -11.67301756 2.63959103 -10.04296875 1.51171875 C-6.39867008 -0.29873514 -4.02153558 -0.43836644 0 0 Z " fill="#6262ff" transform="translate(225,277)"/>
<path d="M0 0 C2.53239228 1.23213472 4.63280784 2.4349504 6.9375 4 C7.5970166 4.43135254 8.2565332 4.86270508 8.93603516 5.30712891 C10.43353415 6.29046515 11.92606394 7.28139488 13.41455078 8.27832031 C16.36215882 10.24116563 19.33461243 12.16330069 22.30859375 14.0859375 C24.4982222 15.51435906 26.68702648 16.94404479 28.875 18.375 C29.93968506 19.06464844 31.00437012 19.75429688 32.10131836 20.46484375 C33.09655518 21.12355469 34.09179199 21.78226562 35.1171875 22.4609375 C36.01034668 23.04665527 36.90350586 23.63237305 37.82373047 24.23583984 C40.09463979 26.07671833 41.05014571 27.2591837 42 30 C41.92484084 34.13375383 41.62325064 36.27979926 38.890625 39.4375 C35.70619488 42.26045427 32.45426243 44.39070336 28.8125 46.5625 C21.67219588 50.91480552 14.69958707 55.48043881 7.76489258 60.15258789 C7.04068115 60.63977295 6.31646973 61.12695801 5.5703125 61.62890625 C4.92852051 62.06275635 4.28672852 62.49660645 3.62548828 62.94360352 C-0.02189895 65.31402174 -2.64579497 65.44280051 -7 65 C-10.69186542 62.40783917 -11.82883761 60.95850936 -12.625 56.5 C-11.75650573 51.63643209 -9.20878435 49.54332881 -5.20263672 46.74414062 C-3.19633469 45.46067149 -1.16895988 44.22255544 0.875 43 C6.07695765 39.85325813 11.09011089 36.58947507 16 33 C12.76724912 30.35265963 9.49110448 27.92882646 5.98828125 25.65234375 C5.06595703 25.04712891 4.14363281 24.44191406 3.19335938 23.81835938 C1.2627801 22.55792016 -0.66953275 21.30013246 -2.60351562 20.04492188 C-3.52197266 19.44099609 -4.44042969 18.83707031 -5.38671875 18.21484375 C-6.22420654 17.66948975 -7.06169434 17.12413574 -7.92456055 16.56225586 C-10 15 -10 15 -12 12 C-12.56551375 7.63746537 -12.49322651 5.70247412 -9.9375 2.0625 C-6.20758398 -0.5563772 -4.49871242 -0.4545574 0 0 Z " fill="#6262ff" transform="translate(294,277)"/>
<path d="M0 0 C2.5 2.0625 2.5 2.0625 4 5 C3.69996287 12.36899698 1.16328399 18.93194909 -1.296875 25.828125 C-1.72752258 27.0535199 -2.15817017 28.27891479 -2.60186768 29.54144287 C-3.51153599 32.1285272 -4.42648675 34.7136564 -5.34570312 37.29736328 C-6.5110489 40.57326624 -7.66640428 43.85257523 -8.81812668 47.13328934 C-9.93198157 50.30383972 -11.05198052 53.47220258 -12.171875 56.640625 C-12.78467316 58.38028534 -12.78467316 58.38028534 -13.40985107 60.15509033 C-15.38745985 65.70927902 -17.43250712 71.23245647 -19.61425781 76.70996094 C-19.99994934 77.67996033 -20.38564087 78.64995972 -20.78302002 79.64935303 C-22 82 -22 82 -25 84 C-29.36253463 84.56551375 -31.29752588 84.49322651 -34.9375 81.9375 C-37.57222926 78.18500681 -37.36468001 76.54394716 -37 72 C-36.22362988 68.87762416 -35.1647093 65.88300409 -34.0703125 62.859375 C-33.76426086 61.98686096 -33.45820923 61.11434692 -33.1428833 60.21539307 C-32.14818164 57.3894635 -31.1375012 54.56959639 -30.125 51.75 C-29.43517403 49.81008621 -28.74588602 47.86998104 -28.05712891 45.9296875 C-26.68623923 42.07497572 -25.30779389 38.22308201 -23.92382812 34.37304688 C-22.47876587 30.34861086 -21.05715036 26.3168521 -19.65396118 22.27764893 C-18.57500489 19.18008358 -17.47382212 16.09057268 -16.375 13 C-15.99875488 11.90526367 -15.62250977 10.81052734 -15.23486328 9.68261719 C-14.87634277 8.69422852 -14.51782227 7.70583984 -14.1484375 6.6875 C-13.85114746 5.84574219 -13.55385742 5.00398438 -13.24755859 4.13671875 C-10.09932428 -1.25532562 -5.6177563 -1.63425638 0 0 Z " fill="#6262ff" transform="translate(272,268)"/>
</svg>
