<?xml version="1.0" encoding="UTF-8"?>
<svg version="1.1" xmlns="http://www.w3.org/2000/svg" width="50" height="50">
<path d="M0 0 C1 1 1 1 1.625 3.6328125 C0.7534384 8.32835062 -1.54348913 9.50996256 -5.36328125 12.1484375 C-6.23339844 12.71820313 -7.10351562 13.28796875 -8 13.875 C-8.83917969 14.46796875 -9.67835937 15.0609375 -10.54296875 15.671875 C-15.97541479 19.32719528 -19.45048194 20.86663905 -26 20 C-28.34570085 19.02936517 -30.68020619 18.03101947 -33 17 C-37.18610811 16.5974896 -38.44991683 16.63327789 -42 19 C-42.99 19 -43.98 19 -45 19 C-45 18.01 -45 17.02 -45 16 C-41.59066118 13.12337037 -38.54369902 12.54497815 -34.1171875 12.6953125 C-31.14871889 13.12250909 -28.58363565 14.17818748 -25.828125 15.328125 C-23.4726297 16.19381985 -21.4817687 16.30082045 -19 16 C-18.67 15.67 -18.34 15.34 -18 15 C-18.78246094 14.81824219 -19.56492187 14.63648438 -20.37109375 14.44921875 C-21.38300781 14.19785156 -22.39492188 13.94648437 -23.4375 13.6875 C-24.44683594 13.44386719 -25.45617187 13.20023438 -26.49609375 12.94921875 C-27.32238281 12.63597656 -28.14867188 12.32273437 -29 12 C-29.33 11.01 -29.66 10.02 -30 9 C-26.04 9.33 -22.08 9.66 -18 10 C-27.09759177 5.37022043 -27.09759177 5.37022043 -37 5 C-38.6744239 5.6469365 -40.34302621 6.30959426 -42 7 C-44.3125 6.625 -44.3125 6.625 -46 6 C-43.08934935 2.62977293 -40.2848641 1.31920896 -35.875 0.703125 C-30.37149923 0.38561534 -26.91667192 1.37553358 -22 3.875 C-17.70413998 5.93553546 -17.70413998 5.93553546 -13.2265625 4.99609375 C-11.51543065 3.88873965 -9.83701839 2.72880992 -8.19921875 1.515625 C-5.3712216 -0.43333219 -3.35498618 -0.60217701 0 0 Z M-9.125 5.8125 C-10.03507812 6.33457031 -10.94515625 6.85664062 -11.8828125 7.39453125 C-12.58148438 7.92433594 -13.28015625 8.45414063 -14 9 C-14 9.99 -14 10.98 -14 12 C-9.50985376 10.50328459 -5.52151236 8.16631659 -2 5 C-2 4.34 -2 3.68 -2 3 C-4.91148842 3 -6.6291525 4.35125595 -9.125 5.8125 Z " fill="#f6f6f6" transform="translate(47,27)"/>
<path d="M0 0 C9.9 0 19.8 0 30 0 C30 6.6 30 13.2 30 20 C19.06921826 21.5996266 10.84713422 22.24423467 0 20 C0 13.4 0 6.8 0 0 Z M2 2 C2 7.28 2 12.56 2 18 C5.96 18 9.92 18 14 18 C14.05384521 15.70858714 14.09272087 13.41681812 14.125 11.125 C14.14820313 9.84882813 14.17140625 8.57265625 14.1953125 7.2578125 C14.35641524 3.91406662 14.35641524 3.91406662 12 2 C9.55987051 1.75712511 9.55987051 1.75712511 6.875 1.875 C5.26625 1.91625 3.6575 1.9575 2 2 Z M16 4 C15.75622117 7.35744112 15.75622117 7.35744112 15.875 11.125 C15.89304687 12.40632812 15.91109375 13.68765625 15.9296875 15.0078125 C15.95289063 15.99523438 15.97609375 16.98265625 16 18 C19.96 18 23.92 18 28 18 C28 12.72 28 7.44 28 2 C25.586875 1.938125 25.586875 1.938125 23.125 1.875 C22.22007813 1.85179687 21.31515625 1.82859375 20.3828125 1.8046875 C17.81193006 1.75675164 17.81193006 1.75675164 16 4 Z " fill="#f6f6f6" transform="translate(13,2)"/>
</svg>
