<?xml version="1.0" encoding="UTF-8"?>
<svg version="1.1" xmlns="http://www.w3.org/2000/svg" width="512" height="512">
<path d="M0 0 C19.36206812 15.81698771 34.05160057 37.69657207 37 63 C37.01041734 64.99997287 37.01144009 67.00003272 37 69 C37.57105469 68.99111755 38.14210938 68.98223511 38.73046875 68.9730835 C44.70058126 68.8842496 50.6705045 68.82411694 56.64111328 68.78027344 C58.86612582 68.76021954 61.09108607 68.73296935 63.31591797 68.69824219 C66.52324365 68.64945066 69.72986951 68.62696838 72.9375 68.609375 C73.92427734 68.58872986 74.91105469 68.56808472 75.92773438 68.54681396 C83.30464406 68.5444439 88.64302935 70.05826439 94.2421875 74.96484375 C95.05042969 75.94130859 95.05042969 75.94130859 95.875 76.9375 C96.42929687 77.58589844 96.98359375 78.23429687 97.5546875 78.90234375 C100.26390083 82.83436417 101.25024001 86.35006395 101.24609566 91.09742451 C101.25007775 92.10711428 101.25405985 93.11680405 101.25816262 94.15709049 C101.25233693 95.25922844 101.24651125 96.36136639 101.24050903 97.49690247 C101.24307231 99.26127994 101.24307231 99.26127994 101.24568737 101.06130141 C101.24841162 104.32231562 101.24216266 107.58317076 101.23213124 110.84416616 C101.2234934 114.36217515 101.22641714 117.88017675 101.22793579 121.39819336 C101.22898443 127.49210682 101.22271002 133.58597745 101.21146011 139.67988014 C101.19520524 148.49063139 101.18999712 157.30136193 101.18748413 166.11212655 C101.18310701 180.40703817 101.16979744 194.70192695 101.15087891 208.99682617 C101.13252055 222.88289272 101.11836383 236.76895306 101.10986328 250.6550293 C101.10933783 251.51098341 101.10881239 252.36693752 101.10827102 253.24882964 C101.10566094 257.54290488 101.10313353 261.83698016 101.10064721 266.13105547 C101.07991418 301.75405326 101.04468817 337.37702452 101 373 C102.03060547 372.98259766 103.06121094 372.96519531 104.12304688 372.94726562 C105.48827716 372.93319109 106.85351187 372.91954161 108.21875 372.90625 C108.89647461 372.89368164 109.57419922 372.88111328 110.27246094 372.86816406 C117.11349144 372.81822953 121.0686964 374.20299915 125.9609375 378.87109375 C131.87894587 385.26012727 133.31258999 390.30584619 133.3359375 398.8515625 C133.3425943 399.70624115 133.3492511 400.5609198 133.35610962 401.4414978 C133.36621468 403.2485744 133.3709273 405.05568815 133.37060547 406.86279297 C133.37495286 409.59537285 133.41122228 412.32630205 133.44921875 415.05859375 C133.53961248 428.88638349 131.91354219 439.61531917 122 450 C110.70739622 460.78027393 98.5328029 461.58848103 83.66748047 461.50793457 C81.80966135 461.51254835 79.95184589 461.51890446 78.09403801 461.52684355 C73.00931924 461.5434944 67.92490196 461.53530977 62.8401823 461.52289867 C57.34861426 461.51383314 51.85709737 461.52782538 46.36553955 461.53881836 C35.61563963 461.55659208 24.86585152 461.55276867 14.11594725 461.5411678 C5.37821251 461.53212926 -3.35949093 461.5309113 -12.097229 461.53526306 C-13.34147522 461.53587599 -14.58572144 461.53648893 -15.86767209 461.53712043 C-18.39544218 461.53839935 -20.92321226 461.5396962 -23.45098233 461.5410108 C-46.47099603 461.55208828 -69.49096024 461.54060623 -92.5109618 461.51964041 C-113.51189778 461.5006589 -134.51273674 461.50235745 -155.51367188 461.52148438 C-179.12498155 461.54291702 -202.73624992 461.55131463 -226.34757042 461.53903532 C-228.8659706 461.53776114 -231.3843708 461.53650366 -233.902771 461.53526306 C-235.14182792 461.53464596 -236.38088484 461.53402886 -237.65748894 461.53339306 C-246.38334655 461.52994134 -255.1091697 461.53576468 -263.83502197 461.54518127 C-274.47090386 461.55640694 -285.10666768 461.55334915 -295.74253607 461.5320583 C-301.16770519 461.52155565 -306.59267755 461.51741283 -312.01784515 461.53065491 C-316.98712177 461.54260066 -321.95601979 461.53598008 -326.92526221 461.5147447 C-328.71986447 461.51028792 -330.51449891 461.51252407 -332.30908036 461.52224785 C-346.29832985 461.59221465 -357.49516264 460.02824739 -368 450 C-378.58579352 438.91111926 -379.65999013 427.16809087 -379.52148438 412.51977539 C-379.49995798 409.80720487 -379.52140789 407.09725789 -379.546875 404.38476562 C-379.54423285 402.63801507 -379.53911021 400.89126612 -379.53125 399.14453125 C-379.53934692 398.34537796 -379.54744385 397.54622467 -379.55578613 396.72285461 C-379.44534024 390.02424927 -377.46975978 384.81837398 -373.03515625 379.7578125 C-372.05869141 378.94957031 -372.05869141 378.94957031 -371.0625 378.125 C-370.41410156 377.57070313 -369.76570313 377.01640625 -369.09765625 376.4453125 C-364.27257712 373.12077008 -359.92872489 372.73215613 -354.1875 372.875 C-353.49462891 372.88402344 -352.80175781 372.89304687 -352.08789062 372.90234375 C-350.39177605 372.92573843 -348.69584129 372.96160359 -347 373 C-347.00151888 372.39575447 -347.00303776 371.79150894 -347.00460267 371.16895294 C-347.09412246 335.35339543 -347.16275001 299.53785718 -347.20426132 263.72221106 C-347.20926412 259.42141526 -347.21444141 255.12061968 -347.21972656 250.81982422 C-347.2207758 249.96361626 -347.22182505 249.10740831 -347.22290608 248.22525465 C-347.24030949 234.36315794 -347.27184683 220.50112761 -347.30861118 206.63907027 C-347.3460224 192.41443969 -347.36823623 178.18984386 -347.37635398 163.96516609 C-347.38184138 155.18834234 -347.39917043 146.41170621 -347.43166587 137.63494021 C-347.45281598 131.61569962 -347.45919893 125.59655598 -347.45400551 119.57728094 C-347.45144448 116.10485426 -347.45535958 112.63275537 -347.4768219 109.16038704 C-347.49671049 105.39255149 -347.49194208 101.62552001 -347.48101807 97.85766602 C-347.49266943 96.76426659 -347.5043208 95.67086716 -347.51632524 94.54433441 C-347.45669172 86.93935234 -346.18346622 81.63282228 -341.03515625 75.7578125 C-340.38417969 75.21898438 -339.73320312 74.68015625 -339.0625 74.125 C-338.41410156 73.57070312 -337.76570313 73.01640625 -337.09765625 72.4453125 C-332.40045082 69.20887673 -328.40620968 68.75138895 -322.75505066 68.75949097 C-322.03615687 68.75778212 -321.31726308 68.75607327 -320.57658464 68.75431263 C-318.17359421 68.75102479 -315.77088452 68.76200966 -313.36791992 68.77294922 C-311.64306647 68.77351349 -309.91821254 68.77319647 -308.19335938 68.77206421 C-303.51401052 68.7714903 -298.83476417 68.78325084 -294.15543914 68.79721212 C-289.2640572 68.80971308 -284.37267292 68.81088948 -279.48127747 68.81326294 C-270.22014587 68.81947957 -260.95906147 68.83589288 -251.69795066 68.85596192 C-241.15390651 68.8783152 -230.60986011 68.88931292 -220.06579816 68.89935279 C-198.37717243 68.92025893 -176.68858919 68.9554385 -155 69 C-154.93583389 68.24994186 -154.87166779 67.49988373 -154.80555725 66.72709656 C-154.71898361 65.74038467 -154.63240997 64.75367279 -154.54321289 63.73706055 C-154.45842178 62.76012741 -154.37363068 61.78319427 -154.28627014 60.7766571 C-151.86814431 37.32221569 -136.96070207 15.95040421 -119.49609375 0.9375 C-84.86822655 -25.94109489 -34.82078731 -26.95650065 0 0 Z M-117 22 C-133.1803367 38.83851989 -138.53069123 60.12009009 -138.2890625 82.85546875 C-138.01952519 91.72433517 -136.60787873 101.81903323 -131 109 C-128.53661389 110.39322657 -126.20102295 111.5584706 -123.625 112.6875 C-105.8455755 121.05748125 -92.59266714 134.61046667 -82 151 C-80.20886554 154.38116371 -80.20886554 154.38116371 -76.1875 155.125 C-54.18827695 159.25861197 -32.81307365 155.14812794 -14 143 C2.78491103 131.3094323 15.69214093 113.12539515 19.59765625 92.83203125 C22.01873272 69.77304083 18.85121153 48.56141178 4.9375 29.5 C3.97132355 28.32255296 2.99231331 27.15550542 2 26 C1.50371094 25.36191406 1.00742187 24.72382812 0.49609375 24.06640625 C-12.68294226 7.77521234 -32.94605029 -0.5634442 -53.3125 -2.8125 C-77.67946515 -4.22337374 -99.71127446 5.27657339 -117 22 Z M-329 88 C-330.70994206 91.41352793 -331.24948998 94.19494737 -331.24609566 97.98810291 C-331.2500774 98.97371645 -331.25405914 99.95932999 -331.25816154 100.9748106 C-331.25233622 102.04940438 -331.24651089 103.12399817 -331.24050903 104.2311554 C-331.24222107 105.37605438 -331.24393311 106.52095337 -331.24569702 107.70054626 C-331.2484311 110.88043063 -331.24215966 114.06015218 -331.23214546 117.24001731 C-331.22341246 120.72098349 -331.22633466 124.20194345 -331.2277813 127.68291759 C-331.22884468 134.44018383 -331.21960939 141.19739691 -331.20677864 147.95464949 C-331.19238161 155.7706749 -331.1907893 163.58666836 -331.18920898 171.40270996 C-331.17870726 192.03931507 -331.15078504 212.67590833 -331.125 233.3125 C-331.08375 279.409375 -331.0425 325.50625 -331 373 C-193.72 373 -56.44 373 85 373 C85.061875 326.92375 85.12375 280.8475 85.1875 233.375 C85.21481201 218.81165527 85.24212402 204.24831055 85.27026367 189.24365234 C85.28029528 176.22017013 85.28029528 176.22017013 85.28633118 163.19668579 C85.28913276 157.38357926 85.30015403 151.57055888 85.31672668 145.75747681 C85.33580547 139.05544487 85.34451188 132.35349579 85.34033485 125.65143649 C85.33852539 122.22207906 85.34142013 118.79290688 85.35764539 115.36358333 C85.37250913 111.69270655 85.36899134 108.02229682 85.36076355 104.35140991 C85.36950154 103.27972879 85.37823954 102.20804768 85.38724232 101.10389137 C85.35437903 95.66976801 85.15257164 91.65385094 82 87 C77.70683189 84.22729788 72.70208633 84.74463025 67.76171875 84.8046875 C66.88095169 84.8075174 66.00018463 84.81034729 65.09272766 84.81326294 C62.29084455 84.82442167 59.48928584 84.84951829 56.6875 84.875 C54.78320775 84.88503537 52.87891048 84.89416025 50.97460938 84.90234375 C46.31628203 84.92434691 41.65819594 84.95884706 37 85 C36.35374544 88.06241127 35.70807147 91.12494467 35.0625 94.1875 C34.88009766 95.05181641 34.69769531 95.91613281 34.50976562 96.80664062 C33.65404145 100.86744081 32.80092216 104.92794314 32 109 C33.47593628 109.02187378 33.47593628 109.02187378 34.98168945 109.04418945 C38.63293774 109.10216998 42.28356911 109.17940185 45.93432617 109.26245117 C47.51430243 109.29570188 49.09439752 109.32373346 50.67456055 109.34643555 C52.94631579 109.37998016 55.21698203 109.43229227 57.48828125 109.48828125 C58.19463211 109.49467117 58.90098297 109.5010611 59.6287384 109.50764465 C64.54455665 109.65497341 64.54455665 109.65497341 66.68702185 111.27802372 C68.27826849 113.36495027 68.37571859 114.38269071 68.37752342 116.98399353 C68.38534666 117.79626435 68.39316991 118.60853518 68.40123022 119.44542027 C68.39453805 120.33733539 68.38784589 121.22925051 68.38095093 122.14819336 C68.3856309 123.09602408 68.39031087 124.04385481 68.39513266 125.02040768 C68.40714056 128.2103602 68.39760274 131.3998877 68.38818359 134.58984375 C68.39224672 136.87110648 68.39758713 139.15236725 68.40411377 141.43362427 C68.41782398 147.6401105 68.41247341 153.84644762 68.40297651 160.05293655 C68.39539909 166.53781801 68.40242018 173.02268642 68.40713501 179.50756836 C68.41294843 191.09760006 68.40360563 202.68756349 68.388357 214.27758443 C68.37495332 224.79088428 68.37728126 235.30408476 68.39111328 245.81738281 C68.40715984 258.019642 68.41314815 270.22183041 68.40427649 282.42409992 C68.3995912 288.88577473 68.39899859 295.34738106 68.40888596 301.80905151 C68.41753014 307.88291131 68.41158035 313.95658283 68.39420319 320.03042221 C68.3902247 322.26416587 68.39139551 324.49792528 68.39799118 326.73166275 C68.40614297 329.77192715 68.39596222 332.81158151 68.38095093 335.85180664 C68.38764309 336.74372176 68.39433526 337.63563688 68.40123022 338.55457973 C68.39340697 339.36685056 68.38558373 340.17912138 68.37752342 341.01600647 C68.37679284 342.0689998 68.37679284 342.0689998 68.37604749 343.14326572 C67.85698673 345.70612796 67.1615662 346.52348296 65 348 C62.21993351 348.37604749 62.21993351 348.37604749 58.7671051 348.37752342 C57.45322532 348.38534666 56.13934553 348.39316991 54.78565121 348.40123022 C53.31876949 348.39474338 51.85188901 348.38797338 50.38500977 348.38095093 C48.83363038 348.38440532 47.28225345 348.38916841 45.73088169 348.39513266 C41.4563935 348.4077024 37.18210522 348.40144528 32.90761614 348.39217401 C28.30223744 348.3854082 23.69689399 348.39585244 19.09152222 348.40411377 C10.06509703 348.41747976 1.03874653 348.41456063 -7.98768163 348.40587585 C-15.32121092 348.39911096 -22.65471922 348.39817739 -29.98825073 348.4014473 C-31.55164551 348.40213684 -31.55164551 348.40213684 -33.14662403 348.40284032 C-35.26371424 348.40379946 -37.38080445 348.4047721 -39.49789464 348.4057581 C-59.36728501 348.41432039 -79.23663391 348.40446472 -99.10601747 348.388357 C-116.16868086 348.37495306 -133.23128303 348.37728092 -150.29394531 348.39111328 C-170.09042526 348.4071543 -189.88686884 348.41349634 -209.68335438 348.40427649 C-211.79281934 348.4033208 -213.9022843 348.40237769 -216.01174927 348.4014473 C-217.56874681 348.40075306 -217.56874681 348.40075306 -219.15719885 348.40004479 C-226.48508763 348.39745046 -233.8129534 348.40183542 -241.14083862 348.40888596 C-250.0665475 348.41728475 -258.9921772 348.41505506 -267.91787696 348.39904372 C-272.47516347 348.3911391 -277.03231778 348.38810652 -281.58960342 348.39799118 C-285.756886 348.40689348 -289.92391313 348.40207955 -294.09117234 348.38605852 C-295.60323651 348.38269167 -297.11532202 348.38444718 -298.62737262 348.39168589 C-300.67393555 348.40073619 -302.72055844 348.38970919 -304.7671051 348.37752342 C-305.90653848 348.37703637 -307.04597185 348.37654931 -308.21993351 348.37604749 C-311 348 -311 348 -312.86596072 346.72540438 C-314.2339961 344.64398244 -314.37580276 343.4959968 -314.37752342 341.01600647 C-314.38534666 340.20373565 -314.39316991 339.39146482 -314.40123022 338.55457973 C-314.39453805 337.66266461 -314.38784589 336.77074949 -314.38095093 335.85180664 C-314.3856309 334.90397592 -314.39031087 333.95614519 -314.39513266 332.97959232 C-314.40714056 329.7896398 -314.39760274 326.6001123 -314.38818359 323.41015625 C-314.39224672 321.12889352 -314.39758713 318.84763275 -314.40411377 316.56637573 C-314.41782398 310.3598895 -314.41247341 304.15355238 -314.40297651 297.94706345 C-314.39539909 291.46218199 -314.40242018 284.97731358 -314.40713501 278.49243164 C-314.41294843 266.90239994 -314.40360563 255.31243651 -314.388357 243.72241557 C-314.37495332 233.20911572 -314.37728126 222.69591524 -314.39111328 212.18261719 C-314.40715984 199.980358 -314.41314815 187.77816959 -314.40427649 175.57590008 C-314.3995912 169.11422527 -314.39899859 162.65261894 -314.40888596 156.19094849 C-314.41753014 150.11708869 -314.41158035 144.04341717 -314.39420319 137.96957779 C-314.3902247 135.73583413 -314.39139551 133.50207472 -314.39799118 131.26833725 C-314.40614297 128.22807285 -314.39596222 125.18841849 -314.38095093 122.14819336 C-314.38764309 121.25627824 -314.39433526 120.36436312 -314.40123022 119.44542027 C-314.39340697 118.63314944 -314.38558373 117.82087862 -314.37752342 116.98399353 C-314.37703637 116.28199798 -314.37654931 115.58000242 -314.37604749 114.85673428 C-313.88419445 112.42821014 -312.91103026 111.52714886 -311 110 C-309.11101913 109.6292057 -309.11101913 109.6292057 -306.94378662 109.63491821 C-306.11992462 109.62960587 -305.29606262 109.62429352 -304.44723511 109.61882019 C-303.09615158 109.63275566 -303.09615158 109.63275566 -301.71777344 109.64697266 C-300.76607269 109.64481247 -299.81437195 109.64265228 -298.83383179 109.64042664 C-296.76311963 109.63733521 -294.69238923 109.6409586 -292.62169647 109.65044022 C-289.33225218 109.66417576 -286.04341165 109.65773925 -282.75396729 109.64559937 C-273.39974087 109.61465314 -264.0456519 109.61937307 -254.69140625 109.63964844 C-248.96894834 109.65064197 -243.24693957 109.63720509 -237.52454376 109.60975266 C-235.35431441 109.60435034 -233.18403908 109.608277 -231.01384735 109.62215042 C-218.19236525 109.70307185 -207.93294648 108.79211697 -196 104 C-186.71787926 101.50022208 -177.34251658 101.76580297 -167.8125 101.875 C-166.27279232 101.88505603 -164.73307824 101.89417721 -163.19335938 101.90234375 C-159.4619475 101.9224159 -155.73144562 101.96159747 -152 102 C-152.99 96.39 -153.98 90.78 -155 85 C-176.80083507 84.93055655 -198.60164351 84.87701789 -220.40256691 84.84456348 C-230.52508942 84.82909389 -240.64754194 84.80800255 -250.77001953 84.77368164 C-259.59265768 84.74378217 -268.41524515 84.72442567 -277.23793256 84.71773452 C-281.90958707 84.7138232 -286.58109658 84.70462905 -291.25270462 84.68280983 C-295.65049419 84.66243606 -300.04807913 84.65616801 -304.44591141 84.66067696 C-306.0591849 84.65985215 -307.67246528 84.65389176 -309.28569794 84.64238358 C-311.4908967 84.62742517 -313.6953261 84.6310581 -315.90054321 84.63923645 C-317.13390223 84.63647107 -318.36726124 84.63370569 -319.63799477 84.63085651 C-323.45781725 85.0502677 -325.80505885 85.86714414 -329 88 Z M-231 141 C-231.63164062 141.55042969 -232.26328125 142.10085937 -232.9140625 142.66796875 C-247.92366863 156.54671415 -257.40804546 178.00673846 -258.37890625 198.23046875 C-259.07342315 223.51309475 -252.6963622 244.77633016 -236 264 C-235.35417969 264.74636719 -234.70835937 265.49273437 -234.04296875 266.26171875 C-218.68478218 282.71922815 -195.88420699 292.02043896 -173.62109375 293.03125 C-149.93761851 292.82686186 -128.58694308 284.98016257 -111 269 C-110.36835938 268.44957031 -109.73671875 267.89914062 -109.0859375 267.33203125 C-94.07633137 253.45328585 -84.59195454 231.99326154 -83.62109375 211.76953125 C-82.92657685 186.48690525 -89.3036378 165.22366984 -106 146 C-106.64582031 145.25363281 -107.29164063 144.50726563 -107.95703125 143.73828125 C-123.31521782 127.28077185 -146.11579301 117.97956104 -168.37890625 116.96875 C-192.06238149 117.17313814 -213.41305692 125.01983743 -231 141 Z M-299 125 C-299 193.64 -299 262.28 -299 333 C-182.84 333 -66.68 333 53 333 C53 264.36 53 195.72 53 125 C43.43 125 33.86 125 24 125 C20.535 130.445 20.535 130.445 17 136 C1.38290208 155.49352451 -20.19832804 168.38513814 -45 172 C-49.53921915 172.35183231 -54.07443346 172.50324571 -58.625 172.625 C-59.81996094 172.66367188 -61.01492188 172.70234375 -62.24609375 172.7421875 C-65.16391736 172.83555786 -68.08174921 172.92133578 -71 173 C-70.86722656 173.79664063 -70.73445312 174.59328125 -70.59765625 175.4140625 C-70.06510417 178.609375 -69.53255208 181.8046875 -69 185 C-68.81800049 185.99088623 -68.63600098 186.98177246 -68.44848633 188.00268555 C-66.05262064 204.01468501 -66.79645912 221.63253348 -72 237 C-72.31348389 237.94456055 -72.31348389 237.94456055 -72.63330078 238.90820312 C-77.9513025 254.5714112 -86.43833079 267.29603332 -98 279 C-98.56976563 279.64195312 -99.13953125 280.28390625 -99.7265625 280.9453125 C-113.47012874 296.09847528 -136.95486965 305.89416866 -157 308 C-190.46079217 309.41912715 -217.72897254 303.10331412 -242.9296875 280.35546875 C-260.00420259 264.38033529 -272.931716 240.58712755 -274.16113281 216.89477539 C-274.56970028 184.81510305 -269.38960375 156.94462162 -246.2734375 133.19921875 C-244.49747318 131.4307585 -242.70942069 129.67430521 -240.90625 127.93359375 C-238.88299106 126.33385405 -238.88299106 126.33385405 -239 125 C-258.8 125 -278.6 125 -299 125 Z M-361 392 C-362.99525206 395.44973487 -363.25598956 398.48373275 -363.265625 402.421875 C-363.26820313 403.44796875 -363.27078125 404.4740625 -363.2734375 405.53125 C-363.26570313 406.5934375 -363.25796875 407.655625 -363.25 408.75 C-363.25773437 409.79671875 -363.26546875 410.8434375 -363.2734375 411.921875 C-363.25119397 420.81928892 -362.83884635 428.89870039 -357 436 C-349.35080498 443.59455792 -342.22690966 445.12286655 -331.54014874 445.12863445 C-330.43974254 445.13126401 -330.43974254 445.13126401 -329.31710592 445.13394669 C-326.85759981 445.13860056 -324.39815297 445.13614276 -321.93864441 445.13371277 C-320.15796606 445.13558105 -318.37728813 445.13788182 -316.59661084 445.14057809 C-311.7020579 445.14670038 -306.80752203 445.14656199 -301.91296613 445.14538372 C-296.63472885 445.14517982 -291.35649706 445.15069741 -286.07826233 445.15544128 C-275.73679366 445.1637507 -265.39533069 445.16649625 -255.05385896 445.16705366 C-246.64875724 445.16752867 -238.24365741 445.16958268 -229.83855629 445.17275429 C-206.01378292 445.18156157 -182.18901406 445.18617354 -158.36423906 445.18542381 C-156.43730132 445.18536388 -156.43730132 445.18536388 -154.47143555 445.18530273 C-152.54214788 445.18524141 -152.54214788 445.18524141 -150.5738847 445.18517885 C-129.72579066 445.18477234 -108.87771467 445.19434308 -88.02962586 445.2084411 C-66.62808631 445.22279931 -45.22655556 445.22971159 -23.82501107 445.22884732 C-11.8076055 445.22851517 0.20978115 445.23127045 12.22718239 445.24202538 C22.45843553 445.25112305 32.68966116 445.25331165 42.92091659 445.24651595 C48.14120442 445.24324708 53.36143943 445.24320734 58.58172226 445.2518692 C63.36162857 445.25971882 68.14144005 445.25831849 72.921344 445.24958507 C74.64944298 445.24804669 76.37754898 445.24987893 78.10563967 445.25544515 C94.01947449 445.68778646 94.01947449 445.68778646 108 439 C116.84440801 430.09196316 117.19151583 421.10622339 117.25 409 C117.270625 407.93265625 117.29125 406.8653125 117.3125 405.765625 C117.41375464 397.91248091 117.41375464 397.91248091 114 391 C109.81159227 388.76460038 105.79351938 388.7175723 101.15506077 388.74552441 C100.36768374 388.74231793 99.5803067 388.73911145 98.76906976 388.73580781 C96.12059554 388.72748123 93.47234588 388.73344137 90.8238678 388.73930359 C88.90991979 388.73628412 86.99597299 388.73239567 85.08202833 388.72771102 C79.81455782 388.71739595 74.5471551 388.71962175 69.27967894 388.72389162 C63.60201821 388.72635247 57.92437407 388.71735268 52.24671936 388.70985413 C41.12071035 388.69708744 29.99472545 388.69531587 18.86871035 388.69765439 C9.82806874 388.69943544 0.78743447 388.6976925 -8.25320625 388.69342995 C-9.53856408 388.69283476 -10.82392191 388.69223957 -12.14822998 388.69162634 C-14.75919592 388.69041463 -17.37016186 388.68920049 -19.98112781 388.68798397 C-37.51876848 388.68019368 -55.05640468 388.6762798 -72.59404659 388.68030071 C-73.28001236 388.68045709 -73.96597813 388.68061346 -74.67273074 388.68077458 C-78.14956771 388.68158038 -81.62640466 388.68242615 -85.10324161 388.68328788 C-86.1390293 388.68354451 -86.1390293 388.68354451 -87.19574198 388.68380633 C-88.59215157 388.68415298 -89.98856116 388.68450151 -91.38497075 388.68485192 C-113.11660787 388.69020998 -134.84820443 388.68227683 -156.57983398 388.66381836 C-180.98907279 388.64310991 -205.39828035 388.63240449 -229.80752951 388.63639385 C-242.73421346 388.63830897 -255.66086044 388.63578807 -268.58753777 388.62167931 C-279.59149177 388.60979091 -290.59538606 388.60833202 -301.59934085 388.62046947 C-307.21622182 388.62637593 -312.83299343 388.62740894 -318.44986725 388.61546707 C-323.58867648 388.60466833 -328.72728424 388.60763961 -333.86608381 388.62172876 C-335.72807443 388.62439232 -337.59008055 388.62195753 -339.45205604 388.61399289 C-341.97802248 388.60393546 -344.50328197 388.61226692 -347.02921963 388.62526989 C-347.75644459 388.61796054 -348.48366956 388.6106512 -349.23293164 388.60312036 C-353.87251284 388.65281273 -357.06794439 389.53233371 -361 392 Z " fill="#f6f6f6" transform="translate(379,35)"/>
<path d="M0 0 C2.44225447 1.66159248 4.74768159 3.38773224 7.0390625 5.25 C7.87050781 5.87261719 8.70195312 6.49523437 9.55859375 7.13671875 C19.05044396 15.22347618 25.93055669 28.5268711 27.34448242 40.92895508 C27.47509122 43.66825685 27.50687887 46.38281242 27.4765625 49.125 C27.46898926 50.09026611 27.46141602 51.05553223 27.45361328 52.05004883 C27.28448548 59.3799489 26.27331992 65.60180419 23.0390625 72.25 C22.58015625 73.21164063 22.12125 74.17328125 21.6484375 75.1640625 C13.91897924 90.25684678 1.74462952 98.78970206 -14.12109375 104.359375 C-26.20509403 107.16217466 -40.75813646 106.70001132 -51.9609375 101.25 C-52.92257812 100.79109375 -53.88421875 100.3321875 -54.875 99.859375 C-69.96778428 92.12991674 -78.50063956 79.95556702 -84.0703125 64.08984375 C-86.87311216 52.00584347 -86.41094882 37.45280104 -80.9609375 26.25 C-80.50203125 25.28835937 -80.043125 24.32671875 -79.5703125 23.3359375 C-71.84651061 8.25419803 -59.66331626 -0.32293942 -43.7890625 -5.85546875 C-29.15360965 -9.27538579 -12.98077044 -7.67201208 0 0 Z M-29.9609375 12.25 C-33.74722796 21.9179067 -36.34743961 30.81444291 -35.9609375 41.25 C-31.3409375 41.25 -26.7209375 41.25 -21.9609375 41.25 C-21.76013312 35.33296418 -22.40089172 30.23000551 -23.8359375 24.5 C-24.00996094 23.75878906 -24.18398438 23.01757812 -24.36328125 22.25390625 C-25.22380212 18.70346088 -26.11017041 15.4179797 -27.9609375 12.25 C-28.6209375 12.25 -29.2809375 12.25 -29.9609375 12.25 Z M-50.9609375 16.25 C-58.246438 22.0460204 -65.39276813 28.72136707 -66.8359375 38.375 C-66.8771875 39.32375 -66.9184375 40.2725 -66.9609375 41.25 C-62.3409375 41.25 -57.7209375 41.25 -52.9609375 41.25 C-52.43064507 37.83455724 -51.91136967 34.41805458 -51.3984375 31 C-51.24697266 30.03191406 -51.09550781 29.06382813 -50.93945312 28.06640625 C-50.80087891 27.13183594 -50.66230469 26.19726562 -50.51953125 25.234375 C-50.38861084 24.37553711 -50.25769043 23.51669922 -50.12280273 22.63183594 C-49.9602293 20.23957886 -50.24117239 18.52197422 -50.9609375 16.25 Z M-7.9609375 16.25 C-7.82816406 17.30058594 -7.69539063 18.35117188 -7.55859375 19.43359375 C-6.64326358 26.7008654 -5.74128869 33.96672222 -4.9609375 41.25 C-0.3409375 41.25 4.2790625 41.25 9.0390625 41.25 C8.85972002 33.17958856 4.35938004 26.65259089 -1.16796875 20.98828125 C-4.18837776 17.8383438 -4.18837776 17.8383438 -7.9609375 16.25 Z M-66.9609375 57.25 C-66.78172052 65.31476418 -62.29081686 71.89111472 -56.71875 77.51171875 C-54.84167097 79.1583379 -52.94750839 80.73814215 -50.9609375 82.25 C-49.93642449 79.01607394 -50.01051888 76.60474612 -50.51953125 73.265625 C-50.65810547 72.33105469 -50.79667969 71.39648438 -50.93945312 70.43359375 C-51.09091797 69.46550781 -51.24238281 68.49742187 -51.3984375 67.5 C-51.54603516 66.51644531 -51.69363281 65.53289062 -51.84570312 64.51953125 C-52.21051453 62.09530065 -52.58481234 59.67250103 -52.9609375 57.25 C-57.5809375 57.25 -62.2009375 57.25 -66.9609375 57.25 Z M-35.9609375 57.25 C-36.16174188 63.16703582 -35.52098328 68.26999449 -34.0859375 74 C-33.91191406 74.74121094 -33.73789062 75.48242188 -33.55859375 76.24609375 C-32.69807288 79.79653912 -31.81170459 83.0820203 -29.9609375 86.25 C-29.3009375 86.25 -28.6409375 86.25 -27.9609375 86.25 C-24.17464704 76.5820933 -21.57443539 67.68555709 -21.9609375 57.25 C-26.5809375 57.25 -31.2009375 57.25 -35.9609375 57.25 Z M-4.9609375 57.25 C-5.49122993 60.66544276 -6.01050533 64.08194542 -6.5234375 67.5 C-6.67490234 68.46808594 -6.82636719 69.43617188 -6.98242188 70.43359375 C-7.12099609 71.36816406 -7.25957031 72.30273438 -7.40234375 73.265625 C-7.53326416 74.12446289 -7.66418457 74.98330078 -7.79907227 75.86816406 C-7.9616457 78.26042114 -7.68070261 79.97802578 -6.9609375 82.25 C0.324563 76.4539796 7.47089313 69.77863293 8.9140625 60.125 C8.9553125 59.17625 8.9965625 58.2275 9.0390625 57.25 C4.4190625 57.25 -0.2009375 57.25 -4.9609375 57.25 Z " fill="#f6f6f6" transform="translate(348.9609375,62.75)"/>
<path d="M0 0 C3.67472893 1.27014732 7.30344108 2.63698716 10.92489624 4.0496521 C12.2657642 4.55943895 13.60713911 5.06789419 14.94898987 5.5750885 C17.74397078 6.63532133 20.53457716 7.70608358 23.32211304 8.78573608 C26.88507945 10.16560735 30.45483705 11.52669723 34.02759266 12.88099384 C37.45415287 14.18079157 40.87713868 15.48988099 44.29989624 16.7996521 C44.94686777 17.04633448 45.5938393 17.29301685 46.26041603 17.54717445 C48.09951214 18.25032968 49.9357293 18.96100068 51.77182007 19.67196655 C52.81421341 20.07389725 53.85660675 20.47582794 54.93058777 20.88993835 C62.24747859 24.05809806 62.24747859 24.05809806 63.78036499 27.12387085 C64.3602337 34.31424284 64.3602337 34.31424284 62.33114624 37.14730835 C58.74216353 39.92835774 54.89148628 41.31460345 50.65536499 42.87387085 C49.83165405 43.18969116 49.00794312 43.50551147 48.15927124 43.8309021 C42.09431927 46.12387085 42.09431927 46.12387085 39.78036499 46.12387085 C39.81178589 47.87860718 39.81178589 47.87860718 39.84384155 49.66879272 C39.91661355 54.03715625 39.96229921 58.4054669 40.00009155 62.77426147 C40.02012266 64.65977001 40.04735572 66.54521708 40.0821228 68.43051147 C40.13101771 71.15136947 40.15341881 73.87140141 40.17098999 76.59262085 C40.19163513 77.42628174 40.21228027 78.25994263 40.23355103 79.11886597 C40.23612366 85.93291701 38.27926068 90.8693567 34.13973999 96.2605896 C20.26270473 109.63239299 4.22653387 111.53869117 -14.30166626 111.33480835 C-28.05410257 110.98697155 -40.72395221 106.34976 -50.50088501 96.44418335 C-55.28535471 89.98514926 -56.80809105 84.58113487 -56.61026001 76.59262085 C-56.60460022 75.71609863 -56.59894043 74.83957642 -56.59310913 73.93649292 C-56.57090137 71.16503897 -56.52073661 68.3949272 -56.46963501 65.62387085 C-56.44954975 63.73326466 -56.43130255 61.84263799 -56.41494751 59.95199585 C-56.37108808 55.34211179 -56.30217153 50.73321805 -56.21963501 46.12387085 C-58.52963501 45.46387085 -60.83963501 44.80387085 -63.21963501 44.12387085 C-63.22898071 45.28434937 -63.23832642 46.44482788 -63.24795532 47.64047241 C-63.28785377 51.94961816 -63.35361185 56.25804984 -63.42715454 60.56674194 C-63.45536507 62.43090638 -63.47657922 64.29519045 -63.4906311 66.15951538 C-63.51205985 68.84096526 -63.55870799 71.52097671 -63.61026001 74.20199585 C-63.61210297 75.45064423 -63.61210297 75.45064423 -63.61398315 76.72451782 C-63.76034418 82.51781328 -63.76034418 82.51781328 -66.13272095 85.64828491 C-68.39492279 87.24781088 -69.47852006 87.66670077 -72.21963501 87.62387085 C-72.87963501 87.63418335 -73.53963501 87.64449585 -74.21963501 87.65512085 C-77.13886891 86.87969935 -78.31325569 85.43519564 -80.21963501 83.12387085 C-80.72756958 80.54379272 -80.72756958 80.54379272 -80.73721313 77.59262085 C-80.74982178 76.48467163 -80.76243042 75.37672241 -80.77542114 74.23519897 C-80.76732422 73.04346069 -80.75922729 71.85172241 -80.75088501 70.62387085 C-80.75471191 69.39603882 -80.75853882 68.16820679 -80.76248169 66.90316772 C-80.76520343 64.30745626 -80.75782412 61.71171749 -80.74111938 59.11605835 C-80.71971576 55.13887486 -80.74091464 51.16349803 -80.76651001 47.18637085 C-80.76386678 44.66553352 -80.75874192 42.14469732 -80.75088501 39.62387085 C-80.75898193 38.43213257 -80.76707886 37.24039429 -80.77542114 36.01254272 C-80.7628125 34.90459351 -80.75020386 33.79664429 -80.73721313 32.65512085 C-80.73403076 31.68123413 -80.73084839 30.70734741 -80.72756958 29.70394897 C-80.05785648 26.302109 -78.94526736 25.23277694 -76.21963501 23.12387085 C-73.4362793 21.77641296 -73.4362793 21.77641296 -70.19766235 20.5743103 C-68.98315399 20.11736282 -67.76864563 19.66041534 -66.51733398 19.18962097 C-65.19682044 18.70526394 -63.87623147 18.22111251 -62.55557251 17.7371521 C-61.19807679 17.23058634 -59.84095482 16.72301799 -58.48419189 16.2144928 C-54.9210724 14.8818995 -51.35328114 13.56229705 -47.78427124 12.24557495 C-44.14802717 10.90176104 -40.5159345 9.5468299 -36.88369751 8.19223022 C-32.80528195 6.67125071 -28.72655782 5.15122948 -24.64404297 3.64128113 C-23.43583893 3.19379013 -22.22763489 2.74629913 -20.9828186 2.2852478 C-19.9156662 1.8909407 -18.84851379 1.49663361 -17.74902344 1.09037781 C-11.46295067 -1.31159929 -6.71298957 -1.82674304 0 0 Z M-17.50869751 19.18637085 C-18.32712128 19.49711548 -19.14554504 19.80786011 -19.98876953 20.12802124 C-22.60858008 21.12354487 -25.22661374 22.12365247 -27.84463501 23.12387085 C-29.61795759 23.79865211 -31.39139368 24.47313514 -33.16494751 25.14730835 C-37.51783594 26.80270163 -41.86913597 28.46220876 -46.21963501 30.12387085 C-46.21963501 30.78387085 -46.21963501 31.44387085 -46.21963501 32.12387085 C-41.14819415 34.21141388 -36.06277917 36.25823659 -30.96084595 38.27011108 C-29.23028172 38.95888082 -27.5039078 39.65828296 -25.78213501 40.3687439 C-15.19355784 45.31394924 -15.19355784 45.31394924 -3.96963501 45.40512085 C-2.369565 44.68058382 -0.78759832 43.91549514 0.78036499 43.12387085 C2.56718124 42.45151994 4.35462325 41.7805285 6.15026855 41.13212585 C9.41947458 39.94628353 12.6595051 38.68437837 15.90536499 37.43637085 C17.25680285 36.91976864 18.60836457 36.4034903 19.96005249 35.88754272 C23.23492392 34.63670989 26.50810569 33.38152385 29.78036499 32.12387085 C29.78036499 31.46387085 29.78036499 30.80387085 29.78036499 30.12387085 C24.54921247 28.12584539 19.31644735 26.1321263 14.0821228 24.14242554 C12.30074503 23.46457913 10.51981816 22.78554655 8.73934937 22.10531616 C6.18387863 21.12922879 3.62683036 20.15738274 1.06942749 19.18637085 C0.27042023 18.88013794 -0.52858704 18.57390503 -1.35180664 18.25839233 C-8.11092024 15.70036824 -10.92120133 16.66160266 -17.50869751 19.18637085 Z M-40.21963501 52.12387085 C-40.30702492 56.49874416 -40.36015901 60.87339163 -40.40713501 65.24887085 C-40.43227173 66.48637085 -40.45740845 67.72387085 -40.48330688 68.99887085 C-40.49297485 70.19769897 -40.50264282 71.3965271 -40.51260376 72.63168335 C-40.52831421 73.73141479 -40.54402466 74.83114624 -40.56021118 75.96420288 C-40.07884827 80.43000848 -38.59944917 83.82870786 -35.30947876 86.9168396 C-23.52531871 94.55194874 -11.11535432 96.29947405 2.63192749 93.85043335 C10.07458223 92.13289764 16.39949427 89.63926334 21.78036499 84.12387085 C23.74838352 80.23529134 24.0166986 77.05706688 23.97567749 72.7293396 C23.96923218 71.52728882 23.96278687 70.32523804 23.95614624 69.08676147 C23.93938843 67.84088257 23.92263062 66.59500366 23.90536499 65.31137085 C23.89634155 64.04615601 23.88731812 62.78094116 23.87802124 61.47738647 C23.85448893 58.35935521 23.82161044 55.24170988 23.78036499 52.12387085 C23.00958618 52.42680054 22.23880737 52.72973022 21.44467163 53.0418396 C18.54734761 54.17216332 15.6451432 55.28862381 12.73910522 56.39633179 C10.8784004 57.11023682 9.02363804 57.83956885 7.16903687 58.56918335 C-6.21900416 63.64865691 -12.98016611 62.35183616 -26.21963501 57.12387085 C-27.47039319 56.6406897 -28.72169271 56.15890744 -29.97354126 55.67855835 C-32.24201335 54.80702681 -34.50793924 53.92881793 -36.77041626 53.0418396 C-38.93976754 52.06537755 -38.93976754 52.06537755 -40.21963501 52.12387085 Z " fill="#f6f6f6" transform="translate(216.21963500976563,184.87612915039063)"/>
<path d="M0 0 C1.09717346 0.31869553 2.19434692 0.63739105 3.32476807 0.96574402 C4.47656555 1.29156967 5.62836304 1.61739532 6.81506348 1.95309448 C9.23706345 2.64103899 11.65743666 3.33473392 14.07623291 4.03385925 C17.77616404 5.10196363 21.48148335 6.14944099 25.18804932 7.19425964 C27.54646795 7.86687676 29.90455302 8.54066478 32.26226807 9.21574402 C33.36753845 9.52836685 34.47280884 9.84098969 35.61157227 10.16308594 C36.64324524 10.46317062 37.67491821 10.76325531 38.737854 11.07243347 C39.64114441 11.33224503 40.54443481 11.59205658 41.47509766 11.85974121 C44.97979398 13.13682909 48.3076759 14.34952844 50.02789307 17.78996277 C50.58700294 23.4742465 50.58700294 23.4742465 50.02789307 25.78996277 C46.72707101 29.65404437 42.96112559 32.34973509 38.71539307 35.10246277 C37.64676025 35.79984558 36.57812744 36.49722839 35.47711182 37.21574402 C34.66886963 37.73523621 33.86062744 38.25472839 33.02789307 38.78996277 C37.38496928 44.06431818 42.05799025 48.87464656 46.95367432 53.65324402 C49.83679417 56.62323754 49.99712461 57.40843387 50.34039307 61.66496277 C50.28129934 64.61964929 50.09354271 65.6805467 48.52789307 68.28996277 C45.70938932 69.98106501 43.45873583 70.54500175 40.16070557 70.35636902 C35.81577275 69.20249492 33.08358527 65.92839033 30.02789307 62.78996277 C29.12812744 61.90179871 28.22836182 61.01363464 27.30133057 60.09855652 C24.85844746 57.67975817 22.43641579 55.24290497 20.02789307 52.78996277 C16.70056498 55.87109842 14.34508104 59.16560663 11.90289307 62.97746277 C8.24853364 68.67964248 8.24853364 68.67964248 6.02789307 69.78996277 C-1.27279647 70.37872805 -1.27279647 70.37872805 -3.98132324 68.09835815 C-6.18989888 65.53742407 -6.9498369 63.65985039 -7.8949585 60.42985535 C-8.2149884 59.35806534 -8.53501831 58.28627533 -8.86474609 57.18200684 C-9.19408142 56.02782761 -9.52341675 54.87364838 -9.86273193 53.68449402 C-10.21220886 52.4907164 -10.56168579 51.29693878 -10.92175293 50.06698608 C-11.84562297 46.8953851 -12.75676906 43.72044865 -13.66375732 40.54399109 C-14.22006958 38.60954719 -14.78604833 36.67822327 -15.355896 34.74772644 C-16.45468608 31.02200708 -17.53639476 27.29175481 -18.61273193 23.55949402 C-18.95016418 22.41543594 -19.28759644 21.27137787 -19.63525391 20.09265137 C-21.41980279 13.77953054 -22.48173925 8.35500641 -21.97210693 1.78996277 C-17.7174243 -5.7944715 -6.77854323 -1.88649864 0 0 Z M-0.97210693 18.78996277 C0.30730447 26.39909375 2.45546239 33.52222174 5.02789307 40.78996277 C8.02680008 37.91172241 8.02680008 37.91172241 10.21539307 34.41496277 C12.97576775 30.41717874 16.92661567 28.29199992 21.02789307 25.78996277 C20.23610172 23.65234684 20.23610172 23.65234684 18.30963135 23.10392761 C17.57986084 22.90492859 16.85009033 22.70592957 16.09820557 22.50090027 C15.302854 22.28175964 14.50750244 22.06261902 13.68804932 21.83683777 C12.85144775 21.61511902 12.01484619 21.39340027 11.15289307 21.16496277 C10.32402588 20.93550964 9.49515869 20.70605652 8.64117432 20.46965027 C3.90383998 19.17811635 3.90383998 19.17811635 -0.97210693 18.78996277 Z " fill="#f6f6f6" transform="translate(349.97210693359375,266.2100372314453)"/>
<path d="M0 0 C1.07672974 -0.0112793 2.15345947 -0.02255859 3.26281738 -0.03417969 C5.02716125 -0.0220343 5.02716125 -0.0220343 6.82714844 -0.00964355 C8.69107239 -0.02015747 8.69107239 -0.02015747 10.59265137 -0.03088379 C13.9978753 -0.04547416 17.40212726 -0.04205291 20.80729675 -0.02936745 C24.37154442 -0.01923659 27.9357507 -0.02863335 31.5 -0.03491211 C37.48542738 -0.04218831 43.47065729 -0.0326017 49.45605469 -0.0135498 C56.37491301 0.00821911 63.29329986 0.0011677 70.21214676 -0.02085543 C76.15368306 -0.03901038 82.09507746 -0.04156736 88.03663254 -0.03110075 C91.58476235 -0.02486625 95.13267058 -0.02402872 98.68078613 -0.0372467 C102.63600985 -0.05095221 106.59070592 -0.03195378 110.54589844 -0.00964355 C111.72212769 -0.01774048 112.89835693 -0.0258374 114.11022949 -0.03417969 C115.7253241 -0.01726074 115.7253241 -0.01726074 117.37304688 0 C118.30808044 0.0015081 119.24311401 0.0030162 120.20648193 0.00457001 C123.43531902 0.65991475 124.637185 1.9861788 126.68652344 4.50793457 C127.21777344 6.50793457 127.21777344 6.50793457 127.18652344 8.50793457 C127.20199219 9.49793457 127.20199219 9.49793457 127.21777344 10.50793457 C126.44425138 13.4200176 124.98577122 14.60089121 122.68652344 16.50793457 C120.20648193 17.01129913 120.20648193 17.01129913 117.37304688 17.01586914 C116.29631714 17.02714844 115.2195874 17.03842773 114.11022949 17.05004883 C112.34588562 17.03790344 112.34588562 17.03790344 110.54589844 17.0255127 C108.68197449 17.03602661 108.68197449 17.03602661 106.78039551 17.04675293 C103.37517158 17.0613433 99.97091962 17.05792205 96.56575012 17.04523659 C93.00150246 17.03510573 89.43729618 17.04450249 85.87304688 17.05078125 C79.8876195 17.05805745 73.90238958 17.04847084 67.91699219 17.02941895 C60.99813386 17.00765003 54.07974702 17.01470144 47.16090012 17.03672457 C41.21936382 17.05487952 35.27796941 17.0574365 29.33641434 17.04696989 C25.78828453 17.04073539 22.2403763 17.03989786 18.69226074 17.05311584 C14.73703703 17.06682135 10.78234095 17.04782292 6.82714844 17.0255127 C5.65091919 17.03360962 4.47468994 17.04170654 3.26281738 17.05004883 C1.64772278 17.03312988 1.64772278 17.03312988 0 17.01586914 C-0.93503357 17.01436104 -1.87006714 17.01285294 -2.83343506 17.01129913 C-6.06227215 16.35595439 -7.26413812 15.02969034 -9.31347656 12.50793457 C-9.84472656 10.50793457 -9.84472656 10.50793457 -9.81347656 8.50793457 C-9.82894531 7.51793457 -9.82894531 7.51793457 -9.84472656 6.50793457 C-8.49154751 1.41361344 -4.87144101 0.00785708 0 0 Z " fill="#f6f6f6" transform="translate(197.3134765625,439.4920654296875)"/>
<path d="M0 0 C2.5 1.5 2.5 1.5 4 4 C4.791013 8.02098277 4.62153384 10.96411027 2.5 14.5 C-1.03588973 16.62153384 -3.97901723 16.791013 -8 16 C-10.5 14.5 -10.5 14.5 -12 12 C-12.791013 7.97901723 -12.62153384 5.03588973 -10.5 1.5 C-6.96411027 -0.62153384 -4.02098277 -0.791013 0 0 Z " fill="#f6f6f6" transform="translate(356,440)"/>
<path d="M0 0 C2.5 1.5 2.5 1.5 4 4 C4.791013 8.02098277 4.62153384 10.96411027 2.5 14.5 C-1.03588973 16.62153384 -3.97901723 16.791013 -8 16 C-10.5 14.5 -10.5 14.5 -12 12 C-12.791013 7.97901723 -12.62153384 5.03588973 -10.5 1.5 C-6.96411027 -0.62153384 -4.02098277 -0.791013 0 0 Z " fill="#f6f6f6" transform="translate(164,440)"/>
</svg>
