<?xml version="1.0" encoding="UTF-8"?>
<svg version="1.1" xmlns="http://www.w3.org/2000/svg" width="53" height="53">
  <path d="M0 0 C8.91 0 17.82 0 27 0 C27 11.23846154 27 11.23846154 26.5625 15.359375 C26.42714844 16.69162109 26.42714844 16.69162109 26.2890625 18.05078125 C26.19367187 18.94152344 26.09828125 19.83226563 26 20.75 C24.77970728 31.4070617 24.77970728 31.4070617 26 42 C27.32 42.33 28.64 42.66 30 43 C30.495 44.98 30.495 44.98 31 47 C31.66 47 32.32 47 33 47 C33 47.66 33 48.32 33 49 C20.13 49 7.26 49 -6 49 C-6 48.34 -6 47.68 -6 47 C-5.34 47 -4.68 47 -4 47 C-3.34 45.35 -2.68 43.7 -2 42 C-1.01 42 -0.02 42 1 42 C2.42031073 33.8044232 1.69183359 25.98535704 0.76220703 17.7902832 C0.66665527 16.93007568 0.57110352 16.06986816 0.47265625 15.18359375 C0.38250244 14.42618896 0.29234863 13.66878418 0.19946289 12.88842773 C-0.09654156 8.60197897 0 4.29665703 0 0 Z" 
        stroke="#f6f6f6" 
        fill="none" 
        transform="translate(13,2)"
        stroke-width="2"/>
</svg>
