<?xml version="1.0" encoding="UTF-8"?>
<svg version="1.1" xmlns="http://www.w3.org/2000/svg" width="23" height="23">
<path d="M0 0 C0.99 0 1.98 0 3 0 C3 1.98 3 3.96 3 6 C2.01 6.33 1.02 6.66 0 7 C0 6.34 0 5.68 0 5 C-2.97 5 -5.94 5 -9 5 C-9.1134375 6.20914062 -9.226875 7.41828125 -9.34375 8.6640625 C-10.04480354 14.9661389 -11.28128443 21.15606854 -12.5 27.375 C-12.72558594 28.54933594 -12.95117188 29.72367188 -13.18359375 30.93359375 C-14.86300223 39.5890067 -14.86300223 39.5890067 -16 43 C2.81 43 21.62 43 41 43 C42.65 34.09 44.3 25.18 46 16 C46.66 12.7 47.32 9.4 48 6 C45.03 5.67 42.06 5.34 39 5 C39 4.01 39 3.02 39 2 C43.29 2 47.58 2 52 2 C54.11676721 10.25601288 56.0131821 18.51858559 57.6875 26.875 C57.91244141 27.96296875 58.13738281 29.0509375 58.36914062 30.171875 C58.58119141 31.22632812 58.79324219 32.28078125 59.01171875 33.3671875 C59.20209717 34.30675293 59.39247559 35.24631836 59.58862305 36.21435547 C60 39 60 39 60 45 C55.38 45 50.76 45 46 45 C46 44.34 46 43.68 46 43 C49.63 43 53.26 43 57 43 C55.02 33.76 53.04 24.52 51 15 C48.50949516 24.96201938 46.22757525 34.97591137 44 45 C23.21 45 2.42 45 -19 45 C-18.40571731 38.46289039 -17.85721583 32.52543341 -16.625 26.1796875 C-16.43091553 25.17447556 -16.43091553 25.17447556 -16.23291016 24.1489563 C-15.96324013 22.75894799 -15.69094461 21.36944646 -15.41601562 19.98046875 C-14.99409028 17.84509069 -14.58246239 15.70789662 -14.171875 13.5703125 C-12.13815752 3.13815752 -12.13815752 3.13815752 -11 2 C-9.14712498 1.92773498 -7.29166122 1.9161878 -5.4375 1.9375 C-4.42558594 1.94652344 -3.41367187 1.95554687 -2.37109375 1.96484375 C-1.19740234 1.98224609 -1.19740234 1.98224609 0 2 C0 1.34 0 0.68 0 0 Z " fill="#000000" transform="translate(22,20)"/>
<path d="M0 0 C-0.1950915 4.47734991 -0.46265846 8.04472615 -2.6875 12 C-5.54022333 14.46722017 -7.24936197 14.92186171 -11 15 C-13.64571019 14.19158855 -14.65158555 13.54905311 -16.1328125 11.21484375 C-17.16043164 8.59024891 -17.03227221 7.019451 -16.625 4.25 C-16.51414062 3.45078125 -16.40328125 2.6515625 -16.2890625 1.828125 C-16.19367187 1.22484375 -16.09828125 0.6215625 -16 0 C-9.78727172 -3.56901412 -6.44274386 -2.84883232 0 0 Z M-11.8125 2.375 C-12.534375 2.91125 -13.25625 3.4475 -14 4 C-13.89830839 6.94727535 -13.89830839 6.94727535 -13 10 C-10.53744315 11.45291273 -10.53744315 11.45291273 -8 12 C-4.71185401 9.27393696 -4.71185401 9.27393696 -3.75 5.25 C-3.87375 4.13625 -3.87375 4.13625 -4 3 C-7.32066252 1.19735463 -8.31275618 0.66401413 -11.8125 2.375 Z " fill="#000000" transform="translate(47,38)"/>
<path d="M0 0 C0.99 0 1.98 0 3 0 C2.67 2.31 2.34 4.62 2 7 C1.01 7 0.02 7 -1 7 C-1 6.34 -1 5.68 -1 5 C-4.96 5 -8.92 5 -13 5 C-13.33 4.01 -13.66 3.02 -14 2 C-9.38 2 -4.76 2 0 2 C0 1.34 0 0.68 0 0 Z " fill="#f6f6f6" transform="translate(57,20)"/>
<path d="M0 0 C0.99 0 1.98 0 3 0 C3 2.31 3 4.62 3 7 C2.01 7 1.02 7 0 7 C0 6.34 0 5.68 0 5 C-4.29 5 -8.58 5 -13 5 C-13 4.01 -13 3.02 -13 2 C-8.71 2 -4.42 2 0 2 C0 1.34 0 0.68 0 0 Z " fill="#f6f6f6" transform="translate(39,20)"/>
<path d="M0 0 C-0.57344937 2.86724686 -0.8614515 3.8614515 -3 6 C-5.125 5.625 -5.125 5.625 -7 5 C-7 3.68 -7 2.36 -7 1 C-4.50935112 0.31292445 -2.62113708 0 0 0 Z " fill="#f6f6f6" transform="translate(42,42)"/>
</svg>
