<?xml version="1.0" encoding="UTF-8"?>
<svg version="1.1" xmlns="http://www.w3.org/2000/svg" width="512" height="512">
<path d="M0 0 C8.67105805 6.68241742 14.64570916 15.86656009 16.31640625 26.78515625 C17.41222218 41.68403828 12.66303469 52.37944336 3.31640625 63.78515625 C4.34378906 64.33042969 5.37117188 64.87570312 6.4296875 65.4375 C15.15210839 70.14881125 22.91990527 75.11669888 30.31640625 81.78515625 C30.87021973 82.28015625 31.4240332 82.77515625 31.99462891 83.28515625 C42.93705422 93.08918486 42.93705422 93.08918486 44.48152161 95.92271423 C46.86743136 98.34445698 48.75337901 98.26877468 52.05847168 98.31297302 C53.22968567 98.29835777 53.22968567 98.29835777 54.42456055 98.28344727 C55.25095535 98.28896606 56.07735016 98.29448486 56.92878723 98.3001709 C58.72447521 98.30950058 60.52022935 98.30958807 62.31592369 98.30157661 C65.16251534 98.28896552 68.00813446 98.30022076 70.85469055 98.31761169 C75.87732633 98.34436221 80.89972501 98.34990602 85.92242432 98.34851074 C93.94393668 98.34628638 101.96515362 98.36051878 109.98655128 98.4040966 C112.78283424 98.41390366 115.57865061 98.40523074 118.37492371 98.395401 C120.10371195 98.40154984 121.8324977 98.40846312 123.5612793 98.41625977 C124.33196747 98.4085405 125.10265564 98.40082123 125.896698 98.39286804 C133.66383199 98.46473983 140.09009317 100.79994416 145.84375 106.12109375 C150.08632818 110.91509456 150.92014622 116.64312573 151.31640625 122.78515625 C151.02075595 124.45891842 150.69482421 126.12814426 150.31640625 127.78515625 C158.33128992 127.7007459 166.34595211 127.60586014 174.36054611 127.49762917 C178.08212309 127.44770069 181.80367216 127.40137051 185.52539062 127.36328125 C189.11761038 127.32638462 192.70959468 127.28001308 196.30161285 127.22709274 C197.67147946 127.20857199 199.04139649 127.19345544 200.41133881 127.18181229 C202.33129281 127.16491093 204.25111611 127.13474199 206.17089844 127.10400391 C207.26343933 127.09068024 208.35598022 127.07735657 209.48162842 127.06362915 C212.29921361 126.78684516 213.96607821 126.33262577 216.31640625 124.78515625 C217.58319312 122.25158251 217.50252996 119.96573262 217.60546875 117.17480469 C218.16257769 102.49371795 221.22924747 92.39403889 230.31640625 80.78515625 C230.94675781 79.94726562 231.57710938 79.109375 232.2265625 78.24609375 C237.54247063 71.67739199 244.01968721 67.86731461 251.31640625 63.78515625 C250.77113281 63.12773437 250.77113281 63.12773437 250.21484375 62.45703125 C241.44494772 51.39347011 237.36445463 40.8705145 238.31640625 26.78515625 C240.14021552 16.29052493 245.61678982 7.34128656 253.75 0.54296875 C263.09225214 -5.85583408 273.93034554 -8.49327818 285.109375 -6.7890625 C296.31392777 -4.42639484 304.83335789 0.88031625 311.66015625 10.11328125 C317.98641327 20.31884682 319.34622186 31.18011508 317.10546875 42.83203125 C314.95929221 50.86425633 310.50743067 57.39894751 305.31640625 63.78515625 C306.35087891 64.38650391 306.35087891 64.38650391 307.40625 65 C321.87545512 73.75297594 331.57346634 85.41436366 336.31640625 101.78515625 C337.24183979 105.66797246 337.44642277 109.28005425 337.45684814 113.26841736 C337.46255829 114.57922775 337.46826843 115.89003815 337.47415161 117.24057007 C337.47539681 118.68634024 337.47652194 120.13211051 337.47753906 121.57788086 C337.48217013 123.10581074 337.48719517 124.63373947 337.49258423 126.16166687 C337.50567938 130.30626914 337.51214713 134.45085524 337.51659489 138.59547496 C337.51952927 141.18575364 337.52363469 143.77602793 337.52809906 146.3663044 C337.54176418 154.4735833 337.55143659 162.58085214 337.55530095 170.68814176 C337.55978441 180.04214902 337.57734974 189.39601035 337.60630155 198.74997324 C337.62791678 205.98493052 337.63800509 213.21984672 337.63934207 220.45483595 C337.64038988 224.77429385 337.64629305 229.09361439 337.66416168 233.41303825 C337.68064046 237.47521585 337.68279889 241.53715277 337.67402267 245.59935188 C337.67325229 247.08845794 337.67759525 248.57757694 337.68748093 250.06665039 C337.7002033 252.10269803 337.69253087 254.13884241 337.68389893 256.1749115 C337.68536549 257.31328429 337.68683205 258.45165709 337.68834305 259.62452602 C337.07809354 264.81028085 334.95825756 268.72716105 330.94140625 272.03515625 C330.09449219 272.75445312 330.09449219 272.75445312 329.23046875 273.48828125 C324.79837425 276.4912514 320.92930162 277.03609328 315.63273907 277.04242516 C314.63998179 277.04768427 314.63998179 277.04768427 313.6271688 277.05304962 C311.40571499 277.06236594 309.1845232 277.05743979 306.96305847 277.05258179 C305.35577042 277.05631793 303.74848419 277.06091931 302.14120084 277.06631243 C297.72130791 277.07856225 293.30149056 277.07827963 288.88158453 277.07592368 C284.11595513 277.07551602 279.35035012 277.08654985 274.58473206 277.09603882 C265.2467718 277.11266063 255.90883678 277.1181489 246.57086297 277.11926357 C238.98142017 277.12021348 231.39198571 277.12432092 223.80254555 277.13066483 C202.29097128 277.14828042 180.77941699 277.15750319 159.26783546 277.15600388 C158.10783599 277.15592397 156.94783652 277.15584405 155.75268555 277.15576172 C154.01056489 277.15563908 154.01056489 277.15563908 152.23324988 277.15551396 C133.40841286 277.15470096 114.58365583 277.17384137 95.75884195 277.20203845 C76.43542727 277.23075427 57.11205162 277.24457947 37.78861505 277.2428509 C26.93765245 277.24218655 16.08677371 277.24769853 5.23583031 277.269207 C-4.00260614 277.28740165 -13.24092071 277.29178024 -22.47936729 277.27818815 C-27.19327373 277.27164986 -31.90694623 277.27157237 -36.62083054 277.28889465 C-40.93699618 277.30459235 -45.25274178 277.30179566 -49.56889697 277.28432639 C-51.12944666 277.2812492 -52.69002744 277.28491595 -54.25054047 277.29604654 C-63.35621272 277.35668726 -70.58567059 277.28332375 -77.7421875 270.96875 C-78.19722656 270.39253906 -78.65226562 269.81632812 -79.12109375 269.22265625 C-79.59417969 268.64386719 -80.06726563 268.06507813 -80.5546875 267.46875 C-82.93932283 263.91242534 -82.81327145 260.6566754 -82.82403564 256.5068512 C-82.83260086 254.53252357 -82.83260086 254.53252357 -82.84133911 252.51831055 C-82.84258451 251.0559083 -82.8437096 249.59350594 -82.84472656 248.13110352 C-82.84935523 246.59349956 -82.85437995 245.05589676 -82.85977173 243.51829529 C-82.8728997 239.33598284 -82.87934235 235.15368646 -82.88378239 230.97135663 C-82.88671462 228.35524547 -82.89081989 225.73913867 -82.89528656 223.12302971 C-82.90896727 214.92923394 -82.91862911 206.73544817 -82.92248845 198.54164177 C-82.92696008 189.10051404 -82.94446382 179.65953175 -82.97348905 170.21844822 C-82.99516645 162.91210054 -83.00519608 155.60579357 -83.00652957 148.2994141 C-83.00757397 143.94061151 -83.01340277 139.58194552 -83.03134918 135.22317696 C-83.04793316 131.11504476 -83.04993577 127.00715027 -83.04121017 122.89899635 C-83.04044508 121.39951182 -83.04471198 119.90001396 -83.05466843 118.40056229 C-83.15976221 101.57189611 -79.81829594 86.87719063 -67.87109375 74.34765625 C-56.61936047 63.78515625 -56.61936047 63.78515625 -50.68359375 63.78515625 C-51.29847656 62.95113281 -51.91335937 62.11710937 -52.546875 61.2578125 C-60.67713135 50.02848191 -64.96438628 39.96062261 -63.05859375 25.78515625 C-60.85276656 14.32956035 -55.1067007 5.60633905 -45.55859375 -0.96484375 C-31.05428542 -9.74636376 -14.19048743 -9.27051105 0 0 Z M-44.27734375 18.6796875 C-47.98353152 24.22867419 -49.76279784 30.07692173 -48.68359375 36.78515625 C-46.53715933 44.89816729 -42.71839984 50.63138366 -35.58203125 55.1015625 C-28.74191342 58.56996147 -21.79925813 59.01465133 -14.49609375 56.66015625 C-7.32366547 53.52221888 -2.78541692 48.67241284 0.4296875 41.55859375 C2.65644333 34.59385086 2.25823747 28.05761336 -0.74609375 21.41015625 C-4.44071412 14.94457061 -9.38321457 10.54548947 -16.5234375 8.26171875 C-27.83702314 5.765774 -37.11839796 9.68035234 -44.27734375 18.6796875 Z M258.31640625 16.78515625 C253.45309305 23.67484995 251.96517658 30.4580661 253.31640625 38.78515625 C255.78480521 46.50569926 260.10259844 51.92842405 267.19140625 55.8125 C273.16070198 58.42406688 279.42127241 58.85440868 285.70703125 57.12890625 C293.30566894 54.1308043 298.46553956 49.3327147 301.75390625 41.84765625 C304.41641241 34.20591779 303.89276587 28.59117937 300.63671875 21.1796875 C297.22067416 14.9843167 292.25175899 11.02367978 285.70703125 8.44140625 C275.36119145 5.6013718 265.31802512 8.74688992 258.31640625 16.78515625 Z M-60.890625 89.15625 C-68.6312301 100.50576467 -68.83476998 112.7329058 -68.84472656 125.91870117 C-68.84936077 127.35165025 -68.85438623 128.78459811 -68.85977173 130.21754456 C-68.87283076 134.09330763 -68.87932671 137.96905344 -68.88378239 141.84483504 C-68.88672074 144.26726432 -68.89082674 146.68968894 -68.89528656 149.11211586 C-68.90893793 156.69505864 -68.91861883 164.27799071 -68.92248845 171.86094493 C-68.92697803 180.60935093 -68.94457734 189.35760138 -68.97348905 198.10596007 C-68.99508476 204.8755377 -69.00519143 211.64507145 -69.00652957 218.41468316 C-69.00757816 222.45571248 -69.0134986 226.4965951 -69.03134918 230.53758812 C-69.04779575 234.33385981 -69.0500022 238.12987388 -69.04121017 241.92616844 C-69.04043824 243.31936329 -69.04480315 244.71257183 -69.05466843 246.10573196 C-69.06734088 248.0066186 -69.05973656 249.90760826 -69.05108643 251.80851746 C-69.05255299 252.87239276 -69.05401955 253.93626806 -69.05553055 255.03238201 C-68.62984688 258.18294695 -67.90061192 259.53560152 -65.68359375 261.78515625 C-61.95860968 263.02681761 -58.5105641 262.9166817 -54.63208008 262.89868164 C-53.81234207 262.89882767 -52.99260406 262.89897369 -52.14802551 262.89912415 C-49.43719847 262.89842721 -46.72644005 262.89064503 -44.015625 262.8828125 C-42.13661232 262.88094754 -40.25759915 262.87952401 -38.37858582 262.87852478 C-33.4318406 262.87470573 -28.48512473 262.86488063 -23.53839111 262.8538208 C-18.4910929 262.84359355 -13.44378996 262.83902434 -8.39648438 262.83398438 C1.50782539 262.82325784 11.41211338 262.80618873 21.31640625 262.78515625 C21.31787281 262.12401196 21.31933937 261.46286766 21.32085037 260.78168869 C21.35789256 244.69893829 21.41687256 228.61644092 21.50030899 212.5338707 C21.54012845 204.75646363 21.57250609 196.97915818 21.58740234 189.20166016 C21.60040389 182.42324424 21.62732991 175.64505162 21.67101932 168.86676145 C21.69366823 165.27722515 21.70931491 161.68796462 21.7082901 158.09835052 C21.70740718 154.09226833 21.73760953 150.08700187 21.77050781 146.08105469 C21.76296227 144.29325844 21.76296227 144.29325844 21.75526428 142.46934509 C21.76917709 141.37842056 21.7830899 140.28749603 21.79742432 139.16351318 C21.80295507 137.7421084 21.80295507 137.7421084 21.80859756 136.29198837 C22.47837821 132.98557066 23.6466515 131.80030883 26.31640625 129.78515625 C28.43724823 129.28852081 28.43724823 129.28852081 30.75671387 129.29309082 C31.63991806 129.28495865 32.52312225 129.27682648 33.43309021 129.26844788 C34.39425247 129.27976242 35.35541473 129.29107697 36.34570312 129.30273438 C37.36398697 129.29882187 38.38227081 129.29490936 39.43141174 129.2908783 C41.64181397 129.28490089 43.85225551 129.2880776 46.06263733 129.29930115 C49.55924491 129.31652491 53.05502297 129.30907589 56.55163574 129.29504395 C65.23476503 129.2653551 73.91773707 129.27859888 82.60089111 129.29022217 C89.93857872 129.29841327 97.27590465 129.29053915 104.61354065 129.26109314 C108.06155673 129.25398071 111.50894279 129.27070044 114.95690918 129.28820801 C117.0669794 129.28250192 119.17704701 129.27568552 121.28710938 129.26757812 C122.24827164 129.27889267 123.2094339 129.29020721 124.19972229 129.30186462 C129.40272436 129.30894192 129.40272436 129.30894192 133.88464355 126.90734863 C135.59120886 124.37783735 136.24171236 122.84760568 136.31640625 119.78515625 C134.565271 116.07254398 134.565271 116.07254398 131.31640625 113.78515625 C128.5208773 113.69895385 125.74995689 113.67308788 122.95458984 113.69091797 C121.1607566 113.69370524 119.36692317 113.69637504 117.5730896 113.69894409 C116.61897564 113.70199429 115.66486168 113.70504448 114.68183517 113.7081871 C109.63420612 113.7195118 104.58666806 113.69902995 99.5390625 113.68359375 C93.11327717 113.66531391 86.68797118 113.65656784 80.26220703 113.68554688 C75.0724076 113.70811809 69.88365238 113.69660988 64.69392776 113.66254044 C62.71887135 113.65578029 60.74373085 113.66142615 58.76874924 113.67989731 C41.35408823 113.83222115 41.35408823 113.83222115 36.19775391 109.41845703 C34.59341431 107.57888794 34.59341431 107.57888794 33.31640625 105.78515625 C32.07890625 104.30015625 32.07890625 104.30015625 30.81640625 102.78515625 C29.99140625 101.79515625 29.16640625 100.80515625 28.31640625 99.78515625 C25.76513742 97.30748171 23.06292182 95.04280983 20.31640625 92.78515625 C18.87394531 91.58632813 18.87394531 91.58632813 17.40234375 90.36328125 C3.23121176 78.86006945 -12.08746726 71.33920688 -30.69824219 72.57373047 C-42.98302176 73.88197187 -53.00238444 79.85096024 -60.890625 89.15625 Z M242.21606445 89.57421875 C236.02860354 97.49127665 232.97426364 104.03293418 232.87890625 114.09765625 C232.60236373 122.12355186 232.33038262 129.47149386 226.58984375 135.640625 C218.36755824 142.53620707 208.10021117 142.07568821 197.890625 142.09375 C195.29491939 142.11888563 192.69921632 142.14428396 190.10351562 142.16992188 C186.0370587 142.20076163 181.97058291 142.22304298 177.90405273 142.24145508 C173.96189666 142.26036664 170.02011028 142.30244043 166.078125 142.34375 C164.24842415 142.34392372 164.24842415 142.34392372 162.38175964 142.34410095 C161.24990738 142.35743973 160.11805511 142.3707785 158.9519043 142.38452148 C157.95756882 142.38959213 156.96323334 142.39466278 155.93876648 142.39988708 C152.89296205 142.84736738 151.53040018 143.67882401 149.31640625 145.78515625 C148.22835479 148.14177885 148.22835479 148.14177885 148.31640625 150.78515625 C149.93796254 154.27150226 151.08093917 155.62817819 154.31640625 157.78515625 C157.59377582 158.08153096 157.59377582 158.08153096 161.40234375 158.0246582 C162.11972717 158.02667236 162.8371106 158.02868652 163.57623291 158.03076172 C165.13295099 158.03430567 166.68968348 158.03354204 168.24639893 158.02898598 C170.70919426 158.02339713 173.17151789 158.03254323 175.63427734 158.04618835 C182.63576371 158.08334127 189.63708973 158.1018348 196.63867188 158.09057617 C200.92175503 158.0847327 205.20417387 158.10294628 209.48712158 158.13646507 C211.12020003 158.14443151 212.75335065 158.1431252 214.38641357 158.13244057 C216.66850316 158.11814976 218.94849573 158.13434152 221.23046875 158.1574707 C222.52936035 158.15810013 223.82825195 158.15872955 225.16650391 158.15937805 C228.31640625 158.78515625 228.31640625 158.78515625 230.23225403 160.72091675 C231.7489594 165.00772113 231.75592207 168.92260394 231.7487793 173.44067383 C231.76406677 174.89017426 231.76406677 174.89017426 231.77966309 176.36895752 C231.80980353 179.55592641 231.8190608 182.74259477 231.828125 185.9296875 C231.84497087 188.14215596 231.86312099 190.35461485 231.88252258 192.56706238 C231.93003845 198.38505054 231.95983772 204.20299987 231.98596191 210.02111816 C232.01575929 215.96012032 232.06229249 221.89898868 232.10742188 227.83789062 C232.19347316 239.4869092 232.26081047 251.1359553 232.31640625 262.78515625 C243.31263553 262.85467249 254.30881251 262.90797585 265.30521679 262.94059277 C270.4113205 262.95624741 275.51727384 262.97748213 280.62329102 263.01147461 C285.55105886 263.04407505 290.47868209 263.06201078 295.40654945 263.06978798 C297.28642363 263.07533024 299.16628992 263.08615291 301.04610252 263.10234642 C303.67959054 263.12412978 306.31248128 263.1271228 308.94604492 263.12573242 C309.72288132 263.13651825 310.49971771 263.14730408 311.3000946 263.15841675 C315.81317202 263.13264122 318.73694859 262.59998427 322.31640625 259.78515625 C323.6472593 257.12345014 323.44841536 255.10249707 323.45684814 252.12063599 C323.46255829 250.91517624 323.46826843 249.70971649 323.47415161 248.46772766 C323.47539708 247.1244813 323.47652215 245.78123483 323.47753906 244.43798828 C323.48216671 243.0286089 323.4871913 241.61923078 323.49258423 240.20985413 C323.50572448 236.37251283 323.51215756 232.53518906 323.51659489 228.69782877 C323.51952595 226.2973078 323.52363106 223.89679161 323.52809906 221.49627304 C323.54178477 213.97736893 323.5514434 206.45847576 323.55530095 198.93956006 C323.55976983 190.27721353 323.57725851 181.61502573 323.60630155 172.95272744 C323.6279906 166.24936706 323.63800924 159.54605107 323.63934207 152.84265602 C323.64038591 148.84377371 323.64620214 144.84504039 323.66416168 140.84619522 C323.68076529 137.07540876 323.68273902 133.30488119 323.67402267 129.53407097 C323.67289733 127.50865149 323.68652366 125.48324014 323.70077515 123.45787048 C323.63691638 109.31211408 320.66999663 96.92839392 310.98828125 86.20703125 C300.73403385 76.46872083 289.48624888 72.18670919 275.3671875 72.41015625 C262.29439647 73.29281395 250.4277132 79.44063267 242.21606445 89.57421875 Z M127.2288208 142.82312012 C126.02155586 142.83574135 126.02155586 142.83574135 124.78990173 142.84861755 C123.47899315 142.86264366 123.47899315 142.86264366 122.14160156 142.87695312 C121.21442825 142.8867067 120.28725494 142.89646027 119.33198547 142.9065094 C116.26949859 142.93877542 113.20701495 142.97133963 110.14453125 143.00390625 C108.0203249 143.02634485 105.89611836 143.04876485 103.77191162 143.07116699 C98.18239141 143.13016477 92.59287391 143.18941542 87.00335693 143.24871826 C80.296109 143.31982741 73.58885775 143.39062331 66.88160706 143.46147156 C56.69320423 143.56912614 46.50480569 143.67717927 36.31640625 143.78515625 C36.31640625 160.28515625 36.31640625 176.78515625 36.31640625 193.78515625 C96.04640625 193.78515625 155.77640625 193.78515625 217.31640625 193.78515625 C217.31640625 186.52515625 217.31640625 179.26515625 217.31640625 171.78515625 C215.29837891 171.78104736 213.28035156 171.77693848 211.20117188 171.77270508 C204.51144566 171.75545842 197.82209893 171.71087519 191.13260651 171.65306568 C187.07921544 171.61886758 183.02619838 171.59369699 178.97265625 171.58959961 C175.05600233 171.58530106 171.14019107 171.55671145 167.22380066 171.51172447 C165.73444031 171.49879878 164.24497886 171.49442426 162.75556946 171.49900246 C147.58483015 171.53475275 147.58483015 171.53475275 141.31640625 165.78515625 C136.37282927 160.58139101 135.04777793 156.0822583 135.19140625 148.97265625 C135.20945312 147.81121094 135.2275 146.64976562 135.24609375 145.453125 C135.26929688 144.57269531 135.2925 143.69226563 135.31640625 142.78515625 C132.6195472 142.78515625 129.92527489 142.79458621 127.2288208 142.82312012 Z M36.31640625 208.78515625 C36.31640625 226.60515625 36.31640625 244.42515625 36.31640625 262.78515625 C96.04640625 262.78515625 155.77640625 262.78515625 217.31640625 262.78515625 C217.31640625 244.96515625 217.31640625 227.14515625 217.31640625 208.78515625 C157.58640625 208.78515625 97.85640625 208.78515625 36.31640625 208.78515625 Z " fill="#f6f6f6" transform="translate(128.68359375,205.21484375)"/>
<path d="M0 0 C1.45277557 -0.00734737 2.90554532 -0.01593554 4.35830688 -0.02566528 C8.29030861 -0.04782212 12.22210039 -0.05081484 16.15415597 -0.04891777 C19.44415799 -0.04879778 22.734116 -0.05737386 26.02410573 -0.06569529 C33.7910029 -0.08490913 41.55779261 -0.08782087 49.32470703 -0.08105469 C57.31882727 -0.07441826 65.31248559 -0.09726661 73.30651218 -0.13436842 C80.18576049 -0.16512973 87.06486072 -0.17641842 93.94417638 -0.1725316 C98.04584026 -0.17047039 102.14714473 -0.17584532 106.24874306 -0.20042419 C110.10922334 -0.22279512 113.96895644 -0.22072885 117.82944107 -0.20049667 C119.23946534 -0.19710455 120.64954093 -0.20209768 122.05949593 -0.21648026 C131.95524936 -0.31039185 139.43052581 0.97274585 147.1237793 7.48242188 C147.8972168 8.44148438 147.8972168 8.44148438 148.6862793 9.41992188 C149.4906543 10.37898438 149.4906543 10.37898438 150.3112793 11.35742188 C153.17319945 15.65030211 153.97465461 19.62694753 154.3112793 24.73242188 C154.42342773 26.33537109 154.42342773 26.33537109 154.5378418 27.97070312 C154.58682617 28.77894531 154.63581055 29.5871875 154.6862793 30.41992188 C155.55499161 30.40992912 155.55499161 30.40992912 156.44125366 30.3997345 C162.50903734 30.33298494 168.57671546 30.28795804 174.64477539 30.25512695 C176.90458417 30.24010893 179.16436414 30.21968843 181.42407227 30.19360352 C184.68602643 30.15691193 187.94759276 30.14012512 191.2097168 30.12695312 C192.70720963 30.10372734 192.70720963 30.10372734 194.23495483 30.08003235 C204.39616805 30.07763455 213.26268523 32.14513036 220.6862793 39.41992188 C227.76015214 47.62777433 227.98988564 58.39678251 227.9609375 68.76904297 C227.9686039 70.2224408 227.9686039 70.2224408 227.97642517 71.7052002 C227.99018554 74.86798487 227.98937602 78.03054858 227.98706055 81.19335938 C227.99095228 83.40768514 227.99528794 85.62201016 228.00004578 87.83633423 C228.00747678 92.45748324 228.00723747 97.07855578 228.00195312 101.69970703 C227.99613405 107.62127725 228.01316331 113.54253716 228.0362978 119.46405602 C228.05101722 124.02794218 228.05190976 128.59175303 228.04878807 133.15565872 C228.04930124 135.33974451 228.0545382 137.52383452 228.06459999 139.70789719 C228.07692485 142.75452831 228.07019849 145.8005468 228.05859375 148.84716797 C228.06623749 149.74698395 228.07388123 150.64679993 228.08175659 151.57388306 C228.0417653 156.31966918 227.84823203 159.61078175 224.6862793 163.41992188 C221.8112793 164.91992188 221.8112793 164.91992188 218.6862793 165.41992188 C213.63524859 163.26470449 211.38000183 159.54309144 208.4987793 155.10742188 C207.53622155 153.66926285 206.57265807 152.23177652 205.6081543 150.79492188 C205.12411133 150.06789062 204.64006836 149.34085938 204.14135742 148.59179688 C201.88970001 145.23093373 199.58118967 141.9125869 197.2487793 138.60742188 C196.84828369 138.02758545 196.44778809 137.44774902 196.03515625 136.8503418 C193.84792923 133.7561145 191.99253337 131.28881475 188.6862793 129.41992188 C185.8170694 129.13116063 183.16497045 129.0129572 180.296875 129.03515625 C179.45243332 129.02978348 178.60799164 129.02441071 177.73796082 129.01887512 C175.90573221 129.00909883 174.07345731 129.00615253 172.24120522 129.00923157 C169.33556224 129.01371274 166.43052737 128.9996986 163.52494812 128.98083496 C157.34956851 128.94404213 151.17425235 128.930352 144.9987793 128.91992188 C137.85785594 128.90782356 130.71722807 128.8861306 123.576437 128.83992004 C120.72428473 128.82640745 117.87251137 128.83051141 115.02033997 128.83532715 C113.25444061 128.82597846 111.48854534 128.81580762 109.72265625 128.8046875 C108.93843292 128.81083572 108.15420959 128.81698395 107.34622192 128.82331848 C99.72183386 128.73960064 92.60804705 126.97730871 86.8737793 121.73242188 C86.16608398 121.10980469 85.45838867 120.4871875 84.72924805 119.84570312 C82.88103617 117.65117238 81.80060672 115.82116626 80.55859375 113.26831055 C80.20577835 112.54769943 79.85296295 111.82708832 79.48945618 111.0846405 C79.22440781 110.53528336 78.95935944 109.98592621 78.6862793 109.41992188 C71.26229722 109.32689533 63.83844256 109.25599265 56.41399384 109.21267319 C52.96580798 109.19187294 49.51802336 109.16369651 46.07006836 109.11816406 C42.09843895 109.06604943 38.12696722 109.04691399 34.1550293 109.02929688 C32.92764038 109.00865173 31.70025146 108.98800659 30.43566895 108.96673584 C23.69182178 108.9649803 18.19474578 109.23648301 12.6862793 113.41992188 C10.39392832 115.69065938 10.39392832 115.69065938 8.7175293 118.36132812 C8.0575293 119.33215332 7.3975293 120.30297852 6.7175293 121.30322266 C6.0472168 122.3317334 5.3769043 123.36024414 4.6862793 124.41992188 C3.9953418 125.45487793 3.3044043 126.48983398 2.5925293 127.55615234 C0.43474895 130.80918471 -1.69316321 134.08002109 -3.8137207 137.35742188 C-8.09722499 143.95433058 -12.38178589 150.55021512 -16.7199707 157.11132812 C-17.36256836 158.08400635 -18.00516602 159.05668457 -18.66723633 160.05883789 C-20.3137207 162.41992188 -20.3137207 162.41992188 -22.3137207 164.41992188 C-29.47474912 164.98825746 -29.47474912 164.98825746 -32.2512207 163.10742188 C-34.34722546 159.77847314 -34.4407929 156.9012281 -34.44743347 153.07725525 C-34.45169846 151.96850037 -34.45596344 150.85974548 -34.46035767 149.71739197 C-34.45990448 148.50024002 -34.45945129 147.28308807 -34.45898438 146.02905273 C-34.46234299 144.7474527 -34.4657016 143.46585266 -34.46916199 142.14541626 C-34.47800445 138.62643489 -34.48034034 135.10747784 -34.48097777 131.58848643 C-34.48168868 129.38714454 -34.48382389 127.18580882 -34.48647499 124.98446846 C-34.49573256 117.29603814 -34.49980978 109.60762516 -34.49902344 101.91918945 C-34.49842406 94.76827348 -34.50894727 87.61743328 -34.5247671 80.46653646 C-34.53788192 74.31774701 -34.54320561 68.16898218 -34.54256803 62.02017885 C-34.54231399 58.35228697 -34.54511213 54.68446228 -34.55574608 51.0165844 C-34.56730736 46.91652208 -34.56265621 42.81662696 -34.55664062 38.71655273 C-34.56226013 37.5135704 -34.56787964 36.31058807 -34.57366943 35.07115173 C-34.53564903 24.84206685 -34.28381435 15.46427042 -26.7434082 7.83007812 C-18.45404034 0.22839325 -10.89143909 -0.02604532 0 0 Z M-17.3137207 19.41992188 C-19.24121169 22.33359838 -19.56220071 24.5796 -19.55422974 28.03900146 C-19.55697906 28.96164291 -19.55972839 29.88428436 -19.56256104 30.83488464 C-19.55537048 31.83973404 -19.54817993 32.84458344 -19.54077148 33.87988281 C-19.54106354 34.94360611 -19.54135559 36.00732941 -19.54165649 37.10328674 C-19.5402628 40.620373 -19.52469952 44.1372476 -19.5090332 47.65429688 C-19.50530322 50.0923857 -19.50245618 52.53047603 -19.50045776 54.96856689 C-19.49282019 61.38669979 -19.47317052 67.80474221 -19.4510498 74.22283936 C-19.43059412 80.771594 -19.42145663 87.32036325 -19.41137695 93.86914062 C-19.38992484 106.71943965 -19.35617156 119.56967595 -19.3137207 132.41992188 C-16.66729662 129.14178025 -14.20071357 125.85236657 -11.88793945 122.33007812 C-11.2556543 121.38068359 -10.62336914 120.43128906 -9.97192383 119.453125 C-8.66349557 117.48075693 -7.36134636 115.50420832 -6.06567383 113.5234375 C-1.35802394 106.48819577 3.33783753 100.38239276 11.3737793 97.10742188 C12.46239258 96.64916016 12.46239258 96.64916016 13.57299805 96.18164062 C17.61559055 94.72451394 21.15758241 94.28014118 25.46459961 94.21459961 C27.20595184 94.18468178 27.20595184 94.18468178 28.98248291 94.15415955 C30.23051697 94.13744705 31.47855103 94.12073456 32.7644043 94.10351562 C34.04611511 94.08273453 35.32782593 94.06195343 36.64837646 94.0405426 C40.04804201 93.9854744 43.44776668 93.93599824 46.84753418 93.88769531 C50.31987743 93.83736856 53.79213535 93.78174095 57.2644043 93.7265625 C64.07162191 93.61916765 70.87891668 93.5176816 77.6862793 93.41992188 C77.70086182 92.28562744 77.71544434 91.15133301 77.73046875 89.98266602 C77.78882869 85.73870712 77.86605657 81.49525807 77.94873047 77.25170898 C77.98180361 75.42171559 78.00988929 73.59162451 78.03271484 71.76147461 C78.06658737 69.11725574 78.11891571 66.47391809 78.17456055 63.83007812 C78.18095047 63.0234523 78.18734039 62.21682648 78.19392395 61.38575745 C78.39826212 53.33235942 80.41058457 45.66745511 85.6862793 39.41992188 C93.61620328 32.88478689 101.52106821 31.15686276 111.5612793 31.00585938 C112.37121338 30.98649323 113.18114746 30.96712708 114.015625 30.94717407 C116.57240664 30.88796186 119.12923475 30.84122942 121.6862793 30.79492188 C123.43239139 30.75668821 125.17848571 30.71763344 126.92456055 30.67773438 C131.1783204 30.58230935 135.43216833 30.49806639 139.6862793 30.41992188 C139.88440455 24.6606257 139.38193145 21.96029452 135.6862793 17.41992188 C132.22991659 15.11568007 130.92854113 15.1653784 126.85440063 15.15249634 C125.6374501 15.14396637 124.42049957 15.1354364 123.16667175 15.12664795 C121.81594836 15.12734699 120.46522506 15.12827006 119.11450195 15.12939453 C117.69361517 15.12341092 116.27273165 15.11660576 114.85185242 15.10903931 C110.99022991 15.09135453 107.128696 15.08668288 103.26703691 15.08540773 C100.0438774 15.08350939 96.82073855 15.07615257 93.59758699 15.06906354 C85.99302587 15.0527724 78.38851211 15.04789523 70.78393555 15.04931641 C62.93869533 15.0505179 55.0937302 15.02941632 47.24855959 14.99782908 C40.51385631 14.97167895 33.77924293 14.96094858 27.04448926 14.96222723 C23.0217754 14.96273726 18.99930592 14.95703177 14.97664261 14.93587112 C11.19265697 14.9165099 7.40914934 14.91634934 3.62514687 14.93090439 C2.23721303 14.93299629 0.84924945 14.92826878 -0.53863335 14.91618347 C-2.43498679 14.90074156 -4.33150308 14.91243333 -6.22787476 14.92544556 C-7.2886492 14.92435602 -8.34942364 14.92326649 -9.44234276 14.92214394 C-13.08235659 15.55317148 -14.70537599 16.84125484 -17.3137207 19.41992188 Z M93.77587891 51.46899414 C92.05470228 56.13040168 92.23889015 60.70493568 92.25268555 65.63476562 C92.2474437 66.72326309 92.24220184 67.81176056 92.23680115 68.9332428 C92.23038612 71.23209786 92.23171119 73.53098577 92.24023438 75.82983398 C92.24874092 79.34157953 92.21997918 82.85169645 92.18823242 86.36328125 C92.18662017 88.59960889 92.18719839 90.8359394 92.19018555 93.07226562 C92.17895157 94.11930161 92.16771759 95.16633759 92.15614319 96.24510193 C92.21201665 102.10851681 92.53526749 105.91088808 96.6862793 110.41992188 C100.97207329 113.72166967 104.87863145 113.84575007 110.09741211 113.8046875 C111.34966331 113.81274666 111.34966331 113.81274666 112.62721252 113.82096863 C114.43541402 113.83073203 116.24366229 113.83369512 118.05188751 113.83061218 C120.91980717 113.8261243 123.78711294 113.84016357 126.65496826 113.85900879 C132.7487286 113.8957658 138.84242445 113.90948822 144.9362793 113.91992188 C151.98674461 113.93202389 159.03691076 113.95371528 166.08724213 113.99992371 C168.90172786 114.01343107 171.71582939 114.00933368 174.53033447 114.0045166 C176.27275062 114.01386515 178.01516262 114.02403595 179.75756836 114.03515625 C180.5308699 114.02900803 181.30417145 114.0228598 182.10090637 114.01652527 C190.09671519 114.10549563 197.42475281 116.32396093 203.6862793 121.41992188 C205.98706055 124.43554688 205.98706055 124.43554688 207.9987793 127.66992188 C209.20969955 129.59816822 210.43362704 131.51852131 211.6862793 133.41992188 C212.0162793 133.41992188 212.3462793 133.41992188 212.6862793 133.41992188 C212.77904401 123.35368865 212.85007716 113.28755746 212.89352798 103.22098351 C212.91438446 98.54641982 212.94266654 93.87214903 212.98803711 89.19775391 C213.03156426 84.68493402 213.055431 80.1723955 213.06578827 75.65938187 C213.07316733 73.93940427 213.08757708 72.21944171 213.10919952 70.4995842 C213.13832559 68.08646367 213.14223157 65.67449908 213.14038086 63.26123047 C213.15476196 62.55344452 213.16914307 61.84565857 213.18395996 61.11642456 C213.14220314 56.0698141 211.93838332 53.24480459 208.6862793 49.41992188 C203.62930935 44.93361689 199.37565401 44.84457437 192.93652344 44.90234375 C191.97153427 44.89533447 191.0065451 44.8883252 190.01231384 44.88110352 C186.8317258 44.8635408 183.6520322 44.87514147 180.47143555 44.88867188 C178.25475392 44.88597626 176.03807346 44.88209325 173.82139587 44.8770752 C169.17866747 44.87118228 164.53624722 44.87973593 159.89355469 44.8984375 C153.95060947 44.92121325 148.00838741 44.90811088 142.06546879 44.88414764 C137.48858726 44.86967294 132.9118763 44.87430364 128.33498955 44.88465881 C126.14418896 44.88732215 123.95337275 44.88407022 121.76259041 44.8747406 C118.6964548 44.86454929 115.63147921 44.88011362 112.56542969 44.90234375 C111.66494904 44.89424683 110.76446838 44.8861499 109.83670044 44.87780762 C103.13290493 44.96757145 98.49832162 46.40375941 93.77587891 51.46899414 Z " fill="#f6f6f6" transform="translate(159.313720703125,29.580078125)"/>
</svg>
