<?xml version="1.0" encoding="UTF-8"?>
<svg version="1.1" xmlns="http://www.w3.org/2000/svg" width="1071" height="1067">
<path d="M0 0 C1.79153503 -0.00101212 1.79153503 -0.00101212 3.6192627 -0.00204468 C23.99193741 0.01615554 44.08916523 0.76844257 64.3125 3.25 C65.38189819 3.3808197 65.38189819 3.3808197 66.47290039 3.51428223 C159.95410861 15.10187271 248.89638842 50.73885229 358.80932617 136.98193359 C360.38283012 138.40764818 361.96310948 139.82595635 363.55297852 141.23339844 C369.74501008 146.7267385 375.67079786 152.4529483 381.5090332 158.31616211 C383.00554925 159.81806925 384.507383 161.31451062 386.00976562 162.81054688 C391.32181632 168.11860478 396.4404759 173.53187569 401.3125 179.25 C402.33368818 180.40693721 403.35709728 181.56191821 404.3828125 182.71484375 C411.89878254 191.23229335 418.91476136 200.03957513 425.72167969 209.13134766 C427.28568882 211.21429291 428.86340477 213.28609541 430.4453125 215.35546875 C446.24496197 236.0903122 459.99167672 258.28931231 472.3125 281.25 C472.78010742 282.11286621 473.24771484 282.97573242 473.72949219 283.86474609 C503.3125 338.5942856 503.3125 338.5942856 503.3125 351.25 C335.3425 351.25 167.3725 351.25 -5.6875 351.25 C-5.6875 371.38 -5.6875 391.51 -5.6875 412.25 C29.9525 412.25 65.5925 412.25 102.3125 412.25 C102.3125 512.57 102.3125 612.89 102.3125 716.25 C131.0225 716.25 159.7325 716.25 189.3125 716.25 C189.3125 615.93 189.3125 515.61 189.3125 412.25 C265.5425 412.25 341.7725 412.25 420.3125 412.25 C454.14734305 513.75452915 439.84035451 632.97972236 392.66015625 727.625 C391.5458429 729.83412701 390.43007091 732.04251916 389.3125 734.25 C388.84956543 735.17554688 388.38663086 736.10109375 387.90966797 737.0546875 C381.78455014 749.27242917 374.84249562 760.84821574 367.3125 772.25 C366.85230469 772.94722168 366.39210938 773.64444336 365.91796875 774.36279297 C354.20359404 791.98921342 341.23002549 808.90156752 326.8671875 824.44921875 C324.91397205 826.59058799 323.01658124 828.75538912 321.12890625 830.953125 C316.76283228 835.95748975 312.0798797 840.62879755 307.375 845.3125 C306.51970703 846.17166016 305.66441406 847.03082031 304.78320312 847.91601562 C299.78806603 852.90353237 294.6797796 857.6675821 289.3125 862.25 C288.21757937 863.21090732 287.12377941 864.17309353 286.03125 865.13671875 C278.08275544 872.08017495 269.87010707 878.55916256 261.33935547 884.77197266 C260.02205788 885.73257487 258.70835695 886.69813571 257.39892578 887.66943359 C183.69645452 942.3053547 92.77629295 969.53562128 -65.6875 965.25 C-76.09953002 963.65154814 -86.40925403 961.55130865 -96.6875 959.25 C-98.36851807 958.87367432 -98.36851807 958.87367432 -100.08349609 958.48974609 C-128.85935871 951.87533865 -157.04843982 941.95398508 -183.6875 929.25 C-184.73663574 928.75419434 -185.78577148 928.25838867 -186.86669922 927.74755859 C-219.60622989 912.17110672 -249.96569687 892.6070937 -277.6875 869.25 C-278.2045752 868.8178418 -278.72165039 868.38568359 -279.25439453 867.94042969 C-293.85159107 855.72372554 -308.37548401 842.88956614 -320.7890625 828.42578125 C-322.95495005 825.94347802 -325.19626957 823.53944855 -327.4375 821.125 C-332.69507985 815.35119252 -337.52321028 809.30364199 -342.26660156 803.10351562 C-343.67621917 801.26471547 -345.09942418 799.43703794 -346.5234375 797.609375 C-360.20402601 779.88605939 -371.90913626 760.84808276 -382.6875 741.25 C-383.11337402 740.48864746 -383.53924805 739.72729492 -383.97802734 738.94287109 C-418.36329642 677.34430915 -434.98157288 604.74599929 -434.875 534.4375 C-434.87439575 533.68676208 -434.8737915 532.93602417 -434.87316895 532.16253662 C-434.72691087 464.3861896 -419.07006738 396.48350442 -387.72802734 336.25732422 C-386.61329758 334.10685306 -385.51956001 331.94635209 -384.42578125 329.78515625 C-374.99562351 311.32177834 -363.92913081 293.96693579 -351.6875 277.25 C-351.1939502 276.57098633 -350.70040039 275.89197266 -350.19189453 275.19238281 C-340.31368083 261.63354604 -329.50040505 249.05149871 -318.08935547 236.76953125 C-316.63228583 235.19015099 -315.19186746 233.59678647 -313.75390625 232 C-307.84993377 225.47263268 -301.7428141 219.36325591 -295.18359375 213.4921875 C-294.35988281 212.75226563 -293.53617188 212.01234375 -292.6875 211.25 C-292.14804245 210.85967087 -291.6085849 210.46934174 -291.05278015 210.06718445 C-288.9407464 207.25607284 -289.29490468 204.30827775 -289.34692383 200.93286133 C-289.34648575 200.19115189 -289.34604767 199.44944244 -289.34559631 198.68525696 C-289.34768617 196.23391384 -289.37102581 193.78325487 -289.39453125 191.33203125 C-289.40012652 189.63238397 -289.40439694 187.93273185 -289.40739441 186.233078 C-289.41884866 181.75968059 -289.44832073 177.28657541 -289.48150635 172.81329346 C-289.51219479 168.24861606 -289.52589712 163.68389145 -289.54101562 159.11914062 C-289.57318995 150.16263203 -289.62439325 141.20634031 -289.6875 132.25 C-291.44595311 133.52601447 -293.20401583 134.80256692 -294.96191406 136.0793457 C-295.94097717 136.790168 -296.92004028 137.5009903 -297.92877197 138.23335266 C-309.00042767 146.32680181 -319.44641975 155.13896998 -329.6875 164.25 C-330.21102051 164.71422363 -330.73454102 165.17844727 -331.27392578 165.65673828 C-338.95957568 172.50801714 -346.27011061 179.73408255 -353.5625 187 C-354.45469238 187.88751953 -355.34688477 188.77503906 -356.26611328 189.68945312 C-361.28084669 194.71642448 -366.08059446 199.84845038 -370.6875 205.25 C-371.6367374 206.33315735 -372.58720486 207.41523829 -373.5390625 208.49609375 C-380.77612774 216.79375225 -387.55321531 225.38413103 -394.14990234 234.19775391 C-395.56740892 236.08971331 -396.99559305 237.97309253 -398.42578125 239.85546875 C-460.11458124 321.74638222 -493.67126936 424.81731285 -490.4921875 600.22143555 C-482.61294979 656.12001688 -465.83120372 708.74504305 -440.6875 759.25 C-440.02113525 760.59674805 -440.02113525 760.59674805 -439.34130859 761.97070312 C-425.67963031 789.40709351 -408.80387376 815.3035605 -389.6875 839.25 C-389.1836377 839.88389648 -388.67977539 840.51779297 -388.16064453 841.17089844 C-382.02813196 848.86739514 -375.8090883 856.41974261 -369.1015625 863.625 C-367.81923924 865.01937092 -366.54270894 866.42018939 -365.31518555 867.86303711 C-359.89099741 874.23282609 -353.98542465 880.10330771 -348.06323242 886.00463867 C-346.25389067 887.80862085 -344.44995681 889.61788665 -342.64648438 891.42773438 C-336.83059032 897.24733375 -330.99523379 902.95814238 -324.6875 908.25 C-323.63088216 909.16203307 -322.57486654 910.07476442 -321.51953125 910.98828125 C-247.79952798 973.83625299 -156.08901149 1014.66581838 40.7421875 1028.72265625 C143.23027916 1020.28199499 240.26214266 980.41977571 340.7578125 895.80859375 C342.45412726 894.1080169 344.23556297 892.559133 346.0625 891 C353.3769234 884.67977007 360.18596057 877.74317604 366.453125 870.38671875 C368.30729216 868.25598464 370.22440463 866.19297492 372.15551758 864.13208008 C378.10212184 857.76241357 383.51424185 851.08734078 388.81738281 844.17773438 C390.37554386 842.16871418 391.96174552 840.18465826 393.5546875 838.203125 C446.10430564 772.45769712 479.66912555 691.2116731 492.3125 608.25 C492.46412598 607.25790527 492.61575195 606.26581055 492.77197266 605.24365234 C493.76300596 598.59338506 494.58058747 591.93333419 495.3125 585.25 C495.41691406 584.35490723 495.52132813 583.45981445 495.62890625 582.53759766 C499.51811182 548.04551346 498.70454121 512.15462551 494.70947266 477.70556641 C494.35049654 474.5807522 494.04989352 471.45615213 493.76171875 468.32421875 C493.11480124 460.6327121 493.11480124 460.6327121 489.3671875 454.13671875 C487.10185868 452.58283179 487.10185868 452.58283179 484.66015625 451.4453125 C478.38744425 448.25155231 474.28274807 441.69900758 471.97265625 435.21875 C469.82148286 425.54483414 470.07297256 414.86886763 475.3125 406.25 C480.22838818 399.16908334 486.64588815 394.22433578 494.5625 390.875 C506.65044535 388.86034244 517.007977 390.23059144 527.125 397.375 C534.63715007 403.66205033 538.65250823 411.97809073 539.52734375 421.6171875 C539.86028506 430.16712038 538.29542762 437.10208886 532.6015625 443.58203125 C528.53917255 449.28948646 528.9960437 453.97668782 530.01855469 460.6394043 C530.13791382 461.33867035 530.25727295 462.0379364 530.38024902 462.75839233 C530.89008785 465.7631003 531.30182111 468.77906943 531.71994019 471.79768372 C531.93581079 473.35296156 532.1559868 474.90764772 532.38040161 476.4617157 C544.31065867 559.6724897 529.59808012 648.49364979 431.53881836 850.75976562 C421.16783383 864.59432662 410.23058354 877.9618651 398.578125 890.73828125 C397.35100868 892.09868779 396.12998451 893.46523207 394.94506836 894.86254883 C389.64578357 901.07665409 383.8969178 906.8171636 378.11547852 912.57739258 C376.378564 914.308947 374.64706111 916.04578359 372.91601562 917.78320312 C367.21613485 923.48681302 361.46832141 929.03475858 355.3125 934.25 C354.15531728 935.27090997 353.00034913 936.29433583 351.84765625 937.3203125 C343.37185901 944.80031273 334.62235902 951.80756697 325.56445312 958.56884766 C324.03456555 959.71095583 322.50730799 960.85659373 320.98242188 962.00537109 C310.05021863 970.24051432 298.95180319 978.04606235 287.3125 985.25 C286.54357422 985.72646973 285.77464844 986.20293945 284.98242188 986.69384766 C219.214692 1027.23102478 147.29756466 1053.0825024 70.75 1063.5625 C69.68450928 1063.70977539 68.61901855 1063.85705078 67.52124023 1064.00878906 C45.69742369 1066.78740096 23.7935124 1067.63016664 1.8125 1067.5625 C0.6011438 1067.56100952 -0.6102124 1067.55951904 -1.85827637 1067.5579834 C-21.95131833 1067.51379388 -41.74469045 1066.69810855 -61.6875 1064.25 C-62.90066895 1064.10546387 -64.11383789 1063.96092773 -65.36376953 1063.81201172 C-118.5836121 1057.30984451 -170.99935666 1042.73862093 -219.6875 1020.25 C-220.28071045 1019.97671875 -220.8739209 1019.7034375 -221.48510742 1019.421875 C-258.91834743 1002.15035217 -294.4416967 981.02564804 -326.6875 955.25 C-327.30544434 954.75677246 -327.92338867 954.26354492 -328.56005859 953.75537109 C-351.23794181 935.60077904 -374.16621987 916.45823282 -392.9921875 894.2265625 C-395.1237317 891.74139806 -397.34433599 889.34559854 -399.5625 886.9375 C-404.4794433 881.53329205 -409.14838689 875.97337421 -413.6875 870.25 C-414.20328613 869.60144043 -414.71907227 868.95288086 -415.25048828 868.28466797 C-473.12578162 795.3012992 -511.07793666 709.75476226 -532.00317383 538.62670898 C-531.99856662 535.7665219 -532.00539687 532.90676265 -532.02368164 530.04663086 C-532.60480339 438.11919007 -507.35049272 348.11552322 -411.6875 195.25 C-410.81846145 194.20748863 -409.95000152 193.16449472 -409.08203125 192.12109375 C-403.25746703 185.14633094 -397.23713214 178.38687329 -391.05371094 171.72949219 C-389.24175281 169.76729307 -387.45435726 167.78304301 -385.66333008 165.80175781 C-377.46910213 156.76781773 -369.00475336 147.88139436 -359.69921875 139.98046875 C-357.20466397 137.83466726 -354.79531018 135.60414323 -352.375 133.375 C-346.9725248 128.45422698 -341.38512419 123.8229951 -335.6875 119.25 C-334.55551214 118.32610551 -333.42402513 117.4015971 -332.29296875 116.4765625 C-311.99173782 99.94936638 -290.28766899 85.43699982 -267.6875 72.25 C-267.0392627 71.86908203 -266.39102539 71.48816406 -265.72314453 71.09570312 C-254.05640339 64.25 -254.05640339 64.25 -251.6875 64.25 C-251.6875 279.41 -251.6875 494.57 -251.6875 716.25 C-167.2075 716.25 -82.7275 716.25 4.3125 716.25 C4.3125 691.5 4.3125 666.75 4.3125 641.25 C-56.4075 641.25 -117.1275 641.25 -179.6875 641.25 C-179.72783135 535.78352219 -179.72783135 535.78352219 -179.73632812 491.25195312 C-179.73828509 481.06453449 -179.74030531 470.87711587 -179.74243164 460.68969727 C-179.74269539 459.41341101 -179.74295914 458.13712476 -179.74323088 456.82216316 C-179.74754379 436.39551319 -179.75540676 415.96886613 -179.7646528 395.54221786 C-179.77410703 374.47504434 -179.77958008 353.40787231 -179.78158849 332.34069675 C-179.7828205 320.55143937 -179.78573005 308.76218802 -179.79323006 296.97293282 C-179.82636115 243.38976069 -179.6449798 189.82554465 -178.6875 136.25 C-175.82230791 134.96636086 -172.95560028 133.68614065 -170.08862305 132.40649414 C-168.88151295 131.86562038 -168.88151295 131.86562038 -167.65001678 131.31381989 C-161.35480338 128.50701324 -155.00380631 125.97364647 -148.5 123.6875 C-147.44449951 123.31383301 -146.38899902 122.94016602 -145.30151367 122.55517578 C-119.49057576 113.51797542 -93.20316316 106.6993457 -66.1875 102.4375 C-64.34973999 102.14528564 -64.34973999 102.14528564 -62.47485352 101.84716797 C-41.38921877 98.68341684 -20.49371045 97.87681654 0.8125 97.9375 C2.15284209 97.93942315 3.4931843 97.94126368 4.83352661 97.94302368 C23.8262012 97.97928579 42.5120272 98.32145392 61.3125 101.25 C62.50069336 101.42692383 63.68888672 101.60384766 64.91308594 101.78613281 C149.29237943 114.55884155 230.57347763 151.05533021 293.29296875 209.4765625 C295.5215128 211.54718712 297.80401882 213.54272285 300.109375 215.52734375 C304.72839327 219.55330964 309.05481859 223.84533293 313.375 228.1875 C314.13876953 228.94740234 314.90253906 229.70730469 315.68945312 230.49023438 C320.43839707 235.24730312 324.93796006 240.14872958 329.3125 245.25 C330.23806727 246.29821563 331.16506814 247.34516779 332.09375 248.390625 C349.59861392 268.30576419 364.81556032 290.32648334 378.3125 313.125 C378.72798096 313.8264917 379.14346191 314.5279834 379.5715332 315.25073242 C382.3125 319.98850942 382.3125 319.98850942 382.3125 322.25 C404.7525 322.25 427.1925 322.25 450.3125 322.25 C443.05132674 306.75609634 443.05132674 306.75609634 435 291.75 C434.4529541 290.79279053 433.9059082 289.83558105 433.34228516 288.84936523 C416.33577863 259.32886764 396.63270973 230.74723161 373.5078125 205.65625 C371.65795726 203.62865066 369.85044688 201.57574746 368.05078125 199.50390625 C364.24738783 195.14716274 360.3323635 190.90436275 356.375 186.6875 C355.71048828 185.97142578 355.04597656 185.25535156 354.36132812 184.51757812 C350.46452536 180.36376025 346.45053377 176.49468995 342.10253906 172.81420898 C340.3064468 171.24471047 338.65044493 169.59587793 337 167.875 C333.36761885 164.18535158 329.4044595 160.98982703 325.37109375 157.75 C323.26396849 156.02770094 321.20159197 154.29571314 319.16015625 152.5 C248.25740905 90.13797832 156.82163027 54.67501804 64.3125 41.25 C63.0754834 41.06775879 61.8384668 40.88551758 60.56396484 40.69775391 C21.48891125 35.25184781 -21.67278474 35.50222835 -60.6875 41.25 C-61.38909241 41.3518158 -62.09068481 41.45363159 -62.8135376 41.55853271 C-82.23351197 44.38795051 -101.38799011 47.96020515 -120.41796875 52.79443359 C-122.6875 53.25 -122.6875 53.25 -126.6875 53.25 C-127.05875 54.549375 -127.05875 54.549375 -127.4375 55.875 C-130.68099482 64.632436 -136.80781457 71.20039161 -145.1875 75.1875 C-154.06175492 78.56127571 -164.72680973 78.95524653 -173.63671875 75.34765625 C-182.91896191 70.3794461 -189.18094946 63.30059835 -192.5625 53.3125 C-195.08626443 43.59300247 -194.06703835 34.44124099 -189.24609375 25.609375 C-184.07739873 17.59849733 -177.32434616 12.39333184 -168.12890625 9.72265625 C-157.75857704 7.71496051 -148.25441752 9.52025408 -139.47387695 15.40307617 C-135.45530943 17.69843771 -132.9358911 17.25011599 -128.4375 16.06640625 C-127.75503204 15.89662262 -127.07256409 15.72683899 -126.36941528 15.5519104 C-124.90184773 15.18504436 -123.43710541 14.80672086 -121.97515869 14.4180603 C-118.05845479 13.38127959 -114.11837563 12.44132762 -110.1796875 11.4921875 C-108.98024002 11.20020729 -108.98024002 11.20020729 -107.75656128 10.90232849 C-85.79383685 5.61619247 -63.16399171 3.1397974 -40.6875 1.25 C-39.06751099 1.10643066 -39.06751099 1.10643066 -37.41479492 0.95996094 C-24.96064276 -0.01917494 -12.48580871 0.00635821 0 0 Z " fill="#2268B1" transform="translate(531.6875,-0.24999999999999997)"/>
</svg>
