<?xml version="1.0" encoding="UTF-8"?>
<svg version="1.1" xmlns="http://www.w3.org/2000/svg" width="450" height="450">
<path d="M0 0 C1.3097303 -0.00855011 1.3097303 -0.00855011 2.6459198 -0.01727295 C4.49611192 -0.02672845 6.34632093 -0.03325911 8.1965332 -0.03710938 C11.02129719 -0.04680065 13.84532919 -0.07781255 16.66992188 -0.109375 C18.4674436 -0.11590652 20.26497052 -0.12115641 22.0625 -0.125 C22.90537064 -0.1373468 23.74824127 -0.1496936 24.61665344 -0.16241455 C29.29623259 -0.14472698 32.46026272 0.10978712 36.23046875 3.203125 C38.42572961 7.73824474 38.48007603 12.13217453 38.35546875 17.078125 C38.34644531 17.76648438 38.33742188 18.45484375 38.328125 19.1640625 C38.30479388 20.84390338 38.26893201 22.52356246 38.23046875 24.203125 C39.17921875 24.5125 40.12796875 24.821875 41.10546875 25.140625 C44.23046875 26.203125 44.23046875 26.203125 46.23046875 27.203125 C48.12202506 26.12012786 49.96977741 24.96012967 51.79296875 23.765625 C59.91163549 18.93331677 59.91163549 18.93331677 65.13378906 19.57885742 C72.4410201 21.75451995 76.57088881 32.71572873 79.91796875 38.828125 C81.04645244 40.86221365 82.17534454 42.89607579 83.3046875 44.9296875 C83.79541748 45.82252441 84.28614746 46.71536133 84.79174805 47.63525391 C85.7743235 49.38898353 86.80739475 51.11512007 87.88208008 52.81396484 C89.78462323 56.18501088 89.77437686 58.39576822 89.23046875 62.203125 C85.54922853 67.23415331 79.71429229 70.37871323 74.23046875 73.203125 C73.57046875 73.203125 72.91046875 73.203125 72.23046875 73.203125 C72.23046875 76.503125 72.23046875 79.803125 72.23046875 83.203125 C72.94847656 83.47253906 73.66648437 83.74195313 74.40625 84.01953125 C77.23654783 85.20567267 79.7816357 86.57318341 82.41796875 88.140625 C83.27777344 88.64464844 84.13757813 89.14867187 85.0234375 89.66796875 C87.23046875 91.203125 87.23046875 91.203125 89.23046875 94.203125 C89.74421145 99.56417652 88.87196409 102.69074286 86.16015625 107.29296875 C85.51046875 108.40736328 84.86078125 109.52175781 84.19140625 110.66992188 C83.84819336 111.240896 83.50498047 111.81187012 83.15136719 112.40014648 C82.1151351 114.12453924 81.10077399 115.86028715 80.08984375 117.59960938 C71.84930446 131.58428929 71.84930446 131.58428929 67.23046875 136.203125 C59.40456573 137.22947294 55.48305496 134.96098749 49.125 130.44140625 C46.18346902 128.77997978 46.18346902 128.77997978 42.9921875 130.49609375 C42.08082031 131.05941406 41.16945313 131.62273437 40.23046875 132.203125 C39.57046875 132.203125 38.91046875 132.203125 38.23046875 132.203125 C38.28267578 133.70552734 38.28267578 133.70552734 38.3359375 135.23828125 C38.67254085 148.91708571 38.67254085 148.91708571 35.23046875 154.203125 C32.48775047 155.90331051 30.38877676 156.45627765 27.18383789 156.4777832 C26.39944839 156.48731522 25.6150589 156.49684723 24.80690002 156.50666809 C23.54896889 156.50530098 23.54896889 156.50530098 22.265625 156.50390625 C21.39530136 156.50819138 20.52497772 156.5124765 19.62828064 156.51689148 C17.79003773 156.52262701 15.95177212 156.52314076 14.11352539 156.51879883 C11.3064081 156.51564012 8.50034634 156.53910287 5.69335938 156.56445312 C3.90494924 156.56672638 2.11653628 156.56742949 0.328125 156.56640625 C-0.50847153 156.575616 -1.34506805 156.58482574 -2.20701599 156.59431458 C-6.87638913 156.55738377 -9.98224931 156.24658421 -13.76953125 153.203125 C-14.8877694 150.96664869 -14.96349186 149.55420971 -15.0859375 147.0703125 C-15.12783203 146.26464844 -15.16972656 145.45898438 -15.21289062 144.62890625 C-15.25220703 143.78714844 -15.29152344 142.94539062 -15.33203125 142.078125 C-15.37521484 141.22863281 -15.41839844 140.37914062 -15.46289062 139.50390625 C-15.56907361 137.40384277 -15.66981622 135.30350552 -15.76953125 133.203125 C-18.34671919 131.54895653 -20.84509415 130.14011279 -23.76953125 129.203125 C-26.97235543 130.22154723 -26.97235543 130.22154723 -29.70703125 132.453125 C-34.25477941 135.43327815 -37.30873739 136.98288614 -42.734375 137.03515625 C-49.9641711 134.07940468 -53.83905298 123.45827205 -57.45703125 117.078125 C-58.13946174 115.88642528 -58.82240062 114.69501654 -59.50585938 113.50390625 C-61.27408921 110.41082362 -63.03985283 107.317931 -64.76953125 104.203125 C-65.16374268 103.50203613 -65.5579541 102.80094727 -65.96411133 102.07861328 C-67.09688813 99.44084687 -67.06444194 97.04021813 -66.640625 94.23046875 C-64.85106159 90.06552072 -60.58712357 88.29076918 -56.76953125 86.203125 C-55.80015625 85.584375 -54.83078125 84.965625 -53.83203125 84.328125 C-51.76953125 83.203125 -51.76953125 83.203125 -49.76953125 83.203125 C-49.76953125 79.903125 -49.76953125 76.603125 -49.76953125 73.203125 C-50.48753906 72.93242187 -51.20554687 72.66171875 -51.9453125 72.3828125 C-54.76184614 71.2063351 -57.32233311 69.86669305 -59.95703125 68.328125 C-60.81683594 67.83570313 -61.67664063 67.34328125 -62.5625 66.8359375 C-65.0571848 64.99031229 -65.94448476 64.18948958 -66.76953125 61.203125 C-66.6122716 54.65975592 -64.65520963 50.47804804 -61.20703125 45.015625 C-60.76029053 44.28456543 -60.3135498 43.55350586 -59.85327148 42.80029297 C-58.9416231 41.31162937 -58.02409275 39.82655115 -57.10058594 38.34521484 C-55.85871096 36.34664349 -54.6413305 34.33573792 -53.43359375 32.31640625 C-47.3571506 22.22014111 -47.3571506 22.22014111 -44.76953125 20.203125 C-38.21069659 19.16204013 -35.22879564 20.30456676 -29.70703125 23.953125 C-28.76730469 24.64921875 -27.82757813 25.3453125 -26.859375 26.0625 C-23.93899934 27.50103944 -23.93899934 27.50103944 -21.61767578 26.51367188 C-19.59210142 25.50289021 -17.67389562 24.42544156 -15.76953125 23.203125 C-15.73085938 21.32367188 -15.73085938 21.32367188 -15.69140625 19.40625 C-15.63511956 17.75517377 -15.57777235 16.10413345 -15.51953125 14.453125 C-15.50535156 13.628125 -15.49117188 12.803125 -15.4765625 11.953125 C-15.22861553 5.8040402 -15.22861553 5.8040402 -12.84765625 2.6875 C-8.68580415 -0.2852515 -4.96042677 0.02483229 0 0 Z M3.23046875 18.203125 C3.04484375 21.544375 3.04484375 21.544375 2.85546875 24.953125 C2.38317145 33.45447635 2.38317145 33.45447635 0.23046875 36.203125 C-2.02049522 37.51907317 -4.15790134 38.63453626 -6.51953125 39.703125 C-11.20693752 41.87800206 -15.46726515 44.33289008 -19.76953125 47.203125 C-25.04895998 48.25901075 -28.36333473 46.00490522 -32.71875 43.296875 C-34.82333793 41.96783088 -34.82333793 41.96783088 -37.76953125 42.203125 C-39.70292554 44.88934662 -39.70292554 44.88934662 -41.45703125 48.203125 C-42.07964844 49.316875 -42.70226562 50.430625 -43.34375 51.578125 C-43.81425781 52.444375 -44.28476562 53.310625 -44.76953125 54.203125 C-42.21774376 56.89827134 -39.7875939 58.96372646 -36.58203125 60.828125 C-32.87816999 62.98584751 -32.87816999 62.98584751 -31.76953125 65.203125 C-31.44501526 69.46742948 -31.44501574 73.74050697 -31.39453125 78.015625 C-31.35714844 79.20478516 -31.31976563 80.39394531 -31.28125 81.61914062 C-31.19253367 90.39712838 -31.19253367 90.39712838 -34.0234375 94.3515625 C-34.92964844 94.96257812 -35.83585937 95.57359375 -36.76953125 96.203125 C-37.50816406 96.72519531 -38.24679687 97.24726563 -39.0078125 97.78515625 C-39.69230469 98.19121094 -40.37679688 98.59726562 -41.08203125 99.015625 C-41.77941406 99.43457031 -42.47679687 99.85351562 -43.1953125 100.28515625 C-43.97455078 100.73955078 -43.97455078 100.73955078 -44.76953125 101.203125 C-44.34800781 101.97398437 -43.92648437 102.74484375 -43.4921875 103.5390625 C-42.94433594 104.54195313 -42.39648438 105.54484375 -41.83203125 106.578125 C-41.28675781 107.57585937 -40.74148438 108.57359375 -40.1796875 109.6015625 C-39.35455535 111.12382846 -38.54388734 112.65441283 -37.76953125 114.203125 C-33.69532386 113.70928168 -31.04051932 112.29745668 -27.7109375 110.04296875 C-24.85705412 108.80839143 -22.85895759 108.85395151 -19.76953125 109.203125 C-16.5859375 110.84765625 -16.5859375 110.84765625 -13.33203125 113.015625 C-9.94073056 115.25608719 -6.77388555 117.2659421 -2.984375 118.71484375 C0.23046875 120.203125 0.23046875 120.203125 1.62890625 121.9375 C3.02894722 127.21038156 2.92961283 132.78771841 3.23046875 138.203125 C8.51046875 138.203125 13.79046875 138.203125 19.23046875 138.203125 C19.37484375 136.16125 19.51921875 134.119375 19.66796875 132.015625 C19.82867789 129.74273854 20.01506792 127.47148184 20.23046875 125.203125 C20.30394531 124.27886719 20.37742187 123.35460937 20.453125 122.40234375 C21.23046875 120.203125 21.23046875 120.203125 23.484375 119.0390625 C24.39058594 118.76320313 25.29679687 118.48734375 26.23046875 118.203125 C30.86717266 116.042759 35.30587949 113.86100582 39.48046875 110.890625 C42.88885773 108.79911358 44.28926162 108.50761786 48.23046875 109.203125 C50.63048805 110.39488716 52.90420026 111.69456428 55.1796875 113.109375 C57.28427543 114.43841912 57.28427543 114.43841912 60.23046875 114.203125 C62.16386304 111.51690338 62.16386304 111.51690338 63.91796875 108.203125 C64.85189453 106.5325 64.85189453 106.5325 65.8046875 104.828125 C66.27519531 103.961875 66.74570312 103.095625 67.23046875 102.203125 C64.83733862 99.67294337 62.72906882 97.7442845 59.60546875 96.203125 C56.1674223 94.16576414 55.51911166 93.75196949 54.23046875 90.203125 C53.97167969 87.609375 53.97167969 87.609375 53.96484375 84.703125 C53.96097656 83.1253125 53.96097656 83.1253125 53.95703125 81.515625 C53.96476562 80.4225 53.9725 79.329375 53.98046875 78.203125 C53.96886719 76.5634375 53.96886719 76.5634375 53.95703125 74.890625 C53.95960938 73.83875 53.9621875 72.786875 53.96484375 71.703125 C53.96709961 70.7440625 53.96935547 69.785 53.97167969 68.796875 C54.24215814 66.08596648 54.76471015 64.48361613 56.23046875 62.203125 C58.578125 60.5703125 58.578125 60.5703125 61.29296875 59.078125 C64.91601551 57.28118674 64.91601551 57.28118674 67.23046875 54.203125 C65.77840247 51.25948017 65.77840247 51.25948017 63.79296875 48.078125 C63.13425781 46.98242188 62.47554688 45.88671875 61.796875 44.7578125 C61.27996094 43.91476563 60.76304687 43.07171875 60.23046875 42.203125 C56.13760126 42.8677787 53.55544076 44.07224034 50.171875 46.36328125 C47.31717226 47.59821302 45.32121338 47.55201887 42.23046875 47.203125 C39.01171875 45.55859375 39.01171875 45.55859375 35.73046875 43.390625 C28.98766347 38.41949836 28.98766347 38.41949836 21.23046875 36.203125 C20.24046875 27.293125 20.24046875 27.293125 19.23046875 18.203125 C13.95046875 18.203125 8.67046875 18.203125 3.23046875 18.203125 Z " fill="#6262ff " transform="translate(373.76953125,177.796875)"/>
<path d="M0 0 C3.23613354 1.74253345 3.82395315 2.47185944 5 6 C5.13281695 9.67106043 5.04323297 13.32519714 5 17 C10.28 17 15.56 17 21 17 C20.8453125 14.463125 20.8453125 14.463125 20.6875 11.875 C20.70203985 8.11887087 20.77011397 5.40749231 23 2.3125 C26.32512512 -0.25061728 27.96009475 -0.87680939 32.0625 -0.49609375 C35.80082235 0.46109766 36.98309535 1.72252994 39 5 C39.41016292 9.09630242 39.22729444 12.86324111 39 17 C44.61 17 50.22 17 56 17 C55.896875 15.123125 55.79375 13.24625 55.6875 11.3125 C55.70243071 7.09706245 55.75036927 5.40564993 58 1.75 C62.17065967 -0.68288481 64.21026601 -0.68424771 69 0 C71.43119623 1.87015094 72.64069173 3.28138345 74 6 C74.07033769 7.87379605 74.0843022 9.75001102 74.0625 11.625 C74.05347656 12.62789062 74.04445313 13.63078125 74.03515625 14.6640625 C74.02355469 15.43492187 74.01195312 16.20578125 74 17 C74.78761719 17.12761719 75.57523437 17.25523437 76.38671875 17.38671875 C79 18 79 18 80.8125 19.8125 C82 22 82 22 82 26 C83.33804688 25.93039063 83.33804688 25.93039063 84.703125 25.859375 C85.87359375 25.82328125 87.0440625 25.7871875 88.25 25.75 C89.99023438 25.68039063 89.99023438 25.68039063 91.765625 25.609375 C95 26 95 26 97.36328125 27.80078125 C99.65840669 30.88468488 99.93305736 33.18426946 100 37 C98.7926593 39.85949114 97.86185958 41.44526187 95.24609375 43.12890625 C91.0006788 44.77538892 86.49332582 44.10698395 82 44 C82 49.28 82 54.56 82 60 C83.876875 59.9175 85.75375 59.835 87.6875 59.75 C91.58022987 59.76377145 93.65674897 59.83173969 97.1875 61.5625 C99.59881934 64.80530877 100 66.97249135 100 71 C98.41161066 74.57387602 97.28365642 75.81089572 94 78 C89.98500069 78.26874159 86.02862593 78.08663712 82 78 C82 83.28 82 88.56 82 94 C84.5678125 93.9071875 84.5678125 93.9071875 87.1875 93.8125 C91.6249535 93.81820367 94.57562185 93.90701328 98 97 C100.10101595 99.6740203 99.99846976 101.04284685 99.875 104.5 C98.89179683 108.43281267 98.18615502 109.58146649 95 112 C91.765625 112.390625 91.765625 112.390625 88.25 112.25 C87.07953125 112.21390625 85.9090625 112.1778125 84.703125 112.140625 C83.81109375 112.09421875 82.9190625 112.0478125 82 112 C81.87367188 112.95132813 81.74734375 113.90265625 81.6171875 114.8828125 C81 118 81 118 79.125 119.875 C77 121 77 121 74 121 C74.02320313 121.74765625 74.04640625 122.4953125 74.0703125 123.265625 C74.08835937 124.25046875 74.10640625 125.2353125 74.125 126.25 C74.14820313 127.22453125 74.17140625 128.1990625 74.1953125 129.203125 C73.99429463 132.08170091 73.59161629 133.61784582 72 136 C68.29103536 138.47264309 65.298449 138.76100945 61 138 C58 136.25 58 136.25 56 133 C55.58983708 128.90369758 55.77270556 125.13675889 56 121 C50.39 121 44.78 121 39 121 C39.103125 122.876875 39.20625 124.75375 39.3125 126.6875 C39.29756929 130.90293755 39.24963073 132.59435007 37 136.25 C33.71784803 138.16458865 31.69557174 138.8159524 27.9375 138.53125 C25.20655383 137.78244218 23.47675413 136.3492156 21.83203125 134.06640625 C20.12494657 129.82674525 20.72628243 125.48896808 21 121 C15.72 121 10.44 121 5 121 C5.0928125 123.5678125 5.0928125 123.5678125 5.1875 126.1875 C5.19321166 130.62546121 5.01595696 133.52004967 2 137 C-1.24137902 138.62068951 -4.49664069 138.54928387 -8 138 C-11 136.25 -11 136.25 -13 133 C-13.40407355 128.96451217 -13.28999023 125.04053053 -13 121 C-13.78890625 120.86078125 -14.5778125 120.7215625 -15.390625 120.578125 C-18.33186897 119.92647215 -19.26572912 119.42797923 -21 117 C-21.36765868 115.34056757 -21.70462173 113.67381019 -22 112 C-22.80824219 112.05800781 -23.61648437 112.11601562 -24.44921875 112.17578125 C-33.14453165 112.54289337 -33.14453165 112.54289337 -37.25 109.9375 C-39.45970402 106.22835396 -39.68357791 104.25337364 -39 100 C-36.86320715 96.61060444 -35.8225233 95.27417443 -32 94 C-30.27204648 93.93197033 -28.54164635 93.91504355 -26.8125 93.9375 C-24.4303125 93.9684375 -24.4303125 93.9684375 -22 94 C-22 88.72 -22 83.44 -22 78 C-24.5678125 78.12375 -24.5678125 78.12375 -27.1875 78.25 C-31.1370508 78.26016615 -32.66650647 78.20009612 -36.125 76.125 C-38.35769802 73.59460891 -38.93895868 72.54937187 -39.3125 69.1875 C-38.92835642 65.2692355 -37.70743683 63.78706733 -35 61 C-31.14854957 59.07427479 -26.19956748 59.95116782 -22 60 C-22 54.72 -22 49.44 -22 44 C-24.3203125 44.0928125 -24.3203125 44.0928125 -26.6875 44.1875 C-30.97636051 44.1875 -33.61795944 43.85359672 -37 41 C-39.50031654 37.24952518 -39.53603554 35.44143734 -39 31 C-37.25 28.0625 -37.25 28.0625 -34 26 C-29.96486476 25.5907145 -26.04056058 25.71000761 -22 26 C-21.7525 25.071875 -21.505 24.14375 -21.25 23.1875 C-19.92550684 19.81004243 -19.1338329 18.7093634 -16 17 C-15.01 17 -14.02 17 -13 17 C-13.05800781 16.19175781 -13.11601563 15.38351563 -13.17578125 14.55078125 C-13.54183717 5.8804854 -13.54183717 5.8804854 -11 1.75 C-6.85374064 -0.66865129 -4.76390917 -0.60494085 0 0 Z M-4 35 C-4 57.44 -4 79.88 -4 103 C18.44 103 40.88 103 64 103 C64 80.56 64 58.12 64 35 C41.56 35 19.12 35 -4 35 Z " fill="#6262ff " transform="translate(88,187)"/>
<path d="M0 0 C17.42184491 13.67450468 28.33074854 32.93733749 31 55 C32.11934302 75.14817444 27.96810197 95.09673092 15 111 C14.33226562 111.83015625 13.66453125 112.6603125 12.9765625 113.515625 C-0.67542299 129.58258265 -19.76597051 139.45731512 -40.81640625 141.23828125 C-48.26724138 141.43965517 -48.26724138 141.43965517 -52.125 139.125 C-55.16389418 135.68091992 -55.27291123 133.54852057 -55 129 C-53.79293121 125.65734795 -53.07943151 125.05295434 -50 123 C-48.10571289 122.5769043 -48.10571289 122.5769043 -45.97265625 122.32421875 C-45.18624756 122.22141602 -44.39983887 122.11861328 -43.58959961 122.01269531 C-42.75565674 121.90538086 -41.92171387 121.79806641 -41.0625 121.6875 C-26.51333034 119.57673963 -14.00863859 114.12070955 -4 103 C-3.54367187 102.54753906 -3.08734375 102.09507812 -2.6171875 101.62890625 C6.97702406 91.55749568 11.733582 77.26318847 12.375 63.5625 C11.68016287 48.55401809 6.9937874 34.27943342 -3.71484375 23.453125 C-5 22 -5 22 -5 20 C-5.56847656 19.73832031 -6.13695312 19.47664063 -6.72265625 19.20703125 C-9.17645615 17.90647521 -11.22785908 16.36801948 -13.4375 14.6875 C-20.90600559 9.3765627 -29.38576613 6.86816535 -38 4 C-37.98889694 4.77816574 -37.97779388 5.55633148 -37.96635437 6.358078 C-37.86607335 13.69982051 -37.7899959 21.04122991 -37.74093914 28.38347912 C-37.71487018 32.1580501 -37.67952371 35.93205414 -37.62280273 39.70629883 C-37.56838319 43.35030481 -37.53855914 46.99376631 -37.52561378 50.63814735 C-37.51639143 52.02685427 -37.49838147 53.41553215 -37.47134972 54.80400658 C-37.43493929 56.75209744 -37.43295661 58.70073891 -37.43237305 60.64916992 C-37.42126999 61.7572551 -37.41016693 62.86534027 -37.39872742 64.00700378 C-38.21691948 68.07977516 -39.70005322 69.53373288 -43 72 C-45.99299622 72.60127258 -45.99299622 72.60127258 -49.35083008 72.56762695 C-50.6117598 72.5672493 -51.87268951 72.56687164 -53.17182922 72.56648254 C-54.53774006 72.54095324 -55.90364069 72.51487333 -57.26953125 72.48828125 C-58.67484782 72.47894859 -60.08018072 72.47183461 -61.48551941 72.46684265 C-65.17338459 72.44780772 -68.86025551 72.39873971 -72.54772949 72.34332275 C-76.31488598 72.29205304 -80.08220411 72.2693123 -83.84960938 72.24414062 C-91.2335248 72.19061537 -98.61662276 72.10534782 -106 72 C-105.24393581 74.36700717 -104.47978157 76.73089323 -103.7109375 79.09375 C-103.39564087 80.0852002 -103.39564087 80.0852002 -103.07397461 81.09667969 C-101.63839731 85.48151993 -99.85353973 89.44099454 -97.625 93.5 C-94.54072784 99.41417136 -94.54072784 99.41417136 -94.875 103 C-96.16534509 106.44092024 -96.89052247 108.00674517 -100 110 C-104.65424394 110.66489199 -106.7530882 110.86096291 -110.625 108.1875 C-123.0666013 91.48956142 -127.09651735 71.49369506 -124.5 51.06640625 C-120.72228862 30.09581524 -109.9521568 11.61813117 -92.625 -0.875 C-63.53713773 -19.89928906 -28.77336501 -19.7047169 0 0 Z M-89.0625 19.87109375 C-97.98847404 29.67886764 -104.11577866 40.81045059 -106 54 C-89.5 54 -73 54 -56 54 C-56 37.5 -56 21 -56 4 C-67.71837102 4 -80.73510704 12.11620906 -89.0625 19.87109375 Z " fill="#6262ff" transform="translate(303,322)"/>
<path d="M0 0 C1.29063354 -0.00241196 2.58126709 -0.00482391 3.91101074 -0.00730896 C6.6380984 -0.01016184 9.36436241 0.00448161 12.09130859 0.03198242 C15.57857942 0.06606662 19.06437834 0.06004343 22.55171967 0.04131985 C25.88879153 0.02818122 29.22543838 0.04647296 32.5625 0.0625 C34.43609192 0.0550602 34.43609192 0.0550602 36.34753418 0.04747009 C37.51224243 0.06330643 38.67695068 0.07914276 39.87695312 0.09545898 C41.40987 0.10475685 41.40987 0.10475685 42.97375488 0.11424255 C46.51708909 0.76379862 48.21944211 2.1437732 50.78125 4.62890625 C51.65037854 7.69514854 51.4160705 10.51771388 50.78125 13.62890625 C48.90504387 16.13051443 47.54233697 17.24836277 44.78125 18.62890625 C43.33087893 18.71840042 41.87646371 18.74649065 40.42333984 18.74243164 C39.07216568 18.74231834 39.07216568 18.74231834 37.69369507 18.74220276 C36.71969757 18.73704147 35.74570007 18.73188019 34.7421875 18.7265625 C33.74619537 18.72514755 32.75020325 18.7237326 31.72402954 18.72227478 C28.53473947 18.71666561 25.34551894 18.70411155 22.15625 18.69140625 C19.99739685 18.68639243 17.83854259 18.68182932 15.6796875 18.67773438 C10.3801845 18.6666932 5.08072222 18.64994613 -0.21875 18.62890625 C-0.21208817 19.18156662 -0.20542633 19.73422699 -0.19856262 20.30363464 C-0.13212517 26.06247126 -0.08691458 31.82119877 -0.05395508 37.58032227 C-0.03888085 39.72880476 -0.01841811 41.87725655 0.00756836 44.02563477 C0.04401114 47.11612533 0.06099019 50.20620856 0.07421875 53.296875 C0.08970261 54.25538864 0.10518646 55.21390228 0.12113953 56.20146179 C0.12238107 61.13577946 0.09918526 64.67067654 -3.21875 68.62890625 C-5.50601223 69.77253737 -7.04727427 69.89392557 -9.59375 70.00390625 C-10.36460938 70.05289063 -11.13546875 70.101875 -11.9296875 70.15234375 C-15.36327135 69.36718976 -16.30168126 67.50541466 -18.21875 64.62890625 C-18.7334137 61.82141113 -18.7334137 61.82141113 -18.75219727 58.72460938 C-18.7680336 57.55990112 -18.78386993 56.39519287 -18.80018616 55.19519043 C-18.79522629 53.94612915 -18.79026642 52.69706787 -18.78515625 51.41015625 C-18.79135483 50.11952271 -18.79755341 48.82888916 -18.80393982 47.49914551 C-18.81432719 44.77219757 -18.80980691 42.04577202 -18.79516602 39.31884766 C-18.7779706 35.83143391 -18.80148747 32.34566667 -18.83665562 28.85843658 C-18.8639467 25.52141325 -18.85389273 22.184786 -18.84765625 18.84765625 C-18.86091446 17.59859497 -18.87417267 16.34953369 -18.88783264 15.06262207 C-18.83573456 10.22112167 -18.76180902 6.67083351 -16.50561523 2.34204102 C-11.17697461 -0.43527988 -5.91820663 -0.06281903 0 0 Z " fill="#6262ff " transform="translate(119.21875,100.37109375)"/>
<path d="M0 0 C6.81109733 4.97975256 10.20389833 11.17646465 11.93359375 19.42578125 C12.66109588 27.44378346 10.06644185 34.3076208 5.12109375 40.55078125 C-0.65385894 46.69265083 -6.48292473 48.72173053 -14.69140625 49.05078125 C-22.34016997 48.86382953 -27.98406402 47.03215828 -33.71875 41.90625 C-40.17932979 34.9086049 -41.51842064 28.44623959 -41.2890625 19.0625 C-40.47878497 12.12498094 -37.61906311 6.83585271 -32.50390625 2.11328125 C-22.84679172 -5.15529322 -10.64648407 -6.20607856 0 0 Z M-22.87890625 19.55078125 C-23.71223958 22.55078125 -23.71223958 22.55078125 -22.87890625 25.55078125 C-20.422965 28.87352529 -18.95324185 30.32696133 -14.87890625 31.17578125 C-10.80457065 30.32696133 -9.3348475 28.87352529 -6.87890625 25.55078125 C-6.04557292 22.55078125 -6.04557292 22.55078125 -6.87890625 19.55078125 C-9.3348475 16.22803721 -10.80457065 14.77460117 -14.87890625 13.92578125 C-18.95324185 14.77460117 -20.422965 16.22803721 -22.87890625 19.55078125 Z " fill="#6262ff " transform="translate(399.87890625,233.44921875)"/>
<path d="M0 0 C6.18267518 0.17997513 6.18267518 0.17997513 9.28125 2.50390625 C11.4627061 5.59430239 11.90520726 7.25220652 11.89477539 10.98681641 C11.89469986 11.88759918 11.89462433 12.78838196 11.89454651 13.71646118 C11.88938522 14.69045868 11.88422394 15.66445618 11.87890625 16.66796875 C11.8774913 17.66396088 11.87607635 18.659953 11.87461853 19.68612671 C11.86900936 22.87541678 11.8564553 26.06463731 11.84375 29.25390625 C11.83873618 31.4127594 11.83417307 33.57161366 11.83007812 35.73046875 C11.81903695 41.02997175 11.80228988 46.32943403 11.78125 51.62890625 C12.84561279 51.6131958 13.90997559 51.59748535 15.0065918 51.58129883 C18.96680086 51.52687571 22.92697704 51.49251132 26.88745117 51.46411133 C28.59942184 51.44905285 30.31135411 51.4286017 32.02319336 51.40258789 C34.48821505 51.36607435 36.95272535 51.34915063 39.41796875 51.3359375 C40.56044319 51.31271172 40.56044319 51.31271172 41.72599792 51.28901672 C46.27739343 51.28758508 49.15352663 51.8313825 52.78125 54.62890625 C54.88226595 57.30292655 54.77971976 58.6717531 54.65625 62.12890625 C53.68100396 66.02989043 52.8636939 67.15542592 49.78125 69.62890625 C47.39772034 70.14356995 47.39772034 70.14356995 44.72485352 70.16235352 C43.72023575 70.17818985 42.71561798 70.19402618 41.68055725 70.21034241 C40.60132492 70.20538254 39.52209259 70.20042267 38.41015625 70.1953125 C37.29567612 70.20151108 36.18119598 70.20770966 35.03294373 70.21409607 C32.67683791 70.22119765 30.32068194 70.21801442 27.96459961 70.20532227 C24.36022479 70.19146957 20.75845187 70.22551052 17.15429688 70.26367188 C14.8645827 70.26462318 12.57486527 70.26276364 10.28515625 70.2578125 C8.6693441 70.27769981 8.6693441 70.27769981 7.02088928 70.29798889 C2.5625668 70.24254305 -0.43655859 70.05033109 -4.3984375 67.91577148 C-7.33418376 62.61481226 -6.91090528 57.36887273 -6.84765625 51.41015625 C-6.85006821 50.11952271 -6.85248016 48.82888916 -6.85496521 47.49914551 C-6.85781809 44.77205785 -6.84317464 42.04579384 -6.81567383 39.31884766 C-6.78158963 35.83157683 -6.78761282 32.34577791 -6.8063364 28.85843658 C-6.81947503 25.52136472 -6.80118329 22.18471787 -6.78515625 18.84765625 C-6.79011612 17.59859497 -6.79507599 16.34953369 -6.80018616 15.06262207 C-6.78434982 13.89791382 -6.76851349 12.73320557 -6.75219727 11.53320312 C-6.7428994 10.00028625 -6.7428994 10.00028625 -6.7334137 8.43640137 C-5.99028397 4.38262197 -4.10225529 1.16278715 0 0 Z " fill="#6262ff " transform="translate(107.21875,341.37109375)"/>
<path d="M0 0 C1.16470825 -0.01583633 2.3294165 -0.03167267 3.52941895 -0.04798889 C4.77848022 -0.04302902 6.0275415 -0.03806915 7.31445312 -0.03295898 C9.25040344 -0.04225685 9.25040344 -0.04225685 11.22546387 -0.05174255 C13.9524118 -0.06212993 16.67883736 -0.05760965 19.40576172 -0.04296875 C22.89317546 -0.02577333 26.3789427 -0.0492902 29.86617279 -0.08445835 C33.20319613 -0.11174943 36.53982337 -0.10169547 39.87695312 -0.09545898 C41.1260144 -0.10871719 42.37507568 -0.1219754 43.6619873 -0.13563538 C52.05055924 -0.04536821 52.05055924 -0.04536821 56.38256836 2.35375977 C58.98767785 7.1890093 58.79123041 11.6245023 58.72460938 17.03735352 C58.72702133 18.15279037 58.72943329 19.26822723 58.73191833 20.41746521 C58.73094017 22.77183595 58.717554 25.12622977 58.69262695 27.48046875 C58.65829011 31.08681175 58.6719786 34.69070853 58.69140625 38.29711914 C58.68450868 40.58554104 58.67483711 42.87395661 58.66210938 45.16235352 C58.66954918 46.78120201 58.66954918 46.78120201 58.67713928 48.43275452 C58.66130295 49.43737228 58.64546661 50.44199005 58.62915039 51.47705078 C58.62295181 52.35909683 58.61675323 53.24114288 58.61036682 54.1499176 C57.92326982 57.33202682 56.61029214 58.52481185 54.09570312 60.53344727 C50.19308264 61.59779831 48.03690383 61.93084312 44.28320312 60.34594727 C41.87303446 58.34895037 41.15825672 57.45028429 40.09570312 54.53344727 C39.92712147 51.74260508 39.86286071 49.05572734 39.90039062 46.26782227 C39.90322052 45.47442444 39.90605042 44.68102661 39.90896606 43.86358643 C39.92013533 41.3367181 39.94523368 38.81020795 39.97070312 36.28344727 C39.98073714 34.56730656 39.98986226 32.85116029 39.99804688 31.13500977 C40.02006399 26.93435153 40.05457126 22.73396007 40.09570312 18.53344727 C39.54304276 18.5401091 38.99038239 18.54677094 38.42097473 18.55363464 C32.66213811 18.62007209 26.90341061 18.66528269 21.14428711 18.69824219 C18.99580461 18.71331641 16.84735283 18.73377916 14.69897461 18.75976562 C11.60848404 18.7962084 8.51840082 18.81318745 5.42773438 18.82641602 C3.98996391 18.8496418 3.98996391 18.8496418 2.52314758 18.87333679 C-2.41117008 18.87457834 -5.94606716 18.85138253 -9.90429688 15.53344727 C-11.04792799 13.24618503 -11.1693162 11.704923 -11.27929688 9.15844727 C-11.32828125 8.38758789 -11.37726563 7.61672852 -11.42773438 6.82250977 C-10.14964084 1.23323504 -5.09208631 0.03088592 0 0 Z " fill="#6262ff " transform="translate(352.904296875,100.466552734375)"/>
<path d="M0 0 C2.52044657 2.00521065 3.82715313 3.19950515 4.5146637 6.38352966 C4.52396156 7.70659874 4.52396156 7.70659874 4.53344727 9.05639648 C4.5492836 10.06101425 4.56511993 11.06563202 4.58143616 12.10069275 C4.57647629 13.17992508 4.57151642 14.25915741 4.56640625 15.37109375 C4.57570412 17.04281395 4.57570412 17.04281395 4.58518982 18.74830627 C4.5922914 21.10441209 4.58910817 23.46056806 4.57641602 25.81665039 C4.56256332 29.42102521 4.59660427 33.02279813 4.63476562 36.62695312 C4.63571693 38.9166673 4.63385739 41.20638473 4.62890625 43.49609375 C4.64216446 44.57330185 4.65542267 45.65050995 4.66908264 46.76036072 C4.61278928 51.28683084 4.45369637 54.20749176 2.1796875 58.1796875 C-2.63769942 60.93755274 -7.04223701 60.69612813 -12.50390625 60.62890625 C-13.61934311 60.63131821 -14.73477997 60.63373016 -15.88401794 60.63621521 C-18.23838868 60.63523704 -20.5927825 60.62185088 -22.94702148 60.59692383 C-26.55336448 60.56258698 -30.15726127 60.57627548 -33.76367188 60.59570312 C-36.05209378 60.58880555 -38.34050935 60.57913398 -40.62890625 60.56640625 C-42.24775475 60.57384605 -42.24775475 60.57384605 -43.89930725 60.58143616 C-45.4062339 60.55768166 -45.4062339 60.55768166 -46.94360352 60.53344727 C-48.26667259 60.5241494 -48.26667259 60.5241494 -49.61647034 60.5146637 C-52.79857956 59.82756669 -53.99136458 58.51458901 -56 56 C-57.06435104 52.09737951 -57.39739585 49.94120071 -55.8125 46.1875 C-53.81550311 43.77733133 -52.91683702 43.06255359 -50 42 C-47.20915781 41.83141834 -44.52228007 41.76715759 -41.734375 41.8046875 C-40.94097717 41.8075174 -40.14757935 41.81034729 -39.33013916 41.81326294 C-36.80327083 41.82443221 -34.27676068 41.84953056 -31.75 41.875 C-30.0338593 41.88503402 -28.31771302 41.89415913 -26.6015625 41.90234375 C-22.40090426 41.92436086 -18.2005128 41.95886813 -14 42 C-14.01571045 40.93563721 -14.0314209 39.87127441 -14.04760742 38.7746582 C-14.10203054 34.81444914 -14.13639493 30.85427296 -14.16479492 26.89379883 C-14.1798534 25.18182816 -14.20030455 23.46989589 -14.22631836 21.75805664 C-14.2628319 19.29303495 -14.27975562 16.82852465 -14.29296875 14.36328125 C-14.30845261 13.60163162 -14.32393646 12.83998199 -14.33988953 12.05525208 C-14.34132117 7.50385657 -13.79752375 4.62772337 -11 1 C-7.44544736 -1.79286279 -4.2131487 -1.05328717 0 0 Z " fill="#6262ff " transform="translate(407,351)"/>
<path d="M0 0 C2.69990662 1.79993774 4.5418865 3.083773 6 6 C6.03246883 14.65351868 3.45019205 23.16202683 1.359375 31.4921875 C0.99156055 32.97044984 0.62382515 34.44873186 0.25616455 35.92703247 C-0.51186213 39.0061094 -1.28615027 42.08353834 -2.06396484 45.16015625 C-3.05781002 49.09661671 -4.02745336 53.03862269 -4.99158096 56.98245049 C-5.74076802 60.02945624 -6.50676474 63.07205201 -7.27745819 66.11368179 C-7.64241185 67.56576776 -8.00120145 69.01941789 -8.35358429 70.47460556 C-8.8473103 72.50606733 -9.36445546 74.53016915 -9.88769531 76.55419922 C-10.31952118 78.28100418 -10.31952118 78.28100418 -10.7600708 80.04269409 C-12.24566426 83.58592408 -13.77430909 84.96450615 -17 87 C-21.36043626 87.7007844 -23.23442804 87.50495172 -26.9375 85.0625 C-30.28802935 80.08747158 -29.42582489 75.26353887 -28.35949707 69.5953064 C-27.43751968 65.50970624 -26.44529043 61.44780428 -25.421875 57.38671875 C-25.04980007 55.88471465 -24.67824727 54.38258113 -24.30718994 52.88032532 C-23.53071478 49.74774805 -22.74634081 46.61728084 -21.95654297 43.48803711 C-20.94662472 39.48296362 -19.95931526 35.47270147 -18.97809982 31.46051311 C-18.21764093 28.363615 -17.44405313 25.27011065 -16.66660309 22.17743874 C-16.29707222 20.69977441 -15.93190463 19.22101164 -15.57125092 17.74115562 C-15.0658735 15.67492353 -14.54264449 13.61401753 -14.01464844 11.5534668 C-13.72152771 10.38148239 -13.42840698 9.20949799 -13.12640381 8.0019989 C-10.70603973 1.55144339 -6.68194244 -0.6550924 0 0 Z " fill="#6262ff " transform="translate(267,49)"/>
<path d="M0 0 C2.96326994 2.10548127 3.83222327 3.47429959 4.9375 6.9375 C5.01751115 10.85804654 4.51321518 11.96935816 2 15 C-0.90406382 17.46845425 -3.94114663 19.72872516 -7 22 C-8.67145202 23.32732954 -10.33936137 24.65916634 -12 26 C-11.02417969 26.66386719 -10.04835937 27.32773438 -9.04296875 28.01171875 C-7.75745636 28.90313245 -6.47231975 29.79508825 -5.1875 30.6875 C-4.54490234 31.12255859 -3.90230469 31.55761719 -3.24023438 32.00585938 C0.456499 34.59165733 3.12364403 36.75535954 5 41 C4.86956209 44.1957289 4.26736413 46.41808984 2.9375 49.3125 C-0.0055209 51.87577627 -3.21912948 52.17433287 -7 52 C-9.83426572 50.96978229 -12.15856256 49.40414542 -14.625 47.6875 C-15.30578613 47.23761719 -15.98657227 46.78773437 -16.68798828 46.32421875 C-18.81094474 44.90858675 -20.90748123 43.46018027 -23 42 C-23.68126953 41.52900879 -24.36253906 41.05801758 -25.06445312 40.57275391 C-36.04478424 32.95521576 -36.04478424 32.95521576 -39 30 C-39.68947554 22.99033204 -39.68947554 22.99033204 -37.34667969 19.62524414 C-34.77802315 16.75167321 -32.22985185 14.91276371 -28.9921875 12.828125 C-28.42549347 12.46023865 -27.85879944 12.09235229 -27.27493286 11.71331787 C-25.47996097 10.55089936 -23.67764651 9.40047148 -21.875 8.25 C-20.65706552 7.46299206 -19.43961256 6.67523841 -18.22265625 5.88671875 C-6.76418399 -1.51611021 -6.76418399 -1.51611021 0 0 Z " fill="#6262ff " transform="translate(226,67)"/>
<path d="M0 0 C3.22558594 1.70239258 3.22558594 1.70239258 6.484375 3.89453125 C7.06664856 4.28315842 7.64892212 4.67178558 8.24884033 5.07218933 C9.46960149 5.89080932 10.68626584 6.71556907 11.89892578 7.54614258 C13.74964839 8.81225946 15.61355 10.05675064 17.48046875 11.29882812 C27.75874475 18.22368384 27.75874475 18.22368384 30 22 C30.50436641 25.96287895 30.60009169 28.11153654 28.3371582 31.46191406 C24.48215404 35.64833664 19.71609034 38.5061018 14.97436523 41.58544922 C13.19314125 42.74632344 11.42764479 43.92872416 9.66210938 45.11328125 C8.51911649 45.86333309 7.37526313 46.61207565 6.23046875 47.359375 C4.68975708 48.37209473 4.68975708 48.37209473 3.11791992 49.40527344 C-0.36172703 51.18501299 -3.11130249 51.76542438 -7 52 C-9.88017082 50.78392788 -11.45238499 49.69696456 -13.375 47.25 C-14.35780092 43.71191669 -14.03462062 41.52988213 -13 38 C-8.77221693 32.94422381 -2.49648869 29.51476148 3 26 C0.48266488 23.97528522 -2.04278531 21.9671573 -4.60546875 20 C-5.45753906 19.34 -6.30960937 18.68 -7.1875 18 C-8.04730469 17.34 -8.90710938 16.68 -9.79296875 16 C-11.9587176 14.0374099 -13.02622812 12.72876188 -14 10 C-13.84643971 6.31455295 -13.44745308 4.5340569 -11.0625 1.6875 C-7.12529864 -1.53384656 -4.94622691 -1.05447527 0 0 Z " fill="#6262ff " transform="translate(295,67)"/>
<path d="M0 0 C2.91963173 1.98783437 4.61102978 3.4314697 5.48046875 6.9375 C5.75815509 10.90015906 5.23092162 12.66411401 2.9375 16 C-0.71939665 18.48980198 -2.65420914 18.55310065 -7 18 C-9.63761924 17.14455592 -10.64462647 16.49752294 -12.25 14.25 C-13.24517055 11.26448836 -13.38368557 9.13343215 -13 6 C-9.27891473 0.41837209 -6.70473214 -0.68183717 0 0 Z " fill="#6262ff" transform="translate(228,437)"/>
</svg>
