<?xml version="1.0" encoding="UTF-8"?>
<svg version="1.1" xmlns="http://www.w3.org/2000/svg" width="512" height="512">
<path d="M0 0 C1.80627869 0.55137634 1.80627869 0.55137634 3.64904785 1.1138916 C6.92995821 2.11549211 10.20487825 3.13549195 13.4790535 4.15885925 C16.94145987 5.23735376 20.40925862 6.29820907 23.87670898 7.36035156 C28.98186982 8.92562319 34.08538687 10.49606322 39.18704319 12.07271957 C48.95595887 15.09100234 58.73857975 18.06241763 68.52734375 21.015625 C70.01436245 21.46448488 71.50137723 21.91335771 72.98838806 22.36224365 C75.91057114 23.24423512 78.83281635 24.12602043 81.75509644 25.00769043 C92.18707155 28.1553929 102.61634233 31.31101395 113.03497314 34.50268555 C116.36423198 35.51624476 119.69881754 36.5103419 123.03466797 37.50195312 C125.02071252 38.10479477 127.00656519 38.70826906 128.9921875 39.3125 C129.8745961 39.5690033 130.7570047 39.82550659 131.66615295 40.08978271 C137.48053646 41.88507845 142.13691239 44.00648468 145.60707438 49.28401482 C146.77495695 52.36497697 146.71829662 55.00569815 146.72211266 58.30048943 C146.72561873 58.98203345 146.7291248 59.66357746 146.73273712 60.36577433 C146.74207576 62.6602611 146.73712154 64.95449543 146.73226929 67.24899292 C146.73600431 68.90634084 146.74060523 70.563687 146.74599993 72.22103035 C146.75826362 76.78386206 146.75796551 81.34662064 146.75561118 85.90946507 C146.75520387 90.82708578 146.76623396 95.74468276 146.77572632 100.66229248 C146.79235553 110.29984346 146.79783672 119.93736998 146.79895107 129.57493411 C146.7999006 137.40659948 146.80400609 145.23825677 146.81035233 153.06991959 C146.82796963 175.26158354 146.83719038 197.45322812 146.83569138 219.64489911 C146.83561147 220.84183338 146.83553155 222.03876765 146.83544922 223.27197266 C146.83536746 224.47036393 146.8352857 225.6687552 146.83520146 226.90346135 C146.83438832 246.33109896 146.85353173 265.75865908 146.88172595 285.18627428 C146.91043005 305.12211419 146.92426763 325.05791628 146.9225384 344.99377739 C146.92187366 356.19121644 146.92740257 367.38857425 146.9488945 378.58599472 C146.96707373 388.11875777 146.97148047 397.65140275 146.95787565 407.1841756 C146.95132963 412.04971959 146.95128758 416.91503688 146.96858215 421.78055954 C146.98424584 426.23297077 146.98151826 430.68497425 146.96401389 435.13737513 C146.96092916 436.74973567 146.96463152 438.36212614 146.97573404 439.97445141 C146.989815 442.16398957 146.97930257 444.35208951 146.96262169 446.54157829 C146.96327379 448.36667925 146.96327379 448.36667925 146.96393907 450.22865093 C146.17560075 455.46990065 143.7373008 458.54203909 139.64123535 461.77662659 C136.33349826 463.62007572 133.26713702 464.78211656 129.64257812 465.87084961 C128.98221684 466.07219513 128.32185555 466.27354065 127.64148331 466.48098755 C125.44993599 467.14657477 123.25440559 467.79785188 121.05859375 468.44921875 C119.48592284 468.92381752 117.913521 469.39930866 116.34136963 469.87562561 C112.1006965 471.15761543 107.85639649 472.42716432 103.61112976 473.69384766 C99.18075037 475.01733878 94.75311514 476.34994865 90.32519531 477.68164062 C84.85824578 479.32515058 79.39088142 480.96723768 73.92193604 482.60409546 C62.4381016 486.04242188 50.96872105 489.52491197 39.50946045 493.04422188 C34.70363933 494.5183355 29.89515749 495.983743 25.08650208 497.44858074 C21.29080652 498.60546155 17.49680387 499.76734571 13.70629883 500.94113159 C10.15795034 502.03963141 6.60543901 503.12346108 3.04933929 504.19659233 C1.15170669 504.77332471 -0.74125585 505.36535566 -2.63397217 505.95802307 C-3.78246643 506.30187546 -4.93096069 506.64572784 -6.11425781 507 C-7.09509338 507.30067383 -8.07592896 507.60134766 -9.08648682 507.91113281 C-17.90569826 509.53690324 -25.38423455 508.47301775 -33.77197266 505.55615234 C-35.21178246 505.07782204 -35.21178246 505.07782204 -36.68067932 504.58982849 C-39.83818873 503.53647457 -42.98722789 502.4598806 -46.13671875 501.3828125 C-48.37642739 500.63022794 -50.61662152 499.87908686 -52.85726929 499.12930298 C-58.76808408 497.1469442 -64.6719707 495.14468801 -70.574646 493.13824463 C-76.42714875 491.1528071 -82.28613228 489.18670561 -88.14453125 487.21875 C-109.71762625 479.96406513 -131.26179212 472.62492795 -152.79584122 465.25527573 C-168.42991827 459.90595898 -184.09792456 454.66266079 -199.78097534 449.45892334 C-207.17089129 447.00668389 -214.55831399 444.54694922 -221.9453125 442.0859375 C-222.66868868 441.84495457 -223.39206486 441.60397163 -224.13736153 441.35568619 C-236.93205271 437.09205462 -249.71143456 432.78478018 -262.47265625 428.421875 C-263.27493652 428.14786865 -264.0772168 427.8738623 -264.90380859 427.59155273 C-269.13925334 426.1437991 -273.37168846 424.68779303 -277.59967041 423.21838379 C-278.9163289 422.76157458 -280.23370062 422.3068171 -281.55169678 421.85388184 C-283.49205828 421.18647532 -285.4298706 420.51212295 -287.3671875 419.8359375 C-288.46909424 419.4538916 -289.57100098 419.0718457 -290.70629883 418.67822266 C-295.27642708 416.85048689 -298.45908045 414.7763749 -300.65970194 410.21695131 C-301.57774495 407.41698235 -301.78779494 405.26389231 -301.79242516 402.32565403 C-301.79887405 401.28831389 -301.80532294 400.25097375 -301.81196725 399.18219906 C-301.80732145 397.48260341 -301.80732145 397.48260341 -301.80258179 395.74867249 C-301.8071129 394.53990226 -301.81164401 393.33113203 -301.81631243 392.0857324 C-301.82678443 388.73367587 -301.828282 385.38183387 -301.82592368 382.02977622 C-301.82551552 378.41347633 -301.83655446 374.79720844 -301.84603882 371.18092346 C-301.8626491 364.09757793 -301.86814835 357.01426569 -301.86926357 349.93090231 C-301.8702139 344.17401202 -301.87432341 338.41713271 -301.88066483 332.6602459 C-301.8982762 316.34026663 -301.90750369 300.02031367 -301.90600388 283.70032484 C-301.90592397 282.82057751 -301.90584405 281.94083017 -301.90576172 281.03442383 C-301.90567996 280.15360323 -301.9055982 279.27278262 -301.90551396 278.36527049 C-301.90470077 264.08503951 -301.92384703 249.80491394 -301.95203845 235.52471346 C-301.9807534 220.86373779 -301.99457956 206.20281354 -301.9928509 191.54180902 C-301.99218659 183.30996813 -301.99769712 175.07823778 -302.019207 166.8464222 C-302.0374004 159.83891872 -302.04178126 152.83157592 -302.02818815 145.82405908 C-302.02164951 142.24857304 -302.02157323 138.67339541 -302.03889465 135.09793854 C-302.05747639 131.22250253 -302.04509441 127.34751897 -302.02963257 123.47206116 C-302.03991969 122.34122811 -302.05020682 121.21039506 -302.06080568 120.04529434 C-302.00643304 113.89752093 -301.69012335 110.20231468 -297.53515625 105.546875 C-292.48436638 101.41568054 -286.51899405 99.36568965 -280.4921875 97.046875 C-279.39714401 96.61890625 -278.30210052 96.1909375 -277.1738739 95.75 C-273.56767936 94.34232843 -269.95768795 92.94467321 -266.34765625 91.546875 C-263.80928367 90.55885931 -261.2718066 89.56855441 -258.734375 88.578125 C-253.52563429 86.54591139 -248.3153378 84.51774117 -243.10400391 82.4921875 C-233.10257815 78.60392681 -223.11425896 74.68235611 -213.12606812 70.76025391 C-208.95520254 69.12292469 -204.78353848 67.48763507 -200.6118927 65.85229492 C-185.91668496 60.09135989 -171.22571897 54.3196424 -156.53515625 48.546875 C-136.53033223 40.68597404 -116.5229497 32.83163809 -96.51171875 24.98706055 C-94.44010387 24.17496821 -92.36848929 23.36287511 -90.296875 22.55078125 C-89.27056976 22.14846786 -88.24426453 21.74615448 -87.18685913 21.33164978 C-80.37842456 18.66243358 -73.57084428 15.99104806 -66.76374817 13.31842041 C-62.00228262 11.44898816 -57.24060293 9.58010167 -52.47891235 7.71124268 C-50.19786128 6.81580202 -47.91691504 5.92009428 -45.63607788 5.02410889 C-42.48812299 3.78752151 -39.33980521 2.55186247 -36.19140625 1.31640625 C-34.78439201 0.76327003 -34.78439201 0.76327003 -33.34895325 0.19895935 C-32.49065414 -0.13764206 -31.63235504 -0.47424347 -30.74804688 -0.82104492 C-29.62976501 -1.26017464 -29.62976501 -1.26017464 -28.4888916 -1.70817566 C-18.70595922 -5.43835796 -9.65607703 -3.05821839 0 0 Z M-23.91845703 32.02124023 C-24.76207291 32.34746368 -25.60568878 32.67368713 -26.47486877 33.00979614 C-27.38421677 33.3713681 -28.29356476 33.73294006 -29.23046875 34.10546875 C-30.67443275 34.66812943 -30.67443275 34.66812943 -32.14756775 35.24215698 C-35.32167938 36.48143466 -38.49087955 37.73278996 -41.66015625 38.984375 C-43.89093099 39.85833933 -46.12197304 40.73162163 -48.35327148 41.60424805 C-55.0851263 44.24026723 -61.81058779 46.89233487 -68.53515625 49.546875 C-70.40734949 50.28493179 -72.2795802 51.02289352 -74.15185547 51.76074219 C-81.93202682 54.82793333 -89.70913608 57.90278429 -97.48356628 60.98449707 C-111.2190911 66.42874806 -124.96964157 71.83447991 -138.72265625 77.234375 C-139.89674042 77.69538605 -141.07082458 78.15639709 -142.28048706 78.63137817 C-147.07236652 80.51288573 -151.86428544 82.39429272 -156.65629578 84.27546692 C-165.08413131 87.58403714 -173.51105707 90.89491601 -181.9375 94.20703125 C-184.34545657 95.15340784 -186.75341554 96.09977832 -189.16137695 97.04614258 C-192.55258379 98.37893929 -195.94376556 99.71179937 -199.33480835 101.04501343 C-222.72399486 110.24032588 -246.13128286 119.38883759 -269.53515625 128.546875 C-269.53515625 211.376875 -269.53515625 294.206875 -269.53515625 379.546875 C-262.20954057 377.54897982 -255.06673803 375.47175962 -247.90625 373.0078125 C-246.94993179 372.68148834 -245.99361359 372.35516418 -245.00831604 372.01895142 C-243.01045203 371.33649172 -241.01313626 370.65242511 -239.01635742 369.96679688 C-235.95032869 368.91420981 -232.8825449 367.86686917 -229.81445312 366.8203125 C-227.8657821 366.1539479 -225.91721068 365.48729191 -223.96875 364.8203125 C-223.05113388 364.50677826 -222.13351776 364.19324402 -221.18809509 363.87020874 C-220.34283768 363.57965607 -219.49758026 363.28910339 -218.62670898 362.98974609 C-217.88267319 362.73454193 -217.13863739 362.47933777 -216.37205505 362.21640015 C-214.47646246 361.56497736 -214.47646246 361.56497736 -212.53515625 360.546875 C-212.5327679 359.35158613 -212.53037954 358.15629726 -212.52791882 356.92478752 C-212.47055969 328.55140499 -212.39782965 300.17809032 -212.30616997 271.804798 C-212.2949018 268.31257402 -212.28376335 264.82034965 -212.27270508 261.328125 C-212.27050139 260.63288562 -212.26829771 259.93764624 -212.26602725 259.221339 C-212.23065432 247.96394821 -212.20579017 236.70655748 -212.18480923 225.44913171 C-212.16304712 213.89806902 -212.12977022 202.34708754 -212.08645469 190.79608452 C-212.06249017 184.3080126 -212.04378252 177.82002056 -212.03754234 171.33190536 C-212.03150617 165.22686267 -212.01155922 159.12202449 -211.98088074 153.01705742 C-211.972077 150.77491232 -211.96838274 148.53274053 -211.97014809 146.29057884 C-211.97179637 143.23147608 -211.95513903 140.17300006 -211.93388367 137.11398315 C-211.93873124 136.22486925 -211.94357882 135.33575535 -211.94857329 134.4196986 C-211.8907831 129.3867066 -211.33762805 125.90137665 -208.53515625 121.546875 C-203.73878812 117.36482059 -198.94335757 116.53025027 -192.85717773 115.57641602 C-191.88939203 115.41260122 -190.92160633 115.24878643 -189.92449379 115.08000755 C-186.6913416 114.53593249 -183.45520711 114.01230774 -180.21875 113.48828125 C-177.90384663 113.10248613 -175.58919008 112.71520751 -173.27476501 112.32655334 C-168.30214265 111.49313705 -163.32834883 110.66723099 -158.35369873 109.8460083 C-150.48359859 108.54316918 -142.62027251 107.2018958 -134.75830078 105.85107422 C-132.07339211 105.38998282 -129.3884662 104.928992 -126.70352173 104.46810913 C-126.03451902 104.3532627 -125.36551632 104.23841627 -124.6762408 104.12008965 C-115.80293961 102.59795571 -106.92615844 101.09633247 -98.04940224 99.5945034 C-91.05360861 98.41065637 -84.0585835 97.2225842 -77.06518555 96.0246582 C-70.80233435 94.95187472 -64.53825023 93.88666586 -58.27256864 92.83053404 C-55.00399246 92.27935142 -51.73636487 91.72362524 -48.46974373 91.16090202 C-44.86824361 90.54117583 -41.26470516 89.93495622 -37.66040039 89.33178711 C-36.619991 89.149561 -35.5795816 88.9673349 -34.50764465 88.77958679 C-14.85676255 85.54510135 -14.85676255 85.54510135 -8.91015625 89.296875 C-5.13121357 92.87692596 -2.6799797 95.69420713 -2.40635508 101.08394307 C-2.40456651 102.10826886 -2.40277794 103.13259466 -2.40093517 104.18796062 C-2.39647733 105.36987128 -2.39201949 106.55178193 -2.38742656 107.76950806 C-2.3877031 109.72676205 -2.3877031 109.72676205 -2.38798523 111.72355652 C-2.38468647 113.11875251 -2.38096087 114.51394755 -2.37684375 115.90914136 C-2.36681702 119.75205337 -2.36310588 123.59494977 -2.36045444 127.43787301 C-2.35655338 131.57912303 -2.34697491 135.72036066 -2.33824158 139.86160278 C-2.31847158 149.86714881 -2.30841029 159.87269585 -2.29951379 169.87825653 C-2.29513178 174.58873798 -2.28976474 179.29921831 -2.28452492 184.00969887 C-2.26751213 199.66616552 -2.2530176 215.32263147 -2.24577618 230.97910595 C-2.24386625 235.04279265 -2.24194592 239.10647934 -2.23999023 243.17016602 C-2.23950649 244.18018944 -2.23902275 245.19021285 -2.23852435 246.23084304 C-2.23022273 262.59529451 -2.2048838 278.95967291 -2.17240956 295.32409247 C-2.13934903 312.12073187 -2.12132833 328.91733413 -2.11813194 345.71400625 C-2.11596591 355.14648774 -2.10720371 364.57886268 -2.08167076 374.01131248 C-2.05997752 382.04389807 -2.05190656 390.07635124 -2.06163754 398.1089628 C-2.06618625 402.20719253 -2.06426306 406.30514894 -2.0448761 410.40334129 C-2.02727206 414.15707083 -2.02821937 417.9103271 -2.04377339 421.66406146 C-2.0472791 423.66123725 -2.03110256 425.65841784 -2.01416892 427.65552491 C-2.06512305 434.75124488 -2.62286713 439.55104775 -6.53515625 445.546875 C-17.19213314 453.80603209 -37.00460768 447.87928562 -49.4072628 446.37342453 C-52.48812846 445.99977728 -55.56961468 445.6316873 -58.65132141 445.26504517 C-67.40057111 444.22325847 -76.14873985 443.17258111 -84.89624023 442.11621094 C-90.27498075 441.46704623 -95.65452092 440.82489334 -101.03461647 440.18706131 C-103.07750953 439.9433906 -105.12007617 439.69696689 -107.1622982 439.44773483 C-110.00418635 439.10100456 -112.84699913 438.76313855 -115.69018555 438.42724609 C-116.95171951 438.26992256 -116.95171951 438.26992256 -118.23873901 438.10942078 C-121.95505285 437.67897753 -124.94825938 437.4867609 -128.53515625 438.546875 C-127.98131854 438.73148757 -127.42748083 438.91610014 -126.85686016 439.10630703 C-106.65154934 445.84141064 -106.65154934 445.84141064 -86.44623852 452.57651424 C-85.80596318 452.78993936 -85.16568785 453.00336447 -84.50601023 453.22325701 C-83.86295996 453.4376071 -83.21990969 453.65195719 -82.55737305 453.87280273 C-81.91258226 454.087733 -81.26779147 454.30266326 -80.60346156 454.52410656 C-59.58069313 461.53169604 -38.55792469 468.53928552 -17.53515625 475.546875 C-14.38527248 474.86955472 -14.38527248 474.86955472 -10.78369141 473.71118164 C-10.09785477 473.50294266 -9.41201813 473.29470367 -8.70539856 473.08015442 C-6.40906821 472.38067243 -4.11676942 471.66879461 -1.82421875 470.95703125 C-0.18451728 470.45505508 1.45543183 469.95388719 3.09561157 469.45347595 C7.46709608 468.11751882 11.83534319 466.77126699 16.20294189 465.42266846 C20.42400713 464.1207752 24.64760807 462.82722395 28.87109375 461.53320312 C33.94097656 459.97956055 33.94097656 459.97956055 39.11328125 458.39453125 C64.20843248 450.70634528 89.33841391 443.13221231 114.46484375 435.546875 C114.46484375 314.766875 114.46484375 193.986875 114.46484375 69.546875 C51.1643089 41.44407362 51.1643089 41.44407362 -23.91845703 32.02124023 Z M-46.39958191 123.41331482 C-47.54781937 123.6053952 -48.69605682 123.79747559 -49.87908936 123.99537659 C-51.124505 124.20887253 -52.36992065 124.42236847 -53.65307617 124.64233398 C-54.98890788 124.86772597 -56.32481178 125.09269039 -57.66078186 125.31726074 C-61.2769894 125.92643549 -64.89212802 126.54174683 -68.50708175 127.15831256 C-72.29276944 127.80305921 -76.07934072 128.44257606 -79.86579895 129.08277893 C-86.22059479 130.15802888 -92.57473546 131.23708207 -98.9284668 132.31860352 C-106.27592257 133.5692464 -113.62423129 134.81477044 -120.9730522 136.05736488 C-128.79893561 137.38067281 -136.62419747 138.70762718 -144.4492743 140.03569531 C-146.70433624 140.41817419 -148.95951148 140.79997877 -151.21471214 141.18163872 C-154.75519488 141.78100567 -158.29525366 142.38281732 -161.83499718 142.98653412 C-163.75566617 143.31355033 -165.67673274 143.63822876 -167.59780884 143.96284485 C-168.73758682 144.15774506 -169.87736481 144.35264526 -171.05168152 144.55345154 C-172.04403399 144.72213965 -173.03638647 144.89082777 -174.05881023 145.06462765 C-176.65358406 145.51465351 -176.65358406 145.51465351 -179.53515625 146.546875 C-179.5375446 147.7084761 -179.53993296 148.87007719 -179.54239368 150.06687832 C-179.59978935 177.65886188 -179.67254532 205.25077028 -179.76414253 232.84266239 C-179.7754103 236.2408924 -179.78654882 239.63912282 -179.79760742 243.03735352 C-179.79981111 243.71386227 -179.80201479 244.39037103 -179.80428525 245.08738006 C-179.83962975 256.03235059 -179.86450993 266.97732106 -179.88550327 277.92232745 C-179.90728804 289.15812838 -179.9405853 300.39385558 -179.98385781 311.62959772 C-180.00779151 317.93835426 -180.0265194 324.24702911 -180.03277016 330.55583 C-180.03882022 336.49590819 -180.05881773 342.43577739 -180.08943176 348.3757782 C-180.09821315 350.5537731 -180.10193436 352.73179532 -180.10016441 354.90980721 C-180.09850802 357.88904081 -180.11524257 360.86764007 -180.13642883 363.8467865 C-180.13158126 364.70381619 -180.12673368 365.56084588 -180.12173921 366.44384617 C-180.19913498 373.06213345 -181.08954539 379.75990737 -185.578125 384.875 C-189.81784263 387.27209266 -194.23209547 388.77683873 -198.84765625 390.296875 C-199.77900391 390.61269531 -200.71035156 390.92851562 -201.66992188 391.25390625 C-203.95540858 392.0274556 -206.24363743 392.79142224 -208.53515625 393.546875 C-208.20515625 394.206875 -207.87515625 394.866875 -207.53515625 395.546875 C-204.59098801 396.17636152 -204.59098801 396.17636152 -200.9365387 396.54666138 C-200.23880795 396.63004127 -199.5410772 396.71342117 -198.8222031 396.79932773 C-196.46778557 397.0783676 -194.11204664 397.3440352 -191.75610352 397.60986328 C-190.07440036 397.80640559 -188.39279211 398.00376142 -186.71127319 398.20187378 C-182.1317094 398.73904029 -177.55088496 399.26466461 -172.96975064 399.78824472 C-168.18529181 400.33695809 -163.40203523 400.89595637 -158.61863708 401.4538269 C-150.58328435 402.3895097 -142.54717824 403.31846691 -134.51049805 404.24267578 C-123.16589237 405.5473003 -111.82268062 406.86373406 -100.47973168 408.18267465 C-85.29986261 409.9471213 -70.11959723 411.70829803 -54.93772507 413.45543289 C-53.28887338 413.64532778 -51.64006563 413.83560464 -49.9913044 414.02628326 C-47.74791249 414.28563 -45.5043613 414.54355006 -43.26075745 414.80105591 C-42.00288705 414.94594515 -40.74501665 415.09083439 -39.44902897 415.24011421 C-36.69198412 415.58177413 -36.69198412 415.58177413 -34.53515625 415.546875 C-34.53515625 318.856875 -34.53515625 222.166875 -34.53515625 122.546875 C-38.83363335 122.546875 -42.25210674 122.71067 -46.39958191 123.41331482 Z " fill="#6262ff " transform="translate(333.53515625,3.453125)"/>
</svg>
