<?xml version="1.0" encoding="UTF-8"?>
<svg version="1.1" xmlns="http://www.w3.org/2000/svg" width="512" height="512">
<path d="M0 0 C1.06062653 -0.00700928 2.12125305 -0.01401855 3.21401978 -0.02124023 C6.72530192 -0.03886496 10.23577973 -0.02717761 13.74707031 -0.01367188 C16.1884171 -0.01636629 18.62976284 -0.02024828 21.07110596 -0.02526855 C26.19236449 -0.03117037 31.31334417 -0.02258126 36.43457031 -0.00390625 C42.98951921 0.01883495 49.54381126 0.0057945 56.09873581 -0.01819611 C61.14317741 -0.03267657 66.18746435 -0.02803683 71.23191071 -0.01768494 C73.64796273 -0.01502138 76.06402891 -0.01827429 78.48006439 -0.02760315 C81.86468957 -0.03779981 85.24826515 -0.02222034 88.6328125 0 C90.12311478 -0.01214539 90.12311478 -0.01214539 91.64352417 -0.02453613 C98.76690975 0.06178645 104.14334947 1.55612042 109.59863281 6.26367188 C110.04464844 6.82183594 110.49066406 7.38 110.95019531 7.95507812 C111.64242187 8.78845703 111.64242187 8.78845703 112.34863281 9.63867188 C115.27800299 14.12601919 115.82972685 18.00393291 115.8560791 23.31559753 C115.86202135 23.98660014 115.86796359 24.65760275 115.8740859 25.34893876 C115.89138556 27.59034292 115.89446995 29.83153251 115.89746094 32.07299805 C115.90672269 33.68311007 115.91677274 35.29321773 115.92755127 36.90332031 C115.9537538 41.27338939 115.96668051 45.64339707 115.97557259 50.0135324 C115.98144213 52.74656669 115.98965332 55.47958435 115.99858093 58.21261024 C116.02592046 66.77160664 116.04525815 75.33056485 116.05298471 83.88960189 C116.0619404 93.75483146 116.09701392 103.61950601 116.1549859 113.48456687 C116.19828844 121.11959177 116.21839696 128.75446092 116.22106695 136.38960725 C116.22315839 140.94521432 116.23487206 145.50029931 116.27070618 150.0557766 C116.30378782 154.34470394 116.3079224 158.63272018 116.29042816 162.92173004 C116.28889365 164.48980216 116.29749076 166.05792448 116.31734467 167.62587166 C116.42780038 176.89793154 115.78349048 184.17464299 109.57519531 191.51757812 C103.10321919 197.02564291 95.93123212 197.81782937 87.76100159 197.75808716 C86.89747462 197.75979601 86.03394765 197.76150486 85.14425319 197.76326549 C82.26380777 197.76654788 79.38359763 197.75557734 76.50317383 197.74462891 C74.43320216 197.74406452 72.3632301 197.74438188 70.29325867 197.74551392 C64.68224672 197.74608737 59.0713204 197.73433422 53.46032834 197.720366 C47.59334323 197.70785742 41.72635613 197.70668804 35.85935974 197.70431519 C24.7531266 197.6981008 13.64693286 197.68169051 2.54071707 197.66161621 C-10.10490654 197.63925594 -22.75053204 197.62826345 -35.3961705 197.61822534 C-61.4057421 197.59732427 -87.41525969 197.56064851 -113.42480469 197.51757812 C-113.42480469 211.04757813 -113.42480469 224.57757813 -113.42480469 238.51757812 C-111.44480469 237.85757813 -109.46480469 237.19757813 -107.42480469 236.51757812 C-98.97552627 235.4567928 -92.33900099 237.02792511 -85.41699219 241.94335938 C-81.94874539 244.75133324 -79.44617174 247.47484402 -77.42480469 251.51757812 C-76.87953125 251.37320313 -76.33425781 251.22882813 -75.77246094 251.08007812 C-67.00154741 248.92108403 -58.67894581 248.22769003 -50.42480469 252.51757812 C-45.85252878 255.88775332 -41.69418816 259.2065079 -39.42480469 264.51757812 C-38.87953125 264.37320312 -38.33425781 264.22882813 -37.77246094 264.08007812 C-28.97641832 261.9148984 -20.70948857 261.25403169 -12.42480469 265.51757812 C-5.60792566 270.29268662 -0.71233264 275.6953791 1.10791016 283.92651367 C1.76384745 288.96736095 1.71762593 293.95119385 1.70800781 299.02929688 C1.70896454 300.15213577 1.70992126 301.27497467 1.71090698 302.43183899 C1.71158678 304.81141211 1.70974645 307.1909871 1.70556641 309.57055664 C1.70028063 313.14734271 1.70548412 316.72399941 1.71191406 320.30078125 C1.72504574 354.97021894 1.72504574 354.97021894 -1.11230469 371.89257812 C-1.28600586 372.94002197 -1.45970703 373.98746582 -1.63867188 375.06665039 C-5.01828584 394.4291441 -10.5733559 413.78279427 -21.86230469 430.08007812 C-26.71703281 437.49042634 -26.58941764 444.9268398 -26.42480469 453.51757812 C-25.503125 453.76765625 -24.58144531 454.01773437 -23.63183594 454.27539062 C-20.23598732 455.59071323 -19.15699411 456.47159324 -17.11230469 459.39257812 C-16.62117187 460.070625 -16.13003906 460.74867188 -15.62402344 461.44726562 C-12.27357731 467.23142344 -13.20236646 474.20238679 -13.18457031 480.67944336 C-13.17488343 482.81273678 -13.14384362 484.94505811 -13.11230469 487.078125 C-13.10577159 488.44986412 -13.10052233 489.82161008 -13.09667969 491.19335938 C-13.08733398 492.42997314 -13.07798828 493.66658691 -13.06835938 494.94067383 C-13.73114384 501.59167053 -16.28929736 506.13360846 -21.42480469 510.51757812 C-24.63888612 512.49354261 -27.09006452 512.77184124 -30.8387146 512.78500366 C-31.93779648 512.79353363 -33.03687836 512.8020636 -34.16926575 512.81085205 C-35.97097481 512.80949249 -35.97097481 512.80949249 -37.80908203 512.80810547 C-39.07774612 512.81482269 -40.34641022 512.82153992 -41.65351868 512.82846069 C-45.13086582 512.84611776 -48.60811451 512.85081594 -52.08550215 512.85209227 C-54.25918697 512.85351461 -56.43284681 512.85778577 -58.60652542 512.8630867 C-66.19310341 512.88158609 -73.77961114 512.88975744 -81.36621094 512.88818359 C-88.43268576 512.88698225 -95.49885513 512.90808323 -102.56525266 512.93967092 C-108.636729 512.96584186 -114.70810563 512.97655055 -120.77963793 512.97527277 C-124.40387439 512.97476337 -128.02783934 512.98043419 -131.6520195 513.00162888 C-135.69547074 513.02463025 -139.73823964 513.01548549 -143.78173828 513.00341797 C-144.97882919 513.01465698 -146.1759201 513.025896 -147.4092865 513.03747559 C-155.00354676 512.97980669 -158.49277823 512.11577507 -164.08691406 506.99658203 C-168.76657963 500.55140627 -168.1075589 492.90057269 -167.96679688 485.29003906 C-167.92477873 482.89109603 -167.92575097 480.49495404 -167.93261719 478.09570312 C-167.9221275 476.55662129 -167.90919057 475.01755378 -167.89355469 473.47851562 C-167.89325256 472.41423843 -167.89325256 472.41423843 -167.89294434 471.32846069 C-167.76731675 466.00352074 -166.51757466 461.92483539 -162.99511719 457.87304688 C-159.78376034 455.27792337 -157.45452994 454.1527721 -153.42480469 453.51757812 C-152.71690115 443.36469758 -152.71690115 443.36469758 -156.77636719 434.39257812 C-159.28877412 432.01229206 -162.01973395 429.91653746 -164.77734375 427.82958984 C-167.46221015 425.69140489 -169.79706123 423.23577007 -172.17480469 420.76757812 C-175.21587943 417.69164866 -178.26663582 414.70857672 -181.54980469 411.89257812 C-201.57279844 394.63137661 -213.34750951 372.87950146 -225.63769531 349.85351562 C-228.37302082 344.74757468 -231.14631547 339.66262643 -233.92480469 334.58007812 C-234.39241211 333.72422119 -234.86001953 332.86836426 -235.34179688 331.98657227 C-235.79200195 331.16278076 -236.24220703 330.33898926 -236.70605469 329.49023438 C-237.14433594 328.68642334 -237.58261719 327.8826123 -238.03417969 327.05444336 C-239.03733061 325.22443261 -240.04878434 323.39896461 -241.06542969 321.57641602 C-241.87753906 320.1125647 -241.87753906 320.1125647 -242.70605469 318.61914062 C-243.20169922 317.73178223 -243.69734375 316.84442383 -244.20800781 315.93017578 C-246.85930536 310.67332939 -246.81799071 305.95763806 -245.21386719 300.43945312 C-242.91086999 294.83017282 -238.95000909 291.82751298 -233.42480469 289.51757812 C-219.88074478 287.84506709 -206.91012574 291.35870592 -195.42480469 298.51757812 C-191.86304114 301.30504525 -188.63172563 304.33236223 -185.42480469 307.51757812 C-184.71453125 308.20207031 -184.00425781 308.8865625 -183.27246094 309.59179688 C-177.90588725 314.83476426 -172.59548371 320.2615596 -168.42480469 326.51757812 C-168.09480469 283.94757813 -167.76480469 241.37757813 -167.42480469 197.51757812 C-193.19887021 197.7154325 -193.19887021 197.7154325 -218.97241211 197.96801758 C-223.96447754 197.99060059 -223.96447754 197.99060059 -226.30366516 197.99479675 C-227.9326816 198.0024601 -229.56167017 198.02001594 -231.19050598 198.04545593 C-233.66257762 198.08212611 -236.13292124 198.08710639 -238.60522461 198.08520508 C-239.3273347 198.10319562 -240.04944479 198.12118616 -240.793437 198.13972187 C-244.67227821 198.09986075 -246.30347665 197.61402941 -249.37837219 195.16960144 C-251.42480469 192.51757812 -251.42480469 192.51757812 -251.98730469 189.51757812 C-251.27272948 185.70651034 -250.22588602 184.19959764 -247.42480469 181.51757812 C-244.61976653 181.03817749 -242.42573164 180.88137626 -239.62695312 180.94995117 C-238.84608337 180.94922104 -238.06521362 180.94849091 -237.26068115 180.94773865 C-234.68446935 180.95121694 -232.11007483 180.99008678 -229.53417969 181.02929688 C-227.7462869 181.03862421 -225.95838133 181.0457407 -224.17047119 181.05073547 C-219.46834939 181.06981168 -214.76700179 181.1189176 -210.06518555 181.17425537 C-205.2658943 181.22543457 -200.46647776 181.24824666 -195.66699219 181.2734375 C-186.25258982 181.32703593 -176.83876168 181.41235613 -167.42480469 181.51757812 C-167.43574913 180.58770836 -167.43574913 180.58770836 -167.44691467 179.63905334 C-167.45258957 178.82689865 -167.45826447 178.01474396 -167.46411133 177.17797852 C-167.47505577 175.96967125 -167.47505577 175.96967125 -167.48622131 174.73695374 C-167.298631 167.95811549 -162.8947732 162.01392142 -158.38574219 157.24804688 C-152.00403666 151.61638243 -145.20283629 150.79755498 -136.86230469 151.07617188 C-128.64484757 152.13136807 -122.91283076 156.06219611 -117.83105469 162.48632812 C-114.54319402 167.2354602 -113.27885368 171.02627659 -113.35839844 176.74414062 C-113.37277954 178.08726318 -113.37277954 178.08726318 -113.38745117 179.45751953 C-113.39977783 180.13733887 -113.41210449 180.8171582 -113.42480469 181.51757812 C-86.37398757 181.45710114 -59.32326548 181.37964209 -32.2725563 181.28186321 C-19.71296273 181.23686233 -7.15339778 181.1974576 5.40625 181.17114258 C16.35088283 181.14819724 27.29542538 181.11483812 38.23998666 181.06887656 C44.03717921 181.04489758 49.83428209 181.02619947 55.63152313 181.01996422 C61.084875 181.0139345 66.5379973 180.99401139 71.99126434 180.96330261 C73.99558928 180.95448841 75.99994418 180.95080676 78.00428772 180.95256996 C80.73569055 180.95421451 83.46638671 180.93759376 86.19769287 180.91630554 C86.99535875 180.92115312 87.79302463 180.92600069 88.6148622 180.93099517 C91.7303135 180.89077541 94.21263686 180.68169093 97.06788445 179.38925743 C99.27125126 176.65326172 99.07294848 174.66011315 99.06967163 171.17198181 C99.07691488 170.20245169 99.07691488 170.20245169 99.08430445 169.2133351 C99.09559337 167.0434259 99.07824471 164.87469059 99.06103516 162.70483398 C99.06318058 161.15100281 99.06705762 159.5971732 99.07254028 158.04335022 C99.08224631 153.82023017 99.06691552 149.59753189 99.0466342 145.37446284 C99.02908978 140.96046715 99.03258775 136.546485 99.03335571 132.13246155 C99.0314818 124.72031581 99.01410474 117.30833368 98.98681641 109.89624023 C98.95535304 101.31824531 98.94482055 92.74042957 98.94628751 84.16238111 C98.94750686 75.91998674 98.93730783 67.67765092 98.92070389 59.43527412 C98.91363031 55.92294419 98.90997627 52.41063497 98.90891647 48.89829826 C98.90691202 44.76557892 98.89473881 40.63301087 98.8745842 36.50034142 C98.86872717 34.98054683 98.86628488 33.46073484 98.86743927 31.94092941 C98.86841609 29.87252071 98.85715562 27.80454004 98.84262085 25.7361908 C98.83926916 24.57678451 98.83591747 23.41737822 98.83246422 22.2228384 C98.85082275 19.36854734 98.85082275 19.36854734 96.57519531 17.51757812 C93.75582262 16.57872353 91.16867758 16.39123025 88.21081543 16.38627625 C87.34443954 16.38226807 86.47806366 16.37825989 85.58543396 16.37413025 C84.64297318 16.37465897 83.70051239 16.37518768 82.72949219 16.37573242 C81.73071548 16.372258 80.73193878 16.36878357 79.70289612 16.36520386 C77.53505509 16.35785482 75.36720658 16.3525049 73.19935608 16.34891319 C69.77017098 16.34174719 66.34112891 16.326081 62.9119873 16.30757141 C53.16253577 16.25509708 43.41316407 16.20708994 33.66357422 16.19165039 C27.70011354 16.18158707 21.73701479 16.15230844 15.7736969 16.11033058 C13.49950392 16.09799633 11.22525989 16.09290372 8.95103455 16.09512901 C5.77392711 16.09747357 2.59786493 16.07538071 -0.57910156 16.04760742 C-1.52156235 16.05420883 -2.46402313 16.06081024 -3.43504333 16.06761169 C-9.77129073 15.97642942 -9.77129073 15.97642942 -13.00891113 13.70320129 C-15.09875628 10.4772427 -14.96129593 8.27301683 -14.42480469 4.51757812 C-10.98456241 -0.93415197 -5.79157661 -0.04681756 0 0 Z M-149.42480469 171.51757812 C-151.81344354 175.14117586 -151.67524977 178.38338922 -151.67636108 182.65332031 C-151.67933122 183.37262096 -151.68230136 184.09192162 -151.6853615 184.83301926 C-151.69300094 187.2435782 -151.68650783 189.65389344 -151.68017578 192.06445312 C-151.68292566 193.79252284 -151.68660553 195.52059129 -151.69114685 197.24865723 C-151.69925996 200.97002876 -151.70142705 204.69134021 -151.69919968 208.41271973 C-151.69636903 214.29505331 -151.71070862 220.17726655 -151.72817993 226.05957031 C-151.77523271 242.78644001 -151.79915443 259.51330145 -151.80566406 276.24023438 C-151.80941102 285.47825622 -151.82740979 294.7161419 -151.86075842 303.95410538 C-151.88100951 309.8037826 -151.88332482 315.65310953 -151.87247825 321.50280762 C-151.86987596 325.13918009 -151.88385118 328.77534745 -151.90255928 332.41166687 C-151.90789337 334.09994256 -151.90636376 335.78825575 -151.89752388 337.47651672 C-151.88643972 339.77878285 -151.89978908 342.07965544 -151.91928101 344.38183594 C-151.92037054 345.67083801 -151.92146008 346.95984009 -151.92258263 348.28790283 C-152.51294276 352.08437395 -153.37138009 353.25697904 -156.42480469 355.51757812 C-159.61230469 356.33007812 -159.61230469 356.33007812 -163.42480469 355.51757812 C-166.80679147 352.85388942 -169.59327178 349.749274 -172.42480469 346.51757812 C-173.01132813 345.86015625 -173.59785156 345.20273437 -174.20214844 344.52539062 C-175.32528001 343.25162729 -176.43966529 341.97010708 -177.54589844 340.68164062 C-180.63571164 337.12289527 -183.83430849 333.66329418 -187.01464844 330.18554688 C-189.04973959 327.93276364 -191.02584366 325.64651354 -192.98730469 323.33007812 C-200.83391961 314.35988689 -209.37320531 307.32531803 -221.42480469 305.51757812 C-224.11816336 305.37922066 -226.7248549 305.42115135 -229.42480469 305.51757812 C-228.81654465 310.04084051 -226.98252867 313.66864015 -224.84667969 317.63476562 C-224.30214645 318.66331665 -224.30214645 318.66331665 -223.74661255 319.71264648 C-222.56292612 321.94305247 -221.36943713 324.16801824 -220.17480469 326.39257812 C-219.35320537 327.93172466 -218.53175448 329.47095044 -217.71044922 331.01025391 C-196.72686583 370.67721818 -196.72686583 370.67721818 -166.73730469 403.70507812 C-162.33236239 407.48446649 -158.30484002 411.61015458 -154.22753906 415.734375 C-150.58566708 419.4018639 -146.86160244 422.90829523 -142.91308594 426.24804688 C-139.41887377 429.22867405 -138.64039898 431.20936054 -138.21948242 435.71582031 C-138.18282471 436.49086914 -138.14616699 437.26591797 -138.10839844 438.06445312 C-138.06650391 438.90878906 -138.02460938 439.753125 -137.98144531 440.62304688 C-137.94212891 441.49574219 -137.9028125 442.3684375 -137.86230469 443.26757812 C-137.81912109 444.15574219 -137.7759375 445.04390625 -137.73144531 445.95898438 C-137.62566854 448.14503775 -137.52357922 450.33119902 -137.42480469 452.51757812 C-136.8198114 452.52788559 -136.21481812 452.53819305 -135.5914917 452.54881287 C-129.2973771 452.65695396 -123.00340346 452.77154591 -116.70947266 452.88989258 C-114.36021879 452.93321699 -112.01093394 452.97489385 -109.66162109 453.01489258 C-106.28571229 453.07265528 -102.90995908 453.1363328 -99.53417969 453.20117188 C-98.48300964 453.21788437 -97.4318396 453.23459686 -96.34881592 453.2518158 C-95.3681012 453.27176102 -94.38738647 453.29170624 -93.37695312 453.31225586 C-92.08455719 453.33557228 -92.08455719 453.33557228 -90.76605225 453.35935974 C-88.53315363 453.51025605 -86.57059924 453.89920084 -84.42480469 454.51757812 C-84.14732227 455.92911911 -83.90386953 457.34737612 -83.67480469 458.76757812 C-83.53558594 459.55648438 -83.39636719 460.34539062 -83.25292969 461.15820312 C-83.42480469 463.51757812 -83.42480469 463.51757812 -85.04670715 465.63191223 C-88.09610073 468.04986918 -89.78239637 468.0271374 -93.64624023 468.04760742 C-94.90401779 468.06409836 -96.16179535 468.08058929 -97.45768738 468.09757996 C-98.82563309 468.09592576 -100.19357849 468.09399145 -101.56152344 468.09179688 C-102.96590417 468.1042428 -104.37026932 468.11857725 -105.77461243 468.13471985 C-109.46496809 468.17272198 -113.15505537 468.18793072 -116.84558105 468.19750977 C-122.76326613 468.21726831 -128.68074688 468.27397547 -134.5982151 468.32627296 C-136.66841538 468.34166226 -138.73851411 468.34881725 -140.8087616 468.35441589 C-142.68124321 468.36496758 -142.68124321 468.36496758 -144.59155273 468.37573242 C-146.24890694 468.38095161 -146.24890694 468.38095161 -147.93974304 468.38627625 C-150.36690279 468.23673862 -150.36690279 468.23673862 -151.42480469 469.51757812 C-151.51238472 471.51722795 -151.53177045 473.51993922 -151.52246094 475.52148438 C-151.51923828 476.73642578 -151.51601562 477.95136719 -151.51269531 479.203125 C-151.50431641 480.48251953 -151.4959375 481.76191406 -151.48730469 483.08007812 C-151.48279297 484.36333984 -151.47828125 485.64660156 -151.47363281 486.96875 C-151.46180014 490.15173835 -151.44531537 493.33463575 -151.42480469 496.51757812 C-148.9919501 497.73400542 -147.4374128 497.64602681 -144.71801758 497.65129089 C-143.2289238 497.65768837 -143.2289238 497.65768837 -141.70974731 497.66421509 C-140.61669281 497.6637619 -139.52363831 497.66330872 -138.39746094 497.6628418 C-137.24946014 497.66620041 -136.10145935 497.66955902 -134.91867065 497.67301941 C-131.10820445 497.68255074 -127.29778208 497.68447351 -123.48730469 497.68554688 C-120.84936505 497.68875756 -118.21142559 497.69212149 -115.57348633 497.69563293 C-110.0385713 497.70203186 -104.50366823 497.70351496 -98.96875 497.70288086 C-92.56466117 497.70227963 -86.16065646 497.71283993 -79.75658894 497.72862452 C-73.6024376 497.74325449 -67.44832677 497.74686954 -61.29415894 497.74627113 C-58.67218685 497.74745529 -56.05021421 497.75190126 -53.42825317 497.7596035 C-49.76947951 497.76934608 -46.11092526 497.76654824 -42.45214844 497.76049805 C-41.35909393 497.76611755 -40.26603943 497.77173706 -39.13986206 497.77752686 C-38.14713287 497.77333237 -37.15440369 497.76913788 -36.1315918 497.76481628 C-35.26586044 497.76536105 -34.40012909 497.76590582 -33.50816345 497.76646709 C-31.20400056 497.70893134 -31.20400056 497.70893134 -29.42480469 495.51757812 C-29.12979278 492.81526918 -29.12979278 492.81526918 -29.19433594 489.66992188 C-29.19626953 488.50783203 -29.19820312 487.34574219 -29.20019531 486.1484375 C-29.21244141 484.92962891 -29.2246875 483.71082031 -29.23730469 482.45507812 C-29.23794922 481.23240234 -29.23859375 480.00972656 -29.23925781 478.75 C-28.73277223 473.26487483 -28.73277223 473.26487483 -30.42480469 468.51757812 C-32.90868743 468.39465885 -35.36911475 468.33152838 -37.85449219 468.30664062 C-39.38705492 468.2785705 -40.91960687 468.24990602 -42.45214844 468.22070312 C-44.87711266 468.17942714 -47.30187576 468.14255563 -49.72705078 468.11621094 C-52.06162558 468.08862786 -54.3952734 468.04275513 -56.72949219 467.99414062 C-57.81712357 467.98926132 -57.81712357 467.98926132 -58.92672729 467.98428345 C-61.83660074 467.91310407 -63.92531078 467.85377835 -66.37841797 466.20263672 C-68.19253631 463.28125436 -67.83318619 460.84297039 -67.42480469 457.51757812 C-66.03808594 455.34179688 -66.03808594 455.34179688 -63.42480469 453.51757812 C-60.01519664 452.8832588 -56.6364132 452.82090823 -53.17480469 452.76757812 C-51.77101563 452.72310547 -51.77101563 452.72310547 -50.33886719 452.67773438 C-48.03409376 452.60718009 -45.73032301 452.55441561 -43.42480469 452.51757812 C-43.38742187 451.29941406 -43.35003906 450.08125 -43.31152344 448.82617188 C-43.24582352 447.20244522 -43.17937759 445.57874864 -43.11230469 443.95507812 C-43.0784668 442.7552832 -43.0784668 442.7552832 -43.04394531 441.53125 C-42.70400316 433.95981107 -40.48372468 428.79974185 -36.17480469 422.51757812 C-25.69516925 406.2575964 -20.34381624 388.21865493 -17.11230469 369.26757812 C-16.95286377 368.33502197 -16.79342285 367.40246582 -16.62915039 366.44165039 C-14.13214207 350.56299133 -14.21148337 334.51060595 -14.18457031 318.47827148 C-14.17473684 314.93059936 -14.14355409 311.38347761 -14.11230469 307.8359375 C-14.10578419 305.56185234 -14.10052999 303.28776312 -14.09667969 301.01367188 C-14.07815948 299.43699989 -14.07815948 299.43699989 -14.05926514 297.82847595 C-14.07713351 291.94057754 -14.51902185 287.68689878 -17.42480469 282.51757812 C-20.77859846 279.4686747 -22.43295892 278.51757812 -26.98730469 278.51757812 C-31.02216093 279.69135449 -32.66817137 280.31392319 -35.42480469 283.51757812 C-36.6304729 286.62384832 -37.61956427 289.73062567 -38.53027344 292.93554688 C-39.42480469 295.51757812 -39.42480469 295.51757812 -41.42480469 296.51757812 C-47.76598116 296.9787546 -47.76598116 296.9787546 -50.29980469 295.20507812 C-52.20701824 292.3442578 -52.54764878 289.80288235 -52.60058594 286.46289062 C-52.62443359 285.68300781 -52.64828125 284.903125 -52.67285156 284.09960938 C-52.71560852 282.46966225 -52.74697408 280.83937406 -52.76660156 279.20898438 C-52.94901377 274.059021 -53.5736987 271.27404446 -57.42480469 267.51757812 C-60.20635399 265.3320751 -61.72628442 265.51757812 -65.36230469 265.51757812 C-69.10035125 266.12900582 -71.12377655 267.47806943 -73.40136719 270.62695312 C-74.94714337 273.48250913 -75.8836663 276.4427967 -76.74902344 279.56445312 C-77.42480469 281.51757812 -77.42480469 281.51757812 -79.42480469 283.51757812 C-83.76124069 283.83295529 -85.75133698 283.9665566 -89.42480469 281.51757812 C-90.33816368 278.77750116 -90.55826847 277.07240886 -90.60058594 274.24414062 C-90.62443359 273.41914063 -90.64828125 272.59414063 -90.67285156 271.74414062 C-90.71562064 270.01782506 -90.74697959 268.29118692 -90.76660156 266.56445312 C-90.94297253 261.29793415 -91.43230951 258.32962154 -95.42480469 254.51757812 C-98.69027089 252.23175178 -101.4991182 252.11699787 -105.42480469 252.51757812 C-108.84418584 253.94894698 -110.16610305 255.09599027 -112.11230469 258.26757812 C-113.51650386 261.55291054 -113.51650386 261.55291054 -114.42480469 265.26757812 C-115.42480469 268.51757812 -115.42480469 268.51757812 -118.42480469 270.51757812 C-121.86760971 270.95708515 -123.68519417 271.02148721 -126.58705139 269.04440308 C-129.2204375 265.42362017 -128.9576985 262.01987122 -128.89135742 257.71337891 C-128.89366364 256.82510406 -128.89596985 255.93682922 -128.89834595 255.02163696 C-128.90097472 253.09442502 -128.89453275 251.16718422 -128.88009453 249.24002457 C-128.85822071 246.18809355 -128.86192104 243.13715446 -128.87257385 240.08517456 C-128.89425252 232.50473973 -128.87688368 224.92452438 -128.85107422 217.34411621 C-128.82966864 210.9398061 -128.82773406 204.53613156 -128.85399055 198.13183212 C-128.85834033 195.12801581 -128.83370352 192.12530403 -128.80845642 189.12161255 C-128.81372835 187.27459217 -128.82045159 185.42757518 -128.82885742 183.58056641 C-128.8139476 182.7481543 -128.79903778 181.91574219 -128.78367615 181.05810547 C-128.83454421 176.90292815 -129.1803235 174.3031442 -131.83705139 171.01364136 C-135.39696416 167.57986451 -137.41790356 167.16925996 -142.38964844 167.23242188 C-145.61516091 167.68436508 -147.23380666 169.19769786 -149.42480469 171.51757812 Z " fill="#f6f6f6" transform="translate(396.4248046875,-0.517578125)"/>
<path d="M0 0 C1.22032681 -0.00583219 2.44065361 -0.01166439 3.69796002 -0.01767331 C5.04890946 -0.01404028 6.39985839 -0.01021592 7.75080681 -0.00622082 C9.18841655 -0.0092414 10.62602469 -0.01313041 12.06362998 -0.01781338 C16.01431674 -0.02811377 19.96491296 -0.02590641 23.91560721 -0.02163279 C28.17602189 -0.01916934 32.43641456 -0.02817484 36.69682121 -0.03567028 C45.04249497 -0.04842877 53.38813656 -0.05020964 61.73381843 -0.04787002 C68.51428422 -0.04608841 75.29474023 -0.0478331 82.07520485 -0.05209446 C83.03948694 -0.05268965 84.00376904 -0.05328484 84.9972718 -0.05389806 C86.95604294 -0.05510978 88.91481407 -0.05632391 90.87358521 -0.05754044 C109.24743763 -0.06841987 127.6212717 -0.06625125 145.99512516 -0.06015559 C162.81870552 -0.05498294 179.64222804 -0.06625036 196.46579696 -0.08525381 C213.72917467 -0.10460507 230.99252498 -0.11289319 248.25591362 -0.10913056 C257.95254538 -0.10721479 267.64912787 -0.10974279 277.34575081 -0.1238451 C285.59800841 -0.13572517 293.85018639 -0.1372017 302.10244502 -0.12505493 C306.31545757 -0.11914314 310.52832423 -0.11812995 314.74132729 -0.13005733 C318.59395925 -0.14083815 322.44632216 -0.13790692 326.29894112 -0.12379565 C327.69654761 -0.12112708 329.09417467 -0.12358223 330.4917611 -0.13153151 C332.38390925 -0.14155128 334.27613253 -0.13147637 336.16827393 -0.12025452 C337.74821174 -0.12033704 337.74821174 -0.12033704 339.36006749 -0.12042123 C341.95829582 0.25447559 341.95829582 0.25447559 343.76548469 1.59820873 C345.59110552 4.13315765 345.83439315 6.15690874 345.95829582 9.25447559 C344.8204971 11.58179116 343.78988868 13.42288273 341.95829582 15.25447559 C340.14901903 15.35519237 338.335767 15.38479269 336.52369118 15.38755417 C335.33694573 15.39179522 334.15020029 15.39603626 332.92749286 15.40040582 C331.59366462 15.40010009 330.25983641 15.39970688 328.92600822 15.39923573 C327.52215068 15.40236684 326.11829407 15.40594102 324.71443868 15.40992314 C320.838413 15.41965819 316.96240207 15.42317763 313.08636594 15.42576611 C308.91309921 15.429649 304.73984564 15.43928688 300.56658745 15.44832325 C293.3289218 15.46328563 286.09125721 15.47481953 278.85358238 15.48427105 C268.38354711 15.49812201 257.91353615 15.51930668 247.44351831 15.54269958 C230.45121682 15.58064946 213.45891092 15.61560677 196.4665966 15.64729786 C195.44867402 15.64919835 194.43075144 15.65109884 193.38198271 15.65305693 C178.93879804 15.67988404 164.49560997 15.70375739 150.05241826 15.72644193 C148.52735353 15.72883788 148.52735353 15.72883788 146.97147942 15.73128223 C145.95600366 15.7328757 144.94052791 15.73446917 143.89428017 15.73611092 C126.9722708 15.76286334 110.05028725 15.79725749 93.12830567 15.83793598 C82.68319589 15.86273616 72.23811391 15.88104879 61.79297933 15.89109159 C54.6360958 15.89847392 47.47924955 15.91298703 40.32239071 15.93315583 C36.19020627 15.94456493 32.05808204 15.95268021 27.92588043 15.95214748 C24.1445711 15.95172059 20.36339735 15.96040453 16.58212283 15.97639728 C14.56278195 15.98253645 12.5434186 15.97883098 10.52407241 15.97480196 C9.32689597 15.98165075 8.12971954 15.98849954 6.89626503 15.99555588 C5.86282864 15.99729213 4.82939226 15.99902838 3.76463962 16.00081724 C0.54604818 16.29173762 -2.67751183 16.89028324 -5.04170418 19.25447559 C-5.14725484 21.28511214 -5.18138633 23.31946963 -5.1888752 25.35283375 C-5.19255189 25.99677275 -5.19622857 26.64071175 -5.20001668 27.30416405 C-5.21109356 29.47755053 -5.21490407 31.65088927 -5.21870613 33.82429981 C-5.22496771 35.37621178 -5.23161423 36.92812223 -5.23861885 38.48003101 C-5.25605589 42.7073059 -5.26658771 46.93456946 -5.27482438 51.16187143 C-5.27996824 53.80034776 -5.28604421 56.43882053 -5.29233551 59.07729435 C-5.31139414 67.32500319 -5.32562448 75.57270304 -5.33394748 83.82042968 C-5.34372688 93.35509976 -5.37006179 102.88953812 -5.41044837 112.42412651 C-5.44056097 119.78464424 -5.45541168 127.14509537 -5.45872849 134.50567353 C-5.46108436 138.90618504 -5.47011397 143.30644919 -5.49518967 147.70689487 C-5.5183911 151.84539039 -5.52273593 155.98347429 -5.51242828 160.12201786 C-5.51193088 161.64302657 -5.51831116 163.16405499 -5.53198433 164.68500233 C-5.54958026 166.75788433 -5.54266042 168.82926929 -5.52945137 170.90215015 C-5.53183972 172.06323229 -5.53422808 173.22431442 -5.5366888 174.42058086 C-5.29566546 177.32571727 -5.29566546 177.32571727 -3.28831863 179.12867832 C-0.82623616 180.36244842 0.65353955 180.62631297 3.39187431 180.61955738 C4.27363335 180.62486973 5.15539238 180.63018208 6.06387138 180.6356554 C7.0234626 180.62636509 7.98305382 180.61707478 8.97172356 180.60750294 C10.49673988 180.61074322 10.49673988 180.61074322 12.05256462 180.61404896 C14.25969732 180.61713653 16.46684719 180.61352833 18.67396164 180.60403538 C22.16655833 180.59031619 25.65858561 180.59672325 29.15118217 180.60887623 C39.08082097 180.63986831 49.01032812 180.63494397 58.93998528 180.61482716 C65.01367025 180.60392016 71.08692744 180.61707774 77.16055298 180.64472294 C79.47581083 180.65016979 81.79111131 180.64608369 84.10633469 180.63232517 C87.34319004 180.61331319 90.57864295 180.62465492 93.81547356 180.64265919 C94.77304054 180.62932041 95.73060753 180.61598164 96.7171917 180.60223866 C101.28900589 180.65884242 103.31682652 180.76927486 107.06097221 183.60130787 C108.95829582 186.25447559 108.95829582 186.25447559 109.45829582 189.31697559 C108.91084774 192.53323306 108.25072672 193.96204469 105.95829582 196.25447559 C103.17819633 197.18117542 101.50445569 197.38378796 98.63392448 197.39491749 C97.7509066 197.40062763 96.86788872 197.40633778 95.95811272 197.41222095 C94.99185966 197.41333881 94.02560661 197.41445667 93.03007317 197.41560841 C92.01021324 197.42057331 90.99035332 197.42553822 89.93958855 197.43065357 C86.55779665 197.44528498 83.17605171 197.45207998 79.79423332 197.45760059 C77.44353547 197.46335265 75.09283764 197.46911038 72.74213982 197.47487354 C67.80751642 197.48538728 62.87290932 197.49122705 57.93827629 197.49470997 C51.62678707 197.5001857 45.31551456 197.52419264 39.00409317 197.55268192 C34.1449452 197.57134472 29.28584895 197.57651592 24.42666817 197.57804585 C22.10074622 197.58106628 19.77482506 197.58907417 17.44893837 197.60223103 C14.18675554 197.61936206 10.92509573 197.61739348 7.66288567 197.61092091 C6.708778 197.62013569 5.75467033 197.62935047 4.77165031 197.63884449 C-2.44626019 197.5941773 -9.02185976 196.65662456 -14.79170418 192.06697559 C-15.53420418 191.13885059 -16.27670418 190.21072559 -17.04170418 189.25447559 C-17.68061624 188.53104717 -17.68061624 188.53104717 -18.33243561 187.79300404 C-23.48729687 181.04919281 -22.74535831 173.31182363 -22.68867683 165.23494434 C-22.69545958 163.61128734 -22.70436639 161.98763803 -22.71522713 160.36400318 C-22.73794926 155.97132462 -22.72921368 151.57923566 -22.7133317 147.18654728 C-22.70063582 142.58051228 -22.71242303 137.97452634 -22.72026253 133.36848927 C-22.72934837 125.63475489 -22.71739919 117.90125958 -22.69355965 110.16756153 C-22.66635036 101.2378136 -22.67516528 92.30863654 -22.70269167 83.37890244 C-22.72541215 75.69964921 -22.72856849 68.02056742 -22.71549833 60.34129143 C-22.70771994 55.76020487 -22.70661769 51.17938628 -22.72318077 46.59831715 C-22.73766918 42.29048402 -22.7275247 37.9833839 -22.69870949 33.67562962 C-22.6921219 32.09868935 -22.69395642 30.52168696 -22.70502281 28.94477177 C-22.76483757 19.55248478 -22.37551978 12.67995909 -15.56376266 5.75113392 C-10.72918923 1.39428235 -6.40664891 0.00527055 0 0 Z " fill="#f6f6f6" transform="translate(22.041704177856445,-0.25447559356689453)"/>
<path d="M0 0 C4.09401159 3.89905866 6.90932392 8.09384767 8.53125 13.546875 C9.82199681 17.32691922 10.84358671 19.59391749 13.625 22.5 C18.73716866 24.492018 24.14505628 25.01901935 29.55859375 25.65625 C35.0911631 26.38658824 39.47981549 27.94083251 43.18359375 32.359375 C46.19212708 38.83106448 46.59880216 43.42483528 44.4375 50.25 C42.87432763 53.23687955 40.99145611 55.10595263 38.39453125 57.1796875 C31.35205906 62.32896311 31.35205906 62.32896311 28.22265625 69.9609375 C28.82094557 73.55067344 29.69339003 76.98366789 30.625 80.5 C31.35417831 87.94113283 31.35690379 93.52285837 26.625 99.5 C22.45352643 103.02257768 19.09052872 104.40736392 13.625 104.5 C7.0508176 103.18008693 1.31065428 99.86542811 -4.48046875 96.609375 C-8.0436379 95.24373392 -9.73468827 95.4201666 -13.375 96.5 C-15.43053839 97.62635941 -17.45057249 98.81910036 -19.4375 100.0625 C-26.19741426 103.82144546 -31.74226368 104.8003138 -39.375 103.5 C-44.3068141 101.42344669 -46.58823165 98.46036369 -48.6875 93.67578125 C-50.2951051 88.58807649 -49.76248549 83.97847948 -48.421875 78.86328125 C-46.92428028 72.72748576 -46.92428028 72.72748576 -47.375 66.5 C-50.10801954 62.14082842 -54.02432864 59.0266978 -57.94921875 55.78125 C-61.83462289 52.42724951 -63.04353555 49.43542837 -64.375 44.5 C-64.62616426 38.89066488 -62.97621932 34.78253108 -59.375 30.5 C-54.88542415 26.72483404 -51.50107552 26.13659754 -45.88671875 25.69140625 C-37.41126852 24.99557674 -37.41126852 24.99557674 -30.50585938 20.52783203 C-27.88430716 16.5303771 -26.06958578 12.33748185 -24.3125 7.90625 C-22.73319584 3.92508744 -21.13511629 1.7657111 -17.375 -0.5 C-11.62962321 -2.4151256 -5.5432302 -2.46365787 0 0 Z M-9.375 14.5 C-9.67156494 15.08491211 -9.96812988 15.66982422 -10.27368164 16.27246094 C-11.64173564 18.94237704 -13.03913256 21.59584376 -14.4375 24.25 C-15.13649414 25.63058594 -15.13649414 25.63058594 -15.84960938 27.0390625 C-18.80351265 32.58516661 -21.22367243 36.53217421 -27.375 38.5 C-30.83471692 39.31356021 -34.28676117 39.81848409 -37.8125 40.25 C-38.73482422 40.37503906 -39.65714844 40.50007813 -40.60742188 40.62890625 C-42.86187338 40.93261474 -45.11718602 41.22260686 -47.375 41.5 C-45.18913861 46.31057054 -41.51214429 49.43392722 -37.71875 52.99023438 C-33.94157171 56.63317471 -31.7049008 59.51633836 -31.109375 64.90234375 C-31.1565313 72.55345381 -32.14137722 79.95507493 -33.375 87.5 C-29.35550106 86.28551949 -25.74483153 84.72087488 -22.0234375 82.78149414 C-11.31695171 77.31672535 -11.31695171 77.31672535 -5.0625 78.5 C0.05555238 80.40439158 4.77855605 83.06110441 9.5 85.78515625 C12.32312746 87.66035906 12.32312746 87.66035906 14.625 87.5 C14.48264543 85.77054347 14.33595618 84.04144346 14.1875 82.3125 C14.10628906 81.34957031 14.02507812 80.38664062 13.94140625 79.39453125 C13.64810834 76.7113985 13.16385891 74.14214693 12.625 71.5 C12.11236054 65.24579856 12.8170792 60.66537404 16.625 55.5 C19.1624667 52.73597378 21.83047427 50.11018456 24.55957031 47.53613281 C25.94616464 46.22319328 27.28950956 44.86488803 28.625 43.5 C28.625 42.84 28.625 42.18 28.625 41.5 C27.32304687 41.31824219 26.02109375 41.13648437 24.6796875 40.94921875 C22.95304563 40.69585282 21.2264874 40.4419164 19.5 40.1875 C18.6440625 40.06955078 17.788125 39.95160156 16.90625 39.83007812 C10.85683497 38.92266587 5.93461324 37.87376916 1.515625 33.33203125 C-0.87000379 29.75851706 -2.75990076 26.05240009 -4.625 22.1875 C-4.98851562 21.44693359 -5.35203125 20.70636719 -5.7265625 19.94335938 C-6.61490537 18.13160746 -7.49572593 16.31617047 -8.375 14.5 C-8.705 14.5 -9.035 14.5 -9.375 14.5 Z " fill="#f6f6f6" transform="translate(115.375,38.5)"/>
<path d="M0 0 C5.61007367 2.67925043 8.28756926 8.06495322 10.9296875 13.45703125 C11.17589844 14.359375 11.42210937 15.26171875 11.67578125 16.19140625 C12.69171372 19.47738879 13.38913395 21.08235576 15.9296875 23.45703125 C21.10289672 25.2596403 26.51641378 25.85130286 31.92578125 26.54296875 C37.97225005 27.41869908 41.27022023 29.48361071 45.2421875 34.20703125 C48.07246451 39.65793512 48.45536579 43.50846437 46.890625 49.30859375 C45.27653431 53.40520807 42.92869986 55.56013533 39.58447266 58.32543945 C33.71962267 63.00840108 33.71962267 63.00840108 30.47607422 69.51025391 C30.43231478 74.31593793 31.71907878 78.83786437 32.9296875 83.45703125 C33.70230171 89.88628522 32.97280879 95.21638723 28.9296875 100.45703125 C25.1391891 103.63260618 20.85663043 105.25593154 15.9296875 105.45703125 C9.08473293 104.49633587 3.95652367 101.3715485 -1.921875 97.8203125 C-5.68204386 96.19215005 -7.18717219 96.25989732 -11.0703125 97.45703125 C-13.30861781 98.58702316 -15.51599925 99.77957716 -17.6953125 101.01953125 C-24.17295998 104.46661447 -29.77390301 105.8362306 -37.0703125 104.45703125 C-41.4325048 102.50962397 -44.18665198 99.92715252 -46.3828125 95.6171875 C-48.6229354 88.57861951 -47.0319087 81.2362542 -45.5703125 74.20703125 C-44.74625155 69.34266575 -44.74625155 69.34266575 -46.54296875 64.93359375 C-48.60544394 62.85955328 -50.67899284 61.13741804 -53.0703125 59.45703125 C-58.20987588 55.71916698 -61.24210542 51.77374695 -62.45703125 45.44140625 C-62.75014029 40.30694448 -61.39738499 35.42617036 -58.0703125 31.45703125 C-53.14321402 27.90568104 -49.47240254 27.12423137 -43.49414062 26.6484375 C-35.06499949 25.94549748 -35.06499949 25.94549748 -28.20556641 21.48486328 C-25.11797648 16.77825418 -23.13350623 11.71284069 -21.07421875 6.5 C-17.12490713 -1.53692597 -7.75265106 -2.03324245 0 0 Z M-8.0703125 15.45703125 C-8.34705811 16.01165039 -8.62380371 16.56626953 -8.90893555 17.13769531 C-10.17973539 19.66712918 -11.46852376 22.18697468 -12.7578125 24.70703125 C-13.19287109 25.57972656 -13.62792969 26.45242187 -14.07617188 27.3515625 C-18.44096852 35.82250117 -18.44096852 35.82250117 -23.0703125 38.45703125 C-26.59375 39.46875 -26.59375 39.46875 -30.4453125 40.14453125 C-31.71117187 40.37527344 -32.97703125 40.60601562 -34.28125 40.84375 C-37.87369363 41.42520737 -41.46563495 41.95871019 -45.0703125 42.45703125 C-43.26628046 47.0151477 -39.67964902 49.90021275 -36.14648438 53.12695312 C-31.47642086 57.58273572 -29.29760705 61.72949659 -28.7578125 68.20703125 C-28.91662877 72.49507054 -29.7590984 76.65113583 -30.6328125 80.84375 C-31.06656118 83.43462378 -31.14588105 85.83574724 -31.0703125 88.45703125 C-25.90764187 87.06171486 -21.74916093 84.58983278 -17.2421875 81.796875 C-12.05198881 79.60446349 -7.01748788 78.56458865 -1.51855469 80.22973633 C1.03434756 81.346569 3.47605442 82.5743911 5.9296875 83.89453125 C7.59498672 84.75006283 9.26158993 85.60306248 10.9296875 86.453125 C11.6515625 86.83654053 12.3734375 87.21995605 13.1171875 87.61499023 C14.89889935 88.59747346 14.89889935 88.59747346 16.9296875 88.45703125 C16.7853125 87.57402344 16.6409375 86.69101563 16.4921875 85.78125 C13.28728153 65.06064267 13.28728153 65.06064267 17.9296875 57.45703125 C20.03331619 55.07051165 22.30326395 52.88808595 24.6171875 50.70703125 C26.77147899 48.66033986 28.8611673 46.59342016 30.9296875 44.45703125 C30.9296875 43.79703125 30.9296875 43.13703125 30.9296875 42.45703125 C30.07588501 42.35213379 30.07588501 42.35213379 29.20483398 42.24511719 C26.59002986 41.91478142 23.9788799 41.56109717 21.3671875 41.20703125 C20.47193359 41.09746094 19.57667969 40.98789063 18.65429688 40.875 C13.17517048 40.11233772 8.0766227 39.35379281 3.9296875 35.45703125 C1.60904199 32.20386417 -0.20508326 28.76760851 -2.0078125 25.20703125 C-2.50087891 24.27117188 -2.99394531 23.3353125 -3.50195312 22.37109375 C-4.70871741 20.07472676 -5.89721249 17.77072484 -7.0703125 15.45703125 C-7.4003125 15.45703125 -7.7303125 15.45703125 -8.0703125 15.45703125 Z " fill="#f6f6f6" transform="translate(413.0703125,37.54296875)"/>
<path d="M0 0 C4.10554511 2.83478115 6.45414594 5.95487504 8.02734375 10.66015625 C9.60645615 15.17584504 11.15818616 19.40181267 14.625 22.8125 C19.73567924 25.15055796 25.19063093 25.5796328 30.7265625 26.109375 C36.63642707 26.71623402 39.58997206 28.94247433 43.9375 32.9375 C46.34456512 37.03842576 47.0023855 41.0780274 46.625 45.8125 C44.94254898 51.34055335 42.6547476 53.96894308 38.27978516 57.64331055 C31.80867322 63.02562323 31.80867322 63.02562323 29.15234375 70.66796875 C29.74624136 74.47590049 30.62643388 78.09243197 31.625 81.8125 C32.37500255 89.00002442 32.11829219 94.01851797 27.625 99.8125 C23.45352643 103.33507768 20.09052872 104.71986392 14.625 104.8125 C8.0508176 103.49258693 2.31065428 100.17792811 -3.48046875 96.921875 C-7.05315643 95.55258579 -8.72040453 95.74092207 -12.375 96.8125 C-14.61330531 97.94249191 -16.82068675 99.13504591 -19 100.375 C-25.45438038 103.79784263 -31.10583257 105.34398631 -38.375 103.8125 C-42.45030016 102.08666114 -44.71136975 99.71161195 -47.3125 96.1875 C-49.19686871 90.2018582 -49.08010697 84.33353722 -47.390625 78.29296875 C-46.31338771 74.07673264 -45.77569806 71.14558239 -46.375 66.8125 C-49.42890805 62.18674381 -53.63987691 58.71752622 -57.828125 55.15234375 C-61.84051735 51.64351672 -63.16639917 48.62426534 -63.5625 43.28515625 C-63.13832967 37.83280015 -62.02760897 34.42896417 -58.43359375 30.28515625 C-54.14721856 27.21881195 -49.48083874 25.71042237 -44.2265625 25.53125 C-39.66074026 25.34855319 -35.42250427 25.10621809 -31.375 22.8125 C-27.67568781 18.54131869 -25.6148264 13.41713556 -23.453125 8.25390625 C-21.77661195 4.31377755 -20.12742509 2.08211195 -16.375 -0.1875 C-10.93882947 -1.99955684 -5.39284814 -1.8974836 0 0 Z M-9.375 14.8125 C-9.65174561 15.36711914 -9.92849121 15.92173828 -10.21362305 16.49316406 C-11.48442289 19.02259793 -12.77321126 21.54244343 -14.0625 24.0625 C-14.49755859 24.93519531 -14.93261719 25.80789062 -15.38085938 26.70703125 C-19.74565602 35.17796992 -19.74565602 35.17796992 -24.375 37.8125 C-27.8984375 38.82421875 -27.8984375 38.82421875 -31.75 39.5 C-33.01585937 39.73074219 -34.28171875 39.96148437 -35.5859375 40.19921875 C-39.17838113 40.78067612 -42.77032245 41.31417894 -46.375 41.8125 C-44.56072878 46.38575171 -40.96783524 49.29856787 -37.45117188 52.5703125 C-33.6111022 56.26009605 -30.82788857 59.83707077 -30.01171875 65.19921875 C-30.13382229 70.7314484 -30.80006553 75.94857607 -31.9375 81.3671875 C-32.49241145 84.05472254 -32.49241145 84.05472254 -32.375 87.8125 C-28.14343209 86.51481917 -24.44420468 84.86493147 -20.5625 82.75 C-14.75378863 79.83130182 -9.63845565 77.51229721 -3.171875 79.484375 C-0.83135784 80.48277742 1.38302701 81.60930783 3.625 82.8125 C5.43540012 83.73330696 7.24790475 84.64998802 9.0625 85.5625 C9.88621094 85.99046875 10.70992187 86.4184375 11.55859375 86.859375 C13.54841531 87.95211349 13.54841531 87.95211349 15.625 87.8125 C15.11492213 81.52221922 15.11492213 81.52221922 14.0625 75.3125 C13.62704442 72.82418241 13.41859619 70.46107367 13.3125 67.9375 C13.25642578 66.73480469 13.25642578 66.73480469 13.19921875 65.5078125 C14.28798119 58.61564657 18.99858595 54.0672634 23.875 49.5 C25.84237817 47.64014133 27.74327786 45.76227184 29.625 43.8125 C29.625 43.1525 29.625 42.4925 29.625 41.8125 C28.32304687 41.63074219 27.02109375 41.44898437 25.6796875 41.26171875 C23.95304563 41.00835282 22.2264874 40.7544164 20.5 40.5 C19.6440625 40.38205078 18.788125 40.26410156 17.90625 40.14257812 C11.85683497 39.23516587 6.93461324 38.18626916 2.515625 33.64453125 C0.12999621 30.07101706 -1.75990076 26.36490009 -3.625 22.5 C-3.98851562 21.75943359 -4.35203125 21.01886719 -4.7265625 20.25585938 C-5.61490537 18.44410746 -6.49572593 16.62867047 -7.375 14.8125 C-8.035 14.8125 -8.695 14.8125 -9.375 14.8125 Z " fill="#f6f6f6" transform="translate(264.375,38.1875)"/>
</svg>
