<?xml version="1.0" encoding="UTF-8"?>
<svg version="1.1" xmlns="http://www.w3.org/2000/svg" width="512" height="512">
<path d="M0 0 C3.12927342 2.07847556 3.12927342 2.07847556 5.96875 1.14453125 C6.7525 0.67917969 7.53625 0.21382813 8.34375 -0.265625 C9.16875 -0.67941406 9.99375 -1.09320313 10.84375 -1.51953125 C12.51148788 -2.3924878 14.17815567 -3.26749174 15.84375 -4.14453125 C23.95727674 -7.7829409 33.65955252 -7.10780952 41.92578125 -4.30859375 C47.46964682 -1.91729794 52.05119555 0.95016042 55.61328125 5.8671875 C59.00758394 9.43144812 61.55063493 9.62535433 66.21875 9.796875 C85.39899673 11.2981181 102.20999823 19.92863971 115.46875 33.859375 C123.19352881 42.92895336 131.86827463 56.47361177 131.34375 68.734375 C132.26994141 68.93740234 132.26994141 68.93740234 133.21484375 69.14453125 C143.0904824 71.6547773 149.86072458 76.7632661 155.125 85.5078125 C155.5271875 86.24257812 155.929375 86.97734375 156.34375 87.734375 C156.6840625 88.32476562 157.024375 88.91515625 157.375 89.5234375 C160.717534 96.54894877 160.40684076 107.01026545 158.71875 114.51171875 C158.18291096 117.68768139 159.74119646 119.45586112 161.21484375 122.1875 C165.74883434 132.41643379 165.73186365 142.8803297 164.34375 153.734375 C165.33955078 153.88132813 165.33955078 153.88132813 166.35546875 154.03125 C175.64910181 155.60506231 175.64910181 155.60506231 179.34375 159.734375 C182.77216538 164.98194956 183.69856405 169.56639728 184.34375 175.734375 C184.90771484 175.71342773 185.47167969 175.69248047 186.05273438 175.67089844 C188.64955249 175.58688999 191.24608362 175.53545271 193.84375 175.484375 C194.730625 175.45085937 195.6175 175.41734375 196.53125 175.3828125 C202.70007226 175.29209453 207.33694702 175.98580656 212.34375 179.734375 C218.03112612 186.03964098 219.06153156 194.16278515 220.55859375 202.2265625 C220.8487101 203.71989384 221.14030821 205.21293793 221.4332428 206.70571899 C222.23363628 210.80685289 223.01332438 214.91168521 223.78936768 219.01748657 C224.62105319 223.39990884 225.47064517 227.7788585 226.31835938 232.15820312 C227.6246932 238.91653198 228.92371182 245.67621319 230.21610451 252.43722153 C232.9449399 266.70854841 235.72748776 280.96910986 238.51846504 295.22839737 C240.04415828 303.02916337 241.56393238 310.8310839 243.08325481 318.63309288 C244.33715746 325.0718687 245.59301483 331.510247 246.85372925 337.94769287 C248.05221012 344.07025186 249.24210046 350.19442304 250.42574883 356.31986618 C250.86638522 358.5928064 251.3099318 360.86518464 251.75657845 363.13695145 C252.37160636 366.26757348 252.97611491 369.40005565 253.578125 372.53320312 C253.75873946 373.43974577 253.93935392 374.34628841 254.12544155 375.28030205 C255.95292515 384.92084452 256.24842029 392.96981626 251.34375 401.734375 C247.16932575 407.40120999 242.09817441 410.79818413 235.34375 412.734375 C229.40781953 413.30373894 223.50033668 413.22720011 217.54248047 413.16918945 C215.73972758 413.16646086 213.93697106 413.16559509 212.13421631 413.16644287 C208.26605178 413.16484841 204.39818389 413.15125595 200.53008652 413.12853432 C194.41127817 413.09377339 188.29274713 413.09275247 182.17385864 413.09745789 C165.87895295 413.10494747 149.58419506 413.07160006 133.28940403 413.01102656 C122.57229886 412.97123635 111.8555778 412.95128718 101.1384002 412.96940392 C95.05754781 412.97809721 88.97790235 412.95509361 82.89723563 412.90837634 C79.11424823 412.88655756 75.3317302 412.89390257 71.54872894 412.90939331 C69.7971652 412.91069828 68.0455446 412.90003111 66.29413986 412.87639427 C57.18755991 412.46140364 57.18755991 412.46140364 48.80415726 415.28908348 C47.0802111 417.01501117 45.74493433 418.74828031 44.34375 420.734375 C25.84359935 432.32744159 -1.47515892 432.30543671 -22.171875 427.7109375 C-30.89072832 425.26731269 -38.95827887 421.99193159 -45.65625 415.734375 C-45.98625 415.074375 -46.31625 414.414375 -46.65625 413.734375 C-48.06623591 413.73217516 -48.06623591 413.73217516 -49.50470638 413.72993088 C-72.39049446 413.69331474 -95.27613643 413.63383734 -118.16180325 413.55047226 C-129.22920915 413.510685 -140.29654399 413.47829088 -151.36401367 413.46337891 C-161.01188721 413.45036082 -170.65960434 413.42339199 -180.3073898 413.37976193 C-185.41451589 413.35715081 -190.5214491 413.34146412 -195.62862968 413.34249115 C-200.43940377 413.34323796 -205.24975151 413.32527859 -210.06041527 413.29320717 C-211.82236536 413.28471499 -213.58436332 413.2829536 -215.34632492 413.28857231 C-225.34963952 413.31621349 -233.4558595 413.02449029 -241.92578125 407.1640625 C-247.51586836 401.53151903 -250.69629192 395.40709388 -250.84628296 387.39280701 C-250.79588808 380.86686377 -249.53034172 374.66057735 -248.24462891 368.28149414 C-247.98418435 366.95407736 -247.72457534 365.62649641 -247.46572876 364.29876709 C-246.76277185 360.70550376 -246.04822019 357.11463519 -245.33155107 353.52408528 C-244.57127368 349.70429673 -243.82195513 345.88235836 -243.07138062 342.06065369 C-241.63879854 334.77496515 -240.19664146 327.49120682 -238.75095594 320.20810837 C-236.83098214 310.53306379 -234.92526175 300.85521547 -233.01884222 291.17749286 C-231.3196938 282.55290572 -229.61717297 273.92902049 -227.90362549 265.30728149 C-227.29775964 262.257159 -226.69218733 259.20697842 -226.08691406 256.15673828 C-225.93962813 255.41454395 -225.7923422 254.67234961 -225.64059305 253.90766454 C-223.60081531 243.61879367 -221.62155577 233.32031554 -219.68652344 223.01123047 C-219.01728862 219.47793252 -218.34697837 215.94484025 -217.67637253 212.41180229 C-217.07440365 209.21032595 -216.49032085 206.00593759 -215.90689087 202.80104065 C-215.54479982 200.88989182 -215.18184998 198.97890542 -214.81787109 197.06811523 C-214.67142529 196.22925467 -214.52497948 195.3903941 -214.37409592 194.52611351 C-213.16642694 188.34336686 -210.98095938 182.25407507 -205.79591942 178.32448483 C-200.49832793 175.15497644 -195.16607465 175.25725953 -189.15625 175.484375 C-188.2384375 175.50242188 -187.320625 175.52046875 -186.375 175.5390625 C-184.13428908 175.58574398 -181.89585201 175.65118978 -179.65625 175.734375 C-179.56988281 175.02152344 -179.48351562 174.30867187 -179.39453125 173.57421875 C-178.46424869 167.23293489 -177.34962988 162.29738321 -172.65625 157.734375 C-167.93713761 154.51679837 -163.21715356 154.09274434 -157.65625 153.734375 C-157.8728125 152.68378906 -158.089375 151.63320312 -158.3125 150.55078125 C-162.08523173 131.79229363 -161.00764037 113.55736595 -150.84375 96.734375 C-149.55106566 93.46864613 -149.57226871 91.46738864 -149.65625 87.984375 C-149.87317494 78.24685563 -147.28795291 70.90017479 -140.65625 63.734375 C-134.02015927 57.2517199 -134.02015927 57.2517199 -130.50390625 55.91796875 C-128.36651086 54.8256974 -128.36651086 54.8256974 -127.78515625 52.01171875 C-127.59824219 50.90957031 -127.41132812 49.80742187 -127.21875 48.671875 C-125.07774489 38.27597851 -120.00266685 29.31789828 -111.265625 23.0078125 C-101.9921845 17.23324679 -92.7169996 13.98023298 -81.65625 14.734375 C-81.016875 14.92515625 -80.3775 15.1159375 -79.71875 15.3125 C-77.41931364 15.96153446 -76.01772453 16.1935506 -73.65625 15.734375 C-71.02062098 13.51805059 -68.80181502 11.04712364 -66.47265625 8.51171875 C-50.27060228 -7.4656188 -19.59377735 -12.58995413 0 0 Z M-58.83984375 26.390625 C-62.22995877 30.76496697 -64.38826366 35.71670611 -66.65625 40.734375 C-69.49073276 46.56885776 -69.49073276 46.56885776 -70.65625 47.734375 C-72.6171875 47.9375 -72.6171875 47.9375 -75.03125 47.984375 C-76.21847656 48.02304688 -76.21847656 48.02304688 -77.4296875 48.0625 C-79.65625 47.734375 -79.65625 47.734375 -81.3984375 46.43359375 C-83.40824137 43.71848604 -83.42414412 41.04188377 -83.65625 37.734375 C-83.21875 35.296875 -83.21875 35.296875 -82.65625 33.734375 C-88.70520795 32.04985506 -93.13610522 34.18974272 -98.65625 36.734375 C-104.16488561 39.87395229 -107.14297614 45.07394849 -109.65625 50.734375 C-109.65625 51.394375 -109.65625 52.054375 -109.65625 52.734375 C-108.49609375 53.06308594 -108.49609375 53.06308594 -107.3125 53.3984375 C-100.35681727 55.51613298 -95.10287007 57.91772545 -89.65625 62.734375 C-88.4496875 63.6934375 -88.4496875 63.6934375 -87.21875 64.671875 C-84.94550101 67.67256367 -84.7216394 70.00717922 -84.65625 73.734375 C-86.00187399 76.68193232 -86.74179544 78.27714772 -89.65625 79.734375 C-93.87185675 80.52480127 -95.64773435 80.40973376 -99.26953125 77.984375 C-101.04385285 76.54642985 -102.7950568 75.07939268 -104.51953125 73.58203125 C-108.48403626 70.15385781 -111.80278006 70.3971606 -116.8984375 70.45703125 C-122.18634086 70.98881757 -125.11617342 73.98842398 -128.46875 77.796875 C-131.8003396 82.27072389 -132.21674466 86.2851214 -131.65625 91.734375 C-129.77740662 96.95338439 -126.72087062 100.10216083 -122.65625 103.734375 C-121.99625 103.734375 -121.33625 103.734375 -120.65625 103.734375 C-119.88134784 108.0196773 -119.2598007 111.5450271 -120.65625 115.734375 C-122.65625 117.734375 -122.65625 117.734375 -125.90625 118.796875 C-130.75609608 118.71604423 -132.658578 117.39948966 -136.65625 114.734375 C-137.31625 114.404375 -137.97625 114.074375 -138.65625 113.734375 C-143.24113782 125.1533409 -144.37585886 138.07045452 -139.88476562 149.73876953 C-134.00573962 163.40654853 -126.22328044 173.97367561 -112.30078125 180.24609375 C-104.58400764 183.2892056 -98.29090275 184.87567696 -89.96875 184.859375 C-88.95458008 184.86517578 -88.95458008 184.86517578 -87.91992188 184.87109375 C-84.16272499 184.9152587 -84.16272499 184.9152587 -80.65625 183.734375 C-80.65625 181.094375 -80.65625 178.454375 -80.65625 175.734375 C-81.2853125 175.58742187 -81.914375 175.44046875 -82.5625 175.2890625 C-92.13732871 172.77999594 -98.23559982 168.49636375 -103.46875 160.03515625 C-106.12475697 154.88914275 -107.18323163 149.53117288 -106.65625 143.734375 C-105.78865598 141.13159294 -105.19264833 140.07550551 -102.875 138.6015625 C-100.24832583 137.57493985 -98.67723515 137.70187718 -95.90625 138.109375 C-95.10703125 138.22023438 -94.3078125 138.33109375 -93.484375 138.4453125 C-92.88109375 138.54070312 -92.2778125 138.63609375 -91.65625 138.734375 C-91.49769531 139.53101563 -91.33914062 140.32765625 -91.17578125 141.1484375 C-89.24777041 149.97008403 -89.24777041 149.97008403 -83.65625 156.734375 C-80.55673921 157.40664381 -80.55673921 157.40664381 -77.65625 157.734375 C-77.07617188 156.46980469 -77.07617188 156.46980469 -76.484375 155.1796875 C-75.96359375 154.08398438 -75.4428125 152.98828125 -74.90625 151.859375 C-74.39578125 150.76882812 -73.8853125 149.67828125 -73.359375 148.5546875 C-71.6080245 145.65451535 -70.84847162 144.69142403 -67.65625 143.734375 C-64.30419489 143.91079895 -61.68233699 144.17168213 -58.71875 145.796875 C-56.94082796 149.03896813 -57.078971 152.19086452 -57.65625 155.734375 C-58.53028275 158.10056277 -59.53785894 160.31229646 -60.68359375 162.55859375 C-64.08550783 170.16849793 -63.65220512 179.64810751 -61.09375 187.421875 C-56.6167281 198.28569736 -49.38429738 204.12116437 -39.28125 209.546875 C-29.13461205 212.87077364 -19.54271631 212.07923007 -9.921875 207.40625 C-5.84901656 205.0612709 -2.43657736 202.59370015 0.90625 199.296875 C2.80570076 197.60945595 3.81803403 196.80187939 6.3515625 196.4765625 C9.68645497 196.77538799 12.77458472 197.57127594 15.98828125 198.4921875 C27.30996201 201.68270219 38.80317879 201.90106615 50.265625 199.19140625 C54.37853411 198.28687549 57.8830791 198.04247826 61.71875 199.859375 C63.97474043 202.46244088 64.20710097 204.31814917 64.34375 207.734375 C63.84375 210.421875 63.84375 210.421875 62.34375 212.734375 C57.28624394 215.52116406 51.9836776 216.64731412 46.34375 217.734375 C51.82572663 227.96739803 63.92959061 231.44401659 74.19848633 235.36230469 C82.85814142 238.7197998 90.94911481 242.64678151 97.34375 249.546875 C101.02284352 253.63903315 101.02284352 253.63903315 106.15625 255.046875 C110.16607894 254.65375452 111.62821644 253.68266858 114.34375 250.734375 C115.70249314 245.90708155 115.0953333 243.08494748 113.09375 238.546875 C112.65546875 237.52207031 112.2171875 236.49726563 111.765625 235.44140625 C110.49198536 233.01659232 109.40313347 231.49696497 107.34375 229.734375 C106.6425 229.9509375 105.94125 230.1675 105.21875 230.390625 C99.42970823 232.08958291 94.37663148 233.47525518 88.34375 232.734375 C85.84375 231.171875 85.84375 231.171875 84.34375 228.734375 C83.78125 225.296875 83.78125 225.296875 84.34375 221.734375 C87.8291592 217.46090452 90.58007887 216.03488945 95.90625 214.859375 C106.95292803 211.96757447 116.01325648 206.57408777 123.34375 197.734375 C123.34375 197.404375 123.34375 197.074375 123.34375 196.734375 C122.11140625 196.76917969 120.8790625 196.80398438 119.609375 196.83984375 C103.61281864 197.16045496 90.94066212 194.79898308 77.34375 185.734375 C74.4654303 185.69379446 71.65275422 185.7445498 68.78125 185.859375 C58.72981932 186.04505045 51.23478738 184.32298827 43.75 177.2265625 C39.66798733 172.8950935 39.00461959 169.61263817 38.9453125 163.8203125 C39.45200386 161.16763422 40.14652897 160.28707786 42.34375 158.734375 C44.5 158.40625 44.5 158.40625 46.84375 158.484375 C47.6171875 158.49984375 48.390625 158.5153125 49.1875 158.53125 C51.34375 158.734375 51.34375 158.734375 54.34375 159.734375 C54.7459375 160.8790625 54.7459375 160.8790625 55.15625 162.046875 C56.80908602 165.78750388 58.73252643 166.89469507 62.34375 168.734375 C66.60943014 169.34375788 68.73293695 169.03978152 72.59375 167.109375 C75.69901323 164.42755676 77.04714826 162.62418021 78.34375 158.734375 C78.07416853 155.34460599 78.07416853 155.34460599 77.34375 151.734375 C77.21972442 150.15370851 77.13741888 148.56929832 77.09375 146.984375 C77.06796875 146.24703125 77.0421875 145.5096875 77.015625 144.75 C77.34375 142.734375 77.34375 142.734375 78.58203125 141 C81.38956013 138.98306129 83.82600009 139.19715747 87.1875 139.328125 C89.34375 139.734375 89.34375 139.734375 91.78125 141.734375 C95.88526608 149.61408587 96.46086231 157.52527264 93.84375 165.984375 C93.42609375 167.19867188 93.42609375 167.19867188 93 168.4375 C92.16060258 170.97725996 92.16060258 170.97725996 92.34375 174.734375 C93.90395867 175.38572425 95.46703579 176.03020464 97.03125 176.671875 C97.90136719 177.03152344 98.77148438 177.39117187 99.66796875 177.76171875 C108.4852272 180.96682438 116.68542891 179.95834787 125.34375 176.734375 C134.80002591 171.9833958 142.17722656 164.2339625 145.66015625 154.203125 C147.77516955 146.56490554 147.27795683 140.39127641 145.34375 132.734375 C144.3125 133.229375 143.28125 133.724375 142.21875 134.234375 C138.74838836 135.68968795 136.13870413 136.39436702 132.34375 135.734375 C129.01496368 133.27396772 127.55073052 131.83827113 126.78125 127.734375 C127.48782027 123.96600025 128.63947288 122.43865212 131.34375 119.734375 C132.33375 119.13625 133.32375 118.538125 134.34375 117.921875 C138.70136934 114.74444423 140.72109456 111.01284648 141.7265625 105.71875 C142.04017273 100.40828348 140.53364407 95.97250621 137.34375 91.734375 C133.33303092 87.83689975 129.39954733 86.41075117 123.84375 86.171875 C119.18466189 86.36493114 116.17363307 87.5967782 112.19140625 89.89453125 C108.99460758 91.34762155 106.59021632 90.75287424 103.34375 89.734375 C100.56123942 87.40065645 100.36872728 85.90609382 99.84375 82.296875 C100.48951559 77.69579514 101.69114464 76.54992497 105.34375 73.734375 C107.95242623 72.25885758 110.60536376 70.95068055 113.34375 69.734375 C110.05432998 56.17273107 102.67353885 44.64621266 90.90625 36.921875 C82.11300737 31.70390684 74.53018566 29.04430581 64.34375 27.734375 C64.0034375 29.3740625 64.0034375 29.3740625 63.65625 31.046875 C62.34375 34.734375 62.34375 34.734375 60.15625 36.734375 C56.42910515 38.05958206 54.13609406 37.7878039 50.34375 36.734375 C47.69602678 33.9242914 46.95668041 31.7003605 46.46875 27.921875 C45.39500023 22.04222906 43.43907747 17.92581482 38.484375 14.41796875 C34.07084075 11.96315416 30.43640883 11.00685231 25.34375 11.734375 C19.11270425 13.92873574 15.21751053 16.98685395 12.21875 22.984375 C11.31319638 25.61706722 11.31319638 25.61706722 10.95703125 27.9453125 C9.84559111 34.24687221 9.84559111 34.24687221 7.15625 36.859375 C3.4429585 38.01462124 1.07891519 37.77192089 -2.65625 36.734375 C-4.59375 35.234375 -4.59375 35.234375 -5.65625 32.734375 C-6.1266738 27.98575736 -5.85083391 23.36338767 -4.65625 18.734375 C-21.66135541 5.40604914 -44.94818171 11.79736387 -58.83984375 26.390625 Z M-156.90625 171.234375 C-158.14375 171.399375 -159.38125 171.564375 -160.65625 171.734375 C-163.97730232 191.52934188 -167.29820588 211.32433372 -170.61893845 231.11935425 C-172.16125459 240.31314227 -173.70361711 249.5069225 -175.24609375 258.70068359 C-176.5925052 266.7258206 -177.9388246 274.75097304 -179.28503919 282.77614307 C-179.99603968 287.0146015 -180.70708236 291.25305283 -181.41823578 295.4914856 C-181.55448309 296.30354493 -181.6907304 297.11560427 -181.83110642 297.95227146 C-182.10127338 299.56248094 -182.37146097 301.17268695 -182.64166999 302.78288937 C-183.28382922 306.61011399 -183.92539487 310.43743611 -184.56553268 314.26499939 C-185.67425487 320.89266156 -186.78811618 327.51924177 -187.92248535 334.14257812 C-188.11257801 335.26013489 -188.30267067 336.37769165 -188.49852371 337.52911377 C-188.84359093 339.55634051 -189.19174865 341.58304501 -189.54380417 343.60906982 C-189.76711348 344.92648163 -189.76711348 344.92648163 -189.99493408 346.27050781 C-190.12382648 347.01907043 -190.25271889 347.76763306 -190.38551712 348.53887939 C-190.68359281 350.95611027 -190.70152976 353.30124494 -190.65625 355.734375 C-185.82308489 354.68693984 -181.01528689 353.58712985 -176.22265625 352.3671875 C-165.15795347 349.57170958 -154.12981218 347.1450756 -142.84375 345.421875 C-141.80226807 345.26283691 -140.76078613 345.10379883 -139.68774414 344.93994141 C-98.11154111 338.89164685 -53.33930909 341.81041682 -13.43139648 354.96704102 C-10.4935734 355.91204317 -10.4935734 355.91204317 -6.65625 355.734375 C-6.65478344 355.17630535 -6.65331688 354.6182357 -6.65180588 354.04325485 C-6.6147539 340.46405777 -6.55550793 326.88511372 -6.47234726 313.30611801 C-6.4328033 306.73938737 -6.40064867 300.17279222 -6.38525391 293.60595703 C-6.37013307 287.27103301 -6.33576856 280.93648131 -6.28794098 274.60172272 C-6.27307998 272.1823983 -6.2652063 269.76302073 -6.26436615 267.34365082 C-6.262009 263.96013988 -6.23502898 260.57766846 -6.20214844 257.19433594 C-6.20969398 255.68706184 -6.20969398 255.68706184 -6.21739197 254.14933777 C-6.11507638 247.36418128 -6.11507638 247.36418128 -3.74713135 244.11383057 C-1.4906322 242.62510892 -0.33713146 242.19248623 2.34375 242.234375 C3.33375 242.21890625 3.33375 242.21890625 4.34375 242.203125 C7.46318915 243.03172602 8.42452635 244.09995997 10.34375 246.734375 C10.96596017 250.2127276 10.90729918 253.66848085 10.88964844 257.19433594 C10.89998611 258.25805923 10.91032379 259.32178253 10.92097473 260.41773987 C10.95048036 263.93489635 10.95190359 267.4514793 10.953125 270.96875 C10.96810133 273.40685123 10.98482732 275.84494228 11.00323486 278.28302002 C11.04698155 284.70111549 11.06692386 291.1190741 11.08197021 297.53729248 C11.10151479 304.08614215 11.1434878 310.63484343 11.18359375 317.18359375 C11.25897527 330.03380396 11.30998027 342.88399153 11.34375 355.734375 C15.3993872 355.17304094 19.30874979 354.57911752 23.25 353.46484375 C24.14686523 353.21766602 25.04373047 352.97048828 25.96777344 352.71582031 C26.9168457 352.45381836 27.86591797 352.19181641 28.84375 351.921875 C36.87748534 349.77214755 44.90025021 347.91430638 53.09375 346.484375 C53.94130859 346.33379639 54.78886719 346.18321777 55.66210938 346.02807617 C71.34129316 343.41242839 86.96326262 342.35154512 102.84375 342.421875 C103.70815704 342.42369781 104.57256409 342.42552063 105.46316528 342.42739868 C133.92189676 342.52770327 162.02493945 346.15457735 189.2109375 354.81640625 C192.27948644 355.87497222 192.27948644 355.87497222 195.34375 355.734375 C194.70651827 346.43777762 193.22217436 337.3198607 191.67578125 328.14306641 C191.40105182 326.49446271 191.1266782 324.84579969 190.85263062 323.19708252 C190.11250259 318.75064225 189.36738032 314.30505231 188.62127304 309.85961199 C187.83949535 305.19662403 187.06222734 300.53288437 186.28442383 295.86923218 C184.97907567 288.04632416 183.67076385 280.22391673 182.36035156 272.40185547 C180.51263252 261.37247251 178.67053928 250.34215524 176.82943916 239.31166577 C175.55228384 231.66118951 174.27379675 224.01093572 172.99505234 216.36072493 C172.685408 214.50821761 172.37579964 212.65570428 172.06622696 210.80318499 C171.18442165 205.52666478 170.30178357 200.25028525 169.41780472 194.97412872 C169.15026626 193.37660847 168.88299435 191.77904356 168.61600876 190.18143082 C168.25151112 188.00067964 167.88602039 185.82009719 167.52026367 183.63955688 C167.21387215 181.80956618 167.21387215 181.80956618 166.90129089 179.94260597 C166.4239698 177.19597998 165.90665653 174.46454668 165.34375 171.734375 C162.37375 171.734375 159.40375 171.734375 156.34375 171.734375 C153.23910274 176.87921903 150.94523567 181.69968757 149.09375 187.421875 C144.67499415 200.18258115 137.20610717 209.67311182 127.34375 218.734375 C126.33827667 219.72887155 125.33571826 220.72640725 124.34375 221.734375 C125.08431641 223.37986328 125.08431641 223.37986328 125.83984375 225.05859375 C126.4872456 226.51290226 127.13436624 227.96733597 127.78125 229.421875 C128.26948242 230.5037207 128.26948242 230.5037207 128.76757812 231.60742188 C132.56819658 240.18819963 133.56182217 247.61723014 130.2421875 256.6015625 C127.29312316 263.60238481 122.80227298 267.08287121 116.34375 270.734375 C109.65881804 272.96268565 100.81271086 272.85119597 94.296875 269.9765625 C90.87184996 267.79824658 88.0157065 265.0208777 85.12890625 262.18359375 C77.99367488 255.90899337 70.40272808 252.31364542 61.59375 248.921875 C48.97925756 243.84090429 36.62362633 238.6469297 30.34375 225.734375 C29.89728097 224.4248988 29.45893109 223.11260726 29.03125 221.796875 C27.71065712 218.67550844 27.71065712 218.67550844 25.48046875 217.89453125 C23.10319764 217.3320336 20.76840109 217.0239432 18.34375 216.734375 C17.61671875 216.54488281 16.8896875 216.35539062 16.140625 216.16015625 C12.35505345 215.30908351 10.16828676 215.31852168 6.6484375 217.09375 C4.75633024 218.32704554 2.88394799 219.59107029 1.03125 220.8828125 C-9.97285639 228.46412998 -23.5525109 230.33984402 -36.5546875 228.046875 C-48.88422121 225.41148813 -59.04708931 220.18308151 -67.65625 210.734375 C-68.22291382 209.61760376 -68.22291382 209.61760376 -68.80102539 208.47827148 C-70.21450346 205.80042085 -71.4482818 203.81805359 -73.65625 201.734375 C-78.00999707 200.69336174 -82.15791238 201.08191643 -86.59375 201.421875 C-105.88064043 202.15101198 -122.35144752 197.63159247 -137.39453125 184.92578125 C-141.66632147 180.7867928 -145.97816124 176.09055252 -148.65625 170.734375 C-151.54060938 170.734375 -154.07804168 170.85728056 -156.90625 171.234375 Z M-194.65625 193.734375 C-196.15523834 197.97200473 -197.2264823 202.13011808 -198.08468628 206.54066467 C-198.21424654 207.20067693 -198.3438068 207.86068918 -198.47729313 208.54070181 C-198.90776359 210.73873359 -199.3325399 212.93782574 -199.75732422 215.13696289 C-200.06605422 216.71958475 -200.37513524 218.30213817 -200.68453979 219.8846283 C-201.52297192 224.17823981 -202.35645837 228.47279811 -203.18904257 232.76754689 C-204.06519488 237.28262796 -204.94583124 241.79683433 -205.82595825 246.31114197 C-207.30633994 253.90752439 -208.7838409 261.50446223 -210.25927734 269.10180664 C-212.32659321 279.74685923 -214.39884995 290.39094523 -216.47223639 301.03481686 C-218.77508391 312.85775049 -221.07616072 324.68102931 -223.37545776 336.50465393 C-223.53802704 337.34045669 -223.70059632 338.17625946 -223.86809194 339.03738958 C-224.64846102 343.05113696 -225.42716627 347.06519352 -226.20205498 351.08000278 C-226.49011176 352.57190777 -226.77820748 354.06380523 -227.06634521 355.55569458 C-227.27207073 356.62103968 -227.27207073 356.62103968 -227.48195231 357.7079069 C-228.31041146 361.98562235 -229.16322664 366.25766725 -230.03375244 370.52706909 C-230.23087893 371.50973723 -230.42800541 372.49240538 -230.63110542 373.50485134 C-230.97714719 375.22609807 -231.33093144 376.9458207 -231.69517326 378.66330814 C-232.55074688 382.96416778 -233.05616802 386.53053755 -231.65625 390.734375 C-228.87490653 393.57296518 -227.22844068 394.65142466 -223.26111889 395.22656631 C-221.95309464 395.22287914 -220.6450704 395.21919197 -219.29740906 395.21539307 C-218.20069239 395.22051962 -218.20069239 395.22051962 -217.08181983 395.22574973 C-214.63707143 395.23232731 -212.19342617 395.21035585 -209.7487793 395.18847656 C-207.99436977 395.18734805 -206.23995835 395.18798201 -204.48554993 395.19024658 C-199.7255017 395.19139452 -194.96585642 395.16787224 -190.20590186 395.13995075 C-185.23045375 395.11495046 -180.25499647 395.11259618 -175.27949524 395.10784912 C-165.85892533 395.09541532 -156.43854104 395.06258819 -147.01805288 395.02245116 C-136.29265329 394.97774608 -125.56724485 394.95574958 -114.8417753 394.93566942 C-92.77982992 394.89385596 -70.71805165 394.82349598 -48.65625 394.734375 C-48.32133426 391.883249 -47.99133269 389.03169286 -47.6640625 386.1796875 C-47.56971924 385.38087158 -47.47537598 384.58205566 -47.37817383 383.7590332 C-46.65427786 377.39978565 -46.43034525 371.13500946 -46.65625 364.734375 C-90.08702911 355.15405608 -137.16443679 358.42583961 -179.48803711 371.4987793 C-186.2900033 373.56128145 -193.18596732 375.58246227 -199.90625 372.109375 C-203.72987952 369.95341887 -205.7532656 367.76870193 -207.65625 363.734375 C-209.30598318 355.37926374 -207.81200185 347.63576938 -206.38305664 339.36401367 C-206.12599682 337.82257309 -205.8700192 336.28095171 -205.61503601 334.73916626 C-204.92323852 330.57448748 -204.2166534 326.4124396 -203.50748754 322.25068831 C-202.76699599 317.88856222 -202.04086388 313.52404821 -201.31333923 309.15974426 C-199.93445293 300.90065764 -198.54376787 292.64360677 -197.14832157 284.38730365 C-194.64757848 269.58838518 -192.16916265 254.7857136 -189.69177717 239.98286992 C-188.82209587 234.78906452 -187.94796047 229.59603353 -187.07001317 224.40361917 C-186.52515305 221.17845359 -185.98280824 217.95286824 -185.44098091 214.72719193 C-185.18897414 213.23060227 -184.93582906 211.73420379 -184.68146896 210.23801231 C-184.3346943 208.19754726 -183.99189839 206.15645159 -183.65003967 204.11515808 C-183.45700791 202.97276263 -183.26397615 201.83036718 -183.06509495 200.65335369 C-182.56377641 197.56539833 -182.56377641 197.56539833 -182.65625 193.734375 C-186.61625 193.734375 -190.57625 193.734375 -194.65625 193.734375 Z M187.34375 193.734375 C188.570656 204.11215482 190.03421173 214.41445429 191.78979492 224.71850586 C192.02848486 226.13476222 192.26684208 227.55107469 192.50489807 228.96743774 C193.01172683 231.98004035 193.52040464 234.99232238 194.03047752 238.00437737 C194.8378668 242.77496596 195.63816196 247.54672857 196.43708801 252.31874084 C198.70746544 265.87522631 200.98161192 279.43105336 203.27514648 292.98364258 C204.54660665 300.49710182 205.80936425 308.01196892 207.06238824 315.52852541 C207.72365342 319.49297676 208.38935859 323.45656581 209.06590843 327.41843987 C209.70098434 331.13756306 210.32464889 334.8584233 210.9398098 338.58089066 C211.27412272 340.58545632 211.6205015 342.58799819 211.96731567 344.59043884 C213.25975766 352.49712725 214.30696001 359.57236979 210.78125 367.046875 C206.71443965 371.5307941 202.82273506 373.52507473 196.78125 374.03515625 C191.2998309 373.91351588 186.29288894 372.15291546 181.09375 370.546875 C139.43443078 358.33552968 93.90747618 355.46796146 51.34375 364.734375 C51.08831522 371.97169366 51.50367367 379.00050921 52.3515625 386.1796875 C52.44638916 387.00605713 52.54121582 387.83242676 52.63891602 388.68383789 C52.870828 390.70103456 53.1068621 392.71775662 53.34375 394.734375 C76.4656747 394.82777846 99.58756834 394.89833468 122.70964336 394.94162369 C133.44540904 394.96225696 144.18105756 394.99039222 154.91674805 395.03613281 C164.27297999 395.0759771 173.62912708 395.10180225 182.98544151 395.11072898 C187.94047631 395.1159478 192.89526837 395.12822987 197.85022545 395.15729523 C202.51315902 395.18442623 207.17574965 395.19282467 211.83875465 395.18680573 C213.55082182 395.187907 215.26290034 395.19587472 216.97489929 395.2111969 C219.31199129 395.23108921 221.64778729 395.22631783 223.98490906 395.21539307 C225.2929333 395.21908024 226.60095755 395.22276741 227.94861889 395.22656631 C231.9916502 394.64044907 233.62403501 393.76759206 236.34375 390.734375 C237.71147595 386.29921835 237.21326977 382.68618838 236.32749939 378.18519592 C236.20599709 377.55265709 236.08449478 376.92011825 235.95931059 376.26841158 C235.55169911 374.16003243 235.1292656 372.05490918 234.70678711 369.94946289 C234.41035579 368.43256882 234.11484754 366.91549411 233.82019043 365.39825439 C233.01711315 361.27701501 232.20115751 357.15841884 231.38293147 353.04016423 C230.52267191 348.69862247 229.6744067 344.35473836 228.82484436 340.01109314 C227.20763041 331.75214762 225.57982814 323.4953264 223.94815975 315.2392258 C222.11628339 305.96767496 220.29546167 296.69396598 218.4759444 287.41998303 C216.24663049 276.05741881 214.016046 264.69511099 211.77561951 253.33473206 C211.61717817 252.53108839 211.45873684 251.72744472 211.29549426 250.89944822 C210.36286178 246.16901457 210.36286178 246.16901457 209.4291867 241.43878663 C207.79093788 233.14365666 206.16813133 224.84604607 204.58474731 216.54025269 C204.30479585 215.07599136 204.02483324 213.61173217 203.74485874 212.14747524 C203.22145722 209.40896502 202.70321501 206.66954608 202.18793392 203.92949772 C201.95882604 202.72895473 201.72971815 201.52841173 201.4936676 200.29148865 C201.29465127 199.23729453 201.09563494 198.18310041 200.89058781 197.09696102 C200.57639442 194.79053778 200.57639442 194.79053778 199.34375 193.734375 C197.32410801 193.66193447 195.30207876 193.65060312 193.28125 193.671875 C191.70839233 193.6884314 191.70839233 193.6884314 190.10375977 193.70532227 C188.73755493 193.71970337 188.73755493 193.71970337 187.34375 193.734375 Z M-28.65625 368.734375 C-29.64625 380.284375 -30.63625 391.834375 -31.65625 403.734375 C-13.04974198 413.03762901 5.85665208 414.41111155 25.93359375 409 C30.07713466 407.5676188 30.07713466 407.5676188 36.34375 403.734375 C34.85875 386.409375 34.85875 386.409375 33.34375 368.734375 C26.07263036 370.55215491 19.87646317 372.15898764 13.15625 374.984375 C2.60827535 379.08361139 -3.5246332 377.09206621 -13.63476562 372.99511719 C-18.72159635 370.94872018 -23.12913269 369.96262329 -28.65625 368.734375 Z " fill="#f6f6f6" transform="translate(253.65625,78.265625)"/>
<path d="M0 0 C3.18533648 2.69528471 3.90100875 4.38405445 4.5625 8.5 C3.98751518 18.63889906 -1.33943841 27.65947389 -8 35 C-8.804375 35.886875 -9.60875 36.77375 -10.4375 37.6875 C-17.47691726 44.04014484 -26.00309064 50.67545032 -35.86328125 51.1328125 C-36.56839844 51.08898437 -37.27351563 51.04515625 -38 51 C-38.2784375 52.2065625 -38.2784375 52.2065625 -38.5625 53.4375 C-42.68173001 63.64602656 -51.19779025 71.59019802 -61.1875 75.875 C-67.73423505 78.4662372 -73.95885959 79.73982997 -81 79 C-85.54054054 76.91891892 -85.54054054 76.91891892 -87 74 C-87.6806846 67.0797066 -87.6806846 67.0797066 -85.1875 63.125 C-81.35389141 60.56926094 -78.28969788 60.16885651 -73.79296875 59.51953125 C-68.83546847 58.59736686 -64.48224142 56.83932686 -61.28125 52.8671875 C-60.8584375 52.25101563 -60.435625 51.63484375 -60 51 C-60.83402344 50.72027344 -61.66804688 50.44054687 -62.52734375 50.15234375 C-70.13314736 47.44283067 -76.00766436 44.40558611 -82 39 C-82.99 38.154375 -83.98 37.30875 -85 36.4375 C-87.43478807 33.47010204 -88 31.83266674 -88 28 C-86.83893875 24.82235869 -85.87802343 22.72123353 -83.25 20.5625 C-79.68767474 19.67191869 -77.56945388 20.00523416 -74 21 C-71.6419326 22.62011106 -69.47099377 24.38841744 -67.26953125 26.21484375 C-59.40243824 32.40290142 -50.84300758 33.93004796 -41 33 C-31.06718461 30.55008307 -23.89861088 26.33958849 -18.40234375 17.6796875 C-16.24808305 13.56318934 -14.79580813 9.23536145 -13.37109375 4.8203125 C-10.46561324 -1.15620298 -6.04491604 -1.75852103 0 0 Z " fill="#f6f6f6" transform="translate(312,175)"/>
<path d="M0 0 C2.44782948 1.90386737 3.42307625 2.77307451 4.25 5.75 C4.1162555 9.49484612 3.92434146 11.88480719 1.59375 14.875 C-1.29891722 17.18913378 -3.49454327 17.60684216 -7.125 18.25 C-14.51234182 19.80349023 -19.27989135 22.05701319 -23.66015625 28.48046875 C-25.54387269 32.40319009 -26.21350369 36.59813747 -26.9765625 40.859375 C-27.77160305 43.83073866 -28.34520452 44.91893745 -30.75 46.75 C-33.5298816 48.1399408 -35.6686326 47.93488204 -38.75 47.75 C-41.35979091 46.8800697 -42.40990286 46.31275066 -43.8359375 43.953125 C-46.7017403 37.04580543 -44.52757477 29.36326847 -42.078125 22.64453125 C-37.53406795 12.74115986 -28.97875884 4.56971605 -18.75 0.75 C-12.61691841 -0.92352304 -5.98839523 -2.72199783 0 0 Z " fill="#f6f6f6" transform="translate(233.75,141.25)"/>
<path d="M0 0 C5.01905036 4.22996669 6.80400883 9.81989351 9.25 15.75 C9.70890625 16.80960938 10.1678125 17.86921875 10.640625 18.9609375 C13.1127127 24.89100503 14.79366692 29.56247944 14 36 C12.00647547 38.99028679 10.59744505 40.57809415 7.0625 41.51171875 C3.2625 41.83558239 3.2625 41.83558239 1 41 C-4.2409558 36.00497902 -6.63442519 29.72327542 -9.375 23.125 C-9.83777344 22.07441406 -10.30054688 21.02382813 -10.77734375 19.94140625 C-13.35762321 13.78724717 -14.82823282 9.52619174 -13 3 C-8.73887603 -1.15966864 -5.6575941 -1.67632418 0 0 Z " fill="#f6f6f6" transform="translate(179,12)"/>
<path d="M0 0 C2 2.1875 2 2.1875 3 5 C2.67615711 11.90247988 -0.1547338 17.88718727 -2.8125 24.1875 C-3.25142578 25.26708984 -3.69035156 26.34667969 -4.14257812 27.45898438 C-4.57634766 28.49732422 -5.01011719 29.53566406 -5.45703125 30.60546875 C-5.84866455 31.54543701 -6.24029785 32.48540527 -6.64379883 33.45385742 C-8.12636389 36.23723655 -9.55540914 38.01121424 -12 40 C-16.93332128 40.70476018 -18.84437903 40.77041398 -23 38 C-25.53656633 34.1951505 -25.65708584 31.39579887 -25 27 C-23.69238784 22.79302606 -21.9996695 18.78996721 -20.25 14.75 C-19.8065625 13.67492187 -19.363125 12.59984375 -18.90625 11.4921875 C-14.28200853 0.58441791 -14.28200853 0.58441791 -9.1875 -1.875 C-5.73168434 -2.07247518 -3.19840677 -1.27936271 0 0 Z " fill="#f6f6f6" transform="translate(344,13)"/>
<path d="M0 0 C1.75 1.1875 1.75 1.1875 3.75 4.1875 C4.47727273 9.82386364 4.47727273 9.82386364 3.75 12.1875 C-1.22748263 17.46278074 -7.57902437 19.82934028 -14.1875 22.5625 C-15.24646484 23.02527344 -16.30542969 23.48804688 -17.39648438 23.96484375 C-27.19287501 28.05940502 -27.19287501 28.05940502 -33.25 26.1875 C-36.21326994 24.08201873 -37.08222327 22.71320041 -38.1875 19.25 C-38.26427198 15.48817313 -37.46063295 14.19471497 -35.25 11.1875 C-31.50422192 8.69643516 -27.36139612 6.99814796 -23.25 5.1875 C-22.61288086 4.90664551 -21.97576172 4.62579102 -21.31933594 4.33642578 C-6.21148918 -2.24303776 -6.21148918 -2.24303776 0 0 Z " fill="#f6f6f6" transform="translate(458.25,127.8125)"/>
<path d="M0 0 C4.0661495 1.3954254 7.95867342 3.10714414 11.875 4.875 C13.421875 5.54595703 13.421875 5.54595703 15 6.23046875 C23.57459502 10.02523077 23.57459502 10.02523077 26 13 C27.16464768 16.74351039 27.1676593 18.54114296 25.8125 22.25 C23.19385516 26.22311631 23.19385516 26.22311631 20 27 C12.3247566 26.70376254 6.05947803 23.74791736 -0.875 20.625 C-2.58429687 19.8825 -2.58429687 19.8825 -4.328125 19.125 C-12.74131749 15.38802376 -12.74131749 15.38802376 -15 12 C-15.6779661 4.88135593 -15.6779661 4.88135593 -13.125 1.5625 C-8.74742562 -1.65630469 -5.14768668 -1.07908124 0 0 Z " fill="#f6f6f6" transform="translate(65,128)"/>
<path d="M0 0 C2.9764653 2.66315316 3.87581279 4.40164343 4.6875 8.3125 C3.69104076 13.65714502 0.82217392 16.29750276 -3 20 C-3.58652344 20.60714844 -4.17304688 21.21429688 -4.77734375 21.83984375 C-7.77989354 24.73345749 -9.42545324 25.90094021 -13.625 26.625 C-17.60801384 25.88740485 -19.3018166 25.01561674 -22 22 C-23.20233739 18.54328001 -23.21066813 16.67714756 -22.125 13.1875 C-17.02509651 5.53764477 -10.03714748 -3.20334494 0 0 Z " fill="#f6f6f6" transform="translate(407,63)"/>
<path d="M0 0 C2.92636721 2.0828849 5.45579268 4.47146542 8 7 C8.80244141 7.75023438 8.80244141 7.75023438 9.62109375 8.515625 C12.20837796 11.1835328 13.36590827 13.42157936 13.625 17.0625 C13 21 13 21 10.9375 24 C8 26 8 26 4.6875 26.75 C-0.62892726 25.66869276 -3.30055568 22.81902232 -7 19 C-7.60714844 18.41347656 -8.21429688 17.82695313 -8.83984375 17.22265625 C-11.73345749 14.22010646 -12.90094021 12.57454676 -13.625 8.375 C-12.90194558 4.47050614 -11.83049436 2.74962309 -9 0 C-5.26121635 -1.24626122 -3.78878042 -1.14378277 0 0 Z " fill="#f6f6f6" transform="translate(114,63)"/>
<path d="M0 0 C2.43119623 1.87015094 3.64069173 3.28138345 5 6 C5.20353342 8.45693908 5.32340647 10.85242653 5.375 13.3125 C5.42398437 14.62863281 5.47296875 15.94476563 5.5234375 17.30078125 C4.87784248 21.86330725 3.63404816 23.25624158 0 26 C-2.0625 26.6640625 -2.0625 26.6640625 -4 26.625 C-4.639375 26.63789063 -5.27875 26.65078125 -5.9375 26.6640625 C-9.31747428 25.5758132 -10.84111426 23.77254162 -13 21 C-13.59375 17.40625 -13.59375 17.40625 -13.5 13.5 C-13.4896875 12.2109375 -13.479375 10.921875 -13.46875 9.59375 C-12.98678806 5.89870848 -12.23839976 3.94064282 -10 1 C-6.80766515 -0.59616743 -3.46538503 -0.51466114 0 0 Z " fill="#f6f6f6" transform="translate(260,4)"/>
</svg>
