<?xml version="1.0" encoding="UTF-8"?>
<svg version="1.1" xmlns="http://www.w3.org/2000/svg" width="512" height="512">
<path d="M0 0 C5.49512977 4.09533767 7.95061606 9.09683029 9.26953125 15.69140625 C9.26953125 21.63140625 9.26953125 27.57140625 9.26953125 33.69140625 C58.43953125 33.69140625 107.60953125 33.69140625 158.26953125 33.69140625 C158.26953125 28.08140625 158.26953125 22.47140625 158.26953125 16.69140625 C159.79945998 9.65373408 161.16162635 4.40488472 167.3984375 0.28515625 C173.32261998 -3.05241134 178.50525092 -4.50424396 185.26953125 -3.30859375 C191.65624533 -1.20578771 196.17612612 2.53116967 199.89453125 8.14453125 C201.83843602 13.15892196 201.59097288 17.74308505 201.45703125 23.06640625 C201.44349609 24.08863281 201.42996094 25.11085938 201.41601562 26.1640625 C201.38083342 28.67372674 201.33160664 31.18228715 201.26953125 33.69140625 C201.91717941 33.68696503 202.56482758 33.6825238 203.23210144 33.677948 C210.0302813 33.63337709 216.828419 33.60340102 223.62670898 33.58154297 C226.1569996 33.57154373 228.68727884 33.55793996 231.2175293 33.54052734 C234.87421494 33.51601003 238.53074657 33.50486201 242.1875 33.49609375 C243.30158737 33.48577118 244.41567474 33.47544861 245.56352234 33.46481323 C263.5508044 33.46229763 278.20101738 37.11210846 291.390625 49.71875 C305.06435069 64.01283375 306.42232233 80.88176192 306.41479492 99.67871094 C306.41779172 101.1792967 306.42119544 102.6798817 306.42497253 104.1804657 C306.4337581 108.23179631 306.43614818 112.28310578 306.43678832 116.334445 C306.43750127 118.86778417 306.43964008 121.40111803 306.44228554 123.93445587 C306.45151689 132.77775919 306.4556227 141.62104749 306.45483398 150.46435547 C306.45423194 158.70157892 306.46481422 166.93873716 306.48057765 175.17594409 C306.49364845 182.25895074 306.49901816 189.34193603 306.49837857 196.42495465 C306.4981237 200.65094888 306.50096995 204.87688494 306.51155663 209.10286713 C306.52123127 213.07231054 306.52132119 217.04164001 306.51403999 221.01108742 C306.51299376 222.46674834 306.51535932 223.92241635 306.52140045 225.37806511 C306.5291167 227.36610374 306.52327785 229.35418117 306.51676941 231.34222412 C306.51731418 232.4542004 306.51785894 233.56617668 306.51842022 234.71184921 C306.25972213 237.80883539 305.71364752 239.94600124 304.26953125 242.69140625 C300.54894765 245.17179532 298.67156554 245.15477828 294.26953125 244.69140625 C292.07525635 243.35040283 292.07525635 243.35040283 290.26953125 240.69140625 C289.67957115 237.05450008 289.76514934 233.44915879 289.81542969 229.77246094 C289.81484558 228.65996979 289.81426147 227.54747864 289.81365967 226.40127563 C289.81644788 222.72162753 289.84757628 219.04278797 289.87890625 215.36328125 C289.88636598 212.81309451 289.89206017 210.26290204 289.89605713 207.71270752 C289.9097727 201.68488088 289.94130243 195.65740167 289.98145509 189.62971425 C290.02618052 182.76643162 290.04816171 175.90313505 290.06823683 169.03974295 C290.11003564 154.92346991 290.18038277 140.80745398 290.26953125 126.69140625 C289.68959412 126.7002887 289.10965698 126.70917114 288.512146 126.71832275 C282.47776137 126.80679654 276.44356087 126.86714047 270.40869141 126.91113281 C268.15633664 126.93125181 265.90403412 126.95855033 263.65185547 126.99316406 C260.41490794 127.04166834 257.17865078 127.0643723 253.94140625 127.08203125 C252.93398376 127.10267639 251.92656128 127.12332153 250.88861084 127.14459229 C243.90051903 127.14683671 243.90051903 127.14683671 240.63793945 124.79199219 C239.1743852 122.54535155 238.70183178 121.35353236 238.70703125 118.69140625 C238.68511719 118.03140625 238.66320312 117.37140625 238.640625 116.69140625 C239.67784157 113.3929287 241.32971497 112.48105966 244.26953125 110.69140625 C247.790829 110.13918943 251.26357776 110.22588301 254.8203125 110.30078125 C255.83425583 110.30644104 256.84819916 110.31210083 257.89286804 110.31793213 C261.12307461 110.34027627 264.35216142 110.39047027 267.58203125 110.44140625 C269.77537458 110.46147373 271.96873533 110.47972407 274.16210938 110.49609375 C279.53163038 110.54013446 284.9005008 110.60702709 290.26953125 110.69140625 C290.15798862 106.75340735 290.02777388 102.81622593 289.89453125 98.87890625 C289.848125 97.22858398 289.848125 97.22858398 289.80078125 95.54492188 C289.27851821 80.79099103 287.2403159 69.18911805 276.26953125 58.69140625 C266.92215514 50.89856137 254.74437503 50.24508041 243.06640625 50.1796875 C241.86260315 50.1617363 240.65880005 50.1437851 239.41851807 50.12528992 C235.61889017 50.07162765 231.81938465 50.03743295 228.01953125 50.00390625 C225.42446229 49.97069429 222.8294094 49.93620112 220.234375 49.90039062 C213.91287033 49.81592691 207.59134891 49.74739279 201.26953125 49.69140625 C201.29047852 50.31595703 201.31142578 50.94050781 201.33300781 51.58398438 C201.41688969 54.45295685 201.46841636 57.32167033 201.51953125 60.19140625 C201.55304688 61.17367187 201.5865625 62.1559375 201.62109375 63.16796875 C201.70672792 69.59053159 200.95695951 74.33580411 197.26953125 79.69140625 C195.234375 81.75 195.234375 81.75 193.20703125 83.12890625 C192.53542969 83.60199219 191.86382812 84.07507813 191.171875 84.5625 C185.97867717 87.64429502 180.10627188 87.21730547 174.26953125 86.69140625 C168.40538853 85.01456805 164.63386694 81.78597172 161.26953125 76.69140625 C156.58495941 68.21006448 158.26953125 59.40752115 158.26953125 49.69140625 C109.09953125 49.69140625 59.92953125 49.69140625 9.26953125 49.69140625 C9.26953125 55.96140625 9.26953125 62.23140625 9.26953125 68.69140625 C6.30371463 76.60025057 4.24094621 80.68862908 -2.29296875 85.62890625 C-8.94968363 87.6864363 -16.67160813 88.00774756 -23.16796875 85.19140625 C-28.26417414 82.17903061 -31.87638542 77.25365624 -33.73046875 71.69140625 C-33.81224989 69.99123781 -33.83796376 68.28804328 -33.828125 66.5859375 C-33.82329102 65.11157227 -33.82329102 65.11157227 -33.81835938 63.60742188 C-33.80579102 62.07118164 -33.80579102 62.07118164 -33.79296875 60.50390625 C-33.78845703 59.46814453 -33.78394531 58.43238281 -33.77929688 57.36523438 C-33.76750885 54.80723359 -33.7510539 52.24934892 -33.73046875 49.69140625 C-41.23800938 49.78419465 -48.74524289 49.89156415 -56.25244141 50.00878906 C-58.80317528 50.04693209 -61.35396025 50.08180982 -63.90478516 50.11328125 C-67.58384389 50.15925153 -71.26255526 50.21719265 -74.94140625 50.27734375 C-76.07097748 50.28889496 -77.20054871 50.30044617 -78.36434937 50.31234741 C-91.3586085 50.55133315 -102.02077398 52.61459859 -111.8359375 61.55859375 C-118.31786379 68.85577262 -120.81252987 76.55656199 -121.046875 86.08203125 C-121.0676561 86.7866449 -121.08843719 87.49125854 -121.10984802 88.21722412 C-121.17500712 90.45852306 -121.23407123 92.69993489 -121.29296875 94.94140625 C-121.33618601 96.46485522 -121.37980132 97.98829296 -121.42382812 99.51171875 C-121.53065366 103.23816216 -121.63201514 106.96473119 -121.73046875 110.69140625 C-121.01467392 110.69064681 -120.29887908 110.68988737 -119.5613935 110.68910491 C-77.16591451 110.644378 -34.77043826 110.61004793 7.62505956 110.58927559 C12.71211657 110.58677409 17.79917353 110.58418545 22.88623047 110.58154297 C24.40538422 110.58075604 24.40538422 110.58075604 25.95522794 110.57995321 C42.36781051 110.57124345 58.78037911 110.55547034 75.19295338 110.53710066 C92.02563654 110.51841747 108.85831237 110.50729288 125.69100547 110.50322926 C136.08309413 110.50048091 146.47514332 110.49179111 156.86721984 110.47557332 C163.98717929 110.46502594 171.10711826 110.46180051 178.22708496 110.4644035 C182.33889865 110.4656883 186.4506432 110.46367724 190.56244469 110.4529953 C194.32398384 110.44329434 198.08540708 110.4427507 201.84695145 110.44960846 C203.85814801 110.45085951 205.86934312 110.44220543 207.88052011 110.43324363 C209.66377305 110.43921678 209.66377305 110.43921678 211.4830513 110.44531059 C213.02547528 110.44417143 213.02547528 110.44417143 214.59905934 110.44300926 C217.34270117 110.69821223 218.95686238 111.22602213 221.26953125 112.69140625 C223.35112145 115.36773651 223.26540716 116.80894293 223.14453125 120.25390625 C222.26953125 123.69140625 222.26953125 123.69140625 220.57747483 125.38317853 C217.68112078 127.02493905 215.79049902 127.06422028 212.46743393 127.06054974 C211.27511524 127.06652288 210.08279655 127.07249603 208.85434699 127.07865018 C206.88744041 127.06554239 206.88744041 127.06554239 204.88079834 127.0521698 C203.47491222 127.05347773 202.06902681 127.05610392 200.6631453 127.0599373 C196.79555425 127.06665673 192.92821165 127.0546297 189.06065226 127.03960311 C184.89163113 127.02666795 180.72262441 127.03103042 176.55358887 127.03330994 C169.32902446 127.03488427 162.10454124 127.02545837 154.87999725 127.00859642 C144.43448603 126.98423264 133.98901412 126.97640384 123.54347757 126.97263245 C106.59699664 126.96606384 89.65055899 126.94609159 72.70410156 126.91772461 C56.2405621 126.89019462 39.77703439 126.86895585 23.31347656 126.85620117 C22.29894896 126.855413 21.28442136 126.85462483 20.23915049 126.85381278 C15.14964888 126.84989771 10.06014718 126.84610658 4.97064543 126.84237707 C-37.26308928 126.81126843 -79.49677678 126.7584215 -121.73046875 126.69140625 C-121.72770337 127.46408907 -121.72493799 128.23677189 -121.72208881 129.03286934 C-121.65582666 147.83668967 -121.60618703 166.64048669 -121.57503223 185.44439888 C-121.55956543 194.53784504 -121.53847947 203.63121325 -121.50415039 212.72460938 C-121.47424233 220.65070647 -121.45489239 228.5767471 -121.44820327 236.50289905 C-121.44429339 240.69948431 -121.43510854 244.89590807 -121.41327858 249.09244156 C-121.39289118 253.04373517 -121.38663948 256.99480098 -121.39114571 260.9461422 C-121.39032151 262.39493613 -121.38436916 263.8437378 -121.37285233 265.29248619 C-121.35787477 267.2740462 -121.36331466 269.25572889 -121.3697052 271.23733521 C-121.36693982 272.34533037 -121.36417444 273.45332554 -121.36132526 274.59489632 C-121.78984823 278.18950293 -122.86918798 280.60278387 -124.73046875 283.69140625 C-127.82220627 285.23727501 -130.32476427 284.98500146 -133.73046875 284.69140625 C-135.92528534 283.18330383 -135.92528534 283.18330383 -137.73046875 280.69140625 C-138.12330168 277.83490824 -138.27116159 275.36408165 -138.23840332 272.50854492 C-138.24776326 271.26042621 -138.24776326 271.26042621 -138.2573123 269.98709297 C-138.27328788 267.19423346 -138.26061998 264.40224124 -138.24804688 261.609375 C-138.2534663 259.60857127 -138.26058794 257.60777153 -138.26928711 255.60697937 C-138.28755411 250.16640225 -138.28043645 244.7261279 -138.26777077 239.28554535 C-138.25764941 233.58830443 -138.26703509 227.89108958 -138.27331543 222.19384766 C-138.28059908 212.61697742 -138.27099024 203.04023043 -138.25195312 193.46337891 C-138.23023274 182.40942869 -138.23719773 171.35577416 -138.25925875 160.30183125 C-138.27745169 150.80437608 -138.27995055 141.30700963 -138.26950407 131.80954266 C-138.26328414 126.14066926 -138.26239117 120.47193443 -138.27565002 114.80307007 C-138.28726273 109.4645142 -138.27908403 104.12633616 -138.256073 98.78782082 C-138.25081263 96.8352197 -138.25225351 94.88258645 -138.26112366 92.9299984 C-138.33315707 75.45231678 -135.31154735 61.70473447 -123.04296875 48.44140625 C-109.2146143 35.41547082 -93.17079169 33.51127856 -75.0390625 33.59375 C-73.8532106 33.59516495 -72.6673587 33.5965799 -71.4455719 33.59803772 C-67.68634436 33.60360116 -63.92717806 33.61614685 -60.16796875 33.62890625 C-57.60742274 33.63392598 -55.04687579 33.63848805 -52.48632812 33.64257812 C-46.23435438 33.6535586 -39.98241594 33.67026002 -33.73046875 33.69140625 C-33.76974487 32.75458008 -33.76974487 32.75458008 -33.80981445 31.79882812 C-33.91466334 28.92995024 -33.97906769 26.06147666 -34.04296875 23.19140625 C-34.08486328 22.20914063 -34.12675781 21.226875 -34.16992188 20.21484375 C-34.28395785 13.37268542 -33.18856638 8.96200899 -28.73046875 3.69140625 C-20.44705209 -4.82578897 -10.25736073 -5.66981672 0 0 Z M-16.39860535 13.87084961 C-18.16381024 16.28375132 -18.10484596 17.78189095 -18.1027832 20.7578125 C-18.10901199 21.78898193 -18.11524078 22.82015137 -18.12165833 23.88256836 C-18.11244858 24.99510986 -18.10323883 26.10765137 -18.09375 27.25390625 C-18.0942485 28.39674072 -18.09474701 29.5395752 -18.09526062 30.71704102 C-18.09291888 33.13462054 -18.08318459 35.55220244 -18.06665039 37.96972656 C-18.04306263 41.67665336 -18.04608839 45.38286102 -18.05273438 49.08984375 C-18.04715763 51.43620222 -18.04004777 53.78255765 -18.03125 56.12890625 C-18.03216141 57.24144775 -18.03307281 58.35398926 -18.03401184 59.50024414 C-18.02447983 60.53141357 -18.01494781 61.56258301 -18.00512695 62.625 C-18.00051956 63.53306396 -17.99591217 64.44112793 -17.99116516 65.37670898 C-17.87856061 67.96553587 -17.87856061 67.96553587 -15.73046875 70.69140625 C-12.77300383 71.27486101 -12.77300383 71.27486101 -9.73046875 70.69140625 C-6.93918991 67.81032995 -6.35522444 65.75715381 -6.3581543 61.80273438 C-6.35192551 60.83493042 -6.34569672 59.86712646 -6.33927917 58.86999512 C-6.34848892 57.83137329 -6.35769867 56.79275146 -6.3671875 55.72265625 C-6.36643974 54.11396667 -6.36643974 54.11396667 -6.36567688 52.47277832 C-6.36801609 50.20660549 -6.37773558 47.94043 -6.39428711 45.67431641 C-6.41787961 42.2045164 -6.4148466 38.73548484 -6.40820312 35.265625 C-6.41377998 33.0637975 -6.42088991 30.86197324 -6.4296875 28.66015625 C-6.42877609 27.62153442 -6.42786469 26.5829126 -6.42692566 25.51281738 C-6.43645767 24.54501343 -6.44598969 23.57720947 -6.45581055 22.58007812 C-6.46041794 21.73054565 -6.46502533 20.88101318 -6.46977234 20.0057373 C-6.7586956 17.44082254 -7.30187618 15.83847195 -8.73046875 13.69140625 C-12.72427391 12.33514448 -12.72427391 12.33514448 -16.39860535 13.87084961 Z M176.58203125 14.06640625 C174.31497562 16.87323703 174.13739078 18.70754694 174.10839844 22.24536133 C174.09879089 23.1900679 174.08918335 24.13477448 174.07928467 25.10810852 C174.07503479 26.13204208 174.07078491 27.15597565 174.06640625 28.2109375 C174.06070618 29.26165939 174.0550061 30.31238129 174.0491333 31.39494324 C174.03967473 33.62176504 174.03314593 35.84860089 174.02929688 38.07543945 C174.01960054 41.47957877 173.98858855 44.88311209 173.95703125 48.28710938 C173.95050039 50.44921516 173.94525024 52.61132527 173.94140625 54.7734375 C173.92905945 55.79129837 173.91671265 56.80915924 173.9039917 57.85786438 C173.83615936 64.8166763 173.83615936 64.8166763 177.26953125 70.69140625 C180.31206633 71.27486101 180.31206633 71.27486101 183.26953125 70.69140625 C185.82369048 68.13724702 185.52659122 67.19147501 185.54418945 63.64672852 C185.55372147 62.5954628 185.56325348 61.54419708 185.57307434 60.46107483 C185.57216293 59.32149826 185.57125153 58.18192169 185.5703125 57.0078125 C185.57459763 55.84136703 185.57888275 54.67492157 185.58329773 53.47312927 C185.58904927 51.00251923 185.58953527 48.53189224 185.58520508 46.0612793 C185.58204715 42.27298183 185.60548811 38.48546633 185.63085938 34.69726562 C185.6331324 32.30078224 185.63383585 29.90429674 185.6328125 27.5078125 C185.64202225 26.37026016 185.65123199 25.23270782 185.66072083 24.0606842 C185.65137764 22.47905739 185.65137764 22.47905739 185.6418457 20.86547852 C185.64247513 19.93663345 185.64310455 19.00778839 185.64375305 18.05079651 C185.43941759 15.65176013 185.43941759 15.65176013 183.9962616 13.86802673 C181.30875228 12.03671675 179.11382425 12.00346381 176.58203125 14.06640625 Z " fill="#f6f6f6" transform="translate(137.73046875,15.30859375)"/>
<path d="M0 0 C2.44520151 1.91795493 4.7907288 3.90997101 7.125 5.9609375 C7.93066406 6.62351562 8.73632812 7.28609375 9.56640625 7.96875 C14.64714284 12.27823236 18.94367175 16.93741788 23.0625 22.1484375 C23.52325928 22.73061035 23.98401855 23.3127832 24.45874023 23.91259766 C31.21348215 32.70464277 31.21348215 32.70464277 31 38.1484375 C30.08235914 41.0979974 29.68826338 42.28155804 27.125 43.9609375 C23.73340745 44.99316132 21.94622094 45.34576084 18.69921875 43.82421875 C15.67889155 41.63803351 13.9344844 39.33053367 11.8125 36.2734375 C10.76642578 34.78263672 10.76642578 34.78263672 9.69921875 33.26171875 C9.17972656 32.50246094 8.66023437 31.74320312 8.125 30.9609375 C7.0194811 31.89684254 5.91564547 32.83473608 4.8125 33.7734375 C4.19761719 34.29550781 3.58273437 34.81757813 2.94921875 35.35546875 C1.11545623 36.90998498 1.11545623 36.90998498 -0.39453125 38.62890625 C-1.875 39.9609375 -1.875 39.9609375 -5.25 40.4609375 C-8.875 39.9609375 -8.875 39.9609375 -11.8125 37.8359375 C-13.875 34.9609375 -13.875 34.9609375 -14.625 32.1484375 C-13.64174475 27.96960267 -11.53088221 25.84886401 -8.6015625 22.79296875 C-6.69559101 20.87271966 -6.69559101 20.87271966 -4.875 17.9609375 C-21.91315868 5.47949568 -39.1280487 -1.25123737 -59.875 -5.0390625 C-59.82859375 -4.08644531 -59.7821875 -3.13382812 -59.734375 -2.15234375 C-59.69828125 -0.89808594 -59.6621875 0.35617187 -59.625 1.6484375 C-59.57859375 2.88980469 -59.5321875 4.13117188 -59.484375 5.41015625 C-59.94060144 9.55725462 -60.84275164 11.14073448 -63.875 13.9609375 C-65.875 14.58984375 -65.875 14.58984375 -67.875 14.5234375 C-68.535 14.52472656 -69.195 14.52601563 -69.875 14.52734375 C-72.8956882 13.67187541 -74.04041765 12.50581168 -75.875 9.9609375 C-76.1661521 7.22410779 -76.25822418 4.92153711 -76.125 2.2109375 C-76.10695313 1.51355469 -76.08890625 0.81617188 -76.0703125 0.09765625 C-76.02338554 -1.61517789 -75.95164605 -3.32730074 -75.875 -5.0390625 C-95.73284884 -0.98421876 -116.41101375 3.67573591 -130.875 18.9609375 C-130.39289063 19.41984375 -129.91078125 19.87875 -129.4140625 20.3515625 C-128.78242188 20.96515625 -128.15078125 21.57875 -127.5 22.2109375 C-126.87351562 22.81421875 -126.24703125 23.4175 -125.6015625 24.0390625 C-122.68841403 27.28175266 -121.84549225 29.11996677 -122 33.5234375 C-122.875 36.9609375 -122.875 36.9609375 -124.5 38.8984375 C-128.09618866 40.50725874 -129.94305267 40.66997718 -133.875 39.9609375 C-137.15492582 37.56366688 -140.02807754 34.85304921 -142.875 31.9609375 C-146.86300455 33.29027235 -148.05900307 35.80236865 -150.1875 39.2109375 C-150.58485352 39.84427002 -150.98220703 40.47760254 -151.39160156 41.13012695 C-159.8717132 54.90945005 -164.88506518 69.91307601 -166.875 85.9609375 C-165.53695313 85.92613281 -165.53695313 85.92613281 -164.171875 85.890625 C-162.41617187 85.86355469 -162.41617187 85.86355469 -160.625 85.8359375 C-159.46484375 85.81273437 -158.3046875 85.78953125 -157.109375 85.765625 C-154.02117029 85.95211079 -152.41948549 86.27858356 -149.875 87.9609375 C-147.77820597 90.65681553 -147.87989179 92.0538815 -148.0625 95.5234375 C-149.15145051 100.13053582 -149.15145051 100.13053582 -151.875 101.9609375 C-154.52496326 102.1781476 -156.92576558 102.24445304 -159.5625 102.1484375 C-160.26439453 102.13490234 -160.96628906 102.12136719 -161.68945312 102.10742188 C-163.41829829 102.07213932 -165.14674765 102.01833333 -166.875 101.9609375 C-163.76270404 122.63366761 -157.48177934 139.98585165 -144.875 156.9609375 C-141.89593965 155.62683656 -139.91712131 154.13918561 -137.625 151.8359375 C-134.99295227 149.5321882 -133.20737462 148.47663324 -129.6875 148.2734375 C-125.875 148.9609375 -125.875 148.9609375 -123.3125 151.0234375 C-121.33630793 155.06174304 -121.42557527 156.68513453 -122.875 160.9609375 C-125.32323256 163.88649842 -128.00946307 166.4478812 -130.875 168.9609375 C-129.54547656 172.94950782 -127.03326235 174.1438935 -123.625 176.2734375 C-122.99601807 176.67006592 -122.36703613 177.06669434 -121.71899414 177.4753418 C-107.75000099 186.10515309 -93.13047651 190.9389797 -76.875 192.9609375 C-76.81892578 191.51460938 -76.81892578 191.51460938 -76.76171875 190.0390625 C-76.69597656 188.77578125 -76.63023437 187.5125 -76.5625 186.2109375 C-76.50449219 184.95796875 -76.44648438 183.705 -76.38671875 182.4140625 C-75.86518301 178.89469153 -75.41649818 177.39555024 -72.875 174.9609375 C-69.44609774 174.08812601 -66.98240423 173.63170921 -63.5625 174.6484375 C-60.53965304 176.99954069 -59.94092015 179.44601408 -59.4609375 183.1953125 C-59.35652344 184.93554688 -59.35652344 184.93554688 -59.25 186.7109375 C-59.13785156 188.46664062 -59.13785156 188.46664062 -59.0234375 190.2578125 C-58.97445312 191.14984375 -58.92546875 192.041875 -58.875 192.9609375 C-38.45606708 190.08004845 -21.6015408 183.22464854 -4.875 170.9609375 C-5.27332031 170.51363281 -5.67164063 170.06632813 -6.08203125 169.60546875 C-13.93312076 160.6464396 -13.93312076 160.6464396 -13.75 155.3359375 C-12.875 151.9609375 -12.875 151.9609375 -11.8125 150.0234375 C-8.50240594 148.20822463 -5.44965349 148.04501205 -1.875 148.9609375 C0.44105995 150.54344109 2.36724304 152.2666781 4.36328125 154.234375 C6.2121075 156.15350428 6.2121075 156.15350428 9.125 157.9609375 C9.52138672 157.11982422 9.52138672 157.11982422 9.92578125 156.26171875 C11.23054598 153.75844049 12.73921731 151.49216068 14.3125 149.1484375 C23.61642454 134.57228905 28.74042708 119.09221139 31.125 101.9609375 C30.08859375 102.00734375 29.0521875 102.05375 27.984375 102.1015625 C26.61461221 102.13909025 25.24481818 102.17548934 23.875 102.2109375 C23.19308594 102.24445313 22.51117188 102.27796875 21.80859375 102.3125 C18.36545927 102.37935698 16.48109859 102.22135936 13.66796875 100.1640625 C11.43303875 96.97292195 11.64942447 94.76554178 12.125 90.9609375 C13.88515131 87.7759018 14.62390916 87.12796778 18.125 85.9609375 C20.35318441 85.89156688 22.58334524 85.87636666 24.8125 85.8984375 C25.99199219 85.90746094 27.17148437 85.91648437 28.38671875 85.92578125 C29.74216797 85.94318359 29.74216797 85.94318359 31.125 85.9609375 C30.9084375 84.98253906 30.691875 84.00414062 30.46875 82.99609375 C26.50987604 64.60974079 26.50987604 64.60974079 29.6875 59.3984375 C33.05374109 57.41321839 35.27926517 57.48022065 39.125 57.9609375 C42.26751665 59.5853587 43.054171 60.78517664 44.390625 64.1015625 C49.63268974 84.12584811 49.55851739 108.22655426 43.125 127.9609375 C42.81151611 128.96519775 42.81151611 128.96519775 42.49169922 129.98974609 C37.63660292 145.22420181 29.97654577 159.17537762 19.125 170.9609375 C18.65078613 171.4775293 18.17657227 171.99412109 17.68798828 172.52636719 C-2.55606013 194.32964081 -30.11972328 208.70807491 -60.20068359 210.06591797 C-91.57272545 211.053 -119.84920493 202.39295818 -143.875 181.9609375 C-144.61105469 181.37054688 -145.34710938 180.78015625 -146.10546875 180.171875 C-167.91048611 162.03318799 -180.34108263 133.34794279 -183.5625 105.70703125 C-186.22786792 73.75593331 -176.79900784 43.17875388 -156.12890625 18.65234375 C-116.99428819 -26.22922395 -48.56392123 -34.44343326 0 0 Z " fill="#f6f6f6" transform="translate(464.875,290.0390625)"/>
<path d="M0 0 C4.60227273 1.27840909 4.60227273 1.27840909 6.375 3.9375 C7.56173692 7.49993618 7.50606222 10.92573527 7.5168457 14.65869141 C7.52205734 15.65959808 7.52205734 15.65959808 7.52737427 16.6807251 C7.53471102 18.12663572 7.54006746 19.57255745 7.54366493 21.01848221 C7.5508631 23.31517767 7.5665566 25.61166349 7.58500671 27.90829468 C7.63730307 34.43736814 7.68538183 40.96632729 7.70092773 47.49560547 C7.7110712 51.49456337 7.74055717 55.49299303 7.78224754 59.49174118 C7.79447491 61.00736856 7.79969407 62.52307084 7.79744911 64.03874588 C7.78328342 76.72968505 9.77377786 86.2807754 18.375 95.9375 C26.8617216 103.97755204 37.43371787 106.25189933 48.77606201 106.1890564 C49.69070732 106.19202654 50.60535264 106.19499667 51.54771447 106.19805682 C54.59535099 106.20566136 57.64279277 106.19921749 60.69042969 106.19287109 C62.88213735 106.19562253 65.07384402 106.19930336 67.26554871 106.20384216 C71.97613626 106.21194006 76.68667638 106.21412623 81.3972702 106.21189499 C88.84254327 106.20905954 96.28772164 106.22342095 103.73297119 106.24087524 C124.23166669 106.28639892 144.7303579 106.3114568 165.22909942 106.31774123 C166.22291933 106.31804721 166.22291933 106.31804721 167.23681641 106.31835938 C168.22942133 106.31865928 168.22942133 106.31865928 169.24207887 106.31896524 C180.27131833 106.32269626 191.30046503 106.34199585 202.3296597 106.37345374 C209.73481364 106.39370955 217.13969087 106.39601814 224.54486132 106.38517356 C229.14377385 106.3825734 233.74252389 106.39653557 238.34139442 106.41525459 C240.47796602 106.42059329 242.61456723 106.41905134 244.75112724 106.41021919 C247.66176728 106.39915472 250.57130074 106.4124633 253.48187256 106.43197632 C254.75773228 106.41828933 254.75773228 106.41828933 256.05936694 106.40432584 C259.68531787 106.45181858 261.91522535 106.60785477 264.90347672 108.75034523 C267.05014185 111.94097696 266.84472465 114.17970279 266.375 117.9375 C264.61484869 121.1225357 263.87609084 121.77046972 260.375 122.9375 C257.47478431 123.03593848 254.59861812 123.07653664 251.69824219 123.07121277 C250.80097507 123.07347833 249.90370794 123.07574388 248.97925091 123.07807809 C245.96011267 123.08442909 242.9410192 123.083588 239.921875 123.08276367 C237.76196738 123.0857546 235.6020603 123.08915698 233.44215393 123.09294128 C227.56367844 123.10179533 221.6852175 123.10412008 215.80673599 123.10475707 C210.89909746 123.10570572 205.99146233 123.10938377 201.08382511 123.11292917 C189.49972932 123.12108017 177.9156413 123.12351293 166.33154297 123.12280273 C154.38983361 123.12220276 142.44816954 123.13273712 130.50647163 123.1485464 C120.25239411 123.16163681 109.99833135 123.16698595 99.74424553 123.16634732 C93.62102545 123.16609264 87.49784554 123.16892695 81.37463379 123.17952538 C75.60940513 123.18923078 69.84425484 123.18926876 64.07902336 123.18200874 C61.96796491 123.18096572 59.85690153 123.18330896 57.74585152 123.1893692 C37.41147667 123.24394032 20.62550952 121.60235164 5.25390625 106.91015625 C-3.62211892 97.63143806 -8.91894917 86.03250358 -8.93139648 73.13793945 C-8.93972 72.3923175 -8.94804352 71.64669556 -8.95661926 70.878479 C-8.9805414 68.43585876 -8.98946567 65.99350586 -8.99609375 63.55078125 C-9.00506776 61.84400863 -9.01418974 60.13723678 -9.02345276 58.4304657 C-9.03989263 54.86402478 -9.04763475 51.29767725 -9.05053711 47.73120117 C-9.05594154 43.16109312 -9.09372681 38.59186028 -9.13928127 34.02200031 C-9.16900128 30.50211863 -9.17625942 26.98245011 -9.17726326 23.46245384 C-9.18146918 21.77711123 -9.19391849 20.09176819 -9.21478081 18.40654945 C-9.24161573 16.05332931 -9.2368974 13.70217154 -9.22436523 11.34887695 C-9.24661667 10.30693428 -9.24661667 10.30693428 -9.26931763 9.24394226 C-9.21398312 5.59825722 -8.84189333 4.16905558 -6.31410217 1.47038269 C-3.625 -0.0625 -3.625 -0.0625 0 0 Z " fill="#f6f6f6" transform="translate(8.625,316.0625)"/>
<path d="M0 0 C4.07556313 0.84907565 5.41260826 2.39791005 8 5.625 C8.54833984 9.06665039 8.54833984 9.06665039 8.4609375 12.97265625 C8.457899 14.39648351 8.45530828 15.82031179 8.453125 17.24414062 C8.41965879 19.47185797 8.37472037 21.6987452 8.31933594 23.92602539 C7.66652959 32.16304176 7.66652959 32.16304176 10.48217773 39.37719727 C12.56671384 40.57851468 12.56671384 40.57851468 16 41.625 C20.28800044 45.84341828 23.1327236 50.65042924 24 56.625 C23.80817139 57.61258301 23.61634277 58.60016602 23.41870117 59.61767578 C22.39516815 65.26527779 21.97519861 69.02382786 25.14916992 73.98291016 C28.13769148 77.38589209 31.48801324 80.37798412 34.875 83.375 C36.03078778 84.44681891 37.18317159 85.52232079 38.33203125 86.6015625 C40.42343583 88.56413162 42.53546468 90.4987329 44.66748047 92.41699219 C47.80886794 95.39068994 47.94851725 96.09301162 48.375 100.5 C48.32042351 103.82916588 48.13460445 104.45776417 45.9375 107.1875 C41.93015055 109.14854335 40.25506447 108.995275 36 107.625 C28.69676923 102.25171614 22.56048579 95.15963201 16.359375 88.59375 C15.59625 87.81 14.833125 87.02625 14.046875 86.21875 C13.02352051 85.14657227 13.02352051 85.14657227 11.97949219 84.05273438 C10.11950947 82.37005018 10.11950947 82.37005018 7.91357422 82.88330078 C7.28209473 83.12806152 6.65061523 83.37282227 6 83.625 C-2.37008476 84.48409961 -9.11492835 83.70917213 -16 78.625 C-21.18661789 73.38457902 -23.96081692 67.76557934 -24.375 60.375 C-24.1819554 54.00452814 -22.35446767 48.28342558 -18.09375 43.47265625 C-14.79897865 40.46679209 -12.36748532 38.60370342 -8 37.625 C-8.02618408 36.68180908 -8.05236816 35.73861816 -8.0793457 34.7668457 C-8.16476922 31.25366855 -8.22734298 27.74160092 -8.2746582 24.2277832 C-8.29974109 22.70970199 -8.3338166 21.19174082 -8.37719727 19.67407227 C-8.43813293 17.48684035 -8.46626895 15.30120961 -8.48828125 13.11328125 C-8.51446533 11.79884033 -8.54064941 10.48439941 -8.56762695 9.13012695 C-7.72457369 3.92422775 -5.19753339 1.08281946 0 0 Z M-5.9375 54.6875 C-8.3369117 57.52140967 -8.3369117 57.52140967 -8.0625 61.25 C-7.25872405 64.58876834 -7.25872405 64.58876834 -5.3125 66.5625 C-2.26397123 67.96317538 -0.32073048 68.1092732 3 67.625 C5.65359262 65.68859458 6.7609947 64.24641377 7.9375 61.1875 C8.01929321 57.83397857 6.98804097 56.27572129 5 53.625 C0.79795533 51.52397766 -2.16206276 52.03666108 -5.9375 54.6875 Z " fill="#f6f6f6" transform="translate(397,324.375)"/>
<path d="M0 0 C1.33097717 -0.00430527 1.33097717 -0.00430527 2.68884277 -0.00869751 C4.55803061 -0.01073183 6.42724004 -0.00524635 8.29638672 0.00732422 C11.147297 0.02338706 13.99678973 0.00745418 16.84765625 -0.01171875 C18.66927394 -0.00973621 20.49089076 -0.0058923 22.3125 0 C23.58305237 -0.00910904 23.58305237 -0.00910904 24.87927246 -0.0184021 C29.87905007 0.04062218 33.32254606 0.63739538 37.65625 3.3984375 C42.61860823 8.7631491 42.82373553 13.18082088 42.859375 20.23046875 C42.86507507 21.09983566 42.87077515 21.96920258 42.87664795 22.86491394 C42.88609278 24.70493352 42.89262988 26.54496998 42.89648438 28.38500977 C42.90617737 31.18991894 42.9372001 33.99409129 42.96875 36.79882812 C42.97528168 38.58853733 42.9805315 40.37825176 42.984375 42.16796875 C42.9967218 43.00254105 43.0090686 43.83711334 43.02178955 44.69697571 C43.00286664 49.6825592 42.41044547 53.07517275 39.65625 57.3984375 C34.25011648 62.39911101 29.74439706 62.57565731 22.640625 62.63671875 C21.30683807 62.64882637 21.30683807 62.64882637 19.94610596 62.66117859 C18.0632115 62.67500793 16.18029209 62.68573523 14.29736328 62.69360352 C11.43082579 62.71079015 8.56544979 62.75468294 5.69921875 62.79882812 C3.86719596 62.80895794 2.03516338 62.81747314 0.203125 62.82421875 C-1.07380219 62.85048088 -1.07380219 62.85048088 -2.37652588 62.87727356 C-8.1977105 62.85626511 -11.62634417 61.88730565 -16.34375 58.3984375 C-20.2594058 54.03041712 -19.79515533 49.06482534 -19.77734375 43.49609375 C-19.7825856 42.54077255 -19.78782745 41.58545135 -19.79322815 40.60118103 C-19.79963923 38.58479787 -19.7983232 36.56837727 -19.78979492 34.55200195 C-19.78128816 31.47474239 -19.81005415 28.39934181 -19.84179688 25.32226562 C-19.84340917 23.35937555 -19.84283081 21.39648221 -19.83984375 19.43359375 C-19.85107773 18.51780045 -19.86231171 17.60200714 -19.87388611 16.65846252 C-19.81372868 11.11580949 -19.24351657 7.65808254 -15.34375 3.3984375 C-10.38615458 -0.0419158 -5.81680283 -0.04170272 0 0 Z M-3.34375 16.3984375 C-3.34375 26.2984375 -3.34375 36.1984375 -3.34375 46.3984375 C6.55625 46.3984375 16.45625 46.3984375 26.65625 46.3984375 C26.65625 36.4984375 26.65625 26.5984375 26.65625 16.3984375 C16.75625 16.3984375 6.85625 16.3984375 -3.34375 16.3984375 Z " fill="#f6f6f6" transform="translate(286.34375,180.6015625)"/>
<path d="M0 0 C0.75460007 -0.0033284 1.50920013 -0.0066568 2.28666687 -0.01008606 C3.88112785 -0.01513987 5.47559937 -0.01749486 7.07006836 -0.01733398 C9.49285613 -0.01951428 11.9151837 -0.03766895 14.33789062 -0.05664062 C15.89192554 -0.05957623 17.4459626 -0.06155991 19 -0.0625 C19.71690506 -0.06968552 20.43381012 -0.07687103 21.17243958 -0.08427429 C27.23777114 -0.05712292 32.29992878 0.56412389 37.01171875 4.54296875 C39.9470336 8.06534657 41.43940959 10.66354888 41.48974609 15.2746582 C41.5025058 16.07261307 41.5152655 16.87056793 41.52841187 17.69270325 C41.53063751 18.54692368 41.53286316 19.4011441 41.53515625 20.28125 C41.54181305 21.16902634 41.54846985 22.05680267 41.55532837 22.97148132 C41.56544319 24.84839815 41.57014575 26.72535086 41.56982422 28.60229492 C41.57418762 31.46008311 41.61049172 34.31631405 41.6484375 37.17382812 C41.65430803 39.00129683 41.65827584 40.82877283 41.66015625 42.65625 C41.67452728 43.50439774 41.68889832 44.35254547 41.70370483 45.22639465 C41.65948653 51.02858215 40.54895248 54.39985501 37.19921875 59.16796875 C31.77177902 63.34292239 25.95758818 63.33171776 19.3359375 63.37109375 C18.58512405 63.37679382 17.83431061 63.3824939 17.06074524 63.3883667 C15.47646478 63.39778244 13.89216505 63.40433701 12.30786133 63.40820312 C9.90475682 63.41789599 7.5025131 63.44894557 5.09960938 63.48046875 C3.55339044 63.48700138 2.00716545 63.49225083 0.4609375 63.49609375 C-0.60197258 63.51461395 -0.60197258 63.51461395 -1.68635559 63.5335083 C-6.98617952 63.51025439 -10.95736341 62.35210856 -15.80078125 60.16796875 C-19.23067617 56.56218178 -20.91228298 54.02158693 -20.9777832 49.08886719 C-20.99061844 48.24749207 -21.00345367 47.40611694 -21.01667786 46.53924561 C-21.02406479 45.62781799 -21.03145172 44.71639038 -21.0390625 43.77734375 C-21.04713425 42.83997375 -21.05520599 41.90260376 -21.06352234 40.93682861 C-21.07736811 38.9496038 -21.08808806 36.96235516 -21.09594727 34.97509766 C-21.11313437 31.9438733 -21.15701289 28.91374685 -21.20117188 25.8828125 C-21.21130108 23.95183094 -21.21981647 22.0208401 -21.2265625 20.08984375 C-21.24407059 19.18651306 -21.26157867 18.28318237 -21.27961731 17.35247803 C-21.26055215 11.78728797 -20.55415496 8.56203643 -16.80078125 4.16796875 C-11.38079239 0.23847682 -6.53740093 0.01006251 0 0 Z M-4.80078125 16.16796875 C-4.80078125 26.39796875 -4.80078125 36.62796875 -4.80078125 47.16796875 C5.09921875 47.16796875 14.99921875 47.16796875 25.19921875 47.16796875 C25.19921875 36.93796875 25.19921875 26.70796875 25.19921875 16.16796875 C15.29921875 16.16796875 5.39921875 16.16796875 -4.80078125 16.16796875 Z " fill="#f6f6f6" transform="translate(225.80078125,266.83203125)"/>
<path d="M0 0 C0.75555679 -0.0033284 1.51111359 -0.0066568 2.28956604 -0.01008606 C3.88224685 -0.01513208 5.47493816 -0.01749511 7.06762695 -0.01733398 C9.49252869 -0.01952099 11.91697546 -0.03770247 14.34179688 -0.05664062 C15.89452971 -0.05957501 17.44726468 -0.06155951 19 -0.0625 C19.71892929 -0.06968552 20.43785858 -0.07687103 21.17857361 -0.08427429 C28.09406244 -0.05317457 33.00518564 1.38792706 38.06640625 6.16796875 C39.78620278 9.02341733 40.32262747 11.15802819 40.35693359 14.47412109 C40.3696933 15.31534515 40.382453 16.15656921 40.39559937 17.02328491 C40.39782501 17.92438995 40.40005066 18.825495 40.40234375 19.75390625 C40.40900055 20.68844635 40.41565735 21.62298645 40.42251587 22.58584595 C40.43263173 24.56111689 40.43733322 26.53642193 40.43701172 28.51171875 C40.44138066 31.52531604 40.4776997 34.53744339 40.515625 37.55078125 C40.52149431 39.47265126 40.52546294 41.3945282 40.52734375 43.31640625 C40.54171478 44.21346283 40.55608582 45.11051941 40.57089233 46.03475952 C40.53056857 51.58881299 39.76296033 54.75539602 36.06640625 59.16796875 C31.22712268 63.69504048 25.48320994 63.32614705 19.16796875 63.3359375 C18.03819107 63.3409301 18.03819107 63.3409301 16.8855896 63.34602356 C15.29710497 63.35107012 13.70860982 63.35343259 12.12011719 63.35327148 C9.70620013 63.35545537 7.29274244 63.37362774 4.87890625 63.39257812 C3.32942863 63.39551316 1.77994886 63.39749722 0.23046875 63.3984375 C-0.48329926 63.40562302 -1.19706726 63.41280853 -1.9324646 63.42021179 C-7.96159357 63.39309514 -13.01568038 62.74491974 -17.74609375 58.85546875 C-22.02260282 53.60147189 -22.25144471 48.94849386 -22.26953125 42.4296875 C-22.27951645 41.17029106 -22.27951645 41.17029106 -22.28970337 39.88545227 C-22.29980404 38.11286602 -22.30452119 36.34024195 -22.30419922 34.56762695 C-22.30856289 31.87451495 -22.34488197 29.18305577 -22.3828125 26.49023438 C-22.38868337 24.76172431 -22.39265095 23.03320652 -22.39453125 21.3046875 C-22.40890228 20.50858566 -22.42327332 19.71248383 -22.43807983 18.89225769 C-22.3925747 13.24176441 -21.12710446 8.87888797 -17.93359375 4.16796875 C-12.57446454 -0.09185191 -6.59799463 0.0101843 0 0 Z M-5.93359375 16.16796875 C-5.93359375 26.39796875 -5.93359375 36.62796875 -5.93359375 47.16796875 C3.96640625 47.16796875 13.86640625 47.16796875 24.06640625 47.16796875 C24.06640625 36.93796875 24.06640625 26.70796875 24.06640625 16.16796875 C14.16640625 16.16796875 4.26640625 16.16796875 -5.93359375 16.16796875 Z " fill="#f6f6f6" transform="translate(147.93359375,266.83203125)"/>
<path d="M0 0 C0.75460007 -0.0033284 1.50920013 -0.0066568 2.28666687 -0.01008606 C3.88112785 -0.01513987 5.47559937 -0.01749486 7.07006836 -0.01733398 C9.49285613 -0.01951428 11.9151837 -0.03766895 14.33789062 -0.05664062 C15.89192554 -0.05957623 17.4459626 -0.06155991 19 -0.0625 C19.71690506 -0.06968552 20.43381012 -0.07687103 21.17243958 -0.08427429 C27.21135942 -0.05724115 32.27298367 0.58417546 37.01171875 4.48046875 C41.28822782 9.73446561 41.51706971 14.38744364 41.53515625 20.90625 C41.54181305 21.74584763 41.54846985 22.58544525 41.55532837 23.45048523 C41.56542904 25.22307148 41.57014619 26.99569555 41.56982422 28.76831055 C41.57418789 31.46142255 41.61050697 34.15288173 41.6484375 36.84570312 C41.65430837 38.57421319 41.65827595 40.30273098 41.66015625 42.03125 C41.67452728 42.82735184 41.68889832 43.62345367 41.70370483 44.44367981 C41.6581997 50.09417309 40.39272946 54.45704953 37.19921875 59.16796875 C31.84008954 63.42778941 25.86361963 63.3257532 19.265625 63.3359375 C18.13228981 63.3409301 18.13228981 63.3409301 16.97605896 63.34602356 C15.38337815 63.35106958 13.79068684 63.35343261 12.19799805 63.35327148 C9.77309631 63.35545849 7.34864954 63.37363997 4.92382812 63.39257812 C3.37109529 63.39551251 1.81836032 63.39749701 0.265625 63.3984375 C-0.45330429 63.40562302 -1.17223358 63.41280853 -1.91294861 63.42021179 C-8.82843744 63.38911207 -13.73956064 61.94801044 -18.80078125 57.16796875 C-20.52057778 54.31252017 -21.05700247 52.17790931 -21.09130859 48.86181641 C-21.1040683 48.02059235 -21.116828 47.17936829 -21.12997437 46.31265259 C-21.13220001 45.41154755 -21.13442566 44.5104425 -21.13671875 43.58203125 C-21.14337555 42.64749115 -21.15003235 41.71295105 -21.15689087 40.75009155 C-21.16700673 38.77482061 -21.17170822 36.79951557 -21.17138672 34.82421875 C-21.17575566 31.81062146 -21.2120747 28.79849411 -21.25 25.78515625 C-21.25586931 23.86328624 -21.25983794 21.9414093 -21.26171875 20.01953125 C-21.27608978 19.12247467 -21.29046082 18.22541809 -21.30526733 17.30117798 C-21.26504298 11.76081678 -20.52906016 8.54486721 -16.80078125 4.16796875 C-11.38079239 0.23847682 -6.53740093 0.01006251 0 0 Z M-4.80078125 16.16796875 C-4.80078125 26.39796875 -4.80078125 36.62796875 -4.80078125 47.16796875 C5.09921875 47.16796875 14.99921875 47.16796875 25.19921875 47.16796875 C25.19921875 36.93796875 25.19921875 26.70796875 25.19921875 16.16796875 C15.29921875 16.16796875 5.39921875 16.16796875 -4.80078125 16.16796875 Z " fill="#f6f6f6" transform="translate(68.80078125,266.83203125)"/>
<path d="M0 0 C0.89297791 -0.00570007 1.78595581 -0.01140015 2.70599365 -0.01727295 C4.59906833 -0.02672986 6.49215952 -0.03325967 8.38525391 -0.03710938 C11.27145476 -0.04678974 14.15693589 -0.07779591 17.04296875 -0.109375 C18.88280827 -0.11590764 20.72265289 -0.12115709 22.5625 -0.125 C23.42208313 -0.1373468 24.28166626 -0.1496936 25.16729736 -0.16241455 C30.21657217 -0.14379729 33.67351492 0.39968905 38.046875 3.203125 C43.00923323 8.5678366 43.21436053 12.98550838 43.25 20.03515625 C43.25570007 20.90452316 43.26140015 21.77389008 43.26727295 22.66960144 C43.27671778 24.50962102 43.28325488 26.34965748 43.28710938 28.18969727 C43.29680237 30.99460644 43.3278251 33.79877879 43.359375 36.60351562 C43.36590668 38.39322483 43.3711565 40.18293926 43.375 41.97265625 C43.3873468 42.80722855 43.3996936 43.64180084 43.41241455 44.50166321 C43.39349164 49.4872467 42.80107047 52.87986025 40.046875 57.203125 C36.21558532 60.74706795 33.24187916 62.30731639 28.0378418 62.38012695 C27.23658371 62.39296219 26.43532562 62.40579742 25.60978699 62.41902161 C24.31600883 62.43010201 24.31600883 62.43010201 22.99609375 62.44140625 C22.10453079 62.449478 21.21296783 62.45754974 20.29438782 62.46586609 C18.40729714 62.47969406 16.52018158 62.49042197 14.63305664 62.49829102 C11.755537 62.51549845 8.87916819 62.55939488 6.00195312 62.60351562 C4.1666751 62.61364355 2.33138732 62.62215934 0.49609375 62.62890625 C-0.36035233 62.64641434 -1.2167984 62.66392242 -2.09919739 62.68196106 C-8.50543783 62.65884332 -11.87894867 60.85327701 -16.765625 56.640625 C-18.94480436 54.00267104 -19.08341188 51.35886948 -19.11425781 48.08642578 C-19.12386536 47.26191925 -19.1334729 46.43741272 -19.14337158 45.58792114 C-19.14762146 44.70039154 -19.15187134 43.81286194 -19.15625 42.8984375 C-19.16195007 41.98230682 -19.16765015 41.06617615 -19.17352295 40.12228394 C-19.18296827 38.18391066 -19.18950507 36.24552136 -19.19335938 34.30712891 C-19.20306511 31.34639398 -19.23409286 28.38635327 -19.265625 25.42578125 C-19.2721553 23.54167078 -19.27740566 21.65755536 -19.28125 19.7734375 C-19.2935968 18.88995636 -19.3059436 18.00647522 -19.31866455 17.09622192 C-19.30131987 12.29459682 -19.07876547 9.09667893 -15.953125 5.203125 C-10.51904415 0.43173694 -7.08245862 0.03468973 0 0 Z M-2.953125 16.203125 C-2.953125 26.103125 -2.953125 36.003125 -2.953125 46.203125 C6.946875 46.203125 16.846875 46.203125 27.046875 46.203125 C27.046875 36.303125 27.046875 26.403125 27.046875 16.203125 C17.146875 16.203125 7.246875 16.203125 -2.953125 16.203125 Z " fill="#f6f6f6" transform="translate(363.953125,180.796875)"/>
<path d="M0 0 C1.15951424 -0.00855011 1.15951424 -0.00855011 2.342453 -0.01727295 C3.97381231 -0.02669035 5.60519036 -0.03324392 7.23657227 -0.03710938 C9.71209469 -0.04680305 12.18678185 -0.07785158 14.66210938 -0.109375 C16.25390137 -0.11590748 17.84569924 -0.12115699 19.4375 -0.125 C20.1679805 -0.1373468 20.898461 -0.1496936 21.65107727 -0.16241455 C27.01410594 -0.13955251 31.01711455 0.9900278 35.91796875 3.203125 C41.03534404 8.45171504 41.09589635 13.19732077 41.15625 20.21875 C41.16432175 21.10794128 41.17239349 21.99713257 41.18070984 22.91326904 C41.19453918 24.7961635 41.20526648 26.67908291 41.21313477 28.56201172 C41.2303214 31.42854921 41.27421419 34.29392521 41.31835938 37.16015625 C41.32848919 38.99217904 41.33700439 40.82421162 41.34375 42.65625 C41.36125809 43.50753479 41.37876617 44.35881958 41.39680481 45.23590088 C41.37579636 51.0570855 40.4068369 54.48571917 36.91796875 59.203125 C32.54994837 63.1187808 27.58435659 62.65453033 22.015625 62.63671875 C20.5826432 62.64458153 20.5826432 62.64458153 19.12071228 62.65260315 C17.10432912 62.65901423 15.08790852 62.6576982 13.0715332 62.64916992 C9.99427364 62.64066316 6.91887306 62.66942915 3.84179688 62.70117188 C1.8789068 62.70278417 -0.08398654 62.70220581 -2.046875 62.69921875 C-2.9626683 62.71045273 -3.87846161 62.72168671 -4.82200623 62.73326111 C-10.38249911 62.67291005 -13.764026 62.0509136 -18.08203125 58.203125 C-21.89592655 53.77650719 -21.53385446 49.08308035 -21.515625 43.51953125 C-21.52086685 42.5864061 -21.5261087 41.65328094 -21.5315094 40.69187927 C-21.53791971 38.7225748 -21.53660544 36.75323198 -21.52807617 34.78393555 C-21.51956936 31.77908793 -21.54833616 28.7761442 -21.58007812 25.77148438 C-21.58169044 23.85416723 -21.58111204 21.93684674 -21.578125 20.01953125 C-21.58935898 19.12561172 -21.60059296 18.2316922 -21.61216736 17.3106842 C-21.55063173 11.77237841 -20.76228303 8.60472504 -17.08203125 4.203125 C-12.2064021 -0.35794743 -6.3613537 0.03670472 0 0 Z M-5.08203125 16.203125 C-5.08203125 26.433125 -5.08203125 36.663125 -5.08203125 47.203125 C4.81796875 47.203125 14.71796875 47.203125 24.91796875 47.203125 C24.91796875 36.973125 24.91796875 26.743125 24.91796875 16.203125 C15.01796875 16.203125 5.11796875 16.203125 -5.08203125 16.203125 Z " fill="#f6f6f6" transform="translate(226.08203125,340.796875)"/>
<path d="M0 0 C0.77538116 -0.00570007 1.55076233 -0.01140015 2.34963989 -0.01727295 C3.98519541 -0.02668935 5.6207696 -0.03324352 7.25634766 -0.03710938 C9.74285314 -0.0468166 12.22853183 -0.07787154 14.71484375 -0.109375 C16.30989097 -0.11590608 17.90494404 -0.12115614 19.5 -0.125 C20.23564178 -0.1373468 20.97128357 -0.1496936 21.72921753 -0.16241455 C27.77097357 -0.13666193 32.40011454 1.19012665 37.1953125 5.078125 C41.13351398 10.03734168 41.20190034 14.86840058 41.21875 20.94140625 C41.2254068 21.78100388 41.2320636 22.6206015 41.23892212 23.48564148 C41.24902279 25.25822773 41.25373994 27.0308518 41.25341797 28.8034668 C41.25778164 31.4965788 41.29410072 34.18803798 41.33203125 36.88085938 C41.33790212 38.60936944 41.3418697 40.33788723 41.34375 42.06640625 C41.35812103 42.86250809 41.37249207 43.65860992 41.38729858 44.47883606 C41.34162186 50.15063676 40.17861303 54.52498396 36.8828125 59.203125 C32.60200242 63.16614782 27.50900088 62.65440175 21.98046875 62.63671875 C20.54748695 62.64458153 20.54748695 62.64458153 19.08555603 62.65260315 C17.06917287 62.65901423 15.05275227 62.6576982 13.03637695 62.64916992 C9.95911739 62.64066316 6.88371681 62.66942915 3.80664062 62.70117188 C1.84375055 62.70278417 -0.11914279 62.70220581 -2.08203125 62.69921875 C-2.99782455 62.71045273 -3.91361786 62.72168671 -4.85716248 62.73326111 C-10.41765536 62.67291005 -13.79918225 62.0509136 -18.1171875 58.203125 C-21.9310828 53.77650719 -21.56901071 49.08308035 -21.55078125 43.51953125 C-21.5560231 42.5864061 -21.56126495 41.65328094 -21.56666565 40.69187927 C-21.57307596 38.7225748 -21.57176169 36.75323198 -21.56323242 34.78393555 C-21.55472561 31.77908793 -21.58349241 28.7761442 -21.61523438 25.77148438 C-21.61684669 23.85416723 -21.61626829 21.93684674 -21.61328125 20.01953125 C-21.62451523 19.12561172 -21.63574921 18.2316922 -21.64732361 17.3106842 C-21.58578798 11.77237841 -20.79743928 8.60472504 -17.1171875 4.203125 C-12.23298525 -0.36596742 -6.37178547 0.03660899 0 0 Z M-5.1171875 16.203125 C-5.1171875 26.433125 -5.1171875 36.663125 -5.1171875 47.203125 C4.7828125 47.203125 14.6828125 47.203125 24.8828125 47.203125 C24.8828125 36.973125 24.8828125 26.743125 24.8828125 16.203125 C14.9828125 16.203125 5.0828125 16.203125 -5.1171875 16.203125 Z " fill="#f6f6f6" transform="translate(69.1171875,340.796875)"/>
<path d="M0 0 C1.16519417 -0.0049926 1.16519417 -0.0049926 2.35392761 -0.01008606 C3.99546722 -0.01514056 5.63701707 -0.01749484 7.27856445 -0.01733398 C9.77377532 -0.01951448 12.26853951 -0.03766904 14.76367188 -0.05664062 C16.36327975 -0.05957616 17.96288971 -0.06155989 19.5625 -0.0625 C20.67066826 -0.07327827 20.67066826 -0.07327827 21.80122375 -0.08427429 C26.98465366 -0.06172753 32.5631865 0.1734399 36.72265625 3.60546875 C41.09626863 9.63803755 41.09626863 9.63803755 41.1574707 14.24707031 C41.17672356 15.509133 41.17672356 15.509133 41.19636536 16.79669189 C41.20375229 17.70811951 41.21113922 18.61954712 41.21875 19.55859375 C41.22682175 20.49596375 41.23489349 21.43333374 41.24320984 22.39910889 C41.25705561 24.3863337 41.26777556 26.37358234 41.27563477 28.36083984 C41.29282187 31.3920642 41.33670039 34.42219065 41.38085938 37.453125 C41.39098858 39.38410656 41.39950397 41.3150974 41.40625 43.24609375 C41.42375809 44.14942444 41.44126617 45.05275513 41.45930481 45.98345947 C41.44030656 51.52911804 40.81699006 54.85900174 36.98046875 59.16796875 C32.53533129 63.00926343 27.71006843 62.65144742 22.11328125 62.671875 C20.68385696 62.6868528 20.68385696 62.6868528 19.22555542 62.70213318 C17.21340261 62.7172924 15.2011747 62.72435965 13.18896484 62.72387695 C10.12209884 62.7304332 7.05848031 62.78492249 3.9921875 62.84179688 C2.0325631 62.85060091 0.0729234 62.85655381 -1.88671875 62.859375 C-2.79735077 62.88093155 -3.70798279 62.9024881 -4.64620972 62.92469788 C-10.34504809 62.86383598 -13.61002312 61.85786872 -17.68566895 57.77749634 C-21.55408488 53.1096066 -21.33939871 48.22170204 -21.35546875 42.4296875 C-21.36545395 41.17029106 -21.36545395 41.17029106 -21.37564087 39.88545227 C-21.38574154 38.11286602 -21.39045869 36.34024195 -21.39013672 34.56762695 C-21.39450039 31.87451495 -21.43081947 29.18305577 -21.46875 26.49023438 C-21.47462087 24.76172431 -21.47858845 23.03320652 -21.48046875 21.3046875 C-21.49483978 20.50858566 -21.50921082 19.71248383 -21.52401733 18.89225769 C-21.47856094 13.24781553 -20.22344397 8.86807796 -17.01953125 4.16796875 C-11.72109415 0.06168 -6.50002289 0.00971117 0 0 Z M-5.01953125 16.16796875 C-5.01953125 26.39796875 -5.01953125 36.62796875 -5.01953125 47.16796875 C4.88046875 47.16796875 14.78046875 47.16796875 24.98046875 47.16796875 C24.98046875 36.93796875 24.98046875 26.70796875 24.98046875 16.16796875 C15.08046875 16.16796875 5.18046875 16.16796875 -5.01953125 16.16796875 Z " fill="#f6f6f6" transform="translate(147.01953125,340.83203125)"/>
<path d="M0 0 C3.0220794 1.74450506 5.41651082 3.83302164 7 7 C7.08691001 9.84429357 7.11553802 12.66379176 7.09765625 15.5078125 C7.0962413 16.34843231 7.09482635 17.18905212 7.09336853 18.05514526 C7.08776237 20.74513275 7.07520886 23.43503759 7.0625 26.125 C7.05748579 27.94661338 7.05292275 29.76822807 7.04882812 31.58984375 C7.03779094 36.05992777 7.0205222 40.52994986 7 45 C10.03039551 44.94506836 10.03039551 44.94506836 13.06079102 44.89013672 C15 45 15 45 16.9375 46.125 C18.46849826 48.82676164 18.8757742 50.89435505 19 54 C17.65996657 57.27563728 16.68689039 58.63013594 13.5625 60.3125 C11 61 11 61 7 61 C7.05220703 62.66289062 7.05220703 62.66289062 7.10546875 64.359375 C7.13361349 65.82290148 7.16091292 67.28644439 7.1875 68.75 C7.21263672 69.47960937 7.23777344 70.20921875 7.26367188 70.9609375 C7.30781604 74.19817622 7.22890943 76.56761552 5.69921875 79.45703125 C2.97767566 81.9283175 0.59541849 81.93801003 -3 82 C-5.94755732 80.65437601 -7.54277272 79.91445456 -9 77 C-9.07181821 74.28239892 -9.09299506 71.59140612 -9.0625 68.875 C-9.05798828 68.12089844 -9.05347656 67.36679688 -9.04882812 66.58984375 C-9.03703499 64.72652873 -9.01909942 62.86325445 -9 61 C-10.04341553 61.01571045 -10.04341553 61.01571045 -11.10791016 61.03173828 C-14.28023623 61.07348637 -17.45250431 61.09938585 -20.625 61.125 C-21.71941406 61.14175781 -22.81382813 61.15851563 -23.94140625 61.17578125 C-34.27622423 61.23841651 -34.27622423 61.23841651 -39 59 C-41.13373097 56.49518538 -41.00784531 55.12475578 -40.80078125 51.83203125 C-39.85829352 47.32188267 -38.16280532 44.24395286 -35.75 40.375 C-35.31397461 39.65642822 -34.87794922 38.93785645 -34.42871094 38.19750977 C-33.47630485 36.63329424 -32.51804638 35.07263062 -31.5546875 33.51513672 C-29.90883765 30.85251971 -28.28192989 28.1788801 -26.65625 25.50390625 C-25.52184766 23.64781718 -24.38644538 21.79233886 -23.25 19.9375 C-22.71987305 19.0697998 -22.18974609 18.20209961 -21.64355469 17.30810547 C-9.78412165 -1.8645213 -9.78412165 -1.8645213 0 0 Z M-10 30 C-11.5647282 32.29237119 -13.07606583 34.59517111 -14.5625 36.9375 C-14.98724609 37.59685547 -15.41199219 38.25621094 -15.84960938 38.93554688 C-18.02425706 41.76380842 -18.02425706 41.76380842 -19 45 C-15.7 45 -12.4 45 -9 45 C-9 40.05 -9 35.1 -9 30 C-9.33 30 -9.66 30 -10 30 Z " fill="#f6f6f6" transform="translate(128,163)"/>
<path d="M0 0 C4.62718632 4.25954685 7.33558376 9.75252896 8.26171875 15.9375 C8.88322943 32.73971973 -4.38867998 47.28937771 -14.1875 59.9375 C-13.26469238 59.94366333 -13.26469238 59.94366333 -12.32324219 59.94995117 C-9.52702769 59.98291296 -6.73298496 60.05355576 -3.9375 60.125 C-2.48537109 60.13370117 -2.48537109 60.13370117 -1.00390625 60.14257812 C6.15304701 60.36469047 6.15304701 60.36469047 9.48828125 63.26171875 C11.30054509 66.9236678 10.89253676 69.04936767 9.8125 72.9375 C8.23364034 74.99688216 7.12107577 75.78321211 4.8125 76.9375 C2.18389131 77.06075105 -0.41717085 77.12588709 -3.046875 77.140625 C-3.82887268 77.14632507 -4.61087036 77.15202515 -5.41656494 77.15789795 C-7.07424567 77.16735248 -8.73194522 77.17388373 -10.38964844 77.17773438 C-12.91375059 77.18740897 -15.43702761 77.21841411 -17.9609375 77.25 C-19.57291184 77.25653335 -21.184892 77.26178252 -22.796875 77.265625 C-23.54708923 77.2779718 -24.29730347 77.2903186 -25.07025146 77.30303955 C-29.85102558 77.28294036 -33.13861941 76.49706553 -37.1875 73.9375 C-38.83716797 70.63816406 -38.84552447 67.48700639 -38.1875 63.9375 C-36.48130947 60.65642144 -34.2482074 57.87660718 -31.9375 55 C-30.65340759 53.33191378 -29.37088708 51.66261647 -28.08984375 49.9921875 C-27.43870605 49.15397461 -26.78756836 48.31576172 -26.11669922 47.45214844 C-23.14543963 43.5792082 -20.31455788 39.61258443 -17.5 35.625 C-17.00790039 34.93865479 -16.51580078 34.25230957 -16.00878906 33.54516602 C-10.28624432 25.51367091 -10.28624432 25.51367091 -9.1875 15.9375 C-9.5175 14.9475 -9.8475 13.9575 -10.1875 12.9375 C-13.21447929 12.27143266 -16.08253641 11.82269462 -19.1875 11.9375 C-23.32551241 14.90607412 -25.02997996 18.41698183 -27.1875 22.9375 C-30.27923752 24.48336876 -32.78179552 24.23109521 -36.1875 23.9375 C-38.87995845 22.02443742 -39.94590432 20.76112162 -40.875 17.59375 C-41.43877755 12.80164083 -39.5709345 9.02782118 -37.1875 4.9375 C-26.891877 -6.82056945 -13.01811214 -8.42348433 0 0 Z " fill="#f6f6f6" transform="translate(78.1875,169.0625)"/>
<path d="M0 0 C0.91471573 -0.00619858 1.82943146 -0.01239716 2.77186584 -0.01878357 C4.70426368 -0.02587983 6.63672268 -0.02271109 8.5690918 -0.01000977 C11.52181907 0.00384368 14.47136913 -0.03020119 17.42382812 -0.06835938 C19.30338619 -0.06931073 21.18294821 -0.06745089 23.0625 -0.0625 C23.94284409 -0.07575821 24.82318817 -0.08901642 25.73020935 -0.10267639 C30.04807881 -0.03728557 32.06795342 0.19610299 35.69360352 2.73071289 C38.03187851 6.21309065 38.29380207 7.44049145 37.59765625 11.56640625 C36.52642043 14.72222575 35.18197621 17.72266624 33.79296875 20.75 C33.39786102 21.63486588 33.0027533 22.51973175 32.59567261 23.43141174 C31.3150041 26.29368002 30.01912282 29.1487637 28.72265625 32.00390625 C27.84396255 33.95849493 26.96635919 35.91357415 26.08984375 37.86914062 C24.78987748 40.76893253 23.48910524 43.6683278 22.18389893 46.56576538 C18.49266227 54.76443416 14.91806341 63.00901624 11.45361328 71.30639648 C11.10927246 72.11407471 10.76493164 72.92175293 10.41015625 73.75390625 C10.12785156 74.42808594 9.84554687 75.10226563 9.5546875 75.796875 C7.80384545 79.03414622 6.25097916 80.36756884 2.72265625 81.44140625 C-0.99077374 81.58994345 -2.46130728 80.7511762 -5.40234375 78.56640625 C-6.40234375 77.56640625 -6.40234375 77.56640625 -6.8671875 73.92578125 C-6.77345805 66.61776799 -3.05546728 60.26908083 0.03515625 53.81640625 C0.67791202 52.44224368 1.31868634 51.06715263 1.95751953 49.69116211 C2.91829355 47.62179916 3.87996705 45.55294852 4.84790039 43.48692322 C7.68650555 37.42254328 10.36152429 31.29463814 12.97265625 25.12890625 C13.34704834 24.2481543 13.72144043 23.36740234 14.10717773 22.45996094 C14.94019896 20.49665446 15.76945146 18.53174935 16.59765625 16.56640625 C15.8612793 16.57687988 15.12490234 16.58735352 14.36621094 16.59814453 C11.02672749 16.63974327 7.6872986 16.66574489 4.34765625 16.69140625 C2.60935547 16.71654297 2.60935547 16.71654297 0.8359375 16.7421875 C-0.27910156 16.74863281 -1.39414063 16.75507813 -2.54296875 16.76171875 C-3.56938477 16.77219238 -4.59580078 16.78266602 -5.65332031 16.79345703 C-8.46322383 16.56137797 -10.06308242 16.11015896 -12.40234375 14.56640625 C-13.94371994 11.8506482 -14.42963885 10.12595571 -14.27734375 7.00390625 C-11.68547346 -0.21630384 -6.73639075 -0.03786584 0 0 Z " fill="#f6f6f6" transform="translate(223.40234375,165.43359375)"/>
<path d="M0 0 C3.5 0.5 3.5 0.5 5.9375 2 C8.10338696 5.46541914 7.95606716 8.5577138 7.5 12.5 C6.61766083 15.74690475 5.3832061 18.80779938 4.09765625 21.9140625 C3.74429703 22.7988327 3.39093781 23.68360291 3.02687073 24.59518433 C1.88534136 27.44400645 0.72453334 30.28448736 -0.4375 33.125 C-1.22389543 35.07313354 -2.00921318 37.02170245 -2.79345703 38.97070312 C-4.32753409 42.77689214 -5.86937006 46.57977884 -7.41845703 50.37988281 C-9.14449969 54.61680754 -10.84366999 58.86325921 -12.52734375 63.1171875 C-13.30937073 65.07833447 -14.09185882 67.03929769 -14.875 69 C-15.21265381 69.85674316 -15.55030762 70.71348633 -15.89819336 71.59619141 C-17.35172214 75.1768447 -18.55412603 77.97044145 -21.5 80.5 C-24.51523464 81.53152764 -26.10370446 81.6105941 -29.1875 80.75 C-31.5 79.5 -31.5 79.5 -33.5 76.5 C-33.92743502 71.32894862 -33.08727267 67.58913214 -31.17675781 62.80200195 C-30.92959015 62.17342285 -30.68242249 61.54484375 -30.42776489 60.8972168 C-29.6147962 58.83927095 -28.78461699 56.78880546 -27.953125 54.73828125 C-27.37902537 53.30085397 -26.80569357 51.8631198 -26.23309326 50.4250946 C-25.03355233 47.42045093 -23.82557334 44.41938468 -22.61132812 41.4206543 C-21.0582164 37.58339899 -19.52530234 33.73845553 -17.99846268 29.89068317 C-16.81875759 26.92359917 -15.6290493 23.96060751 -14.43624115 20.99876976 C-13.86717711 19.58260982 -13.30106711 18.16525903 -12.73801422 16.74669838 C-11.94896905 14.76351758 -11.14674106 12.78618669 -10.34082031 10.80981445 C-9.88781555 9.68509232 -9.43481079 8.56037018 -8.96807861 7.40156555 C-6.70374083 2.92624355 -5.05174854 0.72167836 0 0 Z " fill="#f6f6f6" transform="translate(189.5,165.5)"/>
</svg>
