<?xml version="1.0" encoding="UTF-8"?>
<svg version="1.1" xmlns="http://www.w3.org/2000/svg" width="512" height="512">
<path d="M0 0 C4.05465072 2.02324936 7.92879269 4.29292292 11.8125 6.625 C12.96477605 7.3052554 14.11778589 7.9842692 15.27148438 8.66210938 C17.66513744 10.06976203 20.05556108 11.48267699 22.44384766 12.89941406 C27.93346571 16.14985317 33.46920353 19.32033989 39 22.5 C41.14468765 23.73801034 43.28921806 24.97629312 45.43359375 26.21484375 C49.38883888 28.49719713 53.34728146 30.77378439 57.31021118 33.04275513 C59.08432545 34.05877184 60.85769919 35.07606928 62.63085938 36.09375 C64.84815314 37.36582292 67.06681075 38.63552285 69.28710938 39.90234375 C86.35164468 49.70328936 86.35164468 49.70328936 88 53 C88.08963847 54.48100811 88.11757925 55.96599424 88.11352539 57.44970703 C88.11344986 58.37051056 88.11337433 59.29131409 88.11329651 60.24002075 C88.10813522 61.23589203 88.10297394 62.23176331 88.09765625 63.2578125 C88.09553383 64.78509476 88.09553383 64.78509476 88.09336853 66.3432312 C88.087759 69.60385035 88.07520488 72.86440151 88.0625 76.125 C88.05748623 78.33203026 88.05292311 80.53906159 88.04882812 82.74609375 C88.03778648 88.16408581 88.02103905 93.58203805 88 99 C89.0813623 99.40992188 89.0813623 99.40992188 90.18457031 99.828125 C94.92916099 101.80298064 99.29499699 104.45084848 103.75 107 C105.20599609 107.81984375 105.20599609 107.81984375 106.69140625 108.65625 C107.61308594 109.1821875 108.53476563 109.708125 109.484375 110.25 C110.32709961 110.72953125 111.16982422 111.2090625 112.03808594 111.703125 C114 113 114 113 115 115 C115.10210935 116.39714616 115.14372654 117.79896304 115.15390015 119.19979858 C115.16250061 120.08025345 115.17110107 120.96070831 115.17996216 121.86784363 C115.18635208 123.32037285 115.18635208 123.32037285 115.19287109 124.80224609 C115.20513733 126.32923378 115.20513733 126.32923378 115.21765137 127.8870697 C115.24252538 131.26585292 115.25902482 134.64459413 115.2734375 138.0234375 C115.27876118 139.17502979 115.28408485 140.32662209 115.28956985 141.51311111 C115.31630767 147.60606471 115.33568228 153.69899775 115.35009766 159.79199219 C115.3667647 166.09630043 115.41155844 172.40008786 115.4624691 178.70419884 C115.49606225 183.54255805 115.50766631 188.38079232 115.51332474 193.21925735 C115.52005706 195.54375829 115.53533008 197.86825044 115.55921555 200.1926384 C115.59070454 203.44185096 115.59092814 206.68964085 115.58349609 209.93896484 C115.59990143 210.9032692 115.61630676 211.86757355 115.63320923 212.86109924 C115.57193148 219.38847825 115.57193148 219.38847825 112.65371704 222.50869751 C111.77799042 223.00082733 110.90226379 223.49295715 110 224 C108.99582031 224.63421875 107.99164063 225.2684375 106.95703125 225.921875 C105.91933594 226.52515625 104.88164062 227.1284375 103.8125 227.75 C102.76707031 228.36359375 101.72164062 228.9771875 100.64453125 229.609375 C98 231 98 231 96 231 C98.39477618 233.72062663 100.87072681 234.96531173 104.10762024 236.5369873 C108.68712273 239.25354395 108.68712273 239.25354395 109.93639183 242.23402405 C110.29653807 245.00004336 110.34082396 247.61927232 110.27807617 250.40820312 C110.29399307 251.44307358 110.30990997 252.47794403 110.3263092 253.54417419 C110.36516477 256.95829504 110.33126361 260.36718722 110.29296875 263.78125 C110.29716651 266.15727466 110.30447957 268.53329569 110.31477356 270.90930176 C110.32499926 275.88634681 110.29960905 280.86159322 110.2487793 285.83837891 C110.18620148 292.21510971 110.20862649 298.5881434 110.25730419 304.9648819 C110.28595526 309.87051656 110.27124737 314.77528297 110.24328041 319.68089294 C110.23476778 322.03160031 110.23932757 324.38239283 110.25722313 326.73304749 C110.27540083 330.02135012 110.23562714 333.3040156 110.18041992 336.59179688 C110.20539047 338.04609352 110.20539047 338.04609352 110.23086548 339.5297699 C110.11014477 343.57977162 110.01651443 346.01704699 107.0211134 348.91355133 C104.73771487 350.45508751 102.45787382 351.76002989 100 353 C99.03118896 353.57556641 98.06237793 354.15113281 97.06420898 354.74414062 C95.79299194 355.44313477 95.79299194 355.44313477 94.49609375 356.15625 C93.03345093 356.96630493 93.03345093 356.96630493 91.54125977 357.79272461 C90.51701904 358.35612549 89.49277832 358.91952637 88.4375 359.5 C78.93577881 364.77343069 69.50989287 370.15778987 60.13525391 375.65356445 C51.26922379 380.85061539 42.37038865 385.98905034 33.46313477 391.11499023 C32.42987061 391.70997314 31.39660645 392.30495605 30.33203125 392.91796875 C29.42171143 393.44156982 28.5113916 393.9651709 27.57348633 394.50463867 C24.97219704 395.95551545 24.97219704 395.95551545 22.60424805 397.75512695 C18.98164178 399.48679184 16.85570722 398.95353638 13 398 C10.04760742 396.65576172 10.04760742 396.65576172 7.10546875 394.9296875 C5.99864746 394.28829834 4.89182617 393.64690918 3.75146484 392.98608398 C2.5633833 392.28254679 1.37539753 391.57884785 0.1875 390.875 C-1.05973359 390.14740262 -2.3076295 389.4209395 -3.55615234 388.69555664 C-6.12324955 387.20216878 -8.68678077 385.70292769 -11.24755859 384.19873047 C-15.79528746 381.52971254 -20.36555955 378.90028543 -24.93676758 376.27172852 C-28.12740443 374.4361167 -31.31397031 372.59359461 -34.5 370.75 C-38.43548522 368.47509757 -42.376879 366.21123621 -46.32693481 363.96177673 C-48.11067445 362.94566062 -49.89315639 361.92737191 -51.67529297 360.90844727 C-53.9062492 359.63381813 -56.13950114 358.36319513 -58.37548828 357.09741211 C-59.38853027 356.51741455 -60.40157227 355.93741699 -61.4453125 355.33984375 C-62.76813232 354.58755493 -62.76813232 354.58755493 -64.11767578 353.82006836 C-65.06884277 353.2194458 -66.02000977 352.61882324 -67 352 C-67.65800976 351.62665779 -68.31601952 351.25331558 -68.99396896 350.86865997 C-74.5362537 347.35326184 -74.5362537 347.35326184 -75.75522423 343.79617405 C-76.05591659 341.10105018 -76.10417999 338.5030434 -76.06689453 335.79125977 C-76.08412567 334.77750275 -76.10135681 333.76374573 -76.11911011 332.7192688 C-76.16443467 329.37560238 -76.15095741 326.03528814 -76.1328125 322.69140625 C-76.14328415 320.362615 -76.15583681 318.03383225 -76.17037964 315.70506287 C-76.19118865 310.82665058 -76.18206694 305.94940498 -76.15283203 301.07104492 C-76.11845793 294.82431537 -76.16543229 288.58126543 -76.23581123 282.33494663 C-76.27977239 277.52625736 -76.27687415 272.71844777 -76.26028061 267.90962029 C-76.25864208 265.60713604 -76.27236031 263.30458705 -76.30182266 261.00229073 C-76.49648849 243.03581171 -76.49648849 243.03581171 -72.86956787 238.10177612 C-70.27755422 236.24420146 -67.97432646 235.11828646 -65 234 C-63.27987089 233.04170673 -61.56957969 232.06528103 -59.875 231.0625 C-58.58644847 230.36917902 -57.29599656 229.67930254 -56 229 C-56.77085938 228.51789063 -57.54171875 228.03578125 -58.3359375 227.5390625 C-59.33882812 226.90742188 -60.34171875 226.27578125 -61.375 225.625 C-62.37273438 224.99851562 -63.37046875 224.37203125 -64.3984375 223.7265625 C-67 222 -67 222 -69 220 C-69.24050903 217.97518921 -69.24050903 217.97518921 -69.22705078 215.45849609 C-69.22689972 214.51767181 -69.22674866 213.57684753 -69.22659302 212.60751343 C-69.21627045 211.58976837 -69.20594788 210.57202332 -69.1953125 209.5234375 C-69.1924826 208.48305328 -69.18965271 207.44266907 -69.18673706 206.37075806 C-69.17551704 203.03872306 -69.15040915 199.70695414 -69.125 196.375 C-69.11497256 194.11979554 -69.1058463 191.86458688 -69.09765625 189.609375 C-69.07557178 184.07282546 -69.04207639 178.53643173 -69 173 C-70.0813623 172.59116577 -70.0813623 172.59116577 -71.18457031 172.17407227 C-73.9460085 171.02251519 -76.45296828 169.7024675 -79.046875 168.21484375 C-79.97371094 167.68439453 -80.90054688 167.15394531 -81.85546875 166.60742188 C-82.81066406 166.05634766 -83.76585938 165.50527344 -84.75 164.9375 C-85.72066406 164.38255859 -86.69132812 163.82761719 -87.69140625 163.25585938 C-94.85956743 159.14043257 -94.85956743 159.14043257 -96 158 C-96.11482574 156.62279242 -96.16174904 155.23984103 -96.18081665 153.85798645 C-96.19519775 152.96496826 -96.20957886 152.07195007 -96.22439575 151.15187073 C-96.23493988 150.16436325 -96.24548401 149.17685577 -96.25634766 148.15942383 C-96.27095032 147.12528351 -96.28555298 146.09114319 -96.30059814 145.02566528 C-96.4266609 135.47612431 -96.49534079 125.92573801 -96.54844093 116.37553883 C-96.58422975 109.95408911 -96.63759026 103.53388929 -96.73388672 97.11303711 C-96.82660115 90.91314023 -96.87534568 84.71435052 -96.89283371 78.51379967 C-96.90694828 76.14898082 -96.93663322 73.78420199 -96.98213577 71.41977882 C-97.04276071 68.10771473 -97.04687396 64.80005296 -97.03759766 61.48754883 C-97.06838409 60.51016251 -97.09917053 59.53277618 -97.13088989 58.52577209 C-97.06905463 54.46618806 -97.03128406 52.00553902 -94.03848553 49.08745289 C-91.74996738 47.54240383 -89.46380927 46.241924 -87 45 C-85.95078369 44.36908447 -84.90156738 43.73816895 -83.82055664 43.08813477 C-82.86012451 42.54471436 -81.89969238 42.00129395 -80.91015625 41.44140625 C-79.80978027 40.81613037 -78.7094043 40.19085449 -77.57568359 39.54663086 C-76.7179837 39.06225052 -76.7179837 39.06225052 -75.84295654 38.56808472 C-73.37627275 37.17492545 -70.91390715 35.77420869 -68.45123291 34.37397766 C-67.17649368 33.64924366 -65.90154973 32.92486964 -64.62640381 32.20085144 C-59.42807565 29.24827728 -54.24433405 26.27092582 -49.06738281 23.28100586 C-46.94459271 22.05515789 -44.82024833 20.83199741 -42.69433594 19.61157227 C-37.65120901 16.71219879 -32.62673009 13.78852346 -27.64727783 10.78126526 C-25.27929975 9.35340558 -22.90314073 7.93949121 -20.52618408 6.52664185 C-18.85481584 5.52535077 -17.19551805 4.50399793 -15.53662109 3.48217773 C-5.90600637 -2.22793544 -5.90600637 -2.22793544 0 0 Z M-11.06640625 11.75390625 C-12.09588379 12.35340088 -13.12536133 12.95289551 -14.18603516 13.57055664 C-15.30026855 14.22789795 -16.41450195 14.88523926 -17.5625 15.5625 C-18.73186267 16.24604 -19.9016285 16.92889072 -21.07177734 17.61108398 C-23.50627046 19.03106009 -25.93899063 20.45400747 -28.37060547 21.87890625 C-32.87021585 24.51250306 -37.38893967 27.11264521 -41.90844727 29.71191406 C-45.1185774 31.55880487 -48.3252548 33.41156726 -51.53125 35.265625 C-55.42399238 37.51619095 -59.32159707 39.75775313 -63.22610474 41.98780823 C-66.02885195 43.59061564 -68.82634864 45.2025546 -71.625 46.8125 C-72.66930176 47.40554932 -73.71360352 47.99859863 -74.78955078 48.60961914 C-75.73813965 49.15739014 -76.68672852 49.70516113 -77.6640625 50.26953125 C-78.50404785 50.75010986 -79.3440332 51.23068848 -80.20947266 51.72583008 C-80.80034668 52.14630615 -81.3912207 52.56678223 -82 53 C-82 53.66 -82 54.32 -82 55 C-78.2879118 57.23804621 -74.55307666 59.43495631 -70.8125 61.625 C-69.22985352 62.58019531 -69.22985352 62.58019531 -67.61523438 63.5546875 C-66.59365234 64.14765625 -65.57207031 64.740625 -64.51953125 65.3515625 C-63.58214111 65.90666504 -62.64475098 66.46176758 -61.67895508 67.03369141 C-59.04488341 68.27071226 -59.04488341 68.27071226 -56.44726562 67.32470703 C-55.63966797 66.88755371 -54.83207031 66.45040039 -54 66 C-53.24162842 65.60458008 -52.48325684 65.20916016 -51.7019043 64.80175781 C-50.91726807 64.35670898 -50.13263184 63.91166016 -49.32421875 63.453125 C-48.42662842 62.94539551 -47.52903809 62.43766602 -46.60424805 61.91455078 C-45.16045776 61.09059814 -45.16045776 61.09059814 -43.6875 60.25 C-42.67276611 59.67362793 -41.65803223 59.09725586 -40.61254883 58.50341797 C-31.45587343 53.288936 -22.35546075 47.97945231 -13.26171875 42.65625 C-6.35725771 38.61785432 0.56988342 34.61914454 7.5 30.625 C8.08141754 30.28986389 8.66283508 29.95472778 9.26187134 29.60943604 C12.5074513 27.73881973 15.75350445 25.86902677 19 24 C17.76159428 20.28478285 16.74721533 19.97964934 13.4140625 18.08203125 C12.48335938 17.55029297 11.55265625 17.01855469 10.59375 16.47070312 C9.12421875 15.64989258 9.12421875 15.64989258 7.625 14.8125 C6.16707031 13.97428711 6.16707031 13.97428711 4.6796875 13.11914062 C-3.06092129 8.65262545 -3.06092129 8.65262545 -11.06640625 11.75390625 Z M26.50170898 29.1171875 C25.01392944 29.98730469 25.01392944 29.98730469 23.49609375 30.875 C22.37638184 31.52283447 21.25666992 32.17066895 20.10302734 32.83813477 C18.88109932 33.55861139 17.6592592 34.27923712 16.4375 35 C15.1719605 35.73658242 13.90583874 36.47216527 12.63916016 37.20678711 C10.0287597 38.72249752 7.4215826 40.24353766 4.81689453 41.76904297 C0.24205698 44.44661384 -4.352025 47.09042483 -8.94677734 49.73364258 C-12.12681181 51.56354258 -15.30400762 53.39828015 -18.48046875 55.234375 C-23.08469618 57.89506356 -27.69182002 60.55065081 -32.30078125 63.203125 C-34.0984104 64.23819804 -35.8959869 65.27336243 -37.69354248 66.30856323 C-39.40029693 67.29108346 -41.10761301 68.27262786 -42.81494141 69.25415039 C-43.84409668 69.84703857 -44.87325195 70.43992676 -45.93359375 71.05078125 C-46.84165771 71.57325439 -47.74972168 72.09572754 -48.68530273 72.6340332 C-52.53174863 74.55549598 -52.53174863 74.55549598 -54.53100586 78.04370117 C-55.2942555 87.58612737 -55.2942555 87.58612737 -54 97 C-50.52475269 100.86480305 -46.95221013 102.55767768 -42 104 C-41.67 104 -41.34 104 -41 104 C-41.10586426 103.4423999 -41.21172852 102.8847998 -41.32080078 102.31030273 C-42.36117984 95.70789719 -42.79190158 89.21531807 -40 83 C-33.92189396 76.79665639 -25.41661301 73.44462792 -17.65283203 69.77832031 C-11.90789101 67.03317175 -6.47704413 63.73742612 -1 60.5 C1.13518069 59.26296642 3.27191174 58.02860511 5.41015625 56.796875 C6.4789502 56.18005859 7.54774414 55.56324219 8.64892578 54.92773438 C11.58425933 53.23915841 14.52328325 51.55740571 17.4649353 49.87988281 C19.87653083 48.50413209 22.28611876 47.12488653 24.69555664 45.74536133 C26.3999055 44.77148182 28.10714938 43.80267435 29.81445312 42.83398438 C30.84376953 42.24423828 31.87308594 41.65449219 32.93359375 41.046875 C33.84165771 40.52963867 34.74972168 40.01240234 35.68530273 39.47949219 C37.77350796 38.14476761 39.34578204 36.83066332 41 35 C39.56542672 34.0165504 38.12722594 33.03839079 36.6875 32.0625 C35.88699219 31.51722656 35.08648437 30.97195312 34.26171875 30.41015625 C30.55252606 28.05323972 30.55252606 28.05323972 26.50170898 29.1171875 Z M41.9375 45.0625 C40.39399862 45.98826327 38.84967382 46.91265455 37.3046875 47.8359375 C36.45745117 48.34350586 35.61021484 48.85107422 34.73730469 49.37402344 C29.70786365 52.36154371 24.63302632 55.27044979 19.5625 58.1875 C17.33851872 59.46871017 15.11456077 60.74996083 12.890625 62.03125 C11.76462891 62.67964844 10.63863281 63.32804687 9.47851562 63.99609375 C5.91680423 66.04746236 2.35667597 68.10156839 -1.203125 70.15625 C-1.79154678 70.49586258 -2.37996857 70.83547516 -2.98622131 71.18537903 C-5.81109084 72.81580862 -8.63590443 74.44633508 -11.46069336 76.0769043 C-16.63428027 79.06221762 -21.81072232 82.04203833 -27 85 C-21.35855518 91.28319648 -13.17691033 96.75313634 -5 99 C-0.08978686 98.25854226 3.29310289 96.10785445 7.22509766 93.25585938 C9.62639386 91.55678542 12.15047 90.12766731 14.70385742 88.67138672 C16.83901871 87.44903809 18.95137239 86.19305779 21.0625 84.9296875 C26.92493702 81.43701669 32.83732528 78.03171182 38.75 74.625 C40.40056396 73.67355103 40.40056396 73.67355103 42.08447266 72.70288086 C52.37483563 66.776 62.68283635 60.88008505 73 55 C73 54.34 73 53.68 73 53 C69.56853286 50.98951049 66.12889088 48.99344755 62.6875 47 C61.71103516 46.42765625 60.73457031 45.8553125 59.72851562 45.265625 C58.79072266 44.72421875 57.85292969 44.1828125 56.88671875 43.625 C55.59060669 42.87089844 55.59060669 42.87089844 54.26831055 42.1015625 C49.29541247 39.68656776 46.17839617 42.46954046 41.9375 45.0625 Z M-88 62 C-88.39483244 73.56058013 -88.69639429 85.11954522 -88.88080692 96.68550682 C-88.96934909 102.05725408 -89.08926972 107.42437414 -89.2824707 112.79345703 C-89.46796056 117.98104338 -89.56896846 123.16419965 -89.61291313 128.35484695 C-89.64419813 130.3289636 -89.70531026 132.30285119 -89.79741096 134.27506638 C-90.29483315 143.3453542 -90.29483315 143.3453542 -88 152 C-83.93276905 156.42546329 -78.55649034 158.80939069 -73.09191132 161.09151173 C-70.06198836 162.40736553 -67.32283771 164.05918338 -64.49609375 165.765625 C-62.47688773 166.92764866 -60.45735392 168.0891029 -58.4375 169.25 C-49.61233969 174.33255647 -40.79779 179.43269788 -32 184.5625 C-30.5603186 185.40119629 -30.5603186 185.40119629 -29.09155273 186.25683594 C-23.68542403 189.41227116 -18.31850415 192.61871408 -12.99609375 195.91381836 C-11.0859554 197.15932374 -11.0859554 197.15932374 -9 197 C-8.69836545 185.40435335 -8.46759849 173.80964392 -8.32644176 162.21086884 C-8.25867874 156.82438818 -8.16684052 151.44059666 -8.01928711 146.05566406 C-7.87768844 140.85530875 -7.80024144 135.65753312 -7.76659584 130.45539856 C-7.74263261 128.47434355 -7.69582915 126.4934251 -7.62550926 124.51347351 C-6.85412931 114.46556994 -6.85412931 114.46556994 -10.24435806 105.40371704 C-13.73468399 102.34844007 -17.69917527 100.69052237 -22 99 C-23.94442413 98.01353101 -25.88279473 97.01496001 -27.8125 96 C-29.194375 95.34 -30.57625 94.68 -32 94 C-32.33 101.26 -32.66 108.52 -33 116 C-40.88125926 114.87410582 -40.88125926 114.87410582 -45.2421875 112.34765625 C-46.16257813 111.81849609 -47.08296875 111.28933594 -48.03125 110.74414062 C-48.9696875 110.18919922 -49.908125 109.63425781 -50.875 109.0625 C-51.83664063 108.51142578 -52.79828125 107.96035156 -53.7890625 107.39257812 C-60.85799449 103.28401101 -60.85799449 103.28401101 -62 101 C-62.0467987 99.18289421 -62.03753099 97.36419583 -62 95.546875 C-62.00128906 94.45246094 -62.00257812 93.35804688 -62.00390625 92.23046875 C-62.00131934 89.92553407 -61.96787289 87.6204107 -61.90234375 85.31640625 C-61.8422154 79.14930944 -61.8422154 79.14930944 -64.80883789 74.01904297 C-67.13707018 72.45000067 -69.46824089 71.20931952 -72 70 C-73.2968655 69.23223053 -74.58784411 68.45437918 -75.87109375 67.6640625 C-77.05798872 66.98105019 -78.24676041 66.30128746 -79.4375 65.625 C-80.04787109 65.27050781 -80.65824219 64.91601562 -81.28710938 64.55078125 C-84.44168185 62.61993463 -84.44168185 62.61993463 -88 62 Z M72.46875 64.53515625 C71.52660645 65.08937256 70.58446289 65.64358887 69.61376953 66.21459961 C68.07245361 67.1293103 68.07245361 67.1293103 66.5 68.0625 C64.29983999 69.35738411 62.09930662 70.65163401 59.8984375 71.9453125 C59.32954803 72.28036301 58.76065857 72.61541351 58.17453003 72.96061707 C52.17928174 76.48989312 46.15389384 79.96612397 40.125 83.4375 C39.06482666 84.04875732 38.00465332 84.66001465 36.91235352 85.28979492 C31.76830595 88.25529634 26.6224244 91.21758718 21.47442627 94.17622375 C19.04665732 95.57181471 16.61956752 96.96858415 14.19256592 98.36550903 C12.46581312 99.35871466 10.73804168 100.35014865 9.01025391 101.34155273 C7.97433105 101.93782471 6.9384082 102.53409668 5.87109375 103.1484375 C4.95255615 103.67614746 4.03401855 104.20385742 3.08764648 104.74755859 C1.08479141 105.8343467 1.08479141 105.8343467 0 107 C-0.09519368 109.7998972 -0.12553944 112.57506174 -0.11352539 115.37524414 C-0.11367142 116.25321152 -0.11381744 117.13117889 -0.1139679 118.03575134 C-0.11326844 120.95224435 -0.10547455 123.86867433 -0.09765625 126.78515625 C-0.09579218 128.80154892 -0.09436823 130.81794204 -0.09336853 132.83433533 C-0.08954244 138.15265138 -0.07971139 143.4709403 -0.06866455 148.78924561 C-0.05845238 154.21170688 -0.05387133 159.63417252 -0.04882812 165.05664062 C-0.0380892 175.70443903 -0.02101169 186.35221726 0 197 C3.76716237 195.53028926 7.19053264 193.8497922 10.69921875 191.83203125 C11.81296875 191.19362305 12.92671875 190.55521484 14.07421875 189.89746094 C15.27871376 189.20259169 16.48313907 188.50760162 17.6875 187.8125 C18.93996421 187.09252991 20.19257055 186.37280703 21.4453125 185.65332031 C24.02763947 184.16939888 26.60876216 182.68341266 29.18896484 181.19580078 C32.76491089 179.13440502 36.34501009 177.08034671 39.92578125 175.02734375 C42.117336 173.76848765 44.3087485 172.50938387 46.5 171.25 C47.46252686 170.69803955 48.42505371 170.1460791 49.41674805 169.57739258 C51.4281778 168.41824935 53.41135679 167.20910785 55.36816406 165.95996094 C58.21912734 164.25360692 60.9945123 163.38579507 64.18652344 162.48535156 C70.56030017 160.31519506 75.4391683 157.91464618 79 152 C82.91288169 138.68929363 80.95414982 123.11818526 80.37329102 109.45544434 C80.16758438 104.10727551 80.07712591 98.75724562 79.9765625 93.40625 C79.7629256 82.93254867 79.42227391 72.46722219 79 62 C76.24259245 62 74.84195193 63.13027418 72.46875 64.53515625 Z M88 110 C88 114.62 88 119.24 88 124 C91.54997152 122.58001139 94.18729934 121.3878411 97.3125 119.375 C98.00988281 118.92898437 98.70726562 118.48296875 99.42578125 118.0234375 C99.94527344 117.68570313 100.46476563 117.34796875 101 117 C95.03877359 112.11009257 95.03877359 112.11009257 88 110 Z M101.4375 126.93359375 C100.72335938 127.33513672 100.00921875 127.73667969 99.2734375 128.15039062 C98.52320313 128.57513672 97.77296875 128.99988281 97 129.4375 C96.24976563 129.85837891 95.49953125 130.27925781 94.7265625 130.71289062 C91.15162899 132.56504437 91.15162899 132.56504437 88 135 C87.85540295 136.4515606 87.77302889 137.90945286 87.71875 139.3671875 C87.68136719 140.25277344 87.64398438 141.13835937 87.60546875 142.05078125 C87.57066406 142.98277344 87.53585938 143.91476563 87.5 144.875 C87.43105461 146.70588303 87.35829824 148.53662756 87.28125 150.3671875 C87.25095703 151.18300293 87.22066406 151.99881836 87.18945312 152.83935547 C87 155 87 155 86 158 C83.91235352 159.47949219 83.91235352 159.47949219 81.12890625 161.046875 C80.09161377 161.63750732 79.05432129 162.22813965 77.9855957 162.83666992 C76.85597412 163.46806885 75.72635254 164.09946777 74.5625 164.75 C73.39553542 165.41090904 72.22911981 166.07278827 71.06323242 166.7355957 C68.62302466 168.12190308 66.18045656 169.50391862 63.73632812 170.88330078 C57.73694834 174.27492667 51.77749513 177.7359056 45.8125 181.1875 C43.69425522 182.41058032 41.57578013 183.6332619 39.45703125 184.85546875 C38.1263562 185.62346802 38.1263562 185.62346802 36.76879883 186.40698242 C33.51647652 188.27819334 30.25782491 190.13838577 27 192 C27 214.44 27 236.88 27 260 C30.62806134 258.54877547 33.74228784 257.12455815 37.11328125 255.234375 C38.59550171 254.40486328 38.59550171 254.40486328 40.10766602 253.55859375 C41.69405884 252.66333984 41.69405884 252.66333984 43.3125 251.75 C44.97333618 250.81607422 44.97333618 250.81607422 46.66772461 249.86328125 C57.14657927 243.95224683 67.54026263 237.89859991 77.91503906 231.80712891 C81.20741421 229.87849953 84.50536479 227.9596869 87.8046875 226.04296875 C88.91448975 225.39779297 90.02429199 224.75261719 91.16772461 224.08789062 C93.31119249 222.84210895 95.45521608 221.59728281 97.59985352 220.35351562 C98.55561279 219.79728516 99.51137207 219.24105469 100.49609375 218.66796875 C101.34357178 218.17578857 102.1910498 217.6836084 103.06420898 217.17651367 C104.93445415 216.14454878 104.93445415 216.14454878 106 215 C106.09519368 212.2001028 106.12553944 209.42493826 106.11352539 206.62475586 C106.11367142 205.74678848 106.11381744 204.86882111 106.1139679 203.96424866 C106.11326844 201.04775565 106.10547455 198.13132567 106.09765625 195.21484375 C106.09579218 193.19845108 106.09436823 191.18205796 106.09336853 189.16566467 C106.08954244 183.84734862 106.07971139 178.5290597 106.06866455 173.21075439 C106.05845238 167.78829312 106.05387133 162.36582748 106.04882812 156.94335938 C106.0380892 146.29556097 106.02101169 135.64778274 106 125 C104.26673756 125 102.92267139 126.09782155 101.4375 126.93359375 Z M-60 179 C-60.22324847 184.01679391 -60.38612008 189.03067531 -60.49438477 194.05126953 C-60.53952418 195.75686004 -60.60085724 197.46210452 -60.67895508 199.16650391 C-61.45970286 208.66684814 -61.45970286 208.66684814 -58.37841797 217.25 C-55.99699024 218.87523978 -53.66963908 219.91476534 -51 221 C-49.07258462 222.07999559 -47.15633188 223.18008527 -45.25 224.296875 C-43.16839407 225.45103767 -41.08499309 226.60196755 -39 227.75 C-31.81106894 231.74176094 -24.63370008 235.74008986 -17.5625 239.9375 C-10.6658914 244.02820414 -3.74144629 248.06943959 3.19998169 252.08352661 C4.3961631 252.77562574 5.59186584 253.46855286 6.78707886 254.162323 C8.46099166 255.13377118 10.13670647 256.10211228 11.8125 257.0703125 C12.78832031 257.63508301 13.76414062 258.19985352 14.76953125 258.78173828 C16.72268958 260.07989168 16.72268958 260.07989168 18 260 C18 239.54 18 219.08 18 198 C8.49437448 202.64132908 8.49437448 202.64132908 -0.18359375 208.1171875 C-2.63236374 209.30734238 -4.28866124 209.21547878 -7 209 C-9.3581543 207.95288086 -9.3581543 207.95288086 -11.82421875 206.46484375 C-12.75854736 205.90949951 -13.69287598 205.35415527 -14.65551758 204.78198242 C-15.65607178 204.17330322 -16.65662598 203.56462402 -17.6875 202.9375 C-19.83026236 201.66067461 -21.97350975 200.38466293 -24.1171875 199.109375 C-25.23577148 198.43970703 -26.35435547 197.77003906 -27.50683594 197.08007812 C-32.83539543 193.89818727 -38.20700003 190.79046885 -43.5819397 187.68777466 C-45.29233694 186.69915438 -47.00006836 185.70592666 -48.70776367 184.71264648 C-49.74908447 184.11009033 -50.79040527 183.50753418 -51.86328125 182.88671875 C-52.78407471 182.35264404 -53.70486816 181.81856934 -54.65356445 181.26831055 C-57.0419151 179.88996345 -57.0419151 179.88996345 -60 179 Z M-53.0625 238 C-53.72572266 238.3815625 -54.38894531 238.763125 -55.07226562 239.15625 C-56.71594643 240.10225334 -58.35811445 241.05088423 -60 242 C-58.82011254 245.53966237 -58.23447342 245.71699132 -55.0703125 247.41015625 C-54.27496094 247.84263672 -53.47960938 248.27511719 -52.66015625 248.72070312 C-51.82355469 249.16349609 -50.98695312 249.60628906 -50.125 250.0625 C-48.48126316 250.94827731 -46.83801408 251.83496049 -45.1953125 252.72265625 C-44.09727295 253.30672241 -44.09727295 253.30672241 -42.97705078 253.90258789 C-41.26855075 254.85093411 -39.62587246 255.91608503 -38 257 C-33.59480094 256.70732068 -30.41062133 254.68773817 -26.6875 252.4375 C-25.61886719 251.79683594 -24.55023438 251.15617187 -23.44921875 250.49609375 C-22.64097656 250.00238281 -21.83273438 249.50867188 -21 249 C-25.533613 245.06587302 -30.56135261 242.21383007 -35.75 239.25 C-36.62527344 238.74339844 -37.50054687 238.23679687 -38.40234375 237.71484375 C-45.34074164 233.72392031 -46.09253096 233.96654773 -53.0625 238 Z M78.328125 241.0078125 C77.19979248 241.6584668 76.07145996 242.30912109 74.90893555 242.97949219 C73.68917837 243.69447044 72.46953575 244.40964414 71.25 245.125 C69.99758163 245.85132779 68.74472828 246.57690602 67.49145508 247.30175781 C64.2812383 249.16128907 61.07711123 251.03104035 57.87481689 252.9041748 C54.93870222 254.62032557 51.99842113 256.32927956 49.05859375 258.0390625 C45.01892677 260.39039307 40.98248058 262.7470764 36.94921875 265.109375 C36.09658447 265.60638916 35.2439502 266.10340332 34.36547852 266.61547852 C32.86623191 267.49299193 31.37133311 268.37801197 29.88256836 269.27319336 C25.30299279 271.99326683 25.30299279 271.99326683 22.1875 272.0625 C19 271 19 271 16.89453125 269.5234375 C14.15053882 267.7060461 12.25649349 266.60465396 9 266 C3.83375315 267.56787974 -0.64320508 270.90504338 -5 274 C-5 274.66 -5 275.32 -5 276 C-1.59497856 278.04096165 1.82567112 280.05412887 5.25 282.0625 C6.21808594 282.64322266 7.18617187 283.22394531 8.18359375 283.82226562 C9.11816406 284.36689453 10.05273438 284.91152344 11.015625 285.47265625 C11.87446289 285.98062744 12.73330078 286.48859863 13.61816406 287.01196289 C16.36615798 288.15189025 17.28610715 288.09626256 20 287 C22.62161921 285.65098294 25.18605087 284.26388237 27.75 282.8125 C28.53439453 282.37252686 29.31878906 281.93255371 30.12695312 281.47924805 C38.67008326 276.6641952 47.12813773 271.7022838 55.58984375 266.74609375 C62.39797091 262.7610291 69.22816464 258.8148785 76.0625 254.875 C77.15046875 254.24762939 78.2384375 253.62025879 79.359375 252.97387695 C84.56724088 249.9725747 89.77843303 246.97740415 95 244 C92.74259377 241.66475218 90.7194239 239.81294927 88 238 C83.53290769 238 82.11937749 238.80287091 78.328125 241.0078125 Z M-66 251 C-66 281.03 -66 311.06 -66 342 C-60.06 345.3 -54.12 348.6 -48 352 C-44.19845105 354.19414952 -40.40579208 356.39620292 -36.625 358.625 C-27.46898136 363.99341096 -18.27902269 369.29892633 -9.0625 374.5625 C-8.47212952 374.89993225 -7.88175903 375.2373645 -7.27349854 375.58502197 C-0.53830051 379.43360563 6.2184166 383.23245367 13 387 C13 356.97 13 326.94 13 296 C2.06967808 287.85484047 2.06967808 287.85484047 -10 284 C-10.33 290.93 -10.66 297.86 -11 305 C-17.74615385 305 -17.74615385 305 -22.109375 302.375 C-23.02847656 301.83359375 -23.94757813 301.2921875 -24.89453125 300.734375 C-26.30798828 299.87585938 -26.30798828 299.87585938 -27.75 299 C-29.63851701 297.87146494 -31.529043 296.74628271 -33.421875 295.625 C-34.25299805 295.12226563 -35.08412109 294.61953125 -35.94042969 294.1015625 C-37.90465694 292.84279014 -37.90465694 292.84279014 -40 293 C-39.90460937 292.2251123 -39.80921875 291.45022461 -39.7109375 290.65185547 C-38.83491949 282.08648756 -38.03454766 273.22089286 -41 265 C-47.17735421 258.01129935 -56.36808811 254.15453147 -65 251 C-65.33 251 -65.66 251 -66 251 Z M93.6171875 254.3515625 C92.25630005 255.12282471 92.25630005 255.12282471 90.86791992 255.90966797 C89.88025635 256.47572754 88.89259277 257.04178711 87.875 257.625 C86.84673096 258.21039551 85.81846191 258.79579102 84.7590332 259.39892578 C75.55246656 264.65323141 66.39755334 269.99540475 57.25 275.3515625 C52.77983031 277.96632522 48.29997483 280.56354473 43.8125 283.1484375 C43.21552811 283.49232513 42.61855621 283.83621277 42.00349426 284.19052124 C39.09922164 285.86287815 36.19395289 287.53347503 33.2878418 289.20263672 C32.24797119 289.80092285 31.20810059 290.39920898 30.13671875 291.015625 C28.75552856 291.80888184 28.75552856 291.80888184 27.34643555 292.61816406 C25.52937233 293.68824811 23.75458054 294.83027964 22 296 C21.71386561 298.90070054 21.62191273 301.58696591 21.65942383 304.48876953 C21.65898575 305.36688293 21.65854767 306.24499634 21.65809631 307.14971924 C21.6601914 310.06097416 21.68355625 312.97165782 21.70703125 315.8828125 C21.71262464 317.89777308 21.71689595 319.91273774 21.71989441 321.92770386 C21.73136337 327.23788668 21.76084818 332.54782437 21.79400635 337.85791016 C21.82466307 343.27372928 21.83839033 348.68958792 21.85351562 354.10546875 C21.88571592 364.73708703 21.93693701 375.36852315 22 386 C24.95778514 384.83139604 27.80077516 383.65369481 30.58203125 382.109375 C31.25363281 381.73723877 31.92523438 381.36510254 32.6171875 380.98168945 C33.70386719 380.37200317 33.70386719 380.37200317 34.8125 379.75 C35.59238281 379.31453857 36.37226563 378.87907715 37.17578125 378.43041992 C45.70608491 373.6429536 54.14192051 368.69406804 62.58203125 363.75 C70.54380706 359.0894483 78.53918278 354.48751978 86.53515625 349.88598633 C88.08589844 348.99302856 88.08589844 348.99302856 89.66796875 348.08203125 C90.57828857 347.55843018 91.4886084 347.0348291 92.42651367 346.49536133 C93.27576416 346.00189209 94.12501465 345.50842285 95 345 C95.86637085 344.65158051 96.7327417 344.30316101 97.62536621 343.94418335 C100.41286968 342.10128245 100.41286968 342.10128245 100.60127258 338.2224884 C100.6157905 336.61425372 100.60241911 335.00562892 100.56762695 333.39770508 C100.56835709 332.51944565 100.56908722 331.64118622 100.56983948 330.73631287 C100.56635286 327.83009313 100.52744142 324.92547134 100.48828125 322.01953125 C100.47895694 320.00600561 100.47183902 317.99246864 100.46684265 315.97892761 C100.44774287 310.67677545 100.39861607 305.37530709 100.34332275 300.07342529 C100.29219469 294.66427868 100.26934237 289.25502167 100.24414062 283.84570312 C100.19050049 273.23016815 100.1051514 262.61514091 100 252 C97.3136775 252 95.95361763 253.02176826 93.6171875 254.3515625 Z M-30.18359375 262.87841797 C-34.28238256 267.66584737 -33.39801013 273.79871742 -32.96557617 279.73291016 C-32.71014656 282.17154001 -32.39538508 284.58062751 -32 287 C-30.21118264 288.00508801 -28.41885304 289.00392736 -26.625 290 C-25.62726563 290.556875 -24.62953125 291.11375 -23.6015625 291.6875 C-21.18804491 293.15014268 -21.18804491 293.15014268 -19 293 C-19.05873291 292.41621582 -19.11746582 291.83243164 -19.17797852 291.23095703 C-19.6997912 284.80815932 -20.18992202 278.15343108 -18 272 C-13.97580317 267.39778007 -8.25769908 265.008166 -2.65820312 262.81176758 C-0.80288947 262.1113597 -0.80288947 262.1113597 0 260 C-1.59910868 258.99193149 -3.20448262 257.99379615 -4.8125 257 C-5.70582031 256.443125 -6.59914063 255.88625 -7.51953125 255.3125 C-14.59281843 251.56978426 -24.55923214 258.52096522 -30.18359375 262.87841797 Z " fill="#6262ff " transform="translate(96,57)"/>
<path d="M0 0 C1.50878085 -0.00785502 1.50878085 -0.00785502 3.04804212 -0.01586872 C6.42263722 -0.03088505 9.79708091 -0.03157425 13.17170715 -0.03224182 C15.58968868 -0.03986227 18.00766779 -0.04828957 20.42564392 -0.0574646 C26.99812636 -0.07942948 33.57057292 -0.08823324 40.14308333 -0.09329104 C44.24969382 -0.09655074 48.35629496 -0.10307491 52.46290016 -0.11029243 C63.84055752 -0.12985669 75.2182062 -0.14626161 86.59588146 -0.14916897 C87.32369022 -0.14935654 88.05149897 -0.14954411 88.80136253 -0.14973736 C90.27671389 -0.1501036 91.75206524 -0.1504673 93.2274166 -0.15082847 C94.32591708 -0.15110269 94.32591708 -0.15110269 95.4466095 -0.15138245 C96.54645635 -0.15165327 96.54645635 -0.15165327 97.66852234 -0.15192956 C109.54377265 -0.15546958 121.41884145 -0.18248186 133.29402884 -0.21988034 C145.49611903 -0.25799966 157.69811925 -0.27732671 169.90027028 -0.27762848 C176.7472964 -0.27821228 183.59410603 -0.28665379 190.44107628 -0.31562614 C196.88353501 -0.34276205 203.3256784 -0.34401399 209.76817703 -0.3279705 C212.12961193 -0.32615559 214.49107143 -0.33285041 216.85245323 -0.34878922 C220.08313005 -0.36926178 223.31231008 -0.35868951 226.54296875 -0.34057617 C227.47149397 -0.35377614 228.40001918 -0.36697611 229.35668153 -0.38057607 C236.86144804 -0.28485597 243.46046449 1.90044636 249.03993577 7.08815962 C253.56331534 12.01156669 255.33578486 16.55650381 255.35179901 23.28068829 C255.3594813 24.4932148 255.36716359 25.70574132 255.37507868 26.95501107 C255.37351831 28.29720691 255.37176076 29.63940254 255.36982727 30.9815979 C255.37499635 32.41009523 255.38102317 33.83858968 255.38783407 35.26708013 C255.40395987 39.19283799 255.40755241 43.11852268 255.40902901 47.04430974 C255.41273261 51.2782831 255.42782856 55.5122186 255.44129944 59.74617004 C255.46845705 69.00450932 255.48051411 78.26283127 255.48932076 87.52120376 C255.49484716 93.30291025 255.50332215 99.08461005 255.5123291 104.86631203 C255.53671331 120.87628223 255.55731213 136.88624709 255.56407928 152.89623547 C255.56473798 154.43309028 255.56473798 154.43309028 255.56540999 156.00099267 C255.56584654 157.02800453 255.5662831 158.05501639 255.56673288 159.11314982 C255.56761981 161.19424324 255.56851294 163.27533665 255.56941223 165.35643005 C255.57007652 166.90486912 255.57007652 166.90486912 255.57075423 168.48458979 C255.5786495 185.20973402 255.61355585 201.93470393 255.66013128 218.65978082 C255.70757094 235.83392282 255.73248356 253.00797737 255.73481512 270.18218595 C255.73664795 279.8237856 255.74813525 289.46515812 255.78445435 299.10669518 C255.81527356 307.31708841 255.82548741 315.52718434 255.80897814 323.73762443 C255.80117083 327.92534817 255.80299417 332.11247335 255.83109283 336.30012321 C255.85660833 340.1379567 255.85414619 343.97474308 255.82991141 347.8125755 C255.82415987 349.84995268 255.84784277 351.88734825 255.87275553 353.92458123 C255.78386171 362.19072306 254.30004537 367.75899992 249.08894348 374.27415466 C246.67488098 376.52806091 246.67488098 376.52806091 244.46394348 377.83665466 C243.72917786 378.29169373 242.99441223 378.74673279 242.23738098 379.21556091 C238.7672966 380.92536613 235.64394888 381.39901337 231.79842949 381.41116905 C230.51558581 381.41878087 230.51558581 381.41878087 229.20682609 381.42654645 C227.80461144 381.42729309 227.80461144 381.42729309 226.37406921 381.42805481 C225.37723684 381.43243706 224.38040447 381.43681932 223.35336506 381.44133437 C220.00334112 381.45472012 216.65334348 381.46090075 213.30329895 381.46702576 C210.9051705 381.4749269 208.50704324 381.48319585 206.10891724 381.49180603 C198.90543815 381.51576086 191.70195732 381.53095349 184.49845237 381.5438661 C182.46289045 381.54757983 180.42732922 381.55155291 178.39176798 381.55561876 C165.74333215 381.580857 153.09489519 381.60290375 140.44643974 381.61534691 C137.51802949 381.61827646 134.58961927 381.62123815 131.66120911 381.62425232 C130.9333936 381.62499837 130.20557809 381.62574442 129.45570756 381.62651308 C117.67093265 381.6391612 105.88630878 381.67237845 94.10160445 381.71405415 C81.99447567 381.75651808 69.88742414 381.78004706 57.7802211 381.78526747 C50.98570559 381.78867653 44.19142616 381.80037177 37.3969841 381.83337021 C31.00293771 381.86344981 24.60930247 381.86976262 18.21520042 381.85798645 C15.87149841 381.85776571 13.52777733 381.86607084 11.18414116 381.88364029 C7.97750805 381.90636618 4.77236151 381.89801981 1.5657196 381.88215637 C0.64429417 381.89603846 -0.27713127 381.90992055 -1.2264787 381.9242233 C-8.68848861 381.83363869 -15.00307091 379.5750378 -20.7546531 374.71695936 C-28.34747307 366.65300698 -28.34783057 356.88807327 -28.29873657 346.35144043 C-28.30291469 344.94836341 -28.30839482 343.54528977 -28.31505638 342.14222234 C-28.32946701 338.30525957 -28.32528009 334.46851239 -28.31788957 330.63153803 C-28.31314933 326.48625162 -28.32567527 322.34101128 -28.33590698 318.19573975 C-28.35308327 310.08220233 -28.35393746 301.96874241 -28.34869408 293.85519154 C-28.34464915 287.25937383 -28.34609977 280.66357899 -28.35144234 274.06776237 C-28.35219076 273.12824619 -28.35293918 272.18873001 -28.35371028 271.22074364 C-28.35524179 269.31199475 -28.35678014 267.40324587 -28.35832525 265.49449699 C-28.37204593 247.60397515 -28.36661552 229.71349706 -28.35514004 211.82297622 C-28.34520698 195.46348208 -28.35815035 179.10410103 -28.38207423 162.74462432 C-28.40646861 145.93647489 -28.41607233 129.12837813 -28.4094215 112.32021135 C-28.40593018 102.88776799 -28.40815567 93.4554116 -28.42567253 84.02298164 C-28.44039868 75.9938776 -28.44102448 67.9649218 -28.42360162 59.93582065 C-28.41509286 55.84136263 -28.41293895 51.74716939 -28.42825317 47.65272522 C-28.44211399 43.90034699 -28.43731967 40.14846002 -28.41801394 36.39611011 C-28.41248634 34.4046885 -28.42651378 32.41324179 -28.44136804 30.42186791 C-28.37105221 21.83351167 -27.31322986 14.41275551 -21.72746277 7.61790466 C-20.98367371 7.00946716 -20.23988464 6.40102966 -19.47355652 5.77415466 C-18.36174011 4.83056091 -18.36174011 4.83056091 -17.22746277 3.86790466 C-11.5981213 -0.00523416 -6.62759007 -0.01703368 0 0 Z M-16.22355652 15.77415466 C-18.94013959 19.79872218 -19.03685614 23.21442506 -19.0452776 28.00705338 C-19.04973544 29.18398829 -19.05419328 30.3609232 -19.05878621 31.57352281 C-19.05860185 32.86766406 -19.05841749 34.16180531 -19.05822754 35.49516296 C-19.06152734 36.88297241 -19.06525315 38.2707809 -19.06936902 39.65858817 C-19.07938373 43.4764377 -19.08310495 47.29427151 -19.08575833 51.11213231 C-19.08966287 55.22814301 -19.09924101 59.34414128 -19.10797119 63.46014404 C-19.12772989 73.40149724 -19.13780041 83.34285146 -19.14669898 93.28421938 C-19.15108228 97.96531085 -19.15644893 102.64640119 -19.16168785 107.32749176 C-19.17869846 122.8870635 -19.19319331 138.44663453 -19.20043659 154.00621414 C-19.20234649 158.04360709 -19.20426683 162.08100002 -19.20622253 166.11839294 C-19.20670627 167.12186963 -19.20719001 168.12534632 -19.20768841 169.15923139 C-19.21599131 185.42015507 -19.24133337 201.68100525 -19.27380321 217.94189683 C-19.30686378 234.63460675 -19.32488439 251.32727931 -19.32808083 268.02002215 C-19.3302467 277.39324423 -19.33900681 286.76635907 -19.36454201 296.13954926 C-19.38623519 304.12087391 -19.39430619 312.10206528 -19.38457523 320.08341607 C-19.38002669 324.15532496 -19.38194877 328.22695877 -19.40133667 332.29883003 C-19.41894166 336.02846517 -19.41799265 339.757624 -19.40243938 343.48726401 C-19.39893399 345.47146841 -19.4151094 347.45567766 -19.43204385 349.4398129 C-19.38080608 356.52974904 -18.79080693 361.27275981 -14.91105652 367.27415466 C-11.07629936 370.9218505 -8.0482286 372.39435712 -2.78485584 372.41116905 C-1.94083456 372.41624359 -1.09681327 372.42131814 -0.22721559 372.42654645 C0.70019842 372.42704421 1.62761242 372.42754197 2.58312988 372.42805481 C3.5682683 372.43243706 4.55340672 372.43681932 5.56839782 372.44133437 C8.88473721 372.45473831 12.20105001 372.46090482 15.51741028 372.46702576 C17.88908 372.47492545 20.26074852 372.48319431 22.63241577 372.49180603 C29.76066008 372.51577565 36.88890969 372.53095597 44.01718089 372.5438661 C46.03084076 372.54757866 48.04449993 372.55155184 50.05815911 372.55561876 C62.56526106 372.58085601 75.07236411 372.60290705 87.57948589 372.61534691 C90.47611177 372.61827656 93.37273761 372.62123823 96.2693634 372.62425232 C96.98929719 372.62499837 97.70923098 372.62574442 98.45098094 372.62651308 C110.11107405 372.63916422 121.77101458 372.6723845 133.43103638 372.71405415 C145.4047824 372.75649384 157.37845035 372.78004428 169.35227138 372.78526747 C176.07408025 372.78867931 182.7956507 372.80040729 189.51738548 372.83337021 C195.8416478 372.863412 202.16549444 372.86977618 208.48981285 372.85798645 C210.81016589 372.8577654 213.13053801 372.86609663 215.45082474 372.88364029 C218.62099714 372.90630387 221.78965872 372.89804877 224.95983887 372.88215637 C225.87609926 372.89603846 226.79235966 372.90992055 227.73638552 372.9242233 C233.96051475 372.8474479 238.32602209 371.38191364 243.08894348 367.27415466 C246.54078254 361.92937161 247.21316609 356.77034543 247.21757793 350.51191235 C247.22080238 349.35388676 247.22402683 348.19586117 247.22734898 347.0027439 C247.22580038 345.73486118 247.22425178 344.46697846 247.22265625 343.16067505 C247.22452477 341.79675175 247.22682564 340.43282899 247.22952157 339.06890708 C247.23564093 335.32172168 247.23550582 331.57455859 247.2343272 327.82736933 C247.23412322 323.78568148 247.23964163 319.7440008 247.24438477 315.70231628 C247.25269267 307.78410338 247.25543967 299.86589793 247.25599714 291.94768103 C247.25647225 285.51146373 247.25852671 279.07524889 247.26169777 272.63903236 C247.2705048 254.39237526 247.27511708 236.14572404 247.2743673 217.8990648 C247.27432734 216.91529807 247.27428738 215.93153134 247.27424622 214.91795349 C247.27420534 213.93298599 247.27416445 212.94801849 247.27412234 211.9332035 C247.27371587 195.96982867 247.28328538 180.00647744 247.29738458 164.04310944 C247.31174632 147.65321098 247.31865488 131.26332402 247.31779081 114.87341911 C247.31745876 105.6712757 247.3202091 96.46915701 247.33096886 87.26701927 C247.34007119 79.4321348 247.34225131 71.59728627 247.33545943 63.7623988 C247.33219286 59.76549689 247.33214251 55.76866394 247.34081268 51.77176857 C247.34867253 48.11075388 247.34725154 44.44986289 247.33852855 40.78885124 C247.33626634 38.84149569 247.34382628 36.89413631 247.3517682 34.94679564 C247.32271657 24.23617651 247.32271657 24.23617651 243.33894348 14.46165466 C237.81828521 9.09434801 232.47452572 8.83904142 225.18257141 8.88647461 C224.18937503 8.88108907 223.19617866 8.87570353 222.17288542 8.8701548 C218.84725243 8.8558555 215.52201637 8.86298394 212.19636536 8.87010193 C209.81115397 8.86439946 207.42594531 8.85743568 205.04074097 8.8493042 C199.23620803 8.83321038 193.43179941 8.83127459 187.62724888 8.8365171 C182.90918259 8.84056092 178.19114827 8.83911275 173.4730835 8.83376884 C172.80121599 8.83302042 172.12934849 8.832272 171.43712136 8.8315009 C170.07217395 8.8299694 168.70722654 8.82843106 167.34227914 8.82688593 C154.54748756 8.81316375 141.75275716 8.81859686 128.95796698 8.83007114 C117.25469487 8.84000598 105.5515808 8.82705809 93.84833306 8.80313695 C81.82702576 8.77875105 69.80579209 8.76913665 57.78446054 8.77578968 C51.03710743 8.77928269 44.28987591 8.77704435 37.5425415 8.75953865 C31.19938284 8.74410078 24.85652663 8.74799027 18.51338005 8.7668438 C16.18413794 8.77053821 13.85487358 8.76739654 11.52565193 8.75695801 C8.34852193 8.74380542 5.17240173 8.75524551 1.99531555 8.77294922 C1.07138488 8.76334421 0.14745421 8.75373921 -0.80447435 8.74384314 C-7.67938973 8.82278491 -11.46607873 10.63093543 -16.22355652 15.77415466 Z " fill="#6262ff " transform="translate(256.9110565185547,71.72584533691406)"/>
<path d="M0 0 C0.83389812 -0.00367669 1.66779625 -0.00735338 2.52696401 -0.01114148 C5.33742488 -0.02220543 8.14784882 -0.02602676 10.95832825 -0.02983093 C12.96694558 -0.03609358 14.97556175 -0.0427402 16.98417664 -0.04974365 C22.45335802 -0.06717287 27.92253064 -0.07771084 33.39173293 -0.08594918 C36.80732294 -0.09109569 40.22291022 -0.09717161 43.63849831 -0.10346031 C54.3209607 -0.12251849 65.00341615 -0.13674781 75.68589228 -0.14507228 C88.02438384 -0.15484537 100.36269603 -0.18116424 112.70112437 -0.22157317 C122.23240697 -0.25171911 131.76363812 -0.26653975 141.29496747 -0.26985329 C146.99001184 -0.27220569 152.68486472 -0.2811907 158.37985802 -0.30631447 C163.73884522 -0.32957318 169.09751458 -0.33383717 174.45653915 -0.32355309 C176.42254378 -0.32305707 178.38856393 -0.32939691 180.3545208 -0.34310913 C183.04109037 -0.36079754 185.72651555 -0.353737 188.41308594 -0.34057617 C189.57692134 -0.35703004 189.57692134 -0.35703004 190.76426858 -0.37381631 C196.26764922 -0.30884119 199.46221245 1.05088504 204.02400208 4.14717102 C209.14600823 9.79323942 208.59061507 17.55863937 208.52009583 24.71357727 C208.52155106 25.90643845 208.52300629 27.09929962 208.52450562 28.32830811 C208.52285148 30.84046379 208.51134502 33.35263012 208.49055481 35.86470032 C208.46156886 39.70083301 208.46996407 43.5355849 208.48298645 47.3717804 C208.47674931 49.81905271 208.46835856 52.26632068 208.45759583 54.71357727 C208.46053146 55.8554097 208.4634671 56.99724213 208.4664917 58.17367554 C208.38098834 65.41878657 208.04456484 71.04270373 202.77400208 76.45967102 C197.09665589 79.94349709 191.28050099 80.44115321 184.75717163 80.40786743 C183.54997724 80.41360575 183.54997724 80.41360575 182.31839508 80.41946 C179.63629359 80.429734 176.95440843 80.42580856 174.27229309 80.42182922 C172.3433767 80.42617877 170.41446203 80.43136273 168.48554993 80.43731689 C163.2562357 80.45069134 158.02699382 80.45128733 152.79766583 80.4487536 C148.4288557 80.44768292 144.06006014 80.45256967 139.69125313 80.45735902 C129.38345715 80.46844863 119.07569761 80.46889454 108.76789856 80.46284485 C98.14045147 80.45680341 87.51313672 80.46912169 76.88571221 80.49041492 C67.75430285 80.50803675 58.62293559 80.51403139 49.49150985 80.51077718 C44.04079745 80.50896526 38.59017948 80.51159154 33.1394825 80.52549171 C28.01354996 80.53807501 22.88782363 80.53612111 17.76189423 80.52308083 C15.88339353 80.52071668 14.0048783 80.52344393 12.12639427 80.53170395 C9.5566301 80.54218675 6.98755595 80.53405867 4.41781616 80.52139282 C3.67937692 80.52876711 2.94093767 80.53614139 2.18012148 80.54373914 C-3.41520697 80.48595662 -9.29597753 79.62792766 -13.54452795 75.69526368 C-17.1007157 71.51141014 -18.1006843 69.07067433 -18.13713074 63.69111633 C-18.14673828 62.54942993 -18.15634583 61.40774353 -18.16624451 60.23146057 C-18.17049438 58.99192627 -18.17474426 57.75239197 -18.17912292 56.47529602 C-18.184823 55.20498535 -18.19052307 53.93467468 -18.19639587 52.62586975 C-18.20585791 49.93241289 -18.21274822 47.23906776 -18.2162323 44.54560852 C-18.22170418 41.10460401 -18.24570311 37.66399779 -18.27420425 34.22311783 C-18.29738687 30.93220758 -18.2992847 27.64127648 -18.30412292 24.35029602 C-18.31646973 23.11885864 -18.32881653 21.88742126 -18.34153748 20.6186676 C-18.31358716 9.86829933 -18.31358716 9.86829933 -14.97599792 5.14717102 C-9.88000837 0.54835118 -6.68593438 -0.00156616 0 0 Z M-7.44844341 11.02072525 C-9.37020491 13.69593034 -9.47712841 15.23338024 -9.47770691 18.51069641 C-9.48708786 19.58183182 -9.49646881 20.65296722 -9.50613403 21.75656128 C-9.49490005 22.90768906 -9.48366608 24.05881683 -9.47209167 25.24482727 C-9.47354691 26.43063889 -9.47500214 27.6164505 -9.47650146 28.8381958 C-9.47484193 31.3439632 -9.46327471 33.84974073 -9.44255066 36.35542297 C-9.41358173 40.19855346 -9.42194452 44.04030635 -9.4349823 47.88349915 C-9.42874553 50.31644858 -9.42035508 52.74939365 -9.40959167 55.18232727 C-9.41252731 56.33547928 -9.41546295 57.48863129 -9.41848755 58.67672729 C-9.40580338 59.74471054 -9.3931192 60.81269379 -9.38005066 61.91304016 C-9.37464767 62.85361771 -9.36924469 63.79419525 -9.36367798 64.76327515 C-8.90306439 67.59564895 -8.25460434 68.4537312 -5.97599792 70.14717102 C-2.33550168 71.36066977 1.00202006 71.29198878 4.79203796 71.28761292 C5.99115553 71.2920696 5.99115553 71.2920696 7.21449769 71.29661632 C9.90214898 71.3053111 12.58975578 71.30681222 15.27742004 71.30830383 C17.20076086 71.31293141 19.12410075 71.31795599 21.04743958 71.323349 C26.27883542 71.33647974 31.51021842 71.34291913 36.74162817 71.34735966 C40.00829206 71.35028894 43.27495242 71.35439344 46.54161453 71.35886383 C56.75741144 71.37253975 66.97320031 71.38220628 77.18900573 71.38606572 C88.99092192 71.39054863 100.79272242 71.40810695 112.59460342 71.43706632 C121.71144184 71.45866255 130.82824766 71.46876888 139.94511139 71.47010684 C145.3930017 71.47115623 150.84078327 71.4770926 156.2886467 71.49492645 C161.41204275 71.51137182 166.5352479 71.51357985 171.65866089 71.50478745 C173.54003535 71.50401521 175.42141993 71.50838429 177.30276871 71.5182457 C179.86940771 71.53091122 182.43536505 71.52511801 185.0019989 71.5146637 C185.7480142 71.5227201 186.4940295 71.53077651 187.26265132 71.53907704 C191.68264632 71.49691587 194.51096286 70.87771902 198.02400208 68.14717102 C199.26597119 65.66323279 199.15759135 63.9888509 199.16926575 61.2101593 C199.1756456 60.18214203 199.18202545 59.15412476 199.18859863 58.09495544 C199.18971146 56.98038971 199.19082428 55.86582397 199.19197083 54.71748352 C199.19529922 53.57560577 199.19862762 52.43372803 199.20205688 51.25724792 C199.20712716 48.83790999 199.20946518 46.41856504 199.20930481 43.9992218 C199.2114889 40.29451475 199.22963723 36.5901065 199.24861145 32.88545227 C199.25154579 30.53779704 199.25353032 28.19014039 199.25447083 25.84248352 C199.2652491 24.17670761 199.2652491 24.17670761 199.27624512 22.47727966 C199.27316849 21.44295807 199.27009186 20.40863647 199.266922 19.3429718 C199.26834702 18.43411224 199.26977203 17.52525269 199.27124023 16.58885193 C199.00590456 13.96844307 198.43646372 12.35881646 197.02400208 10.14717102 C193.91763555 8.59398776 190.62753412 8.99918318 187.21763611 9 C185.99424052 8.99448497 185.99424052 8.99448497 184.74612987 8.98885852 C181.9977646 8.97779571 179.24943709 8.97397348 176.50105286 8.97016907 C174.5368284 8.96390647 172.57260513 8.95725986 170.60838318 8.95025635 C165.26130025 8.93282987 159.91422628 8.92229052 154.56712198 8.91405082 C151.22927983 8.90890513 147.89144049 8.90282927 144.55360031 8.89653969 C134.11835652 8.87748473 123.68311983 8.86325312 113.24786198 8.85492772 C101.18667115 8.84514716 89.12566344 8.8188075 77.06453717 8.77842683 C67.75155863 8.74831254 58.43863272 8.73346338 49.12560642 8.73014671 C43.55864719 8.72779124 37.99188352 8.71876619 32.42497635 8.69368553 C27.18993335 8.67048114 21.95521575 8.66614073 16.72013474 8.67644691 C14.7964088 8.67694422 12.87266726 8.67056684 10.94898987 8.65689087 C8.32704379 8.63929031 5.70628062 8.64621905 3.08433533 8.65942383 C1.93657425 8.64296996 1.93657425 8.64296996 0.76562607 8.62618369 C-2.72582302 8.66877585 -4.62819055 8.88361173 -7.44844341 11.02072525 Z " fill="#6262ff " transform="translate(275.9759979248047,103.85282897949219)"/>
<path d="M0 0 C2.09807076 0.01610709 4.19422348 0.00008114 6.29223633 -0.01904297 C7.64575614 -0.01706073 8.99927477 -0.01321744 10.3527832 -0.00732422 C11.56393799 -0.00394043 12.77509277 -0.00055664 14.02294922 0.00292969 C18.8428652 0.53546158 23.00146119 1.7538698 26.41137695 5.39111328 C28.24660914 8.65374828 28.6642748 11.2853155 28.68354797 14.95672607 C28.69070328 15.8931192 28.69785858 16.82951233 28.70523071 17.79428101 C28.70791962 18.81978058 28.71060852 19.84528015 28.71337891 20.90185547 C28.7232357 22.52424637 28.7232357 22.52424637 28.73329163 24.17941284 C28.75303313 27.76560533 28.76468903 31.35175594 28.7746582 34.93798828 C28.77873373 36.16214699 28.78280926 37.38630569 28.78700829 38.64756012 C28.80572081 44.45838688 28.8202858 50.26919716 28.82862025 56.08004832 C28.83741598 62.11223922 28.85670414 68.14417843 28.89306641 74.17626953 C28.93147416 80.65068657 28.95030499 87.12487652 28.95482445 93.59940338 C28.95969667 96.06654352 28.97132861 98.53367997 28.98986244 101.00075531 C29.01419999 104.455036 29.0132982 107.90845285 29.00634766 111.36279297 C29.01915771 112.38019562 29.03196777 113.39759827 29.04516602 114.4458313 C28.99978442 120.63938226 28.16784791 124.32485545 24.53637695 129.39111328 C21.01806573 132.2854014 16.40532306 131.73266757 12.04418945 131.76220703 C11.22062958 131.7712355 10.3970697 131.78026398 9.54855347 131.78956604 C7.80869167 131.80405202 6.06877559 131.81295117 4.32885742 131.81665039 C1.67703776 131.82854305 -0.97245073 131.87773758 -3.6237793 131.92822266 C-5.31777841 131.93768819 -7.01179175 131.9449226 -8.70581055 131.94970703 C-9.49349823 131.96923935 -10.28118591 131.98877167 -11.09274292 132.00889587 C-15.09782744 131.97632829 -17.68897788 131.62850569 -20.88598633 129.10620117 C-24.43339424 125.36962953 -25.70985133 122.8478768 -25.73104858 117.70524597 C-25.73957855 116.76747818 -25.74810852 115.82971039 -25.75689697 114.86352539 C-25.7559906 113.84162109 -25.75508423 112.8197168 -25.75415039 111.7668457 C-25.76086761 110.68510574 -25.76758484 109.60336578 -25.77450562 108.48884583 C-25.79352394 104.90804466 -25.79741188 101.32743058 -25.79956055 97.74658203 C-25.80598616 95.2579999 -25.81271434 92.76941854 -25.81973267 90.28083801 C-25.83171529 85.06131234 -25.83541251 79.84185291 -25.83422852 74.62231445 C-25.8331606 69.26509725 -25.8472357 63.90816848 -25.87524414 58.55102539 C-25.90858422 52.08191999 -25.92233977 45.61307379 -25.92100906 39.14388466 C-25.92336824 36.67954354 -25.93220947 34.21519972 -25.9476738 31.75090599 C-25.9672917 28.30149033 -25.96151115 24.85299526 -25.94946289 21.40356445 C-25.9607019 20.38773285 -25.97194092 19.37190125 -25.98352051 18.32528687 C-25.92881207 12.15449727 -25.1738011 8.39271739 -21.46362305 3.39111328 C-14.80774451 -0.49611018 -7.52041729 -0.06876012 0 0 Z M-15.12982273 10.63783264 C-16.81668811 12.85521734 -16.84278469 14.06312457 -16.8513031 16.83178711 C-16.86120773 17.74030426 -16.87111237 18.64882141 -16.88131714 19.58486938 C-16.87681549 20.57925018 -16.87231384 21.57363098 -16.86767578 22.59814453 C-16.87453903 23.64714935 -16.88140228 24.69615417 -16.88847351 25.77694702 C-16.90681054 29.2526392 -16.90289439 32.72788301 -16.8972168 36.20361328 C-16.90177498 38.6135269 -16.90707945 41.02343921 -16.9131012 43.43334961 C-16.92204567 48.48735836 -16.91959354 53.54120921 -16.90966797 58.59521484 C-16.89817149 65.0822821 -16.91839401 71.5688056 -16.94758511 78.05580139 C-16.96590113 83.03311646 -16.9656639 88.01030009 -16.95994759 92.98764038 C-16.95979384 95.3799211 -16.96588218 97.77221042 -16.97823906 100.16445923 C-16.99306165 103.50468412 -16.98253596 106.84388977 -16.96533203 110.18408203 C-16.975 111.17846283 -16.98466797 112.17284363 -16.99462891 113.19735718 C-16.9798777 114.5601329 -16.9798777 114.5601329 -16.96482849 115.95043945 C-16.96461921 116.74020676 -16.96440992 117.52997406 -16.9641943 118.34367371 C-16.61757471 120.56142229 -16.61757471 120.56142229 -14.6173563 122.14439392 C-11.68375064 123.8425536 -9.46570478 123.77940794 -6.08862305 123.78955078 C-4.8562793 123.79341797 -3.62393555 123.79728516 -2.35424805 123.80126953 C-0.42838867 123.78386719 -0.42838867 123.78386719 1.53637695 123.76611328 C2.8202832 123.77771484 4.10418945 123.78931641 5.42700195 123.80126953 C7.27551758 123.79546875 7.27551758 123.79546875 9.16137695 123.78955078 C10.85133789 123.7844751 10.85133789 123.7844751 12.57543945 123.77929688 C15.92277965 123.34045528 17.11532021 122.69023497 19.53637695 120.39111328 C20.13158396 118.3075037 20.13158396 118.3075037 20.0375824 115.95043945 C20.04741653 115.0419223 20.05725067 114.13340515 20.06738281 113.19735718 C20.05771484 112.20297638 20.04804688 111.20859558 20.03808594 110.18408203 C20.04348892 109.13507721 20.04889191 108.08607239 20.05445862 107.00527954 C20.06699051 103.52943923 20.05042457 100.05442 20.0324707 96.57861328 C20.03262559 94.16870073 20.03411279 91.75878792 20.03688049 89.34887695 C20.03826649 84.29481006 20.02567245 79.24102625 20.00292969 74.18701172 C19.97454483 67.70000427 19.97727988 61.21346744 19.9900198 54.72642517 C19.99696598 49.74910443 19.98919978 44.77189297 19.97676277 39.79458618 C19.97223797 37.40231749 19.97192041 35.01003711 19.97582817 32.61776733 C19.97872993 29.27764734 19.96228232 25.93818194 19.94042969 22.59814453 C19.94493134 21.60376373 19.94943298 20.60938293 19.95407104 19.58486938 C19.94416641 18.67635223 19.93426178 17.76783508 19.92405701 16.83178711 C19.92162711 16.04201981 19.91919722 15.2522525 19.91669369 14.43855286 C19.43492509 11.84494599 18.63055424 10.95806314 16.53637695 9.39111328 C13.38917624 8.92634532 13.38917624 8.92634532 9.78637695 8.99267578 C9.13185547 8.9898056 8.47733398 8.98693542 7.80297852 8.98397827 C6.42113376 8.98193961 5.03926002 8.98745582 3.6574707 9 C1.54353245 9.01605892 -0.56849418 9.00014727 -2.68237305 8.98095703 C-4.02612726 8.9829395 -5.36988029 8.98678326 -6.71362305 8.99267578 C-7.9356543 8.99605957 -9.15768555 8.99944336 -10.41674805 9.00292969 C-13.39779457 9.12825791 -13.39779457 9.12825791 -15.12982273 10.63783264 Z " fill="#6262ff " transform="translate(446.463623046875,290.60888671875)"/>
<path d="M0 0 C0.73619064 -0.00570007 1.47238129 -0.01140015 2.23088074 -0.01727295 C3.78842741 -0.02671256 5.34599395 -0.03325281 6.90356445 -0.03710938 C9.27395961 -0.04679731 11.64348078 -0.07782175 14.01367188 -0.109375 C15.52994279 -0.11590741 17.04621988 -0.12115695 18.5625 -0.125 C19.26582962 -0.1373468 19.96915924 -0.1496936 20.69380188 -0.16241455 C25.38226581 -0.14143157 28.58170043 0.57884107 32.48046875 3.203125 C36.44329331 7.72451282 37.07566163 11.62764207 37.01171875 17.453125 C37.01554565 18.22946289 37.01937256 19.00580078 37.02331543 19.80566406 C37.02602529 21.4394664 37.01872906 23.0733128 37.00195312 24.70703125 C36.98052746 27.19630396 37.00178341 29.68269118 37.02734375 32.171875 C37.02470031 33.76563132 37.01957498 35.35938585 37.01171875 36.953125 C37.01981567 37.69079102 37.0279126 38.42845703 37.03625488 39.18847656 C36.94368478 44.33454643 35.81200026 47.29778215 32.48046875 51.203125 C28.39697177 54.57110894 24.42715658 54.65687002 19.328125 54.63671875 C18.16149574 54.64458153 18.16149574 54.64458153 16.97129822 54.65260315 C15.3315449 54.65900687 13.69174555 54.65770774 12.05200195 54.64916992 C9.55401132 54.64066261 7.05831173 54.66943626 4.56054688 54.70117188 C2.96224026 54.70278427 1.36392963 54.70220562 -0.234375 54.69921875 C-1.34557961 54.71606972 -1.34557961 54.71606972 -2.47923279 54.73326111 C-7.64289956 54.66446933 -10.64112068 53.60839431 -14.51953125 50.203125 C-17.52856855 45.71140819 -17.96415062 41.66776509 -17.91796875 36.390625 C-17.92083893 35.6586792 -17.92370911 34.9267334 -17.92666626 34.17260742 C-17.92869772 32.63296734 -17.92323237 31.0933009 -17.91064453 29.55371094 C-17.89457628 27.20969416 -17.91052302 24.86740126 -17.9296875 22.5234375 C-17.9277049 21.02082956 -17.92386088 19.51822269 -17.91796875 18.015625 C-17.92404144 17.32170654 -17.93011414 16.62778809 -17.93637085 15.9128418 C-17.87022658 11.29020992 -16.92064493 8.14221171 -14.51953125 4.203125 C-10.06981092 0.17056595 -5.7646314 0.03453468 0 0 Z M-7.41870117 10.30395508 C-9.09003135 13.18736103 -8.89088971 15.64190611 -8.8828125 18.953125 C-8.883311 19.60764648 -8.88380951 20.26216797 -8.88432312 20.93652344 C-8.88198582 22.31839031 -8.8722774 23.70026169 -8.85571289 25.08203125 C-8.83211415 27.19570024 -8.83515445 29.30810768 -8.84179688 31.421875 C-9.12774849 38.67714757 -9.12774849 38.67714757 -6.51953125 45.203125 C-3.25181042 45.65515111 -3.25181042 45.65515111 0.60546875 45.56640625 C1.30816895 45.56690475 2.01086914 45.56740326 2.73486328 45.56791687 C4.2210574 45.56557561 5.70725542 45.55584388 7.19335938 45.53930664 C9.4717138 45.51571565 11.74889828 45.51874434 14.02734375 45.52539062 C21.37022728 46.10629067 21.37022728 46.10629067 27.48046875 43.203125 C27.88033997 38.64210502 27.80949267 34.06684261 27.79614258 29.49023438 C27.79298072 27.2117541 27.81644392 24.93456979 27.84179688 22.65625 C27.84406963 21.21354331 27.84477348 19.77083312 27.84375 18.328125 C27.84673096 17.01070312 27.84971191 15.69328125 27.8527832 14.3359375 C27.72991943 13.30210937 27.60705566 12.26828125 27.48046875 11.203125 C22.69359607 8.01187655 17.19875634 8.86986222 11.6015625 8.88745117 C9.48775825 8.89061409 7.37535029 8.86713487 5.26171875 8.84179688 C3.91797051 8.83952405 2.57421852 8.83882031 1.23046875 8.83984375 C-0.60257812 8.83537231 -0.60257812 8.83537231 -2.47265625 8.83081055 C-5.44007728 8.99094738 -5.44007728 8.99094738 -7.41870117 10.30395508 Z " fill="#6262ff " transform="translate(438.51953125,213.796875)"/>
<path d="M0 0 C0.7319458 -0.00287018 1.4638916 -0.00574036 2.21801758 -0.00869751 C3.75765766 -0.01072897 5.2973241 -0.00526362 6.83691406 0.00732422 C9.18093084 0.02339247 11.52322374 0.00744573 13.8671875 -0.01171875 C15.36979544 -0.00973615 16.87240231 -0.00589213 18.375 0 C19.06891846 -0.00607269 19.76283691 -0.01214539 20.4777832 -0.0184021 C25.10041508 0.04774217 28.24841329 0.99732382 32.1875 3.3984375 C36.22005905 7.84815783 36.35609032 12.15333735 36.390625 17.91796875 C36.39632507 18.65415939 36.40202515 19.39035004 36.40789795 20.14884949 C36.41733756 21.70639616 36.42387781 23.2639627 36.42773438 24.8215332 C36.43742231 27.19192836 36.46844675 29.56144953 36.5 31.93164062 C36.50653241 33.44791154 36.51178195 34.96418863 36.515625 36.48046875 C36.5279718 37.18379837 36.5403186 37.88712799 36.55303955 38.61177063 C36.53205657 43.30023456 35.81178393 46.49966918 33.1875 50.3984375 C28.66611218 54.36126206 24.76298293 54.99363038 18.9375 54.9296875 C18.16116211 54.9335144 17.38482422 54.93734131 16.58496094 54.94128418 C14.9511586 54.94399404 13.3173122 54.93669781 11.68359375 54.91992188 C9.19432104 54.89849621 6.70793382 54.91975216 4.21875 54.9453125 C2.62499368 54.94266906 1.03123915 54.93754373 -0.5625 54.9296875 C-1.30016602 54.93778442 -2.03783203 54.94588135 -2.79785156 54.95422363 C-7.94392143 54.86165353 -10.90715715 53.72996901 -14.8125 50.3984375 C-18.18048394 46.31494052 -18.26624502 42.34512533 -18.24609375 37.24609375 C-18.2513356 36.46834091 -18.25657745 35.69058807 -18.26197815 34.88926697 C-18.26838187 33.24951365 -18.26708274 31.6097143 -18.25854492 29.9699707 C-18.25003761 27.47198007 -18.27881126 24.97628048 -18.31054688 22.47851562 C-18.31215927 20.88020901 -18.31158062 19.28189838 -18.30859375 17.68359375 C-18.31982773 16.94279068 -18.33106171 16.20198761 -18.34263611 15.43873596 C-18.27384433 10.27506919 -17.21776931 7.27684807 -13.8125 3.3984375 C-9.32078319 0.3894002 -5.27714009 -0.04618187 0 0 Z M-8.8125 11.3984375 C-9.12516856 14.67044389 -9.12516856 14.67044389 -9.078125 18.5234375 C-9.08003845 19.2261377 -9.0819519 19.92883789 -9.08392334 20.65283203 C-9.08528475 22.13900104 -9.08159132 23.62518195 -9.07324219 25.11132812 C-9.06254154 27.38959396 -9.07313839 29.66707127 -9.0859375 31.9453125 C-9.0846159 33.38802258 -9.08205349 34.83073216 -9.078125 36.2734375 C-9.07586914 37.59085938 -9.07361328 38.90828125 -9.07128906 40.265625 C-9.14415439 43.4977788 -9.14415439 43.4977788 -6.8125 45.3984375 C-2.41248663 45.79792221 2.00208162 45.72745311 6.41821289 45.71411133 C8.61329921 45.71095433 10.80703385 45.73439511 13.00195312 45.75976562 C14.39583163 45.76203893 15.78971377 45.76274197 17.18359375 45.76171875 C18.45388428 45.76469971 19.7241748 45.76768066 21.03295898 45.77075195 C24.09394833 45.61938766 24.09394833 45.61938766 26.1003418 44.29760742 C27.75044967 41.41501386 27.57679614 38.94977257 27.5859375 35.6484375 C27.59024277 34.66665527 27.59024277 34.66665527 27.59463501 33.66503906 C27.59667368 32.28319431 27.59115746 30.90132057 27.57861328 29.51953125 C27.56255436 27.405593 27.57846601 25.29356637 27.59765625 23.1796875 C27.59567378 21.83593328 27.59183002 20.49218026 27.5859375 19.1484375 C27.58255371 17.92640625 27.57916992 16.704375 27.57568359 15.4453125 C27.39572607 12.48091661 27.39572607 12.48091661 26.1003418 10.49926758 C23.14584306 8.79896958 20.56719535 9.02721604 17.18359375 9.03515625 C16.50450455 9.03465775 15.82541534 9.03415924 15.12574768 9.03364563 C13.6926073 9.03598297 12.25946257 9.04569164 10.82641602 9.06225586 C8.62934831 9.08589072 6.433491 9.08280983 4.23632812 9.07617188 C-2.89172369 8.52609223 -2.89172369 8.52609223 -8.8125 11.3984375 Z " fill="#6262ff " transform="translate(361.8125,213.6015625)"/>
<path d="M0 0 C0.66157104 -0.00287018 1.32314209 -0.00574036 2.00476074 -0.00869751 C3.39299382 -0.01072422 4.78125637 -0.00529263 6.16943359 0.00732422 C8.27637488 0.0234003 10.38139856 0.00743027 12.48828125 -0.01171875 C13.84635834 -0.00973607 15.20443425 -0.00589187 16.5625 0 C17.78001953 0.00338379 18.99753906 0.00676758 20.25195312 0.01025391 C26.15994136 0.66006722 30.94653046 2.67878269 34.78125 7.3984375 C35.96710363 10.95599838 35.96218271 14.21356554 35.984375 17.91796875 C35.99007507 18.65415939 35.99577515 19.39035004 36.00164795 20.14884949 C36.01108756 21.70639616 36.01762781 23.2639627 36.02148438 24.8215332 C36.03117231 27.19192836 36.06219675 29.56144953 36.09375 31.93164062 C36.10028241 33.44791154 36.10553195 34.96418863 36.109375 36.48046875 C36.1217218 37.18379837 36.1340686 37.88712799 36.14678955 38.61177063 C36.12233446 44.07604698 34.76545884 48.00085182 31.28125 52.2109375 C26.25817088 56.1875418 17.27866567 54.74578106 11.13134766 54.8034668 C9.40490695 54.82502704 7.67857498 54.85910714 5.95263672 54.90600586 C3.45230753 54.97326534 0.95423315 55.00050469 -1.546875 55.01953125 C-2.31066467 55.04736191 -3.07445435 55.07519257 -3.86138916 55.10386658 C-9.23040524 55.08347613 -11.9643386 53.60796452 -15.89471436 49.98207092 C-18.93245779 46.34873065 -18.4131105 41.91943672 -18.45703125 37.44140625 C-18.465103 36.66082352 -18.47317474 35.88024078 -18.48149109 35.07600403 C-18.4953132 33.42430836 -18.50604373 31.77258435 -18.51391602 30.12084961 C-18.52543586 28.43619386 -18.54588795 26.75157461 -18.57543945 25.06713867 C-18.61821131 22.62914297 -18.63429771 20.19223104 -18.64453125 17.75390625 C-18.66203934 17.00682907 -18.67954742 16.25975189 -18.69758606 15.49003601 C-18.67617517 10.28939994 -17.71308591 7.2614922 -14.21875 3.3984375 C-9.40903905 0.70098416 -5.46849234 0.0151983 0 0 Z M-8.10205078 10.4855957 C-9.8252796 13.43738797 -9.58999111 16.01036733 -9.58203125 19.40234375 C-9.58252975 20.08143295 -9.58302826 20.76052216 -9.58354187 21.46018982 C-9.58120453 22.8933302 -9.57149586 24.32647493 -9.55493164 25.75952148 C-9.53129678 27.95658919 -9.53437767 30.1524465 -9.54101562 32.34960938 C-10.09109527 39.47766119 -10.09109527 39.47766119 -7.21875 45.3984375 C-2.65773002 45.79830872 1.91753239 45.72746142 6.49414062 45.71411133 C8.7726209 45.71094947 11.04980521 45.73441267 13.328125 45.75976562 C14.77083169 45.76203838 16.21354188 45.76274223 17.65625 45.76171875 C18.97367187 45.76469971 20.29109375 45.76768066 21.6484375 45.77075195 C23.19917969 45.5864563 23.19917969 45.5864563 24.78125 45.3984375 C27.97279272 40.61112342 27.15315874 35.11840327 27.15185547 29.51953125 C27.1562355 27.40543461 27.19258303 25.29341571 27.23046875 23.1796875 C27.23633601 21.83594463 27.24030601 20.49219186 27.2421875 19.1484375 C27.25451416 17.31539063 27.25451416 17.31539063 27.26708984 15.4453125 C27.04916266 12.38004781 27.04916266 12.38004781 25.16674805 10.50146484 C22.03605555 9.05386801 19.60005334 9.00992963 16.15234375 9 C14.87037109 8.99613281 13.58839844 8.99226563 12.26757812 8.98828125 C11.2709314 8.99770752 11.2709314 8.99770752 10.25415039 9.00732422 C8.22148777 9.02341583 6.19080499 9.00744515 4.15820312 8.98828125 C2.87751953 8.99214844 1.59683594 8.99601562 0.27734375 9 C-0.89642822 9.00338379 -2.0702002 9.00676758 -3.27954102 9.01025391 C-6.15011893 9.19885881 -6.15011893 9.19885881 -8.10205078 10.4855957 Z " fill="#6262ff " transform="translate(362.21875,290.6015625)"/>
<path d="M0 0 C2.13329342 -0.00968688 4.26561475 -0.04072669 6.39868164 -0.07226562 C7.77042076 -0.07879872 9.14216672 -0.08404799 10.51391602 -0.08789062 C11.75052979 -0.09723633 12.98714355 -0.10658203 14.26123047 -0.11621094 C19.49791181 0.40563431 23.41496184 1.81706144 27.21313477 5.61523438 C31.21445158 12.07889999 30.02202615 20.28253215 30.02563477 27.61523438 C30.03788086 28.9171875 30.05012695 30.21914063 30.06274414 31.56054688 C30.06467773 32.82382812 30.06661133 34.08710938 30.06860352 35.38867188 C30.0727124 36.53513184 30.07682129 37.6815918 30.08105469 38.86279297 C29.71240754 43.98828503 29.13210284 48.01096471 25.33813477 51.61523438 C21.05691976 54.39802413 17.76253144 54.43115084 12.76000977 54.47851562 C11.95581604 54.48658737 11.15162231 54.49465912 10.32305908 54.50297546 C8.61830807 54.51681735 6.91352932 54.52753904 5.20874023 54.53540039 C2.61200733 54.55257647 0.01656001 54.59645521 -2.57983398 54.640625 C-4.23737672 54.65075543 -5.89493027 54.65927044 -7.55249023 54.66601562 C-8.32457825 54.68352371 -9.09666626 54.7010318 -9.89215088 54.71907043 C-15.08296939 54.69837697 -18.08984973 53.74003102 -22.16186523 50.24023438 C-24.9632812 46.66521407 -24.46777551 42.28176423 -24.46264648 37.93164062 C-24.46693161 37.12790512 -24.47121674 36.32416962 -24.47563171 35.49607849 C-24.48136516 33.79907166 -24.48188254 32.10204026 -24.47753906 30.4050293 C-24.47438039 27.81516394 -24.49784492 25.22644287 -24.52319336 22.63671875 C-24.52546666 20.98502748 -24.5261697 19.33333314 -24.52514648 17.68164062 C-24.53435623 16.91066544 -24.54356598 16.13969025 -24.55305481 15.34535217 C-24.51400411 10.78450195 -23.95614924 7.87958977 -21.16186523 4.24023438 C-15.19662096 -1.1477282 -7.56682446 0.02079036 0 0 Z M-15.16186523 11.24023438 C-15.61389135 14.50795521 -15.61389135 14.50795521 -15.52514648 18.36523438 C-15.52564499 19.06793457 -15.52614349 19.77063477 -15.5266571 20.49462891 C-15.52431585 21.98082303 -15.51458412 23.46702105 -15.49804688 24.953125 C-15.47445589 27.23147942 -15.47748457 29.50866391 -15.48413086 31.78710938 C-16.06503091 39.1299929 -16.06503091 39.1299929 -13.16186523 45.24023438 C-10.72441626 45.41511692 -8.40250443 45.47200843 -5.96655273 45.43554688 C-4.90538742 45.43130203 -4.90538742 45.43130203 -3.82278442 45.42697144 C-1.56064014 45.41576575 0.70110991 45.39066117 2.96313477 45.36523438 C4.49568114 45.35520504 6.0282337 45.34607911 7.56079102 45.33789062 C11.32005777 45.31582524 15.0790294 45.28129333 18.83813477 45.24023438 C22.15225431 39.81863232 21.20696581 33.38451579 21.21313477 27.24023438 C21.24987305 25.314375 21.24987305 25.314375 21.28735352 23.34960938 C21.2912207 22.11726563 21.29508789 20.88492187 21.29907227 19.61523438 C21.31139893 17.92527344 21.31139893 17.92527344 21.32397461 16.20117188 C21.04233618 13.18192766 21.04233618 13.18192766 19.22363281 10.87060547 C16.0637792 8.71100027 14.01945324 8.75264647 10.20922852 8.77929688 C8.28626953 8.78509766 8.28626953 8.78509766 6.32446289 8.79101562 C5.66003174 8.80342285 4.99560059 8.81583008 4.31103516 8.82861328 C2.2785437 8.86518204 0.24787442 8.86963205 -1.78491211 8.86914062 C-8.86597754 8.62775396 -8.86597754 8.62775396 -15.16186523 11.24023438 Z " fill="#6262ff " transform="translate(291.161865234375,290.759765625)"/>
<path d="M0 0 C1.13901512 -0.00642769 1.13901512 -0.00642769 2.30104065 -0.01298523 C3.90389002 -0.01871708 5.50676541 -0.01923723 7.10961914 -0.01489258 C9.55465317 -0.01173393 11.99847494 -0.03519981 14.44335938 -0.06054688 C16.00390473 -0.06282022 17.56445332 -0.0635232 19.125 -0.0625 C19.85222763 -0.07170975 20.57945526 -0.08091949 21.32872009 -0.09040833 C25.78881514 -0.04999595 28.56926616 0.59054997 32.12890625 3.30078125 C38.20816127 9.88664086 37.34456931 16.36412895 37.36914062 24.98046875 C37.37880995 27.03036652 37.40984265 29.07924495 37.44140625 31.12890625 C37.49415807 44.52786958 37.49415807 44.52786958 34.12890625 50.30078125 C29.0596679 53.84622359 25.17513065 54.89461856 18.96484375 54.796875 C17.83219589 54.79905785 17.83219589 54.79905785 16.67666626 54.80128479 C15.0916963 54.79963508 13.50670875 54.78817856 11.921875 54.76733398 C9.50321257 54.73827292 7.08673244 54.74676416 4.66796875 54.75976562 C3.12108316 54.75353004 1.57420444 54.7451405 0.02734375 54.734375 C-1.04938095 54.73877846 -1.04938095 54.73877846 -2.14785767 54.74327087 C-8.02400227 54.6332989 -10.95323209 53.11212931 -15.14819336 49.15014648 C-17.43692254 45.3650029 -17.46460122 42.00886053 -17.4375 37.7109375 C-17.44369858 36.88879257 -17.44989716 36.06664764 -17.45628357 35.21958923 C-17.46336806 33.48567892 -17.46023164 31.75170038 -17.44750977 30.01782227 C-17.43365272 27.37453099 -17.46771919 24.73478893 -17.50585938 22.09179688 C-17.50681077 20.40234289 -17.50495063 18.7128845 -17.5 17.0234375 C-17.51325821 16.23888687 -17.52651642 15.45433624 -17.54017639 14.64601135 C-17.47298057 10.65602652 -17.09312529 8.06393645 -14.58178711 4.88061523 C-9.81493313 0.34388228 -6.46851605 -0.00808425 0 0 Z M-7.87109375 11.30078125 C-8.18376231 14.57278764 -8.18376231 14.57278764 -8.13671875 18.42578125 C-8.1386322 19.12848145 -8.14054565 19.83118164 -8.14251709 20.55517578 C-8.1438785 22.04134479 -8.14018507 23.5275257 -8.13183594 25.01367188 C-8.12113529 27.29193771 -8.13173214 29.56941502 -8.14453125 31.84765625 C-8.14320965 33.29036633 -8.14064724 34.73307591 -8.13671875 36.17578125 C-8.13446289 37.49320313 -8.13220703 38.810625 -8.12988281 40.16796875 C-8.20274814 43.40012255 -8.20274814 43.40012255 -5.87109375 45.30078125 C-1.47174618 45.72328336 2.94229669 45.67237527 7.35961914 45.67138672 C9.55498904 45.67575851 11.74834566 45.71206575 13.94335938 45.75 C15.3372327 45.75586852 16.73111559 45.75983768 18.125 45.76171875 C19.39529053 45.76993652 20.66558105 45.7781543 21.97436523 45.78662109 C25.13806902 45.58208507 25.13806902 45.58208507 27.04174805 43.67041016 C28.44157813 40.61926469 28.5172634 38.28205625 28.52734375 34.92578125 C28.53121094 33.6934375 28.53507812 32.46109375 28.5390625 31.19140625 C28.52746094 29.9075 28.51585937 28.62359375 28.50390625 27.30078125 C28.51550781 26.016875 28.52710938 24.73296875 28.5390625 23.41015625 C28.53326172 21.56164062 28.53326172 21.56164062 28.52734375 19.67578125 C28.52395996 18.54914063 28.52057617 17.4225 28.51708984 16.26171875 C28.07575955 12.89539559 27.71913257 11.50850701 25.12890625 9.30078125 C21.87221188 8.71384091 21.87221188 8.71384091 18.125 8.83984375 C17.4459108 8.84076019 16.76682159 8.84167664 16.06715393 8.84262085 C14.63397212 8.84865487 13.2008028 8.86439537 11.76782227 8.88916016 C9.5706556 8.92571056 7.37517353 8.93017926 5.17773438 8.9296875 C-1.95111741 8.41112456 -1.95111741 8.41112456 -7.87109375 11.30078125 Z " fill="#6262ff " transform="translate(283.87109375,213.69921875)"/>
<path d="M0 0 C0.82214493 -0.00761353 1.64428986 -0.01522705 2.49134827 -0.02307129 C4.22523979 -0.033847 5.95919609 -0.03673569 7.69311523 -0.03222656 C10.33623162 -0.0312542 12.97644297 -0.0729006 15.61914062 -0.1171875 C17.30858773 -0.12239514 18.99804487 -0.12508268 20.6875 -0.125 C21.47205063 -0.14139526 22.25660126 -0.15779053 23.06492615 -0.17468262 C27.01901009 -0.12524085 29.64972643 0.23793915 32.83032227 2.69335938 C37.35530499 7.56134495 37.72552813 11.72389537 37.74609375 18.18359375 C37.75275055 18.9169545 37.75940735 19.65031525 37.76626587 20.40589905 C37.77635583 21.95148219 37.78108402 23.49710857 37.78076172 25.04272461 C37.78513674 27.39575494 37.82149568 29.74691017 37.859375 32.09960938 C37.86524382 33.60676447 37.86921278 35.1139284 37.87109375 36.62109375 C37.88546478 37.31814926 37.89983582 38.01520477 37.91464233 38.73338318 C37.85898862 44.74002216 35.67997628 48.02906414 31.69091797 52.31665039 C28.21138134 54.07429686 24.73092508 53.91648162 20.91796875 53.90234375 C20.09440887 53.9075856 19.270849 53.91282745 18.42233276 53.91822815 C16.68244553 53.92464243 14.9425149 53.92331901 13.20263672 53.91479492 C10.55096442 53.90630064 7.9014587 53.93502666 5.25 53.96679688 C3.55599023 53.96840953 1.86197666 53.96783012 0.16796875 53.96484375 C-1.01356277 53.98169472 -1.01356277 53.98169472 -2.21896362 53.99888611 C-7.43702704 53.93339402 -10.49817955 52.99111559 -14.58984375 49.46875 C-17.33292434 45.93607699 -16.89585175 41.70363673 -16.890625 37.4140625 C-16.89491013 36.63489471 -16.89919525 35.85572693 -16.90361023 35.052948 C-16.90934352 33.40721608 -16.90986116 31.76145883 -16.90551758 30.11572266 C-16.90236326 27.60925592 -16.92580825 25.10397668 -16.95117188 22.59765625 C-16.95344568 20.99479315 -16.95414799 19.39192689 -16.953125 17.7890625 C-16.96233475 17.04512238 -16.97154449 16.30118225 -16.98103333 15.53469849 C-16.93905535 10.76739905 -16.25685809 7.44362364 -13.58984375 3.46875 C-9.48356269 -0.05531457 -5.18493535 0.00132769 0 0 Z M-7.58984375 11.46875 C-8.01234586 15.86809757 -7.96143777 20.28214044 -7.96044922 24.69946289 C-7.96482101 26.89483279 -8.00112825 29.08818941 -8.0390625 31.28320312 C-8.04493102 32.67707645 -8.04890018 34.07095934 -8.05078125 35.46484375 C-8.05899902 36.73513428 -8.0672168 38.0054248 -8.07568359 39.31420898 C-7.87114757 42.47791277 -7.87114757 42.47791277 -5.95947266 44.3815918 C-2.90832719 45.78142188 -0.57111875 45.85710715 2.78515625 45.8671875 C4.0175 45.87105469 5.24984375 45.87492187 6.51953125 45.87890625 C8.44539063 45.86150391 8.44539063 45.86150391 10.41015625 45.84375 C11.6940625 45.85535156 12.97796875 45.86695313 14.30078125 45.87890625 C16.14929688 45.87310547 16.14929688 45.87310547 18.03515625 45.8671875 C19.16179687 45.86380371 20.2884375 45.86041992 21.44921875 45.85693359 C24.81554191 45.4156033 26.20243049 45.05897632 28.41015625 42.46875 C28.99709659 39.21205563 28.99709659 39.21205563 28.87109375 35.46484375 C28.87017731 34.78575455 28.86926086 34.10666534 28.86831665 33.40699768 C28.86228263 31.97381587 28.84654213 30.54064655 28.82177734 29.10766602 C28.78522694 26.91049935 28.78075824 24.71501728 28.78125 22.51757812 C29.29981294 15.38872634 29.29981294 15.38872634 26.41015625 9.46875 C23.13814986 9.15608144 23.13814986 9.15608144 19.28515625 9.203125 C18.23110596 9.20025482 18.23110596 9.20025482 17.15576172 9.19732666 C15.66959271 9.19596525 14.1834118 9.19965868 12.69726562 9.20800781 C10.41899979 9.21870846 8.14152248 9.20811161 5.86328125 9.1953125 C4.42057117 9.1966341 2.97786159 9.19919651 1.53515625 9.203125 C0.21773438 9.20538086 -1.0996875 9.20763672 -2.45703125 9.20996094 C-5.68918505 9.13709561 -5.68918505 9.13709561 -7.58984375 11.46875 Z " fill="#6262ff " transform="translate(360.58984375,368.53125)"/>
<path d="M0 0 C0.8037355 -0.00428513 1.60747101 -0.00857025 2.43556213 -0.01298523 C4.13256897 -0.01871867 5.82960037 -0.01923605 7.52661133 -0.01489258 C10.11647669 -0.01173391 12.70519776 -0.03519844 15.29492188 -0.06054688 C16.94661315 -0.06282018 18.59830748 -0.06352322 20.25 -0.0625 C21.40646278 -0.07631462 21.40646278 -0.07631462 22.58628845 -0.09040833 C27.14822668 -0.05134831 30.0486821 0.5107459 33.69140625 3.30078125 C39.47448413 9.49693613 37.87502309 18.78519923 37.87890625 26.67578125 C37.89115234 27.97773438 37.90339844 29.2796875 37.91601562 30.62109375 C37.91794922 31.884375 37.91988281 33.14765625 37.921875 34.44921875 C37.92598389 35.59567871 37.93009277 36.74213867 37.93432617 37.92333984 C37.53984283 43.40804588 36.83015542 47.01469131 33.12524414 51.19897461 C29.23860166 54.06740206 25.43707141 54.00674639 20.75 53.9296875 C19.48205345 53.93330544 19.48205345 53.93330544 18.18849182 53.93699646 C16.4092233 53.93602081 14.62992337 53.92269461 12.85083008 53.89770508 C10.13322609 53.86333588 7.41886657 53.87707403 4.70117188 53.89648438 C2.96743413 53.88958679 1.23370474 53.87991518 -0.5 53.8671875 C-1.71267296 53.8746273 -1.71267296 53.8746273 -2.94984436 53.88221741 C-6.81581404 53.80177389 -8.8654464 53.57122576 -12.23413086 51.51538086 C-16.50651598 46.95438222 -16.62686548 43.13802313 -16.64453125 37.02734375 C-16.65451645 35.825298 -16.65451645 35.825298 -16.66470337 34.59896851 C-16.67481251 32.90617156 -16.67952093 31.21333491 -16.67919922 29.52050781 C-16.68356733 26.94138313 -16.71988865 24.36397778 -16.7578125 21.78515625 C-16.76368223 20.13672457 -16.76765058 18.48828481 -16.76953125 16.83984375 C-16.78390228 16.07402985 -16.79827332 15.30821594 -16.81307983 14.51919556 C-16.76940033 9.35564925 -15.78217348 6.35316367 -12.30859375 2.30078125 C-8.73357344 -0.50063472 -4.3501236 -0.00512903 0 0 Z M-7.30859375 10.30078125 C-7.39703168 12.74908551 -7.42388127 15.16898724 -7.40625 17.6171875 C-7.40483505 18.34824203 -7.4034201 19.07929657 -7.40196228 19.83250427 C-7.39634783 22.17613757 -7.38379297 24.51967664 -7.37109375 26.86328125 C-7.36608061 28.44856633 -7.36151738 30.03385291 -7.35742188 31.61914062 C-7.34637372 35.51305735 -7.32909947 39.4069033 -7.30859375 43.30078125 C-1.8869917 46.6149008 4.54712484 45.66961229 10.69140625 45.67578125 C11.9753125 45.70027344 13.25921875 45.72476563 14.58203125 45.75 C15.814375 45.75386719 17.04671875 45.75773437 18.31640625 45.76171875 C19.44304687 45.76993652 20.5696875 45.7781543 21.73046875 45.78662109 C24.74971297 45.50498266 24.74971297 45.50498266 27.06103516 43.6862793 C29.22064036 40.52642568 29.17899416 38.48209972 29.15234375 34.671875 C29.14654297 32.74891602 29.14654297 32.74891602 29.140625 30.78710938 C29.12821777 30.12267822 29.11581055 29.45824707 29.10302734 28.77368164 C29.06645859 26.74119019 29.06200857 24.7105209 29.0625 22.67773438 C29.30388666 15.59666895 29.30388666 15.59666895 26.69140625 9.30078125 C24.14919104 9.02114332 21.85356098 8.92836619 19.3125 8.97265625 C18.58523209 8.97452942 17.85796417 8.97640259 17.10865784 8.97833252 C15.57117123 8.98505702 14.03370184 8.99897954 12.49633789 9.01953125 C10.13476791 9.05070388 7.77386473 9.06050248 5.41210938 9.06640625 C3.92056473 9.07557532 2.4290269 9.08595078 0.9375 9.09765625 C0.22710068 9.10190613 -0.48329865 9.10615601 -1.21522522 9.11053467 C-4.54676176 8.87363816 -4.54676176 8.87363816 -7.30859375 10.30078125 Z " fill="#6262ff " transform="translate(283.30859375,368.69921875)"/>
</svg>
